G04*
G04 #@! TF.GenerationSoftware,Altium Limited,Altium Designer,20.1.10 (176)*
G04*
G04 Layer_Physical_Order=1*
G04 Layer_Color=3039647*
%FSLAX25Y25*%
%MOIN*%
G70*
G04*
G04 #@! TF.SameCoordinates,6CBB9ED5-C892-48F8-8F6F-D4B66391D099*
G04*
G04*
G04 #@! TF.FilePolarity,Positive*
G04*
G01*
G75*
%ADD12C,0.01000*%
%ADD13C,0.12598*%
%ADD14C,0.06000*%
%ADD15C,0.07087*%
%ADD16C,0.02756*%
G36*
X204Y228D02*
X-26243D01*
Y15697D01*
X-9500D01*
X-9193Y15758D01*
X-8932Y15932D01*
X-8758Y16193D01*
X-8697Y16500D01*
Y24500D01*
X-8758Y24807D01*
X-8932Y25068D01*
X-9193Y25242D01*
X-9500Y25303D01*
X-99500D01*
X-99807Y25242D01*
X-100068Y25068D01*
X-100242Y24807D01*
X-100303Y24500D01*
Y16500D01*
X-100242Y16193D01*
X-100068Y15932D01*
X-99807Y15758D01*
X-99500Y15697D01*
X-84787D01*
Y228D01*
X-109796D01*
X-109834Y190D01*
X-110296Y382D01*
Y153228D01*
X-103279D01*
X-103254Y152728D01*
X-104015Y152653D01*
X-105351Y152248D01*
X-106582Y151590D01*
X-107661Y150705D01*
X-108547Y149626D01*
X-109205Y148394D01*
X-109610Y147058D01*
X-109747Y145669D01*
X-109610Y144280D01*
X-109205Y142944D01*
X-108547Y141713D01*
X-107661Y140634D01*
X-106582Y139749D01*
X-105351Y139090D01*
X-104015Y138685D01*
X-102626Y138548D01*
X-101237Y138685D01*
X-99901Y139090D01*
X-98670Y139749D01*
X-97591Y140634D01*
X-96705Y141713D01*
X-96047Y142944D01*
X-95642Y144280D01*
X-95505Y145669D01*
X-95642Y147058D01*
X-96047Y148394D01*
X-96705Y149626D01*
X-97591Y150705D01*
X-98670Y151590D01*
X-99901Y152248D01*
X-101237Y152653D01*
X-101998Y152728D01*
X-101973Y153228D01*
X-8790D01*
X-8766Y152728D01*
X-9527Y152653D01*
X-10863Y152248D01*
X-12094Y151590D01*
X-13173Y150705D01*
X-14059Y149626D01*
X-14717Y148394D01*
X-15122Y147058D01*
X-15259Y145669D01*
X-15122Y144280D01*
X-14717Y142944D01*
X-14059Y141713D01*
X-13173Y140634D01*
X-12094Y139749D01*
X-10863Y139090D01*
X-9527Y138685D01*
X-8138Y138548D01*
X-6749Y138685D01*
X-5413Y139090D01*
X-4182Y139749D01*
X-3103Y140634D01*
X-2217Y141713D01*
X-1559Y142944D01*
X-1154Y144280D01*
X-1017Y145669D01*
X-1154Y147058D01*
X-1559Y148394D01*
X-2217Y149626D01*
X-3103Y150705D01*
X-4182Y151590D01*
X-5413Y152248D01*
X-6749Y152653D01*
X-7510Y152728D01*
X-7485Y153228D01*
X204D01*
Y228D01*
D02*
G37*
G36*
X-68909Y16074D02*
X-68853Y16063D01*
X-68843D01*
X-68812Y16058D01*
X-68777Y16048D01*
X-68741Y16038D01*
X-68736Y16033D01*
X-68715Y16028D01*
X-68700Y16012D01*
X-68680Y15992D01*
X-68674Y15987D01*
X-68669Y15977D01*
X-68664Y15956D01*
X-68659Y15936D01*
Y10066D01*
Y10061D01*
Y10045D01*
X-68669Y10025D01*
X-68680Y10005D01*
X-68685Y10000D01*
X-68690Y9989D01*
X-68705Y9979D01*
X-68731Y9964D01*
X-68736D01*
X-68756Y9959D01*
X-68787Y9954D01*
X-68827Y9943D01*
X-68838D01*
X-68868Y9938D01*
X-68919Y9933D01*
X-69032D01*
X-69082Y9938D01*
X-69134Y9943D01*
X-69144D01*
X-69169Y9949D01*
X-69200Y9959D01*
X-69235Y9964D01*
X-69241Y9969D01*
X-69256Y9974D01*
X-69276Y9989D01*
X-69292Y10005D01*
Y10010D01*
X-69297Y10020D01*
X-69302Y10040D01*
X-69307Y10066D01*
Y10591D01*
X-69312Y10586D01*
X-69322Y10576D01*
X-69337Y10560D01*
X-69363Y10535D01*
X-69389Y10509D01*
X-69424Y10474D01*
X-69506Y10397D01*
X-69603Y10316D01*
X-69715Y10229D01*
X-69832Y10142D01*
X-69960Y10066D01*
X-69965D01*
X-69975Y10056D01*
X-69995Y10051D01*
X-70016Y10035D01*
X-70051Y10020D01*
X-70087Y10005D01*
X-70128Y9989D01*
X-70179Y9974D01*
X-70286Y9938D01*
X-70414Y9908D01*
X-70546Y9887D01*
X-70694Y9877D01*
X-70735D01*
X-70766Y9882D01*
X-70806D01*
X-70847Y9887D01*
X-70898Y9892D01*
X-70954Y9898D01*
X-71071Y9918D01*
X-71194Y9949D01*
X-71321Y9989D01*
X-71444Y10045D01*
X-71449D01*
X-71459Y10056D01*
X-71474Y10061D01*
X-71495Y10076D01*
X-71551Y10112D01*
X-71622Y10168D01*
X-71699Y10229D01*
X-71785Y10311D01*
X-71867Y10397D01*
X-71944Y10499D01*
Y10504D01*
X-71954Y10515D01*
X-71959Y10530D01*
X-71974Y10550D01*
X-71990Y10581D01*
X-72010Y10611D01*
X-72025Y10652D01*
X-72051Y10693D01*
X-72092Y10795D01*
X-72137Y10907D01*
X-72183Y11035D01*
X-72219Y11178D01*
Y11183D01*
X-72224Y11198D01*
X-72229Y11218D01*
X-72234Y11244D01*
X-72239Y11280D01*
X-72245Y11326D01*
X-72255Y11371D01*
X-72260Y11428D01*
X-72280Y11550D01*
X-72290Y11693D01*
X-72301Y11846D01*
X-72306Y12004D01*
Y12009D01*
Y12024D01*
Y12055D01*
Y12090D01*
X-72301Y12136D01*
Y12187D01*
X-72295Y12244D01*
X-72290Y12310D01*
X-72280Y12453D01*
X-72260Y12606D01*
X-72234Y12764D01*
X-72199Y12922D01*
Y12927D01*
X-72193Y12942D01*
X-72188Y12963D01*
X-72178Y12993D01*
X-72168Y13029D01*
X-72153Y13070D01*
X-72117Y13167D01*
X-72071Y13274D01*
X-72015Y13391D01*
X-71949Y13513D01*
X-71872Y13626D01*
X-71867Y13631D01*
X-71862Y13641D01*
X-71852Y13651D01*
X-71831Y13671D01*
X-71785Y13728D01*
X-71724Y13789D01*
X-71648Y13865D01*
X-71556Y13937D01*
X-71454Y14008D01*
X-71337Y14074D01*
X-71332D01*
X-71321Y14080D01*
X-71306Y14090D01*
X-71281Y14100D01*
X-71250Y14110D01*
X-71214Y14125D01*
X-71168Y14141D01*
X-71122Y14156D01*
X-71015Y14182D01*
X-70888Y14207D01*
X-70750Y14227D01*
X-70597Y14232D01*
X-70536D01*
X-70505Y14227D01*
X-70470Y14222D01*
X-70388Y14212D01*
X-70291Y14197D01*
X-70184Y14166D01*
X-70072Y14130D01*
X-69965Y14080D01*
X-69960D01*
X-69950Y14074D01*
X-69934Y14064D01*
X-69914Y14049D01*
X-69858Y14013D01*
X-69781Y13967D01*
X-69695Y13901D01*
X-69598Y13825D01*
X-69496Y13733D01*
X-69389Y13631D01*
Y15936D01*
Y15941D01*
Y15956D01*
X-69383Y15972D01*
X-69373Y15992D01*
X-69368Y15997D01*
X-69358Y16007D01*
X-69343Y16023D01*
X-69317Y16038D01*
X-69307Y16043D01*
X-69287Y16048D01*
X-69251Y16053D01*
X-69205Y16063D01*
X-69200D01*
X-69195Y16069D01*
X-69179D01*
X-69159Y16074D01*
X-69103Y16079D01*
X-68965D01*
X-68909Y16074D01*
D02*
G37*
G36*
X-78053Y15650D02*
X-78008Y15640D01*
X-78002D01*
X-77997Y15635D01*
X-77972Y15625D01*
X-77936Y15604D01*
X-77905Y15574D01*
X-77895Y15569D01*
X-77880Y15543D01*
X-77855Y15513D01*
X-77834Y15467D01*
Y15462D01*
X-77829Y15457D01*
X-77819Y15426D01*
X-77809Y15375D01*
X-77803Y15314D01*
Y10071D01*
Y10066D01*
Y10051D01*
X-77814Y10030D01*
X-77824Y10010D01*
X-77829Y10005D01*
X-77839Y9994D01*
X-77860Y9984D01*
X-77890Y9969D01*
X-77895D01*
X-77921Y9964D01*
X-77956Y9959D01*
X-78002Y9949D01*
X-78013D01*
X-78033Y9943D01*
X-78053D01*
X-78079Y9938D01*
X-78110D01*
X-78186Y9933D01*
X-78247D01*
X-78308Y9938D01*
X-78370Y9949D01*
X-78380D01*
X-78410Y9954D01*
X-78451Y9964D01*
X-78487Y9969D01*
X-78492Y9974D01*
X-78507Y9979D01*
X-78528Y9994D01*
X-78548Y10010D01*
Y10015D01*
X-78553Y10025D01*
X-78558Y10045D01*
X-78563Y10071D01*
Y15038D01*
X-78574D01*
X-80583Y10051D01*
Y10045D01*
X-80593Y10030D01*
X-80603Y10015D01*
X-80619Y9994D01*
X-80624Y9989D01*
X-80639Y9984D01*
X-80660Y9969D01*
X-80690Y9959D01*
X-80700D01*
X-80721Y9954D01*
X-80756Y9949D01*
X-80802Y9943D01*
X-80813D01*
X-80843Y9938D01*
X-80889Y9933D01*
X-81006D01*
X-81057Y9938D01*
X-81108Y9943D01*
X-81119D01*
X-81149Y9949D01*
X-81185Y9959D01*
X-81221Y9964D01*
X-81226Y9969D01*
X-81246Y9974D01*
X-81266Y9984D01*
X-81287Y10000D01*
X-81292Y10005D01*
X-81302Y10015D01*
X-81312Y10030D01*
X-81322Y10051D01*
X-83240Y15038D01*
Y10071D01*
Y10066D01*
Y10051D01*
X-83250Y10030D01*
X-83261Y10010D01*
X-83266Y10005D01*
X-83276Y9994D01*
X-83296Y9984D01*
X-83327Y9969D01*
X-83332D01*
X-83357Y9964D01*
X-83393Y9959D01*
X-83444Y9949D01*
X-83454D01*
X-83475Y9943D01*
X-83495D01*
X-83521Y9938D01*
X-83551D01*
X-83628Y9933D01*
X-83694D01*
X-83750Y9938D01*
X-83811Y9949D01*
X-83821D01*
X-83852Y9954D01*
X-83893Y9964D01*
X-83929Y9969D01*
X-83934Y9974D01*
X-83949Y9979D01*
X-83969Y9994D01*
X-83985Y10010D01*
Y10015D01*
X-83990Y10025D01*
X-83995Y10045D01*
X-84000Y10071D01*
Y15314D01*
Y15324D01*
Y15344D01*
X-83995Y15375D01*
X-83990Y15416D01*
X-83974Y15462D01*
X-83959Y15502D01*
X-83934Y15543D01*
X-83903Y15579D01*
X-83898Y15584D01*
X-83888Y15594D01*
X-83867Y15604D01*
X-83837Y15620D01*
X-83806Y15635D01*
X-83771Y15650D01*
X-83730Y15655D01*
X-83684Y15661D01*
X-83169D01*
X-83133Y15655D01*
X-83051Y15650D01*
X-82970Y15630D01*
X-82965D01*
X-82949Y15625D01*
X-82929Y15620D01*
X-82903Y15609D01*
X-82842Y15584D01*
X-82781Y15548D01*
X-82776D01*
X-82766Y15538D01*
X-82735Y15507D01*
X-82689Y15462D01*
X-82648Y15400D01*
X-82643Y15395D01*
X-82638Y15385D01*
X-82628Y15365D01*
X-82613Y15344D01*
X-82598Y15314D01*
X-82582Y15278D01*
X-82552Y15196D01*
X-80925Y11065D01*
X-80904D01*
X-79211Y15181D01*
Y15186D01*
X-79201Y15202D01*
X-79191Y15227D01*
X-79181Y15258D01*
X-79145Y15334D01*
X-79104Y15405D01*
X-79099Y15411D01*
X-79094Y15421D01*
X-79079Y15436D01*
X-79063Y15457D01*
X-79022Y15507D01*
X-78977Y15553D01*
X-78971Y15559D01*
X-78966Y15564D01*
X-78951Y15574D01*
X-78931Y15584D01*
X-78880Y15609D01*
X-78818Y15635D01*
X-78813D01*
X-78803Y15640D01*
X-78783Y15645D01*
X-78762Y15650D01*
X-78732D01*
X-78696Y15655D01*
X-78619Y15661D01*
X-78094D01*
X-78053Y15650D01*
D02*
G37*
G36*
X-53017Y14166D02*
X-52956Y14156D01*
X-52941D01*
X-52910Y14146D01*
X-52875Y14136D01*
X-52839Y14115D01*
X-52834Y14110D01*
X-52819Y14095D01*
X-52803Y14064D01*
X-52798Y14029D01*
Y14018D01*
X-52803Y13993D01*
X-52808Y13952D01*
X-52824Y13901D01*
X-54247Y9959D01*
X-54777Y8505D01*
Y8500D01*
X-54782Y8495D01*
X-54803Y8464D01*
X-54823Y8449D01*
X-54843Y8429D01*
X-54874Y8413D01*
X-54910Y8398D01*
X-54915D01*
X-54930Y8393D01*
X-54956Y8388D01*
X-54991Y8378D01*
X-55037Y8373D01*
X-55093Y8362D01*
X-55165Y8357D01*
X-55307D01*
X-55364Y8362D01*
X-55425Y8373D01*
X-55435D01*
X-55466Y8383D01*
X-55501Y8393D01*
X-55532Y8408D01*
X-55537Y8413D01*
X-55552Y8429D01*
X-55562Y8449D01*
X-55573Y8480D01*
Y8485D01*
Y8510D01*
X-55568Y8541D01*
X-55552Y8582D01*
X-55006Y9959D01*
X-55012Y9964D01*
X-55032Y9974D01*
X-55058Y9989D01*
X-55083Y10015D01*
X-55088Y10020D01*
X-55098Y10040D01*
X-55114Y10066D01*
X-55129Y10096D01*
X-56542Y13886D01*
Y13891D01*
X-56547Y13901D01*
X-56552Y13916D01*
X-56557Y13937D01*
X-56572Y13983D01*
X-56577Y14029D01*
Y14034D01*
Y14039D01*
X-56572Y14059D01*
X-56562Y14090D01*
X-56542Y14115D01*
X-56537Y14120D01*
X-56516Y14130D01*
X-56480Y14146D01*
X-56429Y14156D01*
X-56424D01*
X-56414Y14161D01*
X-56399D01*
X-56373Y14166D01*
X-56343D01*
X-56302Y14171D01*
X-56139D01*
X-56072Y14166D01*
X-56042D01*
X-56011Y14161D01*
X-55996D01*
X-55965Y14156D01*
X-55930Y14151D01*
X-55894Y14136D01*
X-55884Y14130D01*
X-55868Y14125D01*
X-55848Y14110D01*
X-55828Y14085D01*
X-55822Y14080D01*
X-55812Y14064D01*
X-55802Y14034D01*
X-55787Y13998D01*
X-54655Y10815D01*
X-54639D01*
X-53548Y14013D01*
Y14018D01*
X-53543Y14029D01*
X-53533Y14059D01*
X-53512Y14095D01*
X-53497Y14110D01*
X-53487Y14120D01*
X-53477Y14125D01*
X-53456Y14136D01*
X-53420Y14146D01*
X-53374Y14156D01*
X-53369D01*
X-53359Y14161D01*
X-53344D01*
X-53318Y14166D01*
X-53288D01*
X-53247Y14171D01*
X-53084D01*
X-53017Y14166D01*
D02*
G37*
G36*
X-74851Y14227D02*
X-74805D01*
X-74759Y14222D01*
X-74708D01*
X-74590Y14207D01*
X-74473Y14192D01*
X-74351Y14166D01*
X-74234Y14136D01*
X-74228D01*
X-74218Y14130D01*
X-74203Y14125D01*
X-74182Y14115D01*
X-74126Y14095D01*
X-74060Y14064D01*
X-73984Y14023D01*
X-73902Y13972D01*
X-73820Y13916D01*
X-73749Y13850D01*
X-73739Y13840D01*
X-73718Y13814D01*
X-73683Y13773D01*
X-73642Y13723D01*
X-73601Y13651D01*
X-73555Y13575D01*
X-73514Y13483D01*
X-73479Y13381D01*
Y13376D01*
X-73474Y13371D01*
X-73469Y13355D01*
X-73463Y13330D01*
X-73458Y13304D01*
X-73453Y13274D01*
X-73433Y13197D01*
X-73418Y13105D01*
X-73407Y12993D01*
X-73397Y12871D01*
X-73392Y12738D01*
Y10061D01*
Y10051D01*
X-73397Y10030D01*
X-73407Y10005D01*
X-73428Y9984D01*
X-73433Y9979D01*
X-73453Y9969D01*
X-73484Y9959D01*
X-73530Y9949D01*
X-73540D01*
X-73555Y9943D01*
X-73576D01*
X-73601Y9938D01*
X-73632D01*
X-73667Y9933D01*
X-73774D01*
X-73831Y9938D01*
X-73892Y9949D01*
X-73902D01*
X-73927Y9959D01*
X-73958Y9969D01*
X-73989Y9984D01*
X-73994Y9989D01*
X-74004Y10005D01*
X-74014Y10025D01*
X-74019Y10061D01*
Y10458D01*
X-74024Y10453D01*
X-74029Y10448D01*
X-74045Y10433D01*
X-74065Y10413D01*
X-74116Y10362D01*
X-74188Y10300D01*
X-74274Y10234D01*
X-74376Y10163D01*
X-74483Y10091D01*
X-74601Y10030D01*
X-74606D01*
X-74616Y10025D01*
X-74631Y10015D01*
X-74657Y10005D01*
X-74682Y9994D01*
X-74718Y9984D01*
X-74805Y9954D01*
X-74902Y9928D01*
X-75019Y9903D01*
X-75141Y9882D01*
X-75274Y9877D01*
X-75325D01*
X-75355Y9882D01*
X-75386D01*
X-75463Y9887D01*
X-75554Y9898D01*
X-75646Y9913D01*
X-75748Y9933D01*
X-75845Y9959D01*
X-75850D01*
X-75855Y9964D01*
X-75886Y9974D01*
X-75932Y9989D01*
X-75993Y10015D01*
X-76059Y10051D01*
X-76131Y10086D01*
X-76202Y10132D01*
X-76274Y10188D01*
X-76284Y10193D01*
X-76304Y10219D01*
X-76335Y10249D01*
X-76376Y10295D01*
X-76421Y10351D01*
X-76467Y10418D01*
X-76508Y10489D01*
X-76549Y10571D01*
Y10576D01*
X-76554Y10581D01*
X-76564Y10611D01*
X-76579Y10657D01*
X-76595Y10719D01*
X-76615Y10795D01*
X-76631Y10882D01*
X-76641Y10979D01*
X-76646Y11081D01*
Y11086D01*
Y11096D01*
Y11111D01*
Y11137D01*
X-76641Y11167D01*
Y11198D01*
X-76631Y11280D01*
X-76615Y11371D01*
X-76590Y11468D01*
X-76559Y11565D01*
X-76513Y11662D01*
Y11667D01*
X-76508Y11672D01*
X-76488Y11703D01*
X-76457Y11749D01*
X-76411Y11810D01*
X-76355Y11871D01*
X-76289Y11943D01*
X-76212Y12009D01*
X-76121Y12075D01*
X-76115D01*
X-76110Y12080D01*
X-76095Y12090D01*
X-76075Y12101D01*
X-76049Y12116D01*
X-76019Y12131D01*
X-75947Y12167D01*
X-75855Y12208D01*
X-75748Y12249D01*
X-75631Y12284D01*
X-75498Y12320D01*
X-75493D01*
X-75483Y12325D01*
X-75463Y12330D01*
X-75432Y12335D01*
X-75396Y12340D01*
X-75355Y12346D01*
X-75310Y12356D01*
X-75253Y12361D01*
X-75192Y12371D01*
X-75131Y12376D01*
X-74988Y12391D01*
X-74830Y12397D01*
X-74662Y12402D01*
X-74116D01*
Y12708D01*
Y12713D01*
Y12718D01*
Y12748D01*
Y12789D01*
X-74121Y12845D01*
X-74126Y12907D01*
X-74137Y12973D01*
X-74152Y13044D01*
X-74167Y13111D01*
Y13121D01*
X-74177Y13141D01*
X-74188Y13172D01*
X-74203Y13213D01*
X-74223Y13258D01*
X-74254Y13309D01*
X-74284Y13355D01*
X-74325Y13401D01*
X-74330Y13406D01*
X-74346Y13422D01*
X-74366Y13442D01*
X-74402Y13467D01*
X-74443Y13498D01*
X-74489Y13529D01*
X-74545Y13554D01*
X-74606Y13580D01*
X-74611Y13585D01*
X-74636Y13590D01*
X-74672Y13600D01*
X-74723Y13610D01*
X-74779Y13621D01*
X-74851Y13631D01*
X-74932Y13641D01*
X-75070D01*
X-75121Y13636D01*
X-75187Y13631D01*
X-75259Y13626D01*
X-75340Y13615D01*
X-75427Y13595D01*
X-75508Y13575D01*
X-75519Y13569D01*
X-75544Y13564D01*
X-75585Y13549D01*
X-75631Y13534D01*
X-75692Y13513D01*
X-75753Y13488D01*
X-75881Y13432D01*
X-75886Y13427D01*
X-75906Y13422D01*
X-75937Y13406D01*
X-75973Y13386D01*
X-76019Y13365D01*
X-76059Y13340D01*
X-76151Y13294D01*
X-76156D01*
X-76166Y13284D01*
X-76187Y13274D01*
X-76212Y13263D01*
X-76263Y13243D01*
X-76289Y13238D01*
X-76309Y13233D01*
X-76330D01*
X-76350Y13238D01*
X-76370Y13248D01*
X-76376Y13253D01*
X-76386Y13258D01*
X-76401Y13279D01*
X-76416Y13299D01*
X-76421Y13304D01*
X-76427Y13325D01*
X-76437Y13355D01*
X-76447Y13391D01*
Y13396D01*
Y13401D01*
Y13427D01*
X-76452Y13467D01*
Y13513D01*
Y13519D01*
Y13534D01*
Y13549D01*
Y13575D01*
X-76447Y13631D01*
X-76437Y13682D01*
Y13687D01*
X-76432Y13692D01*
X-76421Y13723D01*
X-76401Y13763D01*
X-76365Y13804D01*
X-76360Y13809D01*
X-76355Y13814D01*
X-76340Y13830D01*
X-76314Y13845D01*
X-76289Y13865D01*
X-76253Y13886D01*
X-76212Y13916D01*
X-76161Y13942D01*
X-76156Y13947D01*
X-76136Y13957D01*
X-76105Y13967D01*
X-76064Y13988D01*
X-76013Y14008D01*
X-75957Y14034D01*
X-75891Y14054D01*
X-75825Y14080D01*
X-75814Y14085D01*
X-75789Y14090D01*
X-75753Y14105D01*
X-75702Y14120D01*
X-75641Y14136D01*
X-75570Y14151D01*
X-75493Y14171D01*
X-75412Y14187D01*
X-75401D01*
X-75371Y14192D01*
X-75330Y14202D01*
X-75269Y14212D01*
X-75203Y14217D01*
X-75126Y14227D01*
X-75044Y14232D01*
X-74886D01*
X-74851Y14227D01*
D02*
G37*
G36*
X-60305Y16089D02*
X-60249Y16084D01*
X-60239D01*
X-60208Y16079D01*
X-60173Y16069D01*
X-60137Y16053D01*
X-60132Y16048D01*
X-60117Y16043D01*
X-60096Y16028D01*
X-60081Y16012D01*
X-60076Y16007D01*
X-60071Y15997D01*
X-60066Y15977D01*
X-60061Y15951D01*
Y13580D01*
X-60050Y13590D01*
X-60030Y13610D01*
X-59999Y13641D01*
X-59953Y13687D01*
X-59903Y13733D01*
X-59846Y13784D01*
X-59785Y13835D01*
X-59724Y13881D01*
X-59714Y13886D01*
X-59693Y13901D01*
X-59663Y13921D01*
X-59622Y13952D01*
X-59571Y13983D01*
X-59515Y14018D01*
X-59398Y14080D01*
X-59392Y14085D01*
X-59372Y14095D01*
X-59342Y14105D01*
X-59301Y14125D01*
X-59250Y14146D01*
X-59199Y14161D01*
X-59081Y14197D01*
X-59076D01*
X-59056Y14202D01*
X-59020Y14207D01*
X-58979Y14217D01*
X-58928Y14222D01*
X-58872Y14227D01*
X-58750Y14232D01*
X-58679D01*
X-58638Y14227D01*
X-58597Y14222D01*
X-58546Y14217D01*
X-58495Y14212D01*
X-58378Y14192D01*
X-58255Y14161D01*
X-58128Y14115D01*
X-58010Y14059D01*
X-58005D01*
X-57995Y14049D01*
X-57980Y14044D01*
X-57959Y14029D01*
X-57903Y13988D01*
X-57832Y13937D01*
X-57755Y13870D01*
X-57674Y13789D01*
X-57592Y13697D01*
X-57516Y13595D01*
Y13590D01*
X-57506Y13580D01*
X-57495Y13564D01*
X-57485Y13544D01*
X-57470Y13519D01*
X-57449Y13483D01*
X-57409Y13406D01*
X-57363Y13304D01*
X-57317Y13192D01*
X-57271Y13065D01*
X-57235Y12922D01*
Y12917D01*
X-57230Y12907D01*
X-57225Y12881D01*
X-57220Y12855D01*
X-57215Y12820D01*
X-57205Y12779D01*
X-57200Y12728D01*
X-57189Y12672D01*
X-57174Y12550D01*
X-57159Y12412D01*
X-57148Y12259D01*
X-57143Y12101D01*
Y12096D01*
Y12080D01*
Y12050D01*
Y12014D01*
X-57148Y11968D01*
Y11917D01*
X-57154Y11856D01*
X-57159Y11790D01*
X-57169Y11647D01*
X-57189Y11494D01*
X-57220Y11331D01*
X-57256Y11173D01*
Y11167D01*
X-57261Y11152D01*
X-57266Y11132D01*
X-57276Y11106D01*
X-57286Y11071D01*
X-57301Y11030D01*
X-57337Y10933D01*
X-57388Y10821D01*
X-57444Y10703D01*
X-57511Y10586D01*
X-57587Y10474D01*
Y10469D01*
X-57597Y10464D01*
X-57608Y10448D01*
X-57628Y10428D01*
X-57674Y10372D01*
X-57735Y10311D01*
X-57811Y10239D01*
X-57903Y10163D01*
X-58010Y10091D01*
X-58123Y10030D01*
X-58128D01*
X-58138Y10025D01*
X-58153Y10015D01*
X-58179Y10005D01*
X-58209Y9994D01*
X-58245Y9984D01*
X-58286Y9969D01*
X-58332Y9954D01*
X-58439Y9928D01*
X-58561Y9903D01*
X-58699Y9882D01*
X-58847Y9877D01*
X-58918D01*
X-58964Y9882D01*
X-59020Y9887D01*
X-59081Y9892D01*
X-59204Y9918D01*
X-59209D01*
X-59229Y9923D01*
X-59260Y9933D01*
X-59301Y9949D01*
X-59347Y9964D01*
X-59403Y9984D01*
X-59515Y10035D01*
X-59520Y10040D01*
X-59540Y10051D01*
X-59571Y10066D01*
X-59612Y10091D01*
X-59658Y10122D01*
X-59709Y10158D01*
X-59765Y10198D01*
X-59821Y10244D01*
X-59826Y10249D01*
X-59846Y10265D01*
X-59877Y10295D01*
X-59918Y10331D01*
X-59969Y10377D01*
X-60025Y10428D01*
X-60081Y10484D01*
X-60147Y10550D01*
Y10066D01*
Y10061D01*
Y10045D01*
X-60158Y10025D01*
X-60168Y10005D01*
X-60173Y10000D01*
X-60178Y9989D01*
X-60198Y9979D01*
X-60224Y9964D01*
X-60229D01*
X-60249Y9959D01*
X-60280Y9954D01*
X-60321Y9943D01*
X-60331D01*
X-60361Y9938D01*
X-60413Y9933D01*
X-60525D01*
X-60576Y9938D01*
X-60627Y9943D01*
X-60637D01*
X-60662Y9949D01*
X-60693Y9959D01*
X-60729Y9964D01*
X-60734Y9969D01*
X-60749Y9974D01*
X-60764Y9989D01*
X-60780Y10005D01*
Y10010D01*
X-60785Y10020D01*
X-60790Y10040D01*
Y10066D01*
Y15951D01*
Y15956D01*
Y15972D01*
X-60785Y15992D01*
X-60775Y16012D01*
X-60769Y16017D01*
X-60759Y16028D01*
X-60744Y16043D01*
X-60719Y16053D01*
X-60708Y16058D01*
X-60688Y16063D01*
X-60652Y16074D01*
X-60606Y16084D01*
X-60591D01*
X-60576Y16089D01*
X-60555D01*
X-60499Y16094D01*
X-60367D01*
X-60305Y16089D01*
D02*
G37*
G36*
X-65563Y14227D02*
X-65518Y14222D01*
X-65467D01*
X-65405Y14212D01*
X-65283Y14197D01*
X-65150Y14166D01*
X-65018Y14130D01*
X-64890Y14080D01*
X-64885D01*
X-64875Y14074D01*
X-64860Y14064D01*
X-64834Y14054D01*
X-64809Y14039D01*
X-64773Y14018D01*
X-64697Y13972D01*
X-64615Y13916D01*
X-64523Y13845D01*
X-64431Y13768D01*
X-64350Y13677D01*
X-64345Y13671D01*
X-64340Y13666D01*
X-64329Y13651D01*
X-64314Y13631D01*
X-64278Y13580D01*
X-64232Y13508D01*
X-64181Y13417D01*
X-64130Y13320D01*
X-64079Y13202D01*
X-64039Y13080D01*
Y13075D01*
X-64034Y13065D01*
X-64028Y13044D01*
X-64023Y13024D01*
X-64013Y12988D01*
X-64008Y12952D01*
X-63998Y12912D01*
X-63988Y12866D01*
X-63967Y12754D01*
X-63952Y12631D01*
X-63942Y12499D01*
X-63937Y12356D01*
Y12223D01*
Y12218D01*
Y12198D01*
X-63942Y12167D01*
X-63947Y12126D01*
X-63957Y12085D01*
X-63972Y12045D01*
X-63993Y12009D01*
X-64023Y11978D01*
X-64028Y11973D01*
X-64039Y11968D01*
X-64059Y11958D01*
X-64079Y11943D01*
X-64110Y11927D01*
X-64146Y11917D01*
X-64181Y11912D01*
X-64222Y11907D01*
X-66828D01*
Y11902D01*
Y11892D01*
Y11876D01*
Y11851D01*
Y11820D01*
X-66823Y11790D01*
X-66818Y11708D01*
X-66813Y11616D01*
X-66798Y11514D01*
X-66782Y11412D01*
X-66762Y11310D01*
Y11305D01*
X-66757Y11300D01*
Y11285D01*
X-66747Y11264D01*
X-66731Y11218D01*
X-66711Y11152D01*
X-66680Y11081D01*
X-66640Y11009D01*
X-66594Y10928D01*
X-66543Y10856D01*
X-66538Y10846D01*
X-66517Y10826D01*
X-66482Y10790D01*
X-66436Y10749D01*
X-66379Y10703D01*
X-66308Y10652D01*
X-66232Y10606D01*
X-66145Y10566D01*
X-66140D01*
X-66135Y10560D01*
X-66119Y10555D01*
X-66099Y10550D01*
X-66048Y10535D01*
X-65977Y10520D01*
X-65885Y10499D01*
X-65783Y10484D01*
X-65666Y10474D01*
X-65533Y10469D01*
X-65487D01*
X-65431Y10474D01*
X-65365D01*
X-65288Y10479D01*
X-65201Y10489D01*
X-65120Y10499D01*
X-65033Y10515D01*
X-65023D01*
X-64997Y10525D01*
X-64951Y10530D01*
X-64900Y10545D01*
X-64839Y10560D01*
X-64778Y10576D01*
X-64712Y10596D01*
X-64651Y10617D01*
X-64645Y10622D01*
X-64625Y10627D01*
X-64595Y10637D01*
X-64554Y10652D01*
X-64472Y10683D01*
X-64426Y10703D01*
X-64385Y10719D01*
X-64380D01*
X-64370Y10729D01*
X-64350Y10734D01*
X-64324Y10744D01*
X-64273Y10759D01*
X-64248Y10770D01*
X-64207D01*
X-64192Y10759D01*
X-64171Y10749D01*
X-64166Y10744D01*
X-64156Y10739D01*
X-64146Y10724D01*
X-64135Y10703D01*
X-64130Y10698D01*
X-64125Y10683D01*
X-64120Y10652D01*
X-64115Y10617D01*
Y10606D01*
X-64110Y10581D01*
X-64105Y10540D01*
Y10484D01*
Y10474D01*
Y10448D01*
Y10418D01*
X-64110Y10382D01*
Y10377D01*
X-64115Y10356D01*
X-64120Y10331D01*
X-64125Y10306D01*
Y10300D01*
X-64130Y10285D01*
X-64146Y10249D01*
X-64151Y10244D01*
X-64156Y10234D01*
X-64187Y10198D01*
X-64192Y10193D01*
X-64197Y10188D01*
X-64212Y10183D01*
X-64232Y10173D01*
X-64253Y10158D01*
X-64289Y10142D01*
X-64329Y10122D01*
X-64334D01*
X-64350Y10112D01*
X-64375Y10102D01*
X-64411Y10086D01*
X-64457Y10071D01*
X-64508Y10051D01*
X-64569Y10030D01*
X-64635Y10010D01*
X-64645D01*
X-64671Y10000D01*
X-64707Y9989D01*
X-64763Y9979D01*
X-64824Y9964D01*
X-64900Y9949D01*
X-64982Y9933D01*
X-65074Y9918D01*
X-65084D01*
X-65099Y9913D01*
X-65115D01*
X-65166Y9908D01*
X-65232Y9898D01*
X-65314Y9892D01*
X-65405Y9882D01*
X-65502Y9877D01*
X-65686D01*
X-65727Y9882D01*
X-65778D01*
X-65834Y9887D01*
X-65895Y9892D01*
X-66028Y9908D01*
X-66170Y9933D01*
X-66318Y9964D01*
X-66461Y10010D01*
X-66466D01*
X-66476Y10015D01*
X-66497Y10025D01*
X-66522Y10035D01*
X-66553Y10051D01*
X-66589Y10066D01*
X-66675Y10112D01*
X-66772Y10168D01*
X-66874Y10239D01*
X-66981Y10321D01*
X-67078Y10413D01*
X-67083Y10418D01*
X-67088Y10423D01*
X-67104Y10438D01*
X-67119Y10464D01*
X-67139Y10489D01*
X-67165Y10520D01*
X-67190Y10555D01*
X-67221Y10596D01*
X-67282Y10698D01*
X-67343Y10810D01*
X-67405Y10943D01*
X-67456Y11086D01*
Y11091D01*
X-67461Y11106D01*
X-67466Y11127D01*
X-67476Y11157D01*
X-67486Y11198D01*
X-67496Y11244D01*
X-67507Y11295D01*
X-67517Y11356D01*
X-67532Y11422D01*
X-67542Y11499D01*
X-67553Y11575D01*
X-67563Y11657D01*
X-67578Y11841D01*
X-67583Y12034D01*
Y12039D01*
Y12055D01*
Y12085D01*
Y12121D01*
X-67578Y12167D01*
Y12218D01*
X-67573Y12274D01*
X-67568Y12340D01*
X-67553Y12483D01*
X-67527Y12636D01*
X-67496Y12794D01*
X-67456Y12952D01*
Y12957D01*
X-67450Y12973D01*
X-67440Y12993D01*
X-67430Y13019D01*
X-67415Y13054D01*
X-67400Y13095D01*
X-67359Y13192D01*
X-67303Y13299D01*
X-67236Y13417D01*
X-67160Y13529D01*
X-67073Y13641D01*
X-67068Y13646D01*
X-67063Y13651D01*
X-67048Y13666D01*
X-67027Y13687D01*
X-66976Y13738D01*
X-66905Y13804D01*
X-66818Y13875D01*
X-66716Y13947D01*
X-66599Y14018D01*
X-66471Y14080D01*
X-66466D01*
X-66456Y14085D01*
X-66436Y14095D01*
X-66410Y14105D01*
X-66374Y14115D01*
X-66339Y14130D01*
X-66293Y14141D01*
X-66242Y14156D01*
X-66186Y14171D01*
X-66124Y14187D01*
X-65987Y14207D01*
X-65839Y14227D01*
X-65681Y14232D01*
X-65604D01*
X-65563Y14227D01*
D02*
G37*
G36*
X-40104Y6921D02*
X-40053Y6916D01*
X-39992Y6906D01*
X-39936Y6885D01*
X-39880Y6865D01*
X-39839Y6834D01*
X-39834Y6829D01*
X-39824Y6814D01*
X-39808Y6794D01*
X-39788Y6758D01*
X-39773Y6712D01*
X-39757Y6651D01*
X-39747Y6579D01*
X-39742Y6493D01*
Y6488D01*
Y6482D01*
Y6452D01*
X-39747Y6406D01*
X-39752Y6355D01*
X-39768Y6294D01*
X-39783Y6238D01*
X-39808Y6187D01*
X-39839Y6146D01*
X-39844Y6141D01*
X-39860Y6131D01*
X-39885Y6115D01*
X-39921Y6100D01*
X-39967Y6085D01*
X-40033Y6069D01*
X-40104Y6059D01*
X-40196Y6054D01*
X-40237D01*
X-40283Y6059D01*
X-40334Y6064D01*
X-40395Y6075D01*
X-40451Y6090D01*
X-40507Y6110D01*
X-40548Y6141D01*
X-40553Y6146D01*
X-40563Y6161D01*
X-40579Y6182D01*
X-40594Y6217D01*
X-40609Y6263D01*
X-40624Y6324D01*
X-40635Y6396D01*
X-40640Y6482D01*
Y6488D01*
Y6493D01*
Y6523D01*
X-40635Y6569D01*
X-40630Y6620D01*
X-40619Y6681D01*
X-40599Y6737D01*
X-40579Y6788D01*
X-40548Y6829D01*
X-40543Y6834D01*
X-40528Y6845D01*
X-40502Y6860D01*
X-40466Y6880D01*
X-40420Y6896D01*
X-40354Y6911D01*
X-40283Y6921D01*
X-40191Y6926D01*
X-40150D01*
X-40104Y6921D01*
D02*
G37*
G36*
X-43195Y5350D02*
X-43154D01*
X-43062Y5340D01*
X-42960Y5320D01*
X-42848Y5299D01*
X-42736Y5264D01*
X-42629Y5218D01*
X-42624D01*
X-42619Y5213D01*
X-42603Y5202D01*
X-42583Y5192D01*
X-42532Y5162D01*
X-42471Y5126D01*
X-42404Y5075D01*
X-42328Y5014D01*
X-42257Y4942D01*
X-42190Y4861D01*
X-42185Y4851D01*
X-42165Y4820D01*
X-42134Y4774D01*
X-42098Y4713D01*
X-42058Y4631D01*
X-42017Y4544D01*
X-41981Y4442D01*
X-41951Y4330D01*
Y4325D01*
X-41945Y4315D01*
Y4300D01*
X-41940Y4279D01*
X-41930Y4249D01*
X-41925Y4213D01*
X-41920Y4172D01*
X-41910Y4126D01*
X-41899Y4019D01*
X-41884Y3897D01*
X-41879Y3759D01*
X-41874Y3606D01*
Y1189D01*
Y1184D01*
Y1168D01*
X-41884Y1148D01*
X-41894Y1127D01*
X-41899Y1122D01*
X-41905Y1117D01*
X-41925Y1102D01*
X-41951Y1092D01*
X-41956D01*
X-41981Y1082D01*
X-42017Y1077D01*
X-42063Y1066D01*
X-42073D01*
X-42093Y1061D01*
X-42114D01*
X-42170Y1056D01*
X-42302D01*
X-42364Y1061D01*
X-42420Y1066D01*
X-42430D01*
X-42461Y1071D01*
X-42496Y1082D01*
X-42532Y1092D01*
X-42537Y1097D01*
X-42552Y1102D01*
X-42573Y1112D01*
X-42588Y1127D01*
Y1133D01*
X-42593Y1143D01*
X-42598Y1163D01*
X-42603Y1189D01*
Y3509D01*
Y3514D01*
Y3525D01*
Y3540D01*
Y3565D01*
Y3596D01*
X-42608Y3627D01*
Y3708D01*
X-42619Y3795D01*
X-42629Y3881D01*
X-42639Y3973D01*
X-42659Y4055D01*
Y4065D01*
X-42670Y4091D01*
X-42680Y4131D01*
X-42695Y4177D01*
X-42721Y4233D01*
X-42746Y4295D01*
X-42777Y4356D01*
X-42812Y4412D01*
X-42818Y4417D01*
X-42833Y4437D01*
X-42853Y4463D01*
X-42884Y4499D01*
X-42919Y4534D01*
X-42965Y4570D01*
X-43022Y4611D01*
X-43078Y4641D01*
X-43083Y4646D01*
X-43103Y4657D01*
X-43139Y4667D01*
X-43185Y4682D01*
X-43236Y4698D01*
X-43297Y4713D01*
X-43368Y4718D01*
X-43445Y4723D01*
X-43470D01*
X-43491Y4718D01*
X-43547Y4713D01*
X-43618Y4698D01*
X-43700Y4677D01*
X-43792Y4641D01*
X-43894Y4595D01*
X-43996Y4529D01*
X-44001D01*
X-44006Y4519D01*
X-44021Y4509D01*
X-44041Y4493D01*
X-44098Y4448D01*
X-44169Y4386D01*
X-44251Y4305D01*
X-44348Y4208D01*
X-44455Y4091D01*
X-44562Y3958D01*
Y1189D01*
Y1184D01*
Y1168D01*
X-44572Y1148D01*
X-44582Y1127D01*
X-44587Y1122D01*
X-44592Y1117D01*
X-44613Y1102D01*
X-44638Y1092D01*
X-44643D01*
X-44669Y1082D01*
X-44704Y1077D01*
X-44750Y1066D01*
X-44761D01*
X-44781Y1061D01*
X-44801D01*
X-44857Y1056D01*
X-44990D01*
X-45051Y1061D01*
X-45107Y1066D01*
X-45118D01*
X-45148Y1071D01*
X-45184Y1082D01*
X-45220Y1092D01*
X-45225Y1097D01*
X-45240Y1102D01*
X-45260Y1112D01*
X-45276Y1127D01*
Y1133D01*
X-45281Y1143D01*
X-45286Y1163D01*
X-45291Y1189D01*
Y5156D01*
Y5162D01*
Y5177D01*
X-45286Y5197D01*
X-45281Y5213D01*
X-45276Y5218D01*
X-45271Y5228D01*
X-45250Y5243D01*
X-45230Y5258D01*
X-45225Y5264D01*
X-45199Y5269D01*
X-45169Y5279D01*
X-45128Y5284D01*
X-45118D01*
X-45102Y5289D01*
X-45082D01*
X-45031Y5294D01*
X-44903D01*
X-44852Y5289D01*
X-44801Y5284D01*
X-44791D01*
X-44766Y5279D01*
X-44730Y5274D01*
X-44699Y5258D01*
X-44694Y5253D01*
X-44679Y5243D01*
X-44664Y5233D01*
X-44648Y5213D01*
X-44643Y5207D01*
X-44638Y5197D01*
X-44633Y5182D01*
Y5156D01*
Y4631D01*
X-44628Y4636D01*
X-44618Y4646D01*
X-44603Y4667D01*
X-44577Y4692D01*
X-44546Y4723D01*
X-44511Y4759D01*
X-44424Y4840D01*
X-44327Y4927D01*
X-44215Y5019D01*
X-44093Y5105D01*
X-43970Y5177D01*
X-43965D01*
X-43955Y5187D01*
X-43934Y5192D01*
X-43914Y5207D01*
X-43883Y5218D01*
X-43848Y5233D01*
X-43761Y5269D01*
X-43659Y5299D01*
X-43542Y5330D01*
X-43424Y5350D01*
X-43297Y5355D01*
X-43231D01*
X-43195Y5350D01*
D02*
G37*
G36*
X-51380D02*
X-51329Y5345D01*
X-51304D01*
X-51284Y5340D01*
X-51238Y5335D01*
X-51182Y5320D01*
X-51176D01*
X-51166Y5315D01*
X-51151D01*
X-51130Y5310D01*
X-51085Y5294D01*
X-51039Y5279D01*
X-51034D01*
X-51029Y5274D01*
X-51003Y5269D01*
X-50972Y5253D01*
X-50947Y5238D01*
X-50942Y5233D01*
X-50932Y5228D01*
X-50916Y5213D01*
X-50911Y5197D01*
Y5192D01*
X-50906Y5182D01*
X-50901Y5167D01*
X-50896Y5146D01*
Y5141D01*
X-50891Y5126D01*
X-50886Y5095D01*
Y5054D01*
Y5049D01*
Y5044D01*
Y5029D01*
X-50881Y5014D01*
Y4963D01*
Y4896D01*
Y4891D01*
Y4881D01*
Y4861D01*
Y4835D01*
Y4784D01*
X-50886Y4728D01*
Y4718D01*
X-50891Y4692D01*
X-50896Y4662D01*
X-50906Y4626D01*
Y4621D01*
X-50911Y4606D01*
X-50921Y4585D01*
X-50937Y4570D01*
X-50942Y4565D01*
X-50952Y4560D01*
X-50967Y4555D01*
X-50993Y4550D01*
X-50998D01*
X-51018Y4555D01*
X-51044Y4560D01*
X-51079Y4570D01*
X-51090Y4575D01*
X-51115Y4585D01*
X-51151Y4595D01*
X-51197Y4611D01*
X-51202D01*
X-51207Y4616D01*
X-51238Y4621D01*
X-51284Y4636D01*
X-51340Y4646D01*
X-51345D01*
X-51355Y4652D01*
X-51370D01*
X-51391Y4657D01*
X-51442Y4662D01*
X-51508Y4667D01*
X-51549D01*
X-51574Y4662D01*
X-51646Y4646D01*
X-51722Y4621D01*
X-51727D01*
X-51743Y4611D01*
X-51763Y4601D01*
X-51788Y4585D01*
X-51824Y4565D01*
X-51860Y4539D01*
X-51901Y4509D01*
X-51947Y4473D01*
X-51952Y4468D01*
X-51967Y4458D01*
X-51987Y4432D01*
X-52018Y4402D01*
X-52054Y4366D01*
X-52094Y4320D01*
X-52140Y4269D01*
X-52186Y4208D01*
X-52191Y4203D01*
X-52207Y4177D01*
X-52232Y4142D01*
X-52268Y4096D01*
X-52309Y4034D01*
X-52360Y3963D01*
X-52411Y3887D01*
X-52467Y3800D01*
Y1189D01*
Y1184D01*
Y1168D01*
X-52477Y1148D01*
X-52487Y1127D01*
X-52492Y1122D01*
X-52497Y1117D01*
X-52518Y1102D01*
X-52543Y1092D01*
X-52548D01*
X-52574Y1082D01*
X-52609Y1077D01*
X-52655Y1066D01*
X-52666D01*
X-52686Y1061D01*
X-52706D01*
X-52763Y1056D01*
X-52895D01*
X-52956Y1061D01*
X-53012Y1066D01*
X-53023D01*
X-53053Y1071D01*
X-53089Y1082D01*
X-53125Y1092D01*
X-53130Y1097D01*
X-53145Y1102D01*
X-53165Y1112D01*
X-53181Y1127D01*
Y1133D01*
X-53186Y1143D01*
X-53191Y1163D01*
X-53196Y1189D01*
Y5156D01*
Y5162D01*
Y5177D01*
X-53191Y5197D01*
X-53186Y5213D01*
X-53181Y5218D01*
X-53176Y5228D01*
X-53155Y5243D01*
X-53135Y5258D01*
X-53130Y5264D01*
X-53104Y5269D01*
X-53074Y5279D01*
X-53033Y5284D01*
X-53023D01*
X-53007Y5289D01*
X-52987D01*
X-52936Y5294D01*
X-52808D01*
X-52757Y5289D01*
X-52706Y5284D01*
X-52696D01*
X-52671Y5279D01*
X-52635Y5274D01*
X-52604Y5258D01*
X-52599Y5253D01*
X-52584Y5243D01*
X-52569Y5233D01*
X-52553Y5213D01*
X-52548Y5207D01*
X-52543Y5197D01*
X-52538Y5182D01*
Y5156D01*
Y4585D01*
X-52533Y4590D01*
X-52513Y4621D01*
X-52477Y4662D01*
X-52436Y4718D01*
X-52390Y4779D01*
X-52339Y4840D01*
X-52288Y4902D01*
X-52232Y4963D01*
X-52227Y4968D01*
X-52207Y4988D01*
X-52181Y5014D01*
X-52145Y5049D01*
X-52105Y5090D01*
X-52059Y5131D01*
X-52008Y5167D01*
X-51962Y5202D01*
X-51957Y5207D01*
X-51941Y5218D01*
X-51916Y5233D01*
X-51880Y5248D01*
X-51845Y5269D01*
X-51804Y5289D01*
X-51758Y5304D01*
X-51712Y5320D01*
X-51707D01*
X-51692Y5325D01*
X-51666Y5330D01*
X-51630Y5340D01*
X-51595Y5345D01*
X-51549Y5350D01*
X-51457Y5355D01*
X-51421D01*
X-51380Y5350D01*
D02*
G37*
G36*
X-33347D02*
X-33296D01*
X-33245Y5345D01*
X-33127Y5325D01*
X-33122D01*
X-33102Y5320D01*
X-33071Y5315D01*
X-33031Y5310D01*
X-32990Y5299D01*
X-32939Y5284D01*
X-32842Y5258D01*
X-32837D01*
X-32822Y5253D01*
X-32796Y5243D01*
X-32765Y5233D01*
X-32699Y5202D01*
X-32628Y5172D01*
X-32623D01*
X-32612Y5167D01*
X-32597Y5156D01*
X-32577Y5146D01*
X-32531Y5116D01*
X-32490Y5090D01*
X-32485Y5085D01*
X-32465Y5070D01*
X-32444Y5049D01*
X-32429Y5024D01*
X-32424Y5019D01*
X-32419Y5009D01*
X-32414Y4988D01*
X-32408Y4963D01*
Y4958D01*
X-32403Y4942D01*
X-32398Y4917D01*
X-32393Y4881D01*
Y4871D01*
X-32388Y4851D01*
X-32383Y4815D01*
Y4769D01*
Y4764D01*
Y4759D01*
Y4723D01*
X-32388Y4682D01*
X-32393Y4636D01*
Y4626D01*
X-32398Y4606D01*
X-32403Y4575D01*
X-32414Y4544D01*
X-32419Y4539D01*
X-32424Y4529D01*
X-32439Y4514D01*
X-32454Y4499D01*
X-32459D01*
X-32470Y4493D01*
X-32480Y4488D01*
X-32500Y4483D01*
X-32505D01*
X-32531Y4488D01*
X-32566Y4504D01*
X-32618Y4529D01*
X-32623D01*
X-32633Y4539D01*
X-32648Y4550D01*
X-32669Y4560D01*
X-32694Y4575D01*
X-32730Y4595D01*
X-32765Y4611D01*
X-32811Y4631D01*
X-32816Y4636D01*
X-32832Y4641D01*
X-32857Y4652D01*
X-32888Y4667D01*
X-32934Y4682D01*
X-32980Y4703D01*
X-33031Y4718D01*
X-33092Y4738D01*
X-33097D01*
X-33117Y4749D01*
X-33153Y4754D01*
X-33194Y4764D01*
X-33250Y4774D01*
X-33311Y4779D01*
X-33377Y4789D01*
X-33520D01*
X-33566Y4784D01*
X-33617Y4779D01*
X-33673Y4769D01*
X-33785Y4743D01*
X-33790D01*
X-33806Y4738D01*
X-33831Y4728D01*
X-33867Y4713D01*
X-33938Y4677D01*
X-34015Y4626D01*
X-34020Y4621D01*
X-34030Y4611D01*
X-34045Y4595D01*
X-34066Y4575D01*
X-34107Y4519D01*
X-34148Y4442D01*
Y4437D01*
X-34153Y4427D01*
X-34163Y4402D01*
X-34168Y4376D01*
X-34178Y4346D01*
X-34188Y4305D01*
X-34193Y4218D01*
Y4213D01*
Y4188D01*
X-34188Y4157D01*
X-34183Y4116D01*
X-34173Y4070D01*
X-34158Y4024D01*
X-34137Y3973D01*
X-34107Y3927D01*
X-34102Y3922D01*
X-34091Y3907D01*
X-34071Y3887D01*
X-34045Y3856D01*
X-34015Y3825D01*
X-33974Y3790D01*
X-33933Y3759D01*
X-33882Y3723D01*
X-33877Y3718D01*
X-33857Y3708D01*
X-33826Y3693D01*
X-33790Y3672D01*
X-33740Y3647D01*
X-33689Y3621D01*
X-33627Y3591D01*
X-33561Y3565D01*
X-33551Y3560D01*
X-33530Y3555D01*
X-33495Y3540D01*
X-33444Y3519D01*
X-33388Y3499D01*
X-33326Y3474D01*
X-33189Y3417D01*
X-33178Y3412D01*
X-33158Y3407D01*
X-33117Y3392D01*
X-33071Y3371D01*
X-33015Y3346D01*
X-32954Y3315D01*
X-32822Y3249D01*
X-32811Y3244D01*
X-32791Y3234D01*
X-32755Y3213D01*
X-32709Y3188D01*
X-32663Y3152D01*
X-32607Y3117D01*
X-32495Y3025D01*
X-32490Y3020D01*
X-32470Y3004D01*
X-32444Y2974D01*
X-32414Y2938D01*
X-32378Y2892D01*
X-32337Y2836D01*
X-32301Y2775D01*
X-32266Y2709D01*
X-32261Y2698D01*
X-32250Y2678D01*
X-32240Y2637D01*
X-32220Y2586D01*
X-32204Y2520D01*
X-32194Y2448D01*
X-32184Y2362D01*
X-32179Y2270D01*
Y2265D01*
Y2255D01*
Y2239D01*
Y2219D01*
X-32184Y2163D01*
X-32194Y2086D01*
X-32210Y2005D01*
X-32230Y1913D01*
X-32255Y1816D01*
X-32296Y1724D01*
X-32301Y1714D01*
X-32317Y1683D01*
X-32342Y1643D01*
X-32378Y1586D01*
X-32424Y1525D01*
X-32480Y1459D01*
X-32541Y1393D01*
X-32618Y1326D01*
X-32628Y1321D01*
X-32653Y1301D01*
X-32699Y1270D01*
X-32755Y1235D01*
X-32827Y1194D01*
X-32908Y1153D01*
X-33005Y1117D01*
X-33107Y1082D01*
X-33112D01*
X-33122Y1077D01*
X-33138D01*
X-33158Y1071D01*
X-33184Y1061D01*
X-33214Y1056D01*
X-33291Y1041D01*
X-33388Y1025D01*
X-33490Y1015D01*
X-33607Y1005D01*
X-33734Y1000D01*
X-33811D01*
X-33867Y1005D01*
X-33928Y1010D01*
X-33994Y1015D01*
X-34142Y1036D01*
X-34153D01*
X-34173Y1041D01*
X-34209Y1046D01*
X-34255Y1056D01*
X-34311Y1066D01*
X-34367Y1082D01*
X-34484Y1112D01*
X-34489D01*
X-34510Y1122D01*
X-34535Y1133D01*
X-34571Y1143D01*
X-34652Y1178D01*
X-34739Y1214D01*
X-34744Y1219D01*
X-34754Y1224D01*
X-34775Y1235D01*
X-34800Y1250D01*
X-34851Y1280D01*
X-34877Y1301D01*
X-34897Y1316D01*
X-34902Y1326D01*
X-34923Y1347D01*
X-34943Y1388D01*
X-34964Y1439D01*
Y1444D01*
X-34969Y1454D01*
Y1474D01*
X-34974Y1495D01*
X-34979Y1530D01*
Y1566D01*
X-34984Y1607D01*
Y1658D01*
Y1663D01*
Y1673D01*
Y1688D01*
Y1704D01*
Y1750D01*
X-34979Y1796D01*
Y1801D01*
Y1806D01*
X-34974Y1831D01*
X-34964Y1862D01*
X-34958Y1887D01*
X-34953Y1892D01*
X-34948Y1908D01*
X-34933Y1923D01*
X-34918Y1938D01*
X-34912Y1943D01*
X-34902Y1949D01*
X-34882Y1954D01*
X-34861Y1959D01*
X-34851D01*
X-34826Y1954D01*
X-34785Y1933D01*
X-34754Y1918D01*
X-34724Y1898D01*
X-34719Y1892D01*
X-34708Y1887D01*
X-34688Y1872D01*
X-34657Y1857D01*
X-34622Y1836D01*
X-34586Y1816D01*
X-34540Y1791D01*
X-34489Y1765D01*
X-34484Y1760D01*
X-34464Y1755D01*
X-34433Y1740D01*
X-34392Y1724D01*
X-34346Y1704D01*
X-34290Y1683D01*
X-34224Y1663D01*
X-34158Y1637D01*
X-34148D01*
X-34122Y1627D01*
X-34086Y1622D01*
X-34030Y1612D01*
X-33969Y1602D01*
X-33893Y1592D01*
X-33811Y1586D01*
X-33724Y1581D01*
X-33658D01*
X-33612Y1586D01*
X-33561Y1592D01*
X-33505Y1597D01*
X-33393Y1617D01*
X-33388D01*
X-33367Y1627D01*
X-33337Y1632D01*
X-33301Y1648D01*
X-33219Y1683D01*
X-33133Y1734D01*
X-33127Y1740D01*
X-33112Y1750D01*
X-33092Y1765D01*
X-33066Y1785D01*
X-33041Y1816D01*
X-33010Y1847D01*
X-32959Y1928D01*
X-32954Y1933D01*
X-32949Y1949D01*
X-32939Y1974D01*
X-32929Y2010D01*
X-32918Y2051D01*
X-32908Y2102D01*
X-32898Y2153D01*
Y2214D01*
Y2219D01*
Y2244D01*
X-32903Y2275D01*
X-32908Y2311D01*
X-32918Y2357D01*
X-32934Y2403D01*
X-32954Y2448D01*
X-32985Y2494D01*
X-32990Y2499D01*
X-33000Y2515D01*
X-33020Y2535D01*
X-33046Y2566D01*
X-33077Y2596D01*
X-33117Y2632D01*
X-33163Y2663D01*
X-33214Y2698D01*
X-33219Y2703D01*
X-33240Y2714D01*
X-33265Y2729D01*
X-33306Y2749D01*
X-33352Y2775D01*
X-33408Y2800D01*
X-33464Y2826D01*
X-33530Y2851D01*
X-33541Y2856D01*
X-33561Y2861D01*
X-33597Y2877D01*
X-33643Y2897D01*
X-33694Y2918D01*
X-33755Y2943D01*
X-33821Y2969D01*
X-33893Y2994D01*
X-33903Y2999D01*
X-33923Y3009D01*
X-33964Y3025D01*
X-34010Y3045D01*
X-34066Y3071D01*
X-34127Y3096D01*
X-34260Y3162D01*
X-34270Y3167D01*
X-34290Y3178D01*
X-34326Y3198D01*
X-34367Y3229D01*
X-34418Y3264D01*
X-34469Y3300D01*
X-34525Y3346D01*
X-34581Y3397D01*
X-34586Y3402D01*
X-34601Y3422D01*
X-34627Y3453D01*
X-34663Y3489D01*
X-34698Y3540D01*
X-34734Y3591D01*
X-34770Y3657D01*
X-34805Y3723D01*
X-34811Y3734D01*
X-34816Y3759D01*
X-34831Y3795D01*
X-34846Y3851D01*
X-34861Y3917D01*
X-34872Y3994D01*
X-34882Y4080D01*
X-34887Y4177D01*
Y4182D01*
Y4188D01*
Y4218D01*
X-34882Y4264D01*
X-34877Y4320D01*
X-34867Y4386D01*
X-34851Y4463D01*
X-34831Y4544D01*
X-34800Y4621D01*
X-34795Y4631D01*
X-34785Y4657D01*
X-34760Y4698D01*
X-34734Y4749D01*
X-34693Y4810D01*
X-34647Y4871D01*
X-34591Y4937D01*
X-34530Y4998D01*
X-34520Y5003D01*
X-34499Y5024D01*
X-34459Y5054D01*
X-34402Y5090D01*
X-34336Y5136D01*
X-34260Y5177D01*
X-34173Y5218D01*
X-34076Y5258D01*
X-34071D01*
X-34066Y5264D01*
X-34051Y5269D01*
X-34030Y5274D01*
X-34005Y5279D01*
X-33969Y5289D01*
X-33898Y5310D01*
X-33801Y5325D01*
X-33694Y5340D01*
X-33576Y5350D01*
X-33444Y5355D01*
X-33388D01*
X-33347Y5350D01*
D02*
G37*
G36*
X-36794Y5345D02*
X-36738Y5340D01*
X-36677Y5335D01*
X-36544Y5315D01*
X-36534D01*
X-36514Y5310D01*
X-36478Y5299D01*
X-36437Y5289D01*
X-36386Y5274D01*
X-36330Y5258D01*
X-36218Y5218D01*
X-36213D01*
X-36193Y5207D01*
X-36162Y5197D01*
X-36126Y5182D01*
X-36086Y5162D01*
X-36040Y5136D01*
X-35948Y5085D01*
X-35943Y5080D01*
X-35927Y5075D01*
X-35907Y5060D01*
X-35882Y5044D01*
X-35825Y5003D01*
X-35800Y4978D01*
X-35780Y4958D01*
X-35769Y4947D01*
X-35749Y4927D01*
X-35728Y4902D01*
X-35708Y4876D01*
X-35703Y4871D01*
X-35698Y4856D01*
X-35688Y4830D01*
X-35677Y4800D01*
X-35672Y4794D01*
X-35667Y4774D01*
X-35662Y4743D01*
X-35657Y4703D01*
Y4692D01*
X-35652Y4667D01*
Y4626D01*
Y4575D01*
Y4570D01*
Y4550D01*
Y4519D01*
X-35657Y4478D01*
X-35667Y4402D01*
X-35677Y4366D01*
X-35693Y4335D01*
Y4330D01*
X-35698Y4325D01*
X-35718Y4305D01*
X-35749Y4279D01*
X-35769Y4274D01*
X-35790Y4269D01*
X-35800D01*
X-35815Y4274D01*
X-35836Y4279D01*
X-35882Y4300D01*
X-35912Y4315D01*
X-35943Y4341D01*
X-35948Y4346D01*
X-35958Y4351D01*
X-35973Y4366D01*
X-35999Y4386D01*
X-36029Y4412D01*
X-36065Y4437D01*
X-36111Y4468D01*
X-36157Y4499D01*
X-36162Y4504D01*
X-36182Y4514D01*
X-36208Y4529D01*
X-36249Y4555D01*
X-36295Y4580D01*
X-36351Y4606D01*
X-36412Y4636D01*
X-36478Y4662D01*
X-36488Y4667D01*
X-36509Y4672D01*
X-36550Y4687D01*
X-36601Y4703D01*
X-36667Y4713D01*
X-36738Y4728D01*
X-36825Y4733D01*
X-36917Y4738D01*
X-36968D01*
X-37003Y4733D01*
X-37049Y4728D01*
X-37095Y4718D01*
X-37151Y4703D01*
X-37213Y4687D01*
X-37279Y4667D01*
X-37345Y4641D01*
X-37411Y4606D01*
X-37478Y4570D01*
X-37544Y4524D01*
X-37605Y4468D01*
X-37666Y4407D01*
X-37723Y4335D01*
X-37728Y4330D01*
X-37733Y4315D01*
X-37748Y4295D01*
X-37763Y4259D01*
X-37784Y4218D01*
X-37809Y4167D01*
X-37835Y4106D01*
X-37860Y4040D01*
X-37886Y3958D01*
X-37911Y3871D01*
X-37932Y3779D01*
X-37957Y3672D01*
X-37973Y3560D01*
X-37988Y3438D01*
X-37993Y3305D01*
X-37998Y3167D01*
Y3162D01*
Y3152D01*
Y3132D01*
Y3101D01*
Y3071D01*
X-37993Y3030D01*
X-37988Y2938D01*
X-37983Y2836D01*
X-37967Y2724D01*
X-37952Y2606D01*
X-37927Y2494D01*
Y2489D01*
X-37922Y2484D01*
X-37916Y2469D01*
X-37911Y2448D01*
X-37896Y2392D01*
X-37876Y2326D01*
X-37845Y2249D01*
X-37809Y2173D01*
X-37763Y2091D01*
X-37718Y2015D01*
X-37712Y2005D01*
X-37692Y1984D01*
X-37661Y1949D01*
X-37621Y1908D01*
X-37570Y1857D01*
X-37508Y1811D01*
X-37442Y1765D01*
X-37371Y1724D01*
X-37361Y1719D01*
X-37335Y1709D01*
X-37294Y1694D01*
X-37233Y1678D01*
X-37167Y1663D01*
X-37085Y1648D01*
X-36998Y1637D01*
X-36902Y1632D01*
X-36861D01*
X-36815Y1637D01*
X-36754Y1643D01*
X-36682Y1653D01*
X-36611Y1663D01*
X-36534Y1683D01*
X-36463Y1709D01*
X-36453Y1714D01*
X-36432Y1724D01*
X-36397Y1740D01*
X-36351Y1760D01*
X-36300Y1785D01*
X-36244Y1811D01*
X-36136Y1877D01*
X-36131Y1882D01*
X-36111Y1892D01*
X-36086Y1913D01*
X-36055Y1933D01*
X-35978Y1989D01*
X-35902Y2051D01*
X-35897Y2056D01*
X-35887Y2066D01*
X-35866Y2076D01*
X-35846Y2091D01*
X-35800Y2122D01*
X-35774Y2127D01*
X-35754Y2132D01*
X-35734D01*
X-35718Y2122D01*
X-35703Y2112D01*
X-35698Y2107D01*
X-35688Y2097D01*
X-35672Y2081D01*
X-35662Y2051D01*
X-35657Y2046D01*
X-35652Y2020D01*
X-35647Y1989D01*
X-35642Y1943D01*
Y1938D01*
Y1933D01*
X-35637Y1903D01*
X-35632Y1857D01*
Y1796D01*
Y1791D01*
Y1785D01*
Y1750D01*
Y1709D01*
X-35637Y1663D01*
Y1653D01*
X-35642Y1632D01*
X-35647Y1602D01*
X-35657Y1571D01*
Y1566D01*
X-35662Y1551D01*
X-35672Y1530D01*
X-35683Y1505D01*
X-35688Y1500D01*
X-35698Y1484D01*
X-35718Y1454D01*
X-35754Y1418D01*
X-35764Y1408D01*
X-35780Y1398D01*
X-35795Y1383D01*
X-35820Y1362D01*
X-35851Y1342D01*
X-35892Y1316D01*
X-35938Y1286D01*
X-35943Y1280D01*
X-35963Y1270D01*
X-35989Y1255D01*
X-36024Y1240D01*
X-36070Y1214D01*
X-36121Y1189D01*
X-36177Y1168D01*
X-36239Y1143D01*
X-36244D01*
X-36269Y1133D01*
X-36300Y1122D01*
X-36346Y1107D01*
X-36397Y1092D01*
X-36458Y1077D01*
X-36524Y1056D01*
X-36595Y1041D01*
X-36606D01*
X-36631Y1036D01*
X-36667Y1031D01*
X-36718Y1020D01*
X-36779Y1015D01*
X-36845Y1005D01*
X-36917Y1000D01*
X-37065D01*
X-37100Y1005D01*
X-37146D01*
X-37197Y1010D01*
X-37248Y1015D01*
X-37366Y1036D01*
X-37493Y1056D01*
X-37626Y1092D01*
X-37753Y1138D01*
X-37758D01*
X-37769Y1143D01*
X-37784Y1153D01*
X-37809Y1163D01*
X-37835Y1178D01*
X-37870Y1199D01*
X-37947Y1245D01*
X-38034Y1301D01*
X-38126Y1372D01*
X-38222Y1454D01*
X-38309Y1551D01*
Y1556D01*
X-38319Y1561D01*
X-38329Y1576D01*
X-38345Y1602D01*
X-38365Y1627D01*
X-38386Y1658D01*
X-38432Y1734D01*
X-38488Y1831D01*
X-38544Y1943D01*
X-38600Y2071D01*
X-38646Y2214D01*
Y2219D01*
X-38651Y2234D01*
X-38656Y2255D01*
X-38661Y2285D01*
X-38671Y2321D01*
X-38681Y2367D01*
X-38692Y2418D01*
X-38702Y2474D01*
X-38712Y2540D01*
X-38722Y2612D01*
X-38732Y2683D01*
X-38743Y2765D01*
X-38753Y2938D01*
X-38758Y3127D01*
Y3132D01*
Y3152D01*
Y3183D01*
Y3224D01*
X-38753Y3275D01*
X-38748Y3331D01*
Y3397D01*
X-38737Y3468D01*
X-38722Y3627D01*
X-38697Y3795D01*
X-38661Y3963D01*
X-38615Y4126D01*
Y4131D01*
X-38610Y4147D01*
X-38600Y4167D01*
X-38590Y4198D01*
X-38574Y4233D01*
X-38559Y4274D01*
X-38513Y4371D01*
X-38457Y4483D01*
X-38391Y4595D01*
X-38314Y4713D01*
X-38227Y4820D01*
X-38222Y4825D01*
X-38217Y4830D01*
X-38202Y4845D01*
X-38182Y4866D01*
X-38131Y4912D01*
X-38059Y4973D01*
X-37973Y5034D01*
X-37876Y5100D01*
X-37763Y5167D01*
X-37641Y5218D01*
X-37636D01*
X-37626Y5223D01*
X-37605Y5228D01*
X-37580Y5238D01*
X-37549Y5248D01*
X-37514Y5258D01*
X-37473Y5274D01*
X-37422Y5284D01*
X-37315Y5310D01*
X-37192Y5330D01*
X-37054Y5345D01*
X-36912Y5350D01*
X-36840D01*
X-36794Y5345D01*
D02*
G37*
G36*
X-58347Y5345D02*
X-58291Y5340D01*
X-58230Y5335D01*
X-58097Y5315D01*
X-58087D01*
X-58066Y5310D01*
X-58031Y5299D01*
X-57990Y5289D01*
X-57939Y5274D01*
X-57883Y5258D01*
X-57771Y5218D01*
X-57766D01*
X-57745Y5207D01*
X-57715Y5197D01*
X-57679Y5182D01*
X-57638Y5162D01*
X-57592Y5136D01*
X-57500Y5085D01*
X-57495Y5080D01*
X-57480Y5075D01*
X-57460Y5060D01*
X-57434Y5044D01*
X-57378Y5003D01*
X-57353Y4978D01*
X-57332Y4958D01*
X-57322Y4947D01*
X-57301Y4927D01*
X-57281Y4902D01*
X-57261Y4876D01*
X-57256Y4871D01*
X-57250Y4856D01*
X-57240Y4830D01*
X-57230Y4800D01*
X-57225Y4794D01*
X-57220Y4774D01*
X-57215Y4743D01*
X-57210Y4703D01*
Y4692D01*
X-57205Y4667D01*
Y4626D01*
Y4575D01*
Y4570D01*
Y4550D01*
Y4519D01*
X-57210Y4478D01*
X-57220Y4402D01*
X-57230Y4366D01*
X-57245Y4335D01*
Y4330D01*
X-57250Y4325D01*
X-57271Y4305D01*
X-57301Y4279D01*
X-57322Y4274D01*
X-57342Y4269D01*
X-57353D01*
X-57368Y4274D01*
X-57388Y4279D01*
X-57434Y4300D01*
X-57465Y4315D01*
X-57495Y4341D01*
X-57500Y4346D01*
X-57511Y4351D01*
X-57526Y4366D01*
X-57551Y4386D01*
X-57582Y4412D01*
X-57618Y4437D01*
X-57664Y4468D01*
X-57709Y4499D01*
X-57715Y4504D01*
X-57735Y4514D01*
X-57761Y4529D01*
X-57801Y4555D01*
X-57847Y4580D01*
X-57903Y4606D01*
X-57964Y4636D01*
X-58031Y4662D01*
X-58041Y4667D01*
X-58061Y4672D01*
X-58102Y4687D01*
X-58153Y4703D01*
X-58219Y4713D01*
X-58291Y4728D01*
X-58378Y4733D01*
X-58469Y4738D01*
X-58520D01*
X-58556Y4733D01*
X-58602Y4728D01*
X-58648Y4718D01*
X-58704Y4703D01*
X-58765Y4687D01*
X-58832Y4667D01*
X-58898Y4641D01*
X-58964Y4606D01*
X-59030Y4570D01*
X-59097Y4524D01*
X-59158Y4468D01*
X-59219Y4407D01*
X-59275Y4335D01*
X-59280Y4330D01*
X-59285Y4315D01*
X-59301Y4295D01*
X-59316Y4259D01*
X-59336Y4218D01*
X-59362Y4167D01*
X-59387Y4106D01*
X-59413Y4040D01*
X-59438Y3958D01*
X-59464Y3871D01*
X-59484Y3779D01*
X-59510Y3672D01*
X-59525Y3560D01*
X-59540Y3438D01*
X-59545Y3305D01*
X-59551Y3167D01*
Y3162D01*
Y3152D01*
Y3132D01*
Y3101D01*
Y3071D01*
X-59545Y3030D01*
X-59540Y2938D01*
X-59535Y2836D01*
X-59520Y2724D01*
X-59505Y2606D01*
X-59479Y2494D01*
Y2489D01*
X-59474Y2484D01*
X-59469Y2469D01*
X-59464Y2448D01*
X-59449Y2392D01*
X-59428Y2326D01*
X-59398Y2249D01*
X-59362Y2173D01*
X-59316Y2091D01*
X-59270Y2015D01*
X-59265Y2005D01*
X-59245Y1984D01*
X-59214Y1949D01*
X-59173Y1908D01*
X-59122Y1857D01*
X-59061Y1811D01*
X-58995Y1765D01*
X-58923Y1724D01*
X-58913Y1719D01*
X-58888Y1709D01*
X-58847Y1694D01*
X-58786Y1678D01*
X-58719Y1663D01*
X-58638Y1648D01*
X-58551Y1637D01*
X-58454Y1632D01*
X-58413D01*
X-58367Y1637D01*
X-58306Y1643D01*
X-58235Y1653D01*
X-58163Y1663D01*
X-58087Y1683D01*
X-58016Y1709D01*
X-58005Y1714D01*
X-57985Y1724D01*
X-57949Y1740D01*
X-57903Y1760D01*
X-57852Y1785D01*
X-57796Y1811D01*
X-57689Y1877D01*
X-57684Y1882D01*
X-57664Y1892D01*
X-57638Y1913D01*
X-57608Y1933D01*
X-57531Y1989D01*
X-57455Y2051D01*
X-57449Y2056D01*
X-57439Y2066D01*
X-57419Y2076D01*
X-57398Y2091D01*
X-57353Y2122D01*
X-57327Y2127D01*
X-57307Y2132D01*
X-57286D01*
X-57271Y2122D01*
X-57256Y2112D01*
X-57250Y2107D01*
X-57240Y2097D01*
X-57225Y2081D01*
X-57215Y2051D01*
X-57210Y2046D01*
X-57205Y2020D01*
X-57200Y1989D01*
X-57194Y1943D01*
Y1938D01*
Y1933D01*
X-57189Y1903D01*
X-57184Y1857D01*
Y1796D01*
Y1791D01*
Y1785D01*
Y1750D01*
Y1709D01*
X-57189Y1663D01*
Y1653D01*
X-57194Y1632D01*
X-57200Y1602D01*
X-57210Y1571D01*
Y1566D01*
X-57215Y1551D01*
X-57225Y1530D01*
X-57235Y1505D01*
X-57240Y1500D01*
X-57250Y1484D01*
X-57271Y1454D01*
X-57307Y1418D01*
X-57317Y1408D01*
X-57332Y1398D01*
X-57347Y1383D01*
X-57373Y1362D01*
X-57403Y1342D01*
X-57444Y1316D01*
X-57490Y1286D01*
X-57495Y1280D01*
X-57516Y1270D01*
X-57541Y1255D01*
X-57577Y1240D01*
X-57623Y1214D01*
X-57674Y1189D01*
X-57730Y1168D01*
X-57791Y1143D01*
X-57796D01*
X-57822Y1133D01*
X-57852Y1122D01*
X-57898Y1107D01*
X-57949Y1092D01*
X-58010Y1077D01*
X-58077Y1056D01*
X-58148Y1041D01*
X-58158D01*
X-58184Y1036D01*
X-58219Y1031D01*
X-58271Y1020D01*
X-58332Y1015D01*
X-58398Y1005D01*
X-58469Y1000D01*
X-58617D01*
X-58653Y1005D01*
X-58699D01*
X-58750Y1010D01*
X-58801Y1015D01*
X-58918Y1036D01*
X-59046Y1056D01*
X-59178Y1092D01*
X-59306Y1138D01*
X-59311D01*
X-59321Y1143D01*
X-59336Y1153D01*
X-59362Y1163D01*
X-59387Y1178D01*
X-59423Y1199D01*
X-59500Y1245D01*
X-59586Y1301D01*
X-59678Y1372D01*
X-59775Y1454D01*
X-59862Y1551D01*
Y1556D01*
X-59872Y1561D01*
X-59882Y1576D01*
X-59897Y1602D01*
X-59918Y1627D01*
X-59938Y1658D01*
X-59984Y1734D01*
X-60040Y1831D01*
X-60096Y1943D01*
X-60152Y2071D01*
X-60198Y2214D01*
Y2219D01*
X-60203Y2234D01*
X-60208Y2255D01*
X-60214Y2285D01*
X-60224Y2321D01*
X-60234Y2367D01*
X-60244Y2418D01*
X-60254Y2474D01*
X-60265Y2540D01*
X-60275Y2612D01*
X-60285Y2683D01*
X-60295Y2765D01*
X-60305Y2938D01*
X-60311Y3127D01*
Y3132D01*
Y3152D01*
Y3183D01*
Y3224D01*
X-60305Y3275D01*
X-60300Y3331D01*
Y3397D01*
X-60290Y3468D01*
X-60275Y3627D01*
X-60249Y3795D01*
X-60214Y3963D01*
X-60168Y4126D01*
Y4131D01*
X-60163Y4147D01*
X-60152Y4167D01*
X-60142Y4198D01*
X-60127Y4233D01*
X-60112Y4274D01*
X-60066Y4371D01*
X-60010Y4483D01*
X-59943Y4595D01*
X-59867Y4713D01*
X-59780Y4820D01*
X-59775Y4825D01*
X-59770Y4830D01*
X-59755Y4845D01*
X-59734Y4866D01*
X-59683Y4912D01*
X-59612Y4973D01*
X-59525Y5034D01*
X-59428Y5100D01*
X-59316Y5167D01*
X-59194Y5218D01*
X-59188D01*
X-59178Y5223D01*
X-59158Y5228D01*
X-59132Y5238D01*
X-59102Y5248D01*
X-59066Y5258D01*
X-59025Y5274D01*
X-58974Y5284D01*
X-58867Y5310D01*
X-58745Y5330D01*
X-58607Y5345D01*
X-58464Y5350D01*
X-58393D01*
X-58347Y5345D01*
D02*
G37*
G36*
X-79951Y6788D02*
X-79889Y6783D01*
X-79874D01*
X-79843Y6778D01*
X-79808Y6768D01*
X-79772Y6753D01*
X-79767Y6748D01*
X-79747Y6737D01*
X-79731Y6727D01*
X-79711Y6707D01*
X-79706Y6702D01*
X-79701Y6692D01*
X-79696Y6671D01*
X-79690Y6651D01*
Y1388D01*
Y1383D01*
Y1372D01*
Y1357D01*
X-79696Y1337D01*
X-79701Y1291D01*
X-79721Y1240D01*
X-79726Y1230D01*
X-79742Y1204D01*
X-79767Y1173D01*
X-79803Y1138D01*
X-79813Y1133D01*
X-79833Y1117D01*
X-79869Y1097D01*
X-79910Y1082D01*
X-79920D01*
X-79945Y1077D01*
X-79981Y1071D01*
X-80027Y1066D01*
X-80318D01*
X-80348Y1071D01*
X-80415Y1077D01*
X-80486Y1087D01*
X-80491D01*
X-80501Y1092D01*
X-80517Y1097D01*
X-80537Y1107D01*
X-80593Y1133D01*
X-80654Y1173D01*
X-80660Y1178D01*
X-80670Y1184D01*
X-80685Y1199D01*
X-80705Y1219D01*
X-80731Y1245D01*
X-80756Y1275D01*
X-80818Y1352D01*
X-80823Y1357D01*
X-80833Y1372D01*
X-80848Y1398D01*
X-80869Y1428D01*
X-80889Y1469D01*
X-80920Y1520D01*
X-80950Y1576D01*
X-80981Y1637D01*
X-82720Y4876D01*
Y4881D01*
X-82725Y4886D01*
X-82735Y4902D01*
X-82745Y4922D01*
X-82771Y4973D01*
X-82807Y5039D01*
X-82847Y5116D01*
X-82893Y5207D01*
X-82944Y5304D01*
X-82995Y5406D01*
Y5412D01*
X-83000Y5417D01*
X-83011Y5432D01*
X-83021Y5452D01*
X-83046Y5508D01*
X-83077Y5575D01*
X-83118Y5656D01*
X-83158Y5748D01*
X-83204Y5845D01*
X-83250Y5942D01*
X-83261D01*
Y5937D01*
Y5927D01*
Y5911D01*
Y5886D01*
X-83255Y5855D01*
Y5825D01*
Y5738D01*
X-83250Y5641D01*
Y5529D01*
X-83245Y5412D01*
Y5289D01*
Y5284D01*
Y5274D01*
Y5258D01*
Y5233D01*
Y5202D01*
Y5167D01*
X-83240Y5085D01*
Y4988D01*
Y4876D01*
Y4759D01*
Y4636D01*
Y1194D01*
Y1189D01*
Y1173D01*
X-83250Y1153D01*
X-83261Y1133D01*
X-83266Y1127D01*
X-83276Y1117D01*
X-83296Y1107D01*
X-83327Y1092D01*
X-83332D01*
X-83357Y1087D01*
X-83393Y1082D01*
X-83444Y1071D01*
X-83454D01*
X-83475Y1066D01*
X-83495D01*
X-83551Y1061D01*
X-83623Y1056D01*
X-83689D01*
X-83750Y1061D01*
X-83811Y1071D01*
X-83821D01*
X-83852Y1077D01*
X-83888Y1087D01*
X-83924Y1092D01*
X-83929Y1097D01*
X-83944Y1102D01*
X-83964Y1117D01*
X-83985Y1133D01*
Y1138D01*
X-83990Y1153D01*
X-83995Y1173D01*
X-84000Y1194D01*
Y6457D01*
Y6467D01*
Y6488D01*
X-83995Y6518D01*
X-83990Y6554D01*
X-83974Y6595D01*
X-83959Y6635D01*
X-83934Y6676D01*
X-83903Y6707D01*
X-83898Y6712D01*
X-83883Y6717D01*
X-83862Y6732D01*
X-83837Y6748D01*
X-83806Y6758D01*
X-83765Y6773D01*
X-83725Y6778D01*
X-83684Y6783D01*
X-83266D01*
X-83235Y6778D01*
X-83164Y6773D01*
X-83092Y6758D01*
X-83087D01*
X-83077Y6753D01*
X-83062Y6748D01*
X-83036Y6743D01*
X-82985Y6717D01*
X-82934Y6686D01*
X-82929D01*
X-82924Y6676D01*
X-82888Y6651D01*
X-82847Y6605D01*
X-82796Y6544D01*
X-82791Y6539D01*
X-82786Y6528D01*
X-82771Y6508D01*
X-82756Y6482D01*
X-82735Y6452D01*
X-82710Y6411D01*
X-82684Y6370D01*
X-82659Y6319D01*
X-81322Y3815D01*
X-81317Y3805D01*
X-81302Y3774D01*
X-81277Y3734D01*
X-81246Y3672D01*
X-81210Y3606D01*
X-81169Y3530D01*
X-81083Y3366D01*
X-81078Y3356D01*
X-81062Y3331D01*
X-81042Y3290D01*
X-81011Y3234D01*
X-80976Y3167D01*
X-80940Y3096D01*
X-80863Y2938D01*
X-80858Y2928D01*
X-80843Y2902D01*
X-80823Y2861D01*
X-80797Y2805D01*
X-80767Y2744D01*
X-80731Y2673D01*
X-80654Y2520D01*
X-80649Y2510D01*
X-80634Y2484D01*
X-80614Y2443D01*
X-80588Y2392D01*
X-80558Y2331D01*
X-80522Y2260D01*
X-80445Y2112D01*
X-80440D01*
Y2117D01*
Y2127D01*
Y2148D01*
Y2173D01*
Y2204D01*
X-80445Y2239D01*
Y2285D01*
Y2331D01*
Y2443D01*
X-80450Y2566D01*
Y2698D01*
Y2836D01*
Y2841D01*
Y2851D01*
Y2872D01*
Y2902D01*
Y2933D01*
Y2974D01*
Y3020D01*
Y3071D01*
Y3178D01*
Y3300D01*
Y3428D01*
Y3560D01*
Y6651D01*
Y6656D01*
Y6671D01*
X-80445Y6686D01*
X-80435Y6707D01*
X-80430Y6712D01*
X-80420Y6722D01*
X-80399Y6737D01*
X-80374Y6753D01*
X-80364Y6758D01*
X-80343Y6763D01*
X-80303Y6773D01*
X-80257Y6783D01*
X-80241D01*
X-80226Y6788D01*
X-80175D01*
X-80144Y6794D01*
X-80007D01*
X-79951Y6788D01*
D02*
G37*
G36*
X-40069Y5289D02*
X-40012Y5284D01*
X-40002D01*
X-39972Y5279D01*
X-39936Y5269D01*
X-39900Y5253D01*
X-39895Y5248D01*
X-39880Y5243D01*
X-39860Y5228D01*
X-39844Y5213D01*
X-39839Y5207D01*
X-39834Y5197D01*
X-39829Y5177D01*
X-39824Y5156D01*
Y1189D01*
Y1184D01*
Y1168D01*
X-39834Y1148D01*
X-39844Y1127D01*
X-39849Y1122D01*
X-39854Y1117D01*
X-39875Y1102D01*
X-39900Y1092D01*
X-39905D01*
X-39931Y1082D01*
X-39967Y1077D01*
X-40012Y1066D01*
X-40023D01*
X-40043Y1061D01*
X-40064D01*
X-40120Y1056D01*
X-40252D01*
X-40313Y1061D01*
X-40369Y1066D01*
X-40380D01*
X-40410Y1071D01*
X-40446Y1082D01*
X-40482Y1092D01*
X-40487Y1097D01*
X-40502Y1102D01*
X-40523Y1112D01*
X-40538Y1127D01*
Y1133D01*
X-40543Y1143D01*
X-40548Y1163D01*
X-40553Y1189D01*
Y5156D01*
Y5162D01*
Y5177D01*
X-40548Y5192D01*
X-40538Y5213D01*
X-40533Y5218D01*
X-40523Y5228D01*
X-40507Y5243D01*
X-40482Y5253D01*
X-40472Y5258D01*
X-40451Y5264D01*
X-40415Y5274D01*
X-40369Y5284D01*
X-40354D01*
X-40339Y5289D01*
X-40319D01*
X-40262Y5294D01*
X-40130D01*
X-40069Y5289D01*
D02*
G37*
G36*
X-66109Y7212D02*
X-66053Y7207D01*
X-66043D01*
X-66012Y7202D01*
X-65977Y7191D01*
X-65941Y7176D01*
X-65936Y7171D01*
X-65921Y7166D01*
X-65900Y7151D01*
X-65885Y7135D01*
X-65880Y7130D01*
X-65875Y7120D01*
X-65869Y7100D01*
X-65864Y7074D01*
Y1189D01*
Y1184D01*
Y1168D01*
X-65875Y1148D01*
X-65885Y1127D01*
X-65890Y1122D01*
X-65895Y1117D01*
X-65915Y1102D01*
X-65941Y1092D01*
X-65946D01*
X-65971Y1082D01*
X-66007Y1077D01*
X-66053Y1066D01*
X-66063D01*
X-66084Y1061D01*
X-66104D01*
X-66160Y1056D01*
X-66293D01*
X-66354Y1061D01*
X-66410Y1066D01*
X-66420D01*
X-66451Y1071D01*
X-66487Y1082D01*
X-66522Y1092D01*
X-66527Y1097D01*
X-66543Y1102D01*
X-66563Y1112D01*
X-66578Y1127D01*
Y1133D01*
X-66584Y1143D01*
X-66589Y1163D01*
X-66594Y1189D01*
Y7074D01*
Y7079D01*
Y7095D01*
X-66589Y7115D01*
X-66578Y7135D01*
X-66573Y7140D01*
X-66563Y7151D01*
X-66548Y7166D01*
X-66522Y7176D01*
X-66512Y7181D01*
X-66492Y7186D01*
X-66456Y7197D01*
X-66410Y7207D01*
X-66395D01*
X-66379Y7212D01*
X-66359D01*
X-66303Y7217D01*
X-66170D01*
X-66109Y7212D01*
D02*
G37*
G36*
X-76503Y6778D02*
X-76442D01*
X-76381Y6773D01*
X-76324Y6768D01*
X-76299D01*
X-76274Y6763D01*
X-76238D01*
X-76197Y6758D01*
X-76156D01*
X-76069Y6748D01*
X-76064D01*
X-76054Y6743D01*
X-76039D01*
X-76013Y6737D01*
X-75983Y6732D01*
X-75952Y6722D01*
X-75871Y6702D01*
X-75784Y6676D01*
X-75682Y6646D01*
X-75585Y6605D01*
X-75488Y6564D01*
X-75483D01*
X-75478Y6559D01*
X-75447Y6544D01*
X-75396Y6513D01*
X-75340Y6477D01*
X-75269Y6437D01*
X-75197Y6380D01*
X-75126Y6319D01*
X-75060Y6253D01*
X-75050Y6243D01*
X-75029Y6222D01*
X-74998Y6182D01*
X-74963Y6131D01*
X-74922Y6064D01*
X-74876Y5993D01*
X-74835Y5906D01*
X-74800Y5819D01*
Y5814D01*
X-74795Y5809D01*
X-74789Y5794D01*
X-74784Y5779D01*
X-74774Y5728D01*
X-74754Y5661D01*
X-74738Y5580D01*
X-74728Y5488D01*
X-74718Y5386D01*
X-74713Y5279D01*
Y5274D01*
Y5269D01*
Y5253D01*
Y5233D01*
X-74718Y5177D01*
X-74723Y5105D01*
X-74733Y5029D01*
X-74749Y4942D01*
X-74769Y4851D01*
X-74795Y4764D01*
X-74800Y4754D01*
X-74810Y4728D01*
X-74825Y4682D01*
X-74851Y4631D01*
X-74881Y4570D01*
X-74922Y4504D01*
X-74968Y4432D01*
X-75019Y4366D01*
X-75024Y4361D01*
X-75044Y4335D01*
X-75075Y4305D01*
X-75116Y4264D01*
X-75167Y4218D01*
X-75223Y4167D01*
X-75294Y4116D01*
X-75366Y4065D01*
X-75376Y4060D01*
X-75401Y4045D01*
X-75442Y4019D01*
X-75498Y3989D01*
X-75565Y3958D01*
X-75641Y3922D01*
X-75723Y3887D01*
X-75814Y3851D01*
X-75809Y3846D01*
X-75789Y3841D01*
X-75763Y3825D01*
X-75733Y3805D01*
X-75692Y3785D01*
X-75651Y3754D01*
X-75565Y3688D01*
X-75560Y3683D01*
X-75544Y3672D01*
X-75524Y3652D01*
X-75493Y3627D01*
X-75463Y3591D01*
X-75427Y3555D01*
X-75350Y3463D01*
X-75345Y3458D01*
X-75335Y3438D01*
X-75315Y3412D01*
X-75289Y3377D01*
X-75259Y3331D01*
X-75228Y3280D01*
X-75192Y3218D01*
X-75162Y3157D01*
X-75157Y3152D01*
X-75146Y3127D01*
X-75126Y3091D01*
X-75106Y3045D01*
X-75080Y2989D01*
X-75050Y2923D01*
X-75014Y2851D01*
X-74983Y2775D01*
X-74473Y1515D01*
X-74468Y1510D01*
X-74463Y1490D01*
X-74453Y1464D01*
X-74443Y1428D01*
X-74417Y1352D01*
X-74402Y1321D01*
X-74397Y1291D01*
X-74392Y1280D01*
X-74387Y1255D01*
X-74381Y1224D01*
X-74376Y1194D01*
Y1189D01*
Y1173D01*
X-74381Y1153D01*
X-74392Y1133D01*
Y1127D01*
X-74402Y1117D01*
X-74417Y1107D01*
X-74448Y1092D01*
X-74453D01*
X-74478Y1082D01*
X-74514Y1077D01*
X-74570Y1066D01*
X-74585D01*
X-74601Y1061D01*
X-74657D01*
X-74692Y1056D01*
X-74845D01*
X-74907Y1061D01*
X-74968Y1066D01*
X-74978D01*
X-75009Y1071D01*
X-75050Y1082D01*
X-75085Y1092D01*
X-75090Y1097D01*
X-75111Y1107D01*
X-75136Y1122D01*
X-75157Y1148D01*
X-75162Y1153D01*
X-75167Y1173D01*
X-75182Y1199D01*
X-75192Y1235D01*
X-75718Y2581D01*
Y2586D01*
X-75723Y2591D01*
X-75733Y2622D01*
X-75753Y2663D01*
X-75774Y2719D01*
X-75804Y2785D01*
X-75840Y2856D01*
X-75911Y2999D01*
X-75916Y3009D01*
X-75927Y3030D01*
X-75947Y3066D01*
X-75978Y3111D01*
X-76013Y3167D01*
X-76049Y3218D01*
X-76095Y3275D01*
X-76146Y3331D01*
X-76151Y3336D01*
X-76171Y3351D01*
X-76197Y3377D01*
X-76238Y3407D01*
X-76284Y3443D01*
X-76340Y3479D01*
X-76401Y3514D01*
X-76467Y3545D01*
X-76477Y3550D01*
X-76498Y3560D01*
X-76539Y3570D01*
X-76590Y3586D01*
X-76656Y3601D01*
X-76732Y3616D01*
X-76819Y3621D01*
X-76911Y3627D01*
X-77416D01*
Y1194D01*
Y1189D01*
Y1173D01*
X-77426Y1153D01*
X-77436Y1133D01*
X-77441Y1127D01*
X-77452Y1117D01*
X-77472Y1107D01*
X-77503Y1092D01*
X-77508D01*
X-77533Y1087D01*
X-77569Y1082D01*
X-77615Y1071D01*
X-77625D01*
X-77645Y1066D01*
X-77666D01*
X-77691Y1061D01*
X-77722D01*
X-77798Y1056D01*
X-77865D01*
X-77921Y1061D01*
X-77982Y1071D01*
X-77992D01*
X-78023Y1077D01*
X-78064Y1087D01*
X-78099Y1092D01*
X-78104Y1097D01*
X-78125Y1102D01*
X-78145Y1117D01*
X-78161Y1133D01*
Y1138D01*
X-78166Y1148D01*
X-78171Y1168D01*
X-78176Y1194D01*
Y6472D01*
Y6482D01*
Y6503D01*
X-78171Y6528D01*
X-78166Y6569D01*
X-78155Y6605D01*
X-78140Y6646D01*
X-78120Y6681D01*
X-78089Y6712D01*
X-78084Y6717D01*
X-78074Y6722D01*
X-78053Y6732D01*
X-78028Y6748D01*
X-77967Y6773D01*
X-77931Y6778D01*
X-77895Y6783D01*
X-76559D01*
X-76503Y6778D01*
D02*
G37*
G36*
X-72806Y2061D02*
X-72749Y2056D01*
X-72688Y2040D01*
X-72627Y2025D01*
X-72576Y2000D01*
X-72530Y1964D01*
X-72525Y1959D01*
X-72515Y1943D01*
X-72500Y1918D01*
X-72479Y1877D01*
X-72459Y1821D01*
X-72443Y1750D01*
X-72433Y1663D01*
X-72428Y1556D01*
Y1551D01*
Y1541D01*
Y1525D01*
Y1505D01*
X-72433Y1454D01*
X-72438Y1388D01*
X-72454Y1316D01*
X-72469Y1250D01*
X-72494Y1189D01*
X-72530Y1143D01*
X-72535Y1138D01*
X-72550Y1127D01*
X-72576Y1112D01*
X-72617Y1092D01*
X-72668Y1071D01*
X-72734Y1056D01*
X-72811Y1046D01*
X-72908Y1041D01*
X-72948D01*
X-72994Y1046D01*
X-73050Y1051D01*
X-73111Y1066D01*
X-73173Y1082D01*
X-73229Y1107D01*
X-73275Y1138D01*
X-73280Y1143D01*
X-73290Y1158D01*
X-73305Y1189D01*
X-73321Y1230D01*
X-73341Y1280D01*
X-73356Y1352D01*
X-73366Y1439D01*
X-73372Y1546D01*
Y1551D01*
Y1561D01*
Y1576D01*
Y1597D01*
X-73366Y1648D01*
X-73356Y1714D01*
X-73346Y1785D01*
X-73331Y1852D01*
X-73305Y1913D01*
X-73270Y1959D01*
X-73264Y1964D01*
X-73249Y1974D01*
X-73224Y1994D01*
X-73183Y2015D01*
X-73132Y2030D01*
X-73066Y2051D01*
X-72989Y2061D01*
X-72892Y2066D01*
X-72851D01*
X-72806Y2061D01*
D02*
G37*
G36*
X-55562Y6345D02*
X-55506Y6340D01*
X-55496D01*
X-55466Y6335D01*
X-55430Y6324D01*
X-55394Y6309D01*
X-55389Y6304D01*
X-55374Y6294D01*
X-55353Y6284D01*
X-55338Y6263D01*
X-55333Y6258D01*
X-55328Y6248D01*
X-55323Y6227D01*
X-55318Y6207D01*
Y5269D01*
X-54282D01*
X-54262Y5258D01*
X-54242Y5248D01*
X-54236Y5243D01*
X-54226Y5238D01*
X-54211Y5223D01*
X-54196Y5197D01*
X-54190Y5192D01*
X-54185Y5172D01*
X-54175Y5141D01*
X-54165Y5100D01*
Y5090D01*
X-54160Y5065D01*
X-54155Y5019D01*
Y4963D01*
Y4958D01*
Y4937D01*
Y4907D01*
X-54160Y4876D01*
X-54170Y4800D01*
X-54180Y4764D01*
X-54196Y4733D01*
Y4728D01*
X-54201Y4723D01*
X-54226Y4703D01*
X-54257Y4677D01*
X-54277Y4672D01*
X-54303Y4667D01*
X-55318D01*
Y2454D01*
Y2448D01*
Y2438D01*
Y2413D01*
Y2387D01*
X-55313Y2351D01*
Y2316D01*
X-55302Y2224D01*
X-55287Y2122D01*
X-55267Y2020D01*
X-55241Y1923D01*
X-55200Y1836D01*
X-55195Y1826D01*
X-55175Y1806D01*
X-55144Y1770D01*
X-55098Y1734D01*
X-55042Y1694D01*
X-54966Y1658D01*
X-54874Y1637D01*
X-54767Y1627D01*
X-54706D01*
X-54650Y1632D01*
X-54588Y1643D01*
X-54583D01*
X-54573Y1648D01*
X-54558Y1653D01*
X-54537Y1658D01*
X-54491Y1668D01*
X-54445Y1683D01*
X-54440D01*
X-54435Y1688D01*
X-54410Y1699D01*
X-54374Y1714D01*
X-54338Y1729D01*
X-54328Y1734D01*
X-54313Y1740D01*
X-54282Y1745D01*
X-54257Y1750D01*
X-54242D01*
X-54231Y1745D01*
X-54216Y1734D01*
X-54211D01*
X-54206Y1724D01*
X-54196Y1714D01*
X-54185Y1694D01*
Y1688D01*
X-54180Y1673D01*
X-54170Y1648D01*
X-54165Y1612D01*
Y1602D01*
X-54160Y1576D01*
X-54155Y1536D01*
Y1479D01*
Y1474D01*
Y1459D01*
Y1433D01*
Y1408D01*
X-54165Y1342D01*
X-54175Y1275D01*
Y1270D01*
X-54180Y1265D01*
X-54185Y1235D01*
X-54201Y1194D01*
X-54226Y1163D01*
X-54231Y1158D01*
X-54252Y1143D01*
X-54287Y1122D01*
X-54333Y1102D01*
X-54338D01*
X-54343Y1097D01*
X-54359Y1092D01*
X-54379Y1087D01*
X-54430Y1071D01*
X-54497Y1056D01*
X-54502D01*
X-54512Y1051D01*
X-54527D01*
X-54553Y1046D01*
X-54614Y1031D01*
X-54685Y1020D01*
X-54700D01*
X-54721Y1015D01*
X-54746D01*
X-54813Y1010D01*
X-54889Y1005D01*
X-54940D01*
X-55001Y1010D01*
X-55073Y1015D01*
X-55154Y1025D01*
X-55246Y1036D01*
X-55333Y1056D01*
X-55420Y1082D01*
X-55430Y1087D01*
X-55455Y1097D01*
X-55496Y1117D01*
X-55547Y1143D01*
X-55603Y1178D01*
X-55664Y1219D01*
X-55726Y1270D01*
X-55782Y1326D01*
X-55787Y1337D01*
X-55802Y1357D01*
X-55828Y1393D01*
X-55858Y1444D01*
X-55894Y1505D01*
X-55924Y1576D01*
X-55960Y1658D01*
X-55986Y1750D01*
Y1755D01*
Y1760D01*
X-55991Y1775D01*
X-55996Y1796D01*
X-56006Y1847D01*
X-56016Y1918D01*
X-56027Y2010D01*
X-56037Y2107D01*
X-56042Y2224D01*
X-56047Y2346D01*
Y4667D01*
X-56613D01*
X-56638Y4677D01*
X-56674Y4698D01*
X-56695Y4713D01*
X-56710Y4733D01*
Y4738D01*
X-56715Y4749D01*
X-56720Y4764D01*
X-56725Y4789D01*
X-56735Y4820D01*
X-56740Y4861D01*
X-56746Y4907D01*
Y4963D01*
Y4968D01*
Y4978D01*
Y4993D01*
Y5009D01*
X-56740Y5054D01*
X-56735Y5100D01*
Y5105D01*
Y5111D01*
X-56730Y5136D01*
X-56720Y5167D01*
X-56710Y5197D01*
X-56705Y5202D01*
X-56695Y5218D01*
X-56679Y5233D01*
X-56664Y5248D01*
X-56659Y5253D01*
X-56644Y5258D01*
X-56623Y5264D01*
X-56598Y5269D01*
X-56047D01*
Y6207D01*
Y6212D01*
Y6227D01*
X-56042Y6243D01*
X-56032Y6263D01*
X-56027Y6268D01*
X-56016Y6278D01*
X-56001Y6294D01*
X-55976Y6309D01*
X-55965Y6314D01*
X-55945Y6319D01*
X-55909Y6329D01*
X-55863Y6340D01*
X-55848D01*
X-55833Y6345D01*
X-55812D01*
X-55756Y6350D01*
X-55624D01*
X-55562Y6345D01*
D02*
G37*
G36*
X-48183Y5350D02*
X-48132D01*
X-48076Y5345D01*
X-48014Y5335D01*
X-47882Y5320D01*
X-47739Y5294D01*
X-47596Y5258D01*
X-47453Y5207D01*
X-47448D01*
X-47438Y5202D01*
X-47418Y5192D01*
X-47392Y5182D01*
X-47362Y5167D01*
X-47326Y5146D01*
X-47244Y5100D01*
X-47147Y5039D01*
X-47045Y4968D01*
X-46949Y4881D01*
X-46852Y4784D01*
X-46847Y4779D01*
X-46841Y4774D01*
X-46826Y4759D01*
X-46811Y4733D01*
X-46790Y4708D01*
X-46770Y4677D01*
X-46739Y4641D01*
X-46714Y4595D01*
X-46653Y4499D01*
X-46591Y4386D01*
X-46535Y4254D01*
X-46484Y4111D01*
Y4106D01*
X-46479Y4091D01*
X-46474Y4070D01*
X-46464Y4040D01*
X-46454Y4004D01*
X-46444Y3958D01*
X-46433Y3907D01*
X-46423Y3851D01*
X-46413Y3785D01*
X-46403Y3718D01*
X-46382Y3565D01*
X-46367Y3397D01*
X-46362Y3218D01*
Y3213D01*
Y3198D01*
Y3173D01*
Y3137D01*
X-46367Y3096D01*
Y3045D01*
X-46372Y2989D01*
X-46377Y2928D01*
X-46393Y2790D01*
X-46418Y2637D01*
X-46449Y2484D01*
X-46495Y2326D01*
Y2321D01*
X-46500Y2306D01*
X-46510Y2285D01*
X-46520Y2260D01*
X-46530Y2224D01*
X-46551Y2183D01*
X-46591Y2086D01*
X-46643Y1974D01*
X-46709Y1857D01*
X-46785Y1740D01*
X-46877Y1622D01*
X-46882Y1617D01*
X-46887Y1607D01*
X-46903Y1592D01*
X-46923Y1571D01*
X-46949Y1551D01*
X-46974Y1520D01*
X-47050Y1454D01*
X-47142Y1383D01*
X-47249Y1306D01*
X-47372Y1230D01*
X-47510Y1163D01*
X-47515D01*
X-47525Y1158D01*
X-47545Y1148D01*
X-47576Y1138D01*
X-47611Y1127D01*
X-47657Y1112D01*
X-47703Y1097D01*
X-47759Y1082D01*
X-47821Y1066D01*
X-47892Y1051D01*
X-47963Y1036D01*
X-48040Y1025D01*
X-48208Y1005D01*
X-48392Y1000D01*
X-48473D01*
X-48514Y1005D01*
X-48565Y1010D01*
X-48621D01*
X-48677Y1020D01*
X-48810Y1036D01*
X-48953Y1061D01*
X-49101Y1097D01*
X-49244Y1143D01*
X-49249D01*
X-49259Y1148D01*
X-49279Y1158D01*
X-49305Y1168D01*
X-49335Y1184D01*
X-49371Y1204D01*
X-49453Y1250D01*
X-49549Y1306D01*
X-49652Y1377D01*
X-49753Y1464D01*
X-49850Y1561D01*
X-49856Y1566D01*
X-49861Y1576D01*
X-49871Y1592D01*
X-49891Y1612D01*
X-49912Y1637D01*
X-49932Y1673D01*
X-49957Y1709D01*
X-49983Y1750D01*
X-50044Y1852D01*
X-50100Y1964D01*
X-50156Y2097D01*
X-50207Y2239D01*
Y2244D01*
X-50213Y2260D01*
X-50218Y2280D01*
X-50228Y2311D01*
X-50233Y2346D01*
X-50243Y2392D01*
X-50253Y2443D01*
X-50264Y2499D01*
X-50279Y2566D01*
X-50289Y2632D01*
X-50304Y2785D01*
X-50320Y2953D01*
X-50325Y3137D01*
Y3142D01*
Y3157D01*
Y3183D01*
Y3218D01*
X-50320Y3264D01*
Y3310D01*
X-50314Y3366D01*
X-50309Y3433D01*
X-50294Y3570D01*
X-50274Y3718D01*
X-50243Y3876D01*
X-50202Y4029D01*
Y4034D01*
X-50197Y4050D01*
X-50187Y4070D01*
X-50177Y4096D01*
X-50167Y4131D01*
X-50146Y4172D01*
X-50105Y4269D01*
X-50054Y4381D01*
X-49988Y4499D01*
X-49912Y4616D01*
X-49825Y4733D01*
X-49820Y4738D01*
X-49815Y4749D01*
X-49799Y4764D01*
X-49779Y4784D01*
X-49753Y4805D01*
X-49723Y4835D01*
X-49652Y4902D01*
X-49560Y4973D01*
X-49453Y5049D01*
X-49330Y5126D01*
X-49193Y5192D01*
X-49187D01*
X-49177Y5197D01*
X-49152Y5207D01*
X-49126Y5218D01*
X-49090Y5228D01*
X-49045Y5243D01*
X-48994Y5258D01*
X-48937Y5274D01*
X-48876Y5289D01*
X-48810Y5304D01*
X-48739Y5320D01*
X-48657Y5330D01*
X-48489Y5350D01*
X-48305Y5355D01*
X-48224D01*
X-48183Y5350D01*
D02*
G37*
G36*
X-62769Y5350D02*
X-62723Y5345D01*
X-62672D01*
X-62611Y5335D01*
X-62488Y5320D01*
X-62356Y5289D01*
X-62223Y5253D01*
X-62095Y5202D01*
X-62090D01*
X-62080Y5197D01*
X-62065Y5187D01*
X-62039Y5177D01*
X-62014Y5162D01*
X-61978Y5141D01*
X-61902Y5095D01*
X-61820Y5039D01*
X-61728Y4968D01*
X-61637Y4891D01*
X-61555Y4800D01*
X-61550Y4794D01*
X-61545Y4789D01*
X-61535Y4774D01*
X-61519Y4754D01*
X-61484Y4703D01*
X-61438Y4631D01*
X-61387Y4539D01*
X-61336Y4442D01*
X-61285Y4325D01*
X-61244Y4203D01*
Y4198D01*
X-61239Y4188D01*
X-61234Y4167D01*
X-61229Y4147D01*
X-61218Y4111D01*
X-61213Y4075D01*
X-61203Y4034D01*
X-61193Y3989D01*
X-61172Y3876D01*
X-61157Y3754D01*
X-61147Y3621D01*
X-61142Y3479D01*
Y3346D01*
Y3341D01*
Y3320D01*
X-61147Y3290D01*
X-61152Y3249D01*
X-61162Y3208D01*
X-61177Y3167D01*
X-61198Y3132D01*
X-61229Y3101D01*
X-61234Y3096D01*
X-61244Y3091D01*
X-61264Y3081D01*
X-61285Y3066D01*
X-61315Y3050D01*
X-61351Y3040D01*
X-61387Y3035D01*
X-61427Y3030D01*
X-64034D01*
Y3025D01*
Y3015D01*
Y2999D01*
Y2974D01*
Y2943D01*
X-64028Y2912D01*
X-64023Y2831D01*
X-64018Y2739D01*
X-64003Y2637D01*
X-63988Y2535D01*
X-63967Y2433D01*
Y2428D01*
X-63962Y2423D01*
Y2408D01*
X-63952Y2387D01*
X-63937Y2341D01*
X-63916Y2275D01*
X-63886Y2204D01*
X-63845Y2132D01*
X-63799Y2051D01*
X-63748Y1979D01*
X-63743Y1969D01*
X-63722Y1949D01*
X-63687Y1913D01*
X-63641Y1872D01*
X-63585Y1826D01*
X-63513Y1775D01*
X-63437Y1729D01*
X-63350Y1688D01*
X-63345D01*
X-63340Y1683D01*
X-63325Y1678D01*
X-63304Y1673D01*
X-63253Y1658D01*
X-63182Y1643D01*
X-63090Y1622D01*
X-62988Y1607D01*
X-62871Y1597D01*
X-62738Y1592D01*
X-62692D01*
X-62636Y1597D01*
X-62570D01*
X-62493Y1602D01*
X-62407Y1612D01*
X-62325Y1622D01*
X-62238Y1637D01*
X-62228D01*
X-62203Y1648D01*
X-62157Y1653D01*
X-62106Y1668D01*
X-62045Y1683D01*
X-61983Y1699D01*
X-61917Y1719D01*
X-61856Y1740D01*
X-61851Y1745D01*
X-61830Y1750D01*
X-61800Y1760D01*
X-61759Y1775D01*
X-61677Y1806D01*
X-61631Y1826D01*
X-61591Y1842D01*
X-61585D01*
X-61575Y1852D01*
X-61555Y1857D01*
X-61529Y1867D01*
X-61478Y1882D01*
X-61453Y1892D01*
X-61412D01*
X-61397Y1882D01*
X-61376Y1872D01*
X-61371Y1867D01*
X-61361Y1862D01*
X-61351Y1847D01*
X-61341Y1826D01*
X-61336Y1821D01*
X-61330Y1806D01*
X-61325Y1775D01*
X-61320Y1740D01*
Y1729D01*
X-61315Y1704D01*
X-61310Y1663D01*
Y1607D01*
Y1597D01*
Y1571D01*
Y1541D01*
X-61315Y1505D01*
Y1500D01*
X-61320Y1479D01*
X-61325Y1454D01*
X-61330Y1428D01*
Y1423D01*
X-61336Y1408D01*
X-61351Y1372D01*
X-61356Y1367D01*
X-61361Y1357D01*
X-61392Y1321D01*
X-61397Y1316D01*
X-61402Y1311D01*
X-61417Y1306D01*
X-61438Y1296D01*
X-61458Y1280D01*
X-61494Y1265D01*
X-61535Y1245D01*
X-61540D01*
X-61555Y1235D01*
X-61580Y1224D01*
X-61616Y1209D01*
X-61662Y1194D01*
X-61713Y1173D01*
X-61774Y1153D01*
X-61840Y1133D01*
X-61851D01*
X-61876Y1122D01*
X-61912Y1112D01*
X-61968Y1102D01*
X-62029Y1087D01*
X-62106Y1071D01*
X-62187Y1056D01*
X-62279Y1041D01*
X-62289D01*
X-62305Y1036D01*
X-62320D01*
X-62371Y1031D01*
X-62437Y1020D01*
X-62519Y1015D01*
X-62611Y1005D01*
X-62708Y1000D01*
X-62891D01*
X-62932Y1005D01*
X-62983D01*
X-63039Y1010D01*
X-63100Y1015D01*
X-63233Y1031D01*
X-63376Y1056D01*
X-63524Y1087D01*
X-63666Y1133D01*
X-63671D01*
X-63682Y1138D01*
X-63702Y1148D01*
X-63727Y1158D01*
X-63758Y1173D01*
X-63794Y1189D01*
X-63880Y1235D01*
X-63977Y1291D01*
X-64079Y1362D01*
X-64187Y1444D01*
X-64283Y1536D01*
X-64289Y1541D01*
X-64294Y1546D01*
X-64309Y1561D01*
X-64324Y1586D01*
X-64345Y1612D01*
X-64370Y1643D01*
X-64396Y1678D01*
X-64426Y1719D01*
X-64487Y1821D01*
X-64549Y1933D01*
X-64610Y2066D01*
X-64661Y2209D01*
Y2214D01*
X-64666Y2229D01*
X-64671Y2249D01*
X-64681Y2280D01*
X-64691Y2321D01*
X-64702Y2367D01*
X-64712Y2418D01*
X-64722Y2479D01*
X-64737Y2545D01*
X-64748Y2622D01*
X-64758Y2698D01*
X-64768Y2780D01*
X-64783Y2963D01*
X-64788Y3157D01*
Y3162D01*
Y3178D01*
Y3208D01*
Y3244D01*
X-64783Y3290D01*
Y3341D01*
X-64778Y3397D01*
X-64773Y3463D01*
X-64758Y3606D01*
X-64732Y3759D01*
X-64702Y3917D01*
X-64661Y4075D01*
Y4080D01*
X-64656Y4096D01*
X-64645Y4116D01*
X-64635Y4142D01*
X-64620Y4177D01*
X-64605Y4218D01*
X-64564Y4315D01*
X-64508Y4422D01*
X-64442Y4539D01*
X-64365Y4652D01*
X-64278Y4764D01*
X-64273Y4769D01*
X-64268Y4774D01*
X-64253Y4789D01*
X-64232Y4810D01*
X-64181Y4861D01*
X-64110Y4927D01*
X-64023Y4998D01*
X-63921Y5070D01*
X-63804Y5141D01*
X-63677Y5202D01*
X-63671D01*
X-63661Y5207D01*
X-63641Y5218D01*
X-63615Y5228D01*
X-63580Y5238D01*
X-63544Y5253D01*
X-63498Y5264D01*
X-63447Y5279D01*
X-63391Y5294D01*
X-63330Y5310D01*
X-63192Y5330D01*
X-63044Y5350D01*
X-62886Y5355D01*
X-62809D01*
X-62769Y5350D01*
D02*
G37*
G36*
X-69327D02*
X-69281Y5345D01*
X-69230D01*
X-69169Y5335D01*
X-69047Y5320D01*
X-68914Y5289D01*
X-68782Y5253D01*
X-68654Y5202D01*
X-68649D01*
X-68639Y5197D01*
X-68624Y5187D01*
X-68598Y5177D01*
X-68572Y5162D01*
X-68537Y5141D01*
X-68460Y5095D01*
X-68379Y5039D01*
X-68287Y4968D01*
X-68195Y4891D01*
X-68113Y4800D01*
X-68108Y4794D01*
X-68103Y4789D01*
X-68093Y4774D01*
X-68078Y4754D01*
X-68042Y4703D01*
X-67996Y4631D01*
X-67945Y4539D01*
X-67894Y4442D01*
X-67843Y4325D01*
X-67802Y4203D01*
Y4198D01*
X-67797Y4188D01*
X-67792Y4167D01*
X-67787Y4147D01*
X-67777Y4111D01*
X-67772Y4075D01*
X-67762Y4034D01*
X-67751Y3989D01*
X-67731Y3876D01*
X-67716Y3754D01*
X-67706Y3621D01*
X-67700Y3479D01*
Y3346D01*
Y3341D01*
Y3320D01*
X-67706Y3290D01*
X-67711Y3249D01*
X-67721Y3208D01*
X-67736Y3167D01*
X-67756Y3132D01*
X-67787Y3101D01*
X-67792Y3096D01*
X-67802Y3091D01*
X-67823Y3081D01*
X-67843Y3066D01*
X-67874Y3050D01*
X-67909Y3040D01*
X-67945Y3035D01*
X-67986Y3030D01*
X-70592D01*
Y3025D01*
Y3015D01*
Y2999D01*
Y2974D01*
Y2943D01*
X-70587Y2912D01*
X-70582Y2831D01*
X-70577Y2739D01*
X-70561Y2637D01*
X-70546Y2535D01*
X-70526Y2433D01*
Y2428D01*
X-70521Y2423D01*
Y2408D01*
X-70511Y2387D01*
X-70495Y2341D01*
X-70475Y2275D01*
X-70444Y2204D01*
X-70403Y2132D01*
X-70358Y2051D01*
X-70306Y1979D01*
X-70301Y1969D01*
X-70281Y1949D01*
X-70245Y1913D01*
X-70199Y1872D01*
X-70143Y1826D01*
X-70072Y1775D01*
X-69995Y1729D01*
X-69909Y1688D01*
X-69904D01*
X-69898Y1683D01*
X-69883Y1678D01*
X-69863Y1673D01*
X-69812Y1658D01*
X-69740Y1643D01*
X-69649Y1622D01*
X-69547Y1607D01*
X-69429Y1597D01*
X-69297Y1592D01*
X-69251D01*
X-69195Y1597D01*
X-69128D01*
X-69052Y1602D01*
X-68965Y1612D01*
X-68884Y1622D01*
X-68797Y1637D01*
X-68787D01*
X-68761Y1648D01*
X-68715Y1653D01*
X-68664Y1668D01*
X-68603Y1683D01*
X-68542Y1699D01*
X-68476Y1719D01*
X-68414Y1740D01*
X-68409Y1745D01*
X-68389Y1750D01*
X-68358Y1760D01*
X-68318Y1775D01*
X-68236Y1806D01*
X-68190Y1826D01*
X-68149Y1842D01*
X-68144D01*
X-68134Y1852D01*
X-68113Y1857D01*
X-68088Y1867D01*
X-68037Y1882D01*
X-68011Y1892D01*
X-67971D01*
X-67955Y1882D01*
X-67935Y1872D01*
X-67930Y1867D01*
X-67920Y1862D01*
X-67909Y1847D01*
X-67899Y1826D01*
X-67894Y1821D01*
X-67889Y1806D01*
X-67884Y1775D01*
X-67879Y1740D01*
Y1729D01*
X-67874Y1704D01*
X-67869Y1663D01*
Y1607D01*
Y1597D01*
Y1571D01*
Y1541D01*
X-67874Y1505D01*
Y1500D01*
X-67879Y1479D01*
X-67884Y1454D01*
X-67889Y1428D01*
Y1423D01*
X-67894Y1408D01*
X-67909Y1372D01*
X-67915Y1367D01*
X-67920Y1357D01*
X-67950Y1321D01*
X-67955Y1316D01*
X-67961Y1311D01*
X-67976Y1306D01*
X-67996Y1296D01*
X-68017Y1280D01*
X-68052Y1265D01*
X-68093Y1245D01*
X-68098D01*
X-68113Y1235D01*
X-68139Y1224D01*
X-68175Y1209D01*
X-68221Y1194D01*
X-68272Y1173D01*
X-68333Y1153D01*
X-68399Y1133D01*
X-68409D01*
X-68435Y1122D01*
X-68471Y1112D01*
X-68527Y1102D01*
X-68588Y1087D01*
X-68664Y1071D01*
X-68746Y1056D01*
X-68838Y1041D01*
X-68848D01*
X-68863Y1036D01*
X-68879D01*
X-68929Y1031D01*
X-68996Y1020D01*
X-69077Y1015D01*
X-69169Y1005D01*
X-69266Y1000D01*
X-69450D01*
X-69490Y1005D01*
X-69542D01*
X-69598Y1010D01*
X-69659Y1015D01*
X-69791Y1031D01*
X-69934Y1056D01*
X-70082Y1087D01*
X-70225Y1133D01*
X-70230D01*
X-70240Y1138D01*
X-70261Y1148D01*
X-70286Y1158D01*
X-70317Y1173D01*
X-70352Y1189D01*
X-70439Y1235D01*
X-70536Y1291D01*
X-70638Y1362D01*
X-70745Y1444D01*
X-70842Y1536D01*
X-70847Y1541D01*
X-70852Y1546D01*
X-70868Y1561D01*
X-70883Y1586D01*
X-70903Y1612D01*
X-70929Y1643D01*
X-70954Y1678D01*
X-70985Y1719D01*
X-71046Y1821D01*
X-71107Y1933D01*
X-71168Y2066D01*
X-71219Y2209D01*
Y2214D01*
X-71224Y2229D01*
X-71230Y2249D01*
X-71240Y2280D01*
X-71250Y2321D01*
X-71260Y2367D01*
X-71270Y2418D01*
X-71281Y2479D01*
X-71296Y2545D01*
X-71306Y2622D01*
X-71316Y2698D01*
X-71327Y2780D01*
X-71342Y2963D01*
X-71347Y3157D01*
Y3162D01*
Y3178D01*
Y3208D01*
Y3244D01*
X-71342Y3290D01*
Y3341D01*
X-71337Y3397D01*
X-71332Y3463D01*
X-71316Y3606D01*
X-71291Y3759D01*
X-71260Y3917D01*
X-71219Y4075D01*
Y4080D01*
X-71214Y4096D01*
X-71204Y4116D01*
X-71194Y4142D01*
X-71179Y4177D01*
X-71163Y4218D01*
X-71122Y4315D01*
X-71066Y4422D01*
X-71000Y4539D01*
X-70924Y4652D01*
X-70837Y4764D01*
X-70832Y4769D01*
X-70827Y4774D01*
X-70811Y4789D01*
X-70791Y4810D01*
X-70740Y4861D01*
X-70669Y4927D01*
X-70582Y4998D01*
X-70480Y5070D01*
X-70363Y5141D01*
X-70235Y5202D01*
X-70230D01*
X-70220Y5207D01*
X-70199Y5218D01*
X-70174Y5228D01*
X-70138Y5238D01*
X-70103Y5253D01*
X-70057Y5264D01*
X-70006Y5279D01*
X-69950Y5294D01*
X-69888Y5310D01*
X-69751Y5330D01*
X-69603Y5350D01*
X-69445Y5355D01*
X-69368D01*
X-69327Y5350D01*
D02*
G37*
%LPC*%
G36*
X-30000Y148517D02*
Y144500D01*
X-25983D01*
X-26074Y145186D01*
X-26531Y146291D01*
X-27260Y147240D01*
X-28209Y147969D01*
X-29314Y148426D01*
X-30000Y148517D01*
D02*
G37*
G36*
X-31000D02*
X-31686Y148426D01*
X-32791Y147969D01*
X-33740Y147240D01*
X-34469Y146291D01*
X-34926Y145186D01*
X-35017Y144500D01*
X-31000D01*
Y148517D01*
D02*
G37*
G36*
X-20500Y148368D02*
X-21631Y148219D01*
X-22684Y147783D01*
X-23589Y147089D01*
X-24283Y146184D01*
X-24719Y145131D01*
X-24868Y144000D01*
X-24719Y142869D01*
X-24283Y141816D01*
X-23589Y140911D01*
X-22684Y140217D01*
X-21631Y139781D01*
X-20500Y139632D01*
X-19369Y139781D01*
X-18316Y140217D01*
X-17411Y140911D01*
X-16717Y141816D01*
X-16281Y142869D01*
X-16132Y144000D01*
X-16281Y145131D01*
X-16717Y146184D01*
X-17411Y147089D01*
X-18316Y147783D01*
X-19369Y148219D01*
X-20500Y148368D01*
D02*
G37*
G36*
X-40500D02*
X-41631Y148219D01*
X-42684Y147783D01*
X-43589Y147089D01*
X-44283Y146184D01*
X-44719Y145131D01*
X-44868Y144000D01*
X-44719Y142869D01*
X-44283Y141816D01*
X-43589Y140911D01*
X-42684Y140217D01*
X-41631Y139781D01*
X-40500Y139632D01*
X-39369Y139781D01*
X-38316Y140217D01*
X-37411Y140911D01*
X-36717Y141816D01*
X-36281Y142869D01*
X-36132Y144000D01*
X-36281Y145131D01*
X-36717Y146184D01*
X-37411Y147089D01*
X-38316Y147783D01*
X-39369Y148219D01*
X-40500Y148368D01*
D02*
G37*
G36*
X-60500D02*
X-61630Y148219D01*
X-62684Y147783D01*
X-63589Y147089D01*
X-64283Y146184D01*
X-64719Y145131D01*
X-64868Y144000D01*
X-64719Y142869D01*
X-64283Y141816D01*
X-63589Y140911D01*
X-62684Y140217D01*
X-61630Y139781D01*
X-60500Y139632D01*
X-59369Y139781D01*
X-58316Y140217D01*
X-57411Y140911D01*
X-56717Y141816D01*
X-56281Y142869D01*
X-56132Y144000D01*
X-56281Y145131D01*
X-56717Y146184D01*
X-57411Y147089D01*
X-58316Y147783D01*
X-59369Y148219D01*
X-60500Y148368D01*
D02*
G37*
G36*
X-70500D02*
X-71631Y148219D01*
X-72684Y147783D01*
X-73589Y147089D01*
X-74283Y146184D01*
X-74719Y145131D01*
X-74868Y144000D01*
X-74719Y142869D01*
X-74283Y141816D01*
X-73589Y140911D01*
X-72684Y140217D01*
X-71631Y139781D01*
X-70500Y139632D01*
X-69370Y139781D01*
X-68316Y140217D01*
X-67411Y140911D01*
X-66717Y141816D01*
X-66281Y142869D01*
X-66132Y144000D01*
X-66281Y145131D01*
X-66717Y146184D01*
X-67411Y147089D01*
X-68316Y147783D01*
X-69370Y148219D01*
X-70500Y148368D01*
D02*
G37*
G36*
X-25983Y143500D02*
X-30000D01*
Y139483D01*
X-29314Y139574D01*
X-28209Y140031D01*
X-27260Y140760D01*
X-26531Y141709D01*
X-26074Y142814D01*
X-25983Y143500D01*
D02*
G37*
G36*
X-31000D02*
X-35017D01*
X-34926Y142814D01*
X-34469Y141709D01*
X-33740Y140760D01*
X-32791Y140031D01*
X-31686Y139574D01*
X-31000Y139483D01*
Y143500D01*
D02*
G37*
G36*
X-56500Y137469D02*
Y134000D01*
X-53031D01*
X-53103Y134544D01*
X-53506Y135517D01*
X-54147Y136353D01*
X-54983Y136994D01*
X-55956Y137397D01*
X-56500Y137469D01*
D02*
G37*
G36*
X-57500D02*
X-58044Y137397D01*
X-59017Y136994D01*
X-59853Y136353D01*
X-60494Y135517D01*
X-60897Y134544D01*
X-60969Y134000D01*
X-57500D01*
Y137469D01*
D02*
G37*
G36*
X-53031Y133000D02*
X-56500D01*
Y129531D01*
X-55956Y129603D01*
X-54983Y130006D01*
X-54147Y130647D01*
X-53506Y131483D01*
X-53103Y132456D01*
X-53031Y133000D01*
D02*
G37*
G36*
X-57500D02*
X-60969D01*
X-60897Y132456D01*
X-60494Y131483D01*
X-59853Y130647D01*
X-59017Y130006D01*
X-58044Y129603D01*
X-57500Y129531D01*
Y133000D01*
D02*
G37*
G36*
X-80500Y148368D02*
X-81630Y148219D01*
X-82684Y147783D01*
X-83589Y147089D01*
X-84283Y146184D01*
X-84719Y145131D01*
X-84868Y144000D01*
X-84719Y142869D01*
X-84283Y141816D01*
X-83589Y140911D01*
X-82684Y140217D01*
X-81630Y139781D01*
X-80500Y139632D01*
X-79369Y139781D01*
X-78498Y140142D01*
X-69899Y131543D01*
X-69958Y131250D01*
X-69790Y130405D01*
X-69311Y129689D01*
X-68595Y129210D01*
X-67750Y129042D01*
X-66905Y129210D01*
X-66189Y129689D01*
X-65710Y130405D01*
X-65542Y131250D01*
X-65710Y132095D01*
X-66189Y132811D01*
X-66905Y133290D01*
X-67750Y133458D01*
X-68043Y133399D01*
X-76642Y141998D01*
X-76281Y142869D01*
X-76132Y144000D01*
X-76281Y145131D01*
X-76717Y146184D01*
X-77411Y147089D01*
X-78316Y147783D01*
X-79369Y148219D01*
X-80500Y148368D01*
D02*
G37*
G36*
X-90500D02*
X-91631Y148219D01*
X-92684Y147783D01*
X-93589Y147089D01*
X-94283Y146184D01*
X-94719Y145131D01*
X-94868Y144000D01*
X-94719Y142869D01*
X-94283Y141816D01*
X-93589Y140911D01*
X-92684Y140217D01*
X-91813Y139856D01*
Y137500D01*
X-91713Y136998D01*
X-91428Y136572D01*
X-53428Y98572D01*
X-53002Y98287D01*
X-52500Y98187D01*
X-32227D01*
X-32061Y97939D01*
X-31345Y97460D01*
X-30500Y97292D01*
X-29655Y97460D01*
X-28939Y97939D01*
X-28460Y98655D01*
X-28292Y99500D01*
X-28460Y100345D01*
X-28939Y101061D01*
X-29655Y101540D01*
X-30500Y101708D01*
X-31345Y101540D01*
X-32061Y101061D01*
X-32227Y100813D01*
X-51956D01*
X-89187Y138044D01*
Y139856D01*
X-88316Y140217D01*
X-87411Y140911D01*
X-86717Y141816D01*
X-86281Y142869D01*
X-86132Y144000D01*
X-86281Y145131D01*
X-86717Y146184D01*
X-87411Y147089D01*
X-88316Y147783D01*
X-89369Y148219D01*
X-90500Y148368D01*
D02*
G37*
G36*
X-50500D02*
X-51631Y148219D01*
X-52684Y147783D01*
X-53589Y147089D01*
X-54283Y146184D01*
X-54719Y145131D01*
X-54868Y144000D01*
X-54719Y142869D01*
X-54283Y141816D01*
X-53589Y140911D01*
X-52684Y140217D01*
X-51631Y139781D01*
X-50500Y139632D01*
X-49369Y139781D01*
X-48498Y140142D01*
X-17813Y109456D01*
Y88044D01*
X-30044Y75813D01*
X-49000D01*
X-49502Y75713D01*
X-49928Y75428D01*
X-52207Y73150D01*
X-52500Y73208D01*
X-53345Y73040D01*
X-54061Y72561D01*
X-54540Y71845D01*
X-54708Y71000D01*
X-54540Y70155D01*
X-54061Y69439D01*
X-53345Y68960D01*
X-52500Y68792D01*
X-51655Y68960D01*
X-50939Y69439D01*
X-50460Y70155D01*
X-50292Y71000D01*
X-50350Y71293D01*
X-48456Y73187D01*
X-29500D01*
X-28998Y73287D01*
X-28572Y73572D01*
X-15572Y86572D01*
X-15287Y86998D01*
X-15187Y87500D01*
Y110000D01*
X-15287Y110502D01*
X-15572Y110928D01*
X-46642Y141998D01*
X-46281Y142869D01*
X-46132Y144000D01*
X-46281Y145131D01*
X-46717Y146184D01*
X-47411Y147089D01*
X-48316Y147783D01*
X-49369Y148219D01*
X-50500Y148368D01*
D02*
G37*
G36*
X-8138Y14995D02*
X-9527Y14858D01*
X-10863Y14453D01*
X-12094Y13795D01*
X-13173Y12909D01*
X-14059Y11830D01*
X-14717Y10599D01*
X-15122Y9263D01*
X-15259Y7874D01*
X-15122Y6485D01*
X-14717Y5149D01*
X-14059Y3918D01*
X-13173Y2839D01*
X-12094Y1953D01*
X-10863Y1295D01*
X-9527Y890D01*
X-8138Y753D01*
X-6749Y890D01*
X-5413Y1295D01*
X-4182Y1953D01*
X-3103Y2839D01*
X-2217Y3918D01*
X-1559Y5149D01*
X-1154Y6485D01*
X-1017Y7874D01*
X-1154Y9263D01*
X-1559Y10599D01*
X-2217Y11830D01*
X-3103Y12909D01*
X-4182Y13795D01*
X-5413Y14453D01*
X-6749Y14858D01*
X-8138Y14995D01*
D02*
G37*
G36*
X-102626D02*
X-104015Y14858D01*
X-105351Y14453D01*
X-106582Y13795D01*
X-107661Y12909D01*
X-108547Y11830D01*
X-109205Y10599D01*
X-109610Y9263D01*
X-109747Y7874D01*
X-109610Y6485D01*
X-109205Y5149D01*
X-108547Y3918D01*
X-107661Y2839D01*
X-106582Y1953D01*
X-105351Y1295D01*
X-104015Y890D01*
X-102626Y753D01*
X-101237Y890D01*
X-99901Y1295D01*
X-98670Y1953D01*
X-97591Y2839D01*
X-96705Y3918D01*
X-96047Y5149D01*
X-95642Y6485D01*
X-95505Y7874D01*
X-95642Y9263D01*
X-96047Y10599D01*
X-96705Y11830D01*
X-97591Y12909D01*
X-98670Y13795D01*
X-99901Y14453D01*
X-101237Y14858D01*
X-102626Y14995D01*
D02*
G37*
G36*
X-70536Y13605D02*
X-70582D01*
X-70633Y13600D01*
X-70699Y13590D01*
X-70771Y13575D01*
X-70852Y13549D01*
X-70929Y13519D01*
X-71005Y13473D01*
X-71015Y13467D01*
X-71036Y13447D01*
X-71071Y13422D01*
X-71117Y13381D01*
X-71168Y13330D01*
X-71219Y13269D01*
X-71270Y13197D01*
X-71321Y13121D01*
X-71327Y13111D01*
X-71342Y13085D01*
X-71362Y13039D01*
X-71388Y12978D01*
X-71418Y12907D01*
X-71449Y12825D01*
X-71474Y12733D01*
X-71500Y12631D01*
Y12626D01*
Y12621D01*
X-71505Y12606D01*
X-71510Y12585D01*
X-71515Y12529D01*
X-71525Y12463D01*
X-71536Y12376D01*
X-71541Y12284D01*
X-71551Y12182D01*
Y12080D01*
Y12075D01*
Y12065D01*
Y12050D01*
Y12029D01*
Y12004D01*
X-71546Y11968D01*
Y11897D01*
X-71541Y11805D01*
X-71530Y11708D01*
X-71520Y11601D01*
X-71505Y11494D01*
Y11489D01*
Y11484D01*
X-71500Y11468D01*
X-71495Y11448D01*
X-71485Y11392D01*
X-71469Y11326D01*
X-71444Y11244D01*
X-71418Y11157D01*
X-71388Y11071D01*
X-71347Y10984D01*
X-71342Y10974D01*
X-71327Y10948D01*
X-71301Y10907D01*
X-71265Y10856D01*
X-71219Y10800D01*
X-71168Y10744D01*
X-71107Y10683D01*
X-71041Y10632D01*
X-71031Y10627D01*
X-71005Y10611D01*
X-70964Y10591D01*
X-70908Y10566D01*
X-70842Y10540D01*
X-70760Y10520D01*
X-70669Y10504D01*
X-70567Y10499D01*
X-70516D01*
X-70480Y10504D01*
X-70434Y10509D01*
X-70388Y10515D01*
X-70291Y10535D01*
X-70286D01*
X-70266Y10545D01*
X-70240Y10555D01*
X-70205Y10566D01*
X-70164Y10586D01*
X-70118Y10606D01*
X-70016Y10668D01*
X-70011Y10673D01*
X-69990Y10683D01*
X-69965Y10703D01*
X-69924Y10734D01*
X-69883Y10764D01*
X-69832Y10805D01*
X-69776Y10856D01*
X-69720Y10907D01*
X-69715Y10912D01*
X-69695Y10933D01*
X-69659Y10963D01*
X-69618Y11009D01*
X-69567Y11060D01*
X-69511Y11122D01*
X-69455Y11193D01*
X-69389Y11269D01*
Y12855D01*
X-69394Y12861D01*
X-69404Y12871D01*
X-69419Y12891D01*
X-69440Y12917D01*
X-69465Y12947D01*
X-69496Y12983D01*
X-69572Y13065D01*
X-69659Y13151D01*
X-69756Y13243D01*
X-69858Y13335D01*
X-69960Y13411D01*
X-69965D01*
X-69970Y13422D01*
X-69985Y13432D01*
X-70006Y13442D01*
X-70062Y13473D01*
X-70133Y13508D01*
X-70220Y13544D01*
X-70317Y13575D01*
X-70424Y13595D01*
X-70536Y13605D01*
D02*
G37*
G36*
X-74116Y11876D02*
X-74845D01*
X-74917Y11871D01*
X-74998Y11866D01*
X-75085Y11856D01*
X-75172Y11841D01*
X-75259Y11825D01*
X-75269D01*
X-75294Y11815D01*
X-75335Y11805D01*
X-75386Y11790D01*
X-75442Y11764D01*
X-75503Y11739D01*
X-75570Y11708D01*
X-75626Y11672D01*
X-75631Y11667D01*
X-75651Y11657D01*
X-75677Y11637D01*
X-75707Y11606D01*
X-75738Y11570D01*
X-75774Y11530D01*
X-75804Y11484D01*
X-75835Y11433D01*
X-75840Y11428D01*
X-75845Y11407D01*
X-75855Y11382D01*
X-75866Y11341D01*
X-75881Y11295D01*
X-75891Y11239D01*
X-75896Y11183D01*
X-75901Y11116D01*
Y11111D01*
Y11101D01*
Y11086D01*
X-75896Y11065D01*
X-75891Y11009D01*
X-75876Y10938D01*
X-75855Y10861D01*
X-75820Y10775D01*
X-75774Y10698D01*
X-75707Y10622D01*
X-75697Y10617D01*
X-75672Y10596D01*
X-75626Y10566D01*
X-75565Y10535D01*
X-75488Y10499D01*
X-75396Y10474D01*
X-75284Y10453D01*
X-75162Y10443D01*
X-75111D01*
X-75060Y10453D01*
X-74988Y10464D01*
X-74907Y10479D01*
X-74815Y10504D01*
X-74723Y10540D01*
X-74631Y10586D01*
X-74626D01*
X-74621Y10591D01*
X-74590Y10611D01*
X-74540Y10647D01*
X-74473Y10698D01*
X-74397Y10759D01*
X-74310Y10836D01*
X-74218Y10928D01*
X-74116Y11030D01*
Y11876D01*
D02*
G37*
G36*
X-58888Y13605D02*
X-58939D01*
X-58974Y13600D01*
X-59020Y13595D01*
X-59066Y13590D01*
X-59168Y13564D01*
X-59173D01*
X-59188Y13559D01*
X-59219Y13549D01*
X-59250Y13534D01*
X-59296Y13513D01*
X-59342Y13493D01*
X-59443Y13432D01*
X-59449Y13427D01*
X-59469Y13417D01*
X-59495Y13396D01*
X-59535Y13365D01*
X-59576Y13335D01*
X-59627Y13294D01*
X-59683Y13243D01*
X-59739Y13192D01*
X-59744Y13187D01*
X-59765Y13167D01*
X-59795Y13136D01*
X-59836Y13095D01*
X-59887Y13039D01*
X-59938Y12978D01*
X-59999Y12907D01*
X-60061Y12830D01*
Y11249D01*
X-60056Y11244D01*
X-60045Y11234D01*
X-60030Y11213D01*
X-60010Y11188D01*
X-59984Y11157D01*
X-59953Y11122D01*
X-59877Y11040D01*
X-59790Y10953D01*
X-59693Y10861D01*
X-59591Y10770D01*
X-59489Y10693D01*
X-59484D01*
X-59479Y10683D01*
X-59464Y10678D01*
X-59443Y10662D01*
X-59387Y10632D01*
X-59316Y10601D01*
X-59229Y10566D01*
X-59132Y10535D01*
X-59025Y10515D01*
X-58918Y10504D01*
X-58872D01*
X-58821Y10509D01*
X-58755Y10520D01*
X-58684Y10535D01*
X-58602Y10560D01*
X-58526Y10591D01*
X-58449Y10632D01*
X-58439Y10637D01*
X-58418Y10657D01*
X-58383Y10688D01*
X-58337Y10724D01*
X-58286Y10775D01*
X-58235Y10836D01*
X-58184Y10907D01*
X-58133Y10984D01*
Y10989D01*
X-58128Y10994D01*
X-58112Y11025D01*
X-58092Y11065D01*
X-58066Y11127D01*
X-58036Y11198D01*
X-58005Y11285D01*
X-57980Y11377D01*
X-57954Y11473D01*
Y11479D01*
X-57949Y11484D01*
Y11499D01*
X-57944Y11519D01*
X-57934Y11575D01*
X-57924Y11642D01*
X-57914Y11723D01*
X-57908Y11820D01*
X-57898Y11917D01*
Y12019D01*
Y12024D01*
Y12034D01*
Y12050D01*
Y12070D01*
Y12101D01*
Y12131D01*
X-57903Y12208D01*
X-57908Y12300D01*
X-57919Y12397D01*
X-57934Y12504D01*
X-57949Y12611D01*
Y12616D01*
Y12626D01*
X-57954Y12636D01*
X-57959Y12657D01*
X-57970Y12713D01*
X-57985Y12779D01*
X-58010Y12861D01*
X-58036Y12942D01*
X-58072Y13029D01*
X-58112Y13116D01*
Y13121D01*
X-58118Y13126D01*
X-58133Y13151D01*
X-58158Y13192D01*
X-58194Y13243D01*
X-58235Y13299D01*
X-58286Y13355D01*
X-58347Y13417D01*
X-58413Y13467D01*
X-58424Y13473D01*
X-58449Y13488D01*
X-58490Y13513D01*
X-58541Y13539D01*
X-58612Y13559D01*
X-58694Y13585D01*
X-58786Y13600D01*
X-58888Y13605D01*
D02*
G37*
G36*
X-65716Y13666D02*
X-65762D01*
X-65813Y13661D01*
X-65875Y13656D01*
X-65951Y13641D01*
X-66033Y13626D01*
X-66109Y13600D01*
X-66191Y13564D01*
X-66201Y13559D01*
X-66227Y13544D01*
X-66262Y13524D01*
X-66308Y13493D01*
X-66364Y13452D01*
X-66420Y13406D01*
X-66476Y13355D01*
X-66532Y13294D01*
X-66538Y13289D01*
X-66553Y13263D01*
X-66578Y13228D01*
X-66609Y13182D01*
X-66645Y13126D01*
X-66680Y13059D01*
X-66716Y12983D01*
X-66747Y12901D01*
X-66752Y12891D01*
X-66757Y12866D01*
X-66772Y12820D01*
X-66787Y12764D01*
X-66798Y12692D01*
X-66813Y12616D01*
X-66823Y12529D01*
X-66828Y12442D01*
X-64666D01*
Y12448D01*
Y12468D01*
Y12499D01*
Y12539D01*
X-64671Y12585D01*
X-64676Y12641D01*
X-64686Y12702D01*
X-64697Y12769D01*
X-64727Y12912D01*
X-64773Y13065D01*
X-64804Y13136D01*
X-64839Y13207D01*
X-64880Y13279D01*
X-64926Y13340D01*
X-64931Y13345D01*
X-64936Y13355D01*
X-64951Y13371D01*
X-64977Y13391D01*
X-65003Y13417D01*
X-65038Y13442D01*
X-65079Y13473D01*
X-65125Y13503D01*
X-65176Y13534D01*
X-65237Y13564D01*
X-65298Y13590D01*
X-65370Y13615D01*
X-65446Y13636D01*
X-65533Y13651D01*
X-65620Y13661D01*
X-65716Y13666D01*
D02*
G37*
G36*
X-76625Y6156D02*
X-77416D01*
Y4239D01*
X-76625D01*
X-76569Y4244D01*
X-76503Y4249D01*
X-76421Y4254D01*
X-76335Y4269D01*
X-76248Y4284D01*
X-76161Y4310D01*
X-76156D01*
X-76151Y4315D01*
X-76126Y4325D01*
X-76085Y4341D01*
X-76034Y4361D01*
X-75978Y4391D01*
X-75916Y4422D01*
X-75855Y4463D01*
X-75799Y4509D01*
X-75794Y4514D01*
X-75774Y4534D01*
X-75748Y4560D01*
X-75718Y4595D01*
X-75682Y4641D01*
X-75646Y4692D01*
X-75616Y4754D01*
X-75585Y4815D01*
X-75580Y4825D01*
X-75575Y4845D01*
X-75565Y4881D01*
X-75549Y4932D01*
X-75534Y4988D01*
X-75524Y5049D01*
X-75519Y5121D01*
X-75514Y5197D01*
Y5202D01*
Y5213D01*
Y5228D01*
Y5253D01*
X-75519Y5284D01*
X-75524Y5315D01*
X-75534Y5396D01*
X-75549Y5483D01*
X-75580Y5580D01*
X-75616Y5672D01*
X-75667Y5763D01*
Y5768D01*
X-75672Y5774D01*
X-75697Y5799D01*
X-75733Y5840D01*
X-75784Y5891D01*
X-75855Y5947D01*
X-75942Y5998D01*
X-76044Y6049D01*
X-76166Y6095D01*
X-76171D01*
X-76187Y6100D01*
X-76207Y6105D01*
X-76238Y6110D01*
X-76279Y6120D01*
X-76319Y6126D01*
X-76416Y6141D01*
X-76421D01*
X-76442Y6146D01*
X-76472D01*
X-76513Y6151D01*
X-76564D01*
X-76625Y6156D01*
D02*
G37*
G36*
X-48336Y4749D02*
X-48392D01*
X-48417Y4743D01*
X-48448D01*
X-48524Y4733D01*
X-48611Y4718D01*
X-48708Y4698D01*
X-48800Y4672D01*
X-48892Y4631D01*
X-48902Y4626D01*
X-48932Y4611D01*
X-48973Y4585D01*
X-49029Y4550D01*
X-49090Y4504D01*
X-49152Y4448D01*
X-49218Y4386D01*
X-49279Y4310D01*
X-49284Y4300D01*
X-49305Y4274D01*
X-49330Y4228D01*
X-49361Y4167D01*
X-49396Y4096D01*
X-49432Y4009D01*
X-49468Y3917D01*
X-49499Y3810D01*
Y3805D01*
X-49504Y3795D01*
Y3779D01*
X-49509Y3759D01*
X-49514Y3734D01*
X-49519Y3703D01*
X-49534Y3627D01*
X-49549Y3535D01*
X-49560Y3428D01*
X-49565Y3310D01*
X-49570Y3188D01*
Y3183D01*
Y3173D01*
Y3157D01*
Y3132D01*
Y3101D01*
X-49565Y3071D01*
Y2989D01*
X-49555Y2897D01*
X-49544Y2790D01*
X-49534Y2683D01*
X-49514Y2576D01*
Y2571D01*
X-49509Y2566D01*
Y2550D01*
X-49504Y2530D01*
X-49488Y2474D01*
X-49468Y2408D01*
X-49437Y2326D01*
X-49402Y2244D01*
X-49361Y2158D01*
X-49315Y2076D01*
X-49310Y2066D01*
X-49289Y2040D01*
X-49259Y2000D01*
X-49213Y1954D01*
X-49162Y1898D01*
X-49096Y1842D01*
X-49019Y1785D01*
X-48937Y1734D01*
X-48932D01*
X-48927Y1729D01*
X-48912Y1724D01*
X-48897Y1714D01*
X-48846Y1694D01*
X-48774Y1673D01*
X-48693Y1653D01*
X-48591Y1632D01*
X-48478Y1617D01*
X-48351Y1612D01*
X-48300D01*
X-48239Y1617D01*
X-48162Y1627D01*
X-48076Y1637D01*
X-47984Y1658D01*
X-47892Y1688D01*
X-47800Y1724D01*
X-47795D01*
X-47790Y1729D01*
X-47759Y1745D01*
X-47719Y1770D01*
X-47662Y1806D01*
X-47601Y1852D01*
X-47535Y1908D01*
X-47474Y1974D01*
X-47413Y2046D01*
X-47407Y2056D01*
X-47387Y2081D01*
X-47362Y2127D01*
X-47326Y2188D01*
X-47290Y2260D01*
X-47254Y2341D01*
X-47219Y2438D01*
X-47188Y2540D01*
Y2545D01*
X-47183Y2555D01*
Y2571D01*
X-47178Y2591D01*
X-47173Y2617D01*
X-47168Y2647D01*
X-47153Y2724D01*
X-47137Y2821D01*
X-47127Y2928D01*
X-47122Y3045D01*
X-47117Y3167D01*
Y3173D01*
Y3183D01*
Y3198D01*
Y3224D01*
Y3249D01*
X-47122Y3285D01*
Y3366D01*
X-47132Y3458D01*
X-47142Y3560D01*
X-47158Y3667D01*
X-47178Y3774D01*
Y3779D01*
X-47183Y3790D01*
Y3805D01*
X-47188Y3825D01*
X-47203Y3876D01*
X-47224Y3948D01*
X-47254Y4024D01*
X-47285Y4111D01*
X-47331Y4198D01*
X-47377Y4279D01*
X-47382Y4290D01*
X-47402Y4315D01*
X-47433Y4356D01*
X-47474Y4402D01*
X-47530Y4458D01*
X-47591Y4514D01*
X-47668Y4570D01*
X-47749Y4621D01*
X-47754D01*
X-47759Y4626D01*
X-47775Y4631D01*
X-47790Y4641D01*
X-47841Y4662D01*
X-47912Y4687D01*
X-47994Y4708D01*
X-48096Y4728D01*
X-48208Y4743D01*
X-48336Y4749D01*
D02*
G37*
G36*
X-62922Y4789D02*
X-62968D01*
X-63019Y4784D01*
X-63080Y4779D01*
X-63156Y4764D01*
X-63238Y4749D01*
X-63314Y4723D01*
X-63396Y4687D01*
X-63406Y4682D01*
X-63432Y4667D01*
X-63467Y4646D01*
X-63513Y4616D01*
X-63569Y4575D01*
X-63626Y4529D01*
X-63682Y4478D01*
X-63738Y4417D01*
X-63743Y4412D01*
X-63758Y4386D01*
X-63784Y4351D01*
X-63814Y4305D01*
X-63850Y4249D01*
X-63886Y4182D01*
X-63921Y4106D01*
X-63952Y4024D01*
X-63957Y4014D01*
X-63962Y3989D01*
X-63977Y3943D01*
X-63993Y3887D01*
X-64003Y3815D01*
X-64018Y3739D01*
X-64028Y3652D01*
X-64034Y3565D01*
X-61871D01*
Y3570D01*
Y3591D01*
Y3621D01*
Y3662D01*
X-61876Y3708D01*
X-61881Y3764D01*
X-61892Y3825D01*
X-61902Y3892D01*
X-61932Y4034D01*
X-61978Y4188D01*
X-62009Y4259D01*
X-62045Y4330D01*
X-62085Y4402D01*
X-62131Y4463D01*
X-62136Y4468D01*
X-62141Y4478D01*
X-62157Y4493D01*
X-62182Y4514D01*
X-62208Y4539D01*
X-62243Y4565D01*
X-62284Y4595D01*
X-62330Y4626D01*
X-62381Y4657D01*
X-62442Y4687D01*
X-62503Y4713D01*
X-62575Y4738D01*
X-62651Y4759D01*
X-62738Y4774D01*
X-62825Y4784D01*
X-62922Y4789D01*
D02*
G37*
G36*
X-69480D02*
X-69526D01*
X-69577Y4784D01*
X-69638Y4779D01*
X-69715Y4764D01*
X-69797Y4749D01*
X-69873Y4723D01*
X-69955Y4687D01*
X-69965Y4682D01*
X-69990Y4667D01*
X-70026Y4646D01*
X-70072Y4616D01*
X-70128Y4575D01*
X-70184Y4529D01*
X-70240Y4478D01*
X-70296Y4417D01*
X-70301Y4412D01*
X-70317Y4386D01*
X-70342Y4351D01*
X-70373Y4305D01*
X-70408Y4249D01*
X-70444Y4182D01*
X-70480Y4106D01*
X-70511Y4024D01*
X-70516Y4014D01*
X-70521Y3989D01*
X-70536Y3943D01*
X-70551Y3887D01*
X-70561Y3815D01*
X-70577Y3739D01*
X-70587Y3652D01*
X-70592Y3565D01*
X-68430D01*
Y3570D01*
Y3591D01*
Y3621D01*
Y3662D01*
X-68435Y3708D01*
X-68440Y3764D01*
X-68450Y3825D01*
X-68460Y3892D01*
X-68491Y4034D01*
X-68537Y4188D01*
X-68567Y4259D01*
X-68603Y4330D01*
X-68644Y4402D01*
X-68690Y4463D01*
X-68695Y4468D01*
X-68700Y4478D01*
X-68715Y4493D01*
X-68741Y4514D01*
X-68766Y4539D01*
X-68802Y4565D01*
X-68843Y4595D01*
X-68889Y4626D01*
X-68940Y4657D01*
X-69001Y4687D01*
X-69062Y4713D01*
X-69134Y4738D01*
X-69210Y4759D01*
X-69297Y4774D01*
X-69383Y4784D01*
X-69480Y4789D01*
D02*
G37*
%LPD*%
D12*
X-52500Y99500D02*
X-30500D01*
X-80500Y144000D02*
X-67750Y131250D01*
X-52500Y71000D02*
X-49000Y74500D01*
X-29500D01*
X-90500Y137500D02*
X-52500Y99500D01*
X-90500Y137500D02*
Y144000D01*
X-16500Y87500D02*
Y110000D01*
X-29500Y74500D02*
X-16500Y87500D01*
X-50500Y144000D02*
X-16500Y110000D01*
D13*
X-8138Y7874D02*
D03*
X-102626D02*
D03*
Y145669D02*
D03*
X-8138D02*
D03*
D14*
X-57000Y133500D02*
D03*
D15*
X-90500Y144000D02*
D03*
X-80500D02*
D03*
X-60500D02*
D03*
X-50500D02*
D03*
X-40500D02*
D03*
X-30500D02*
D03*
X-20500D02*
D03*
X-70500D02*
D03*
D16*
X-30500Y99500D02*
D03*
X-67750Y131250D02*
D03*
X-52500Y71000D02*
D03*
M02*
