G04*
G04 #@! TF.GenerationSoftware,Altium Limited,Altium Designer,20.1.10 (176)*
G04*
G04 Layer_Physical_Order=2*
G04 Layer_Color=16711680*
%FSLAX25Y25*%
%MOIN*%
G70*
G04*
G04 #@! TF.SameCoordinates,6CBB9ED5-C892-48F8-8F6F-D4B66391D099*
G04*
G04*
G04 #@! TF.FilePolarity,Positive*
G04*
G01*
G75*
%ADD12C,0.01000*%
%ADD13C,0.12598*%
%ADD14C,0.06000*%
%ADD15C,0.07087*%
%ADD16C,0.02756*%
G04:AMPARAMS|DCode=17|XSize=15.75mil|YSize=196.85mil|CornerRadius=3.94mil|HoleSize=0mil|Usage=FLASHONLY|Rotation=180.000|XOffset=0mil|YOffset=0mil|HoleType=Round|Shape=RoundedRectangle|*
%AMROUNDEDRECTD17*
21,1,0.01575,0.18898,0,0,180.0*
21,1,0.00787,0.19685,0,0,180.0*
1,1,0.00787,-0.00394,0.09449*
1,1,0.00787,0.00394,0.09449*
1,1,0.00787,0.00394,-0.09449*
1,1,0.00787,-0.00394,-0.09449*
%
%ADD17ROUNDEDRECTD17*%
%ADD18R,0.05512X0.04134*%
%ADD19R,0.03543X0.03740*%
%ADD20R,0.03543X0.03740*%
G36*
X0Y500D02*
X-6312D01*
X-6386Y1000D01*
X-5413Y1295D01*
X-4182Y1953D01*
X-3103Y2839D01*
X-2217Y3918D01*
X-1559Y5149D01*
X-1154Y6485D01*
X-1017Y7874D01*
X-1154Y9263D01*
X-1559Y10599D01*
X-2217Y11830D01*
X-3103Y12909D01*
X-4182Y13795D01*
X-5413Y14453D01*
X-6749Y14858D01*
X-8138Y14995D01*
X-9527Y14858D01*
X-10863Y14453D01*
X-12094Y13795D01*
X-13173Y12909D01*
X-14059Y11830D01*
X-14717Y10599D01*
X-15122Y9263D01*
X-15259Y7874D01*
X-15122Y6485D01*
X-14717Y5149D01*
X-14059Y3918D01*
X-13173Y2839D01*
X-12094Y1953D01*
X-10863Y1295D01*
X-9890Y1000D01*
X-9964Y500D01*
X-100800D01*
X-100874Y1000D01*
X-99901Y1295D01*
X-98670Y1953D01*
X-97591Y2839D01*
X-96705Y3918D01*
X-96047Y5149D01*
X-95642Y6485D01*
X-95505Y7874D01*
X-95642Y9263D01*
X-96047Y10599D01*
X-96705Y11830D01*
X-97591Y12909D01*
X-98670Y13795D01*
X-99901Y14453D01*
X-101237Y14858D01*
X-102626Y14995D01*
X-104015Y14858D01*
X-105351Y14453D01*
X-106582Y13795D01*
X-107661Y12909D01*
X-108547Y11830D01*
X-109205Y10599D01*
X-109610Y9263D01*
X-109747Y7874D01*
X-109610Y6485D01*
X-109205Y5149D01*
X-108547Y3918D01*
X-107661Y2839D01*
X-106582Y1953D01*
X-105351Y1295D01*
X-104378Y1000D01*
X-104452Y500D01*
X-110000D01*
X-110038Y462D01*
X-110500Y653D01*
Y153500D01*
X0D01*
Y500D01*
D02*
G37*
%LPC*%
G36*
X-25331Y150143D02*
X-32501D01*
X-33003Y150043D01*
X-33429Y149759D01*
X-36485Y146703D01*
X-37073Y146648D01*
X-37411Y147089D01*
X-38316Y147783D01*
X-39369Y148219D01*
X-40500Y148368D01*
X-41631Y148219D01*
X-42502Y147858D01*
X-44403Y149759D01*
X-44828Y150043D01*
X-45331Y150143D01*
X-62501D01*
X-63003Y150043D01*
X-63429Y149759D01*
X-66485Y146703D01*
X-67074Y146648D01*
X-67411Y147089D01*
X-68316Y147783D01*
X-69370Y148219D01*
X-70500Y148368D01*
X-71631Y148219D01*
X-72684Y147783D01*
X-73589Y147089D01*
X-74283Y146184D01*
X-74719Y145131D01*
X-74868Y144000D01*
X-74719Y142869D01*
X-74358Y141998D01*
X-97928Y118428D01*
X-98213Y118002D01*
X-98313Y117500D01*
Y91500D01*
X-98213Y90998D01*
X-97928Y90572D01*
X-78928Y71572D01*
X-78502Y71287D01*
X-78000Y71187D01*
X-62005D01*
X-59148Y68331D01*
X-59306Y67781D01*
X-59666Y67540D01*
X-59974Y67079D01*
X-60082Y66535D01*
Y57587D01*
X-58268D01*
Y57087D01*
X-57768D01*
Y46238D01*
X-57330Y46325D01*
X-56869Y46633D01*
X-56366Y46525D01*
X-55905Y46434D01*
X-55118D01*
X-54657Y46525D01*
X-54499Y46631D01*
X-54134Y46745D01*
X-53769Y46631D01*
X-53610Y46525D01*
X-53150Y46434D01*
X-52362D01*
X-51901Y46525D01*
X-51743Y46631D01*
X-51378Y46745D01*
X-51013Y46631D01*
X-50854Y46525D01*
X-50394Y46434D01*
X-49606D01*
X-49145Y46525D01*
X-48755Y46786D01*
X-48489D01*
X-48099Y46525D01*
X-47638Y46434D01*
X-46850D01*
X-46390Y46525D01*
X-45999Y46786D01*
X-45733D01*
X-45343Y46525D01*
X-44882Y46434D01*
X-44094D01*
X-43634Y46525D01*
X-43131Y46633D01*
X-42670Y46325D01*
X-42232Y46238D01*
Y57087D01*
Y67935D01*
X-42670Y67848D01*
X-42676Y67844D01*
X-43176Y68112D01*
Y69285D01*
X-43275Y69788D01*
X-43560Y70214D01*
X-53275Y79928D01*
X-53701Y80213D01*
X-54203Y80313D01*
X-74956D01*
X-87187Y92544D01*
Y109956D01*
X-68043Y129101D01*
X-67750Y129042D01*
X-66905Y129210D01*
X-66189Y129689D01*
X-65710Y130405D01*
X-65542Y131250D01*
X-65710Y132095D01*
X-66189Y132811D01*
X-66905Y133290D01*
X-67750Y133458D01*
X-68595Y133290D01*
X-68752Y133185D01*
X-69070Y133573D01*
X-62502Y140142D01*
X-61630Y139781D01*
X-60500Y139632D01*
X-59369Y139781D01*
X-58316Y140217D01*
X-57411Y140911D01*
X-56717Y141816D01*
X-56281Y142869D01*
X-56132Y144000D01*
X-56281Y145131D01*
X-56717Y146184D01*
X-57357Y147018D01*
X-57231Y147518D01*
X-53769D01*
X-53643Y147018D01*
X-54283Y146184D01*
X-54719Y145131D01*
X-54868Y144000D01*
X-54719Y142869D01*
X-54283Y141816D01*
X-53589Y140911D01*
X-52684Y140217D01*
X-51631Y139781D01*
X-50500Y139632D01*
X-49369Y139781D01*
X-48316Y140217D01*
X-47411Y140911D01*
X-46717Y141816D01*
X-46281Y142869D01*
X-46132Y144000D01*
X-46281Y145131D01*
X-46717Y146184D01*
X-47357Y147018D01*
X-47231Y147518D01*
X-45874D01*
X-44358Y146002D01*
X-44719Y145131D01*
X-44868Y144000D01*
X-44719Y142869D01*
X-44283Y141816D01*
X-43589Y140911D01*
X-42684Y140217D01*
X-41631Y139781D01*
X-40588Y139644D01*
X-40324Y139201D01*
X-54220Y125304D01*
X-64536D01*
X-65038Y125205D01*
X-65464Y124920D01*
X-84928Y105456D01*
X-85213Y105030D01*
X-85313Y104528D01*
Y95000D01*
X-85213Y94498D01*
X-84928Y94072D01*
X-83098Y92242D01*
X-82672Y91957D01*
X-82170Y91858D01*
X-82043D01*
Y89004D01*
X-74957D01*
Y91546D01*
X-72043D01*
Y89004D01*
X-69755D01*
X-69713Y88789D01*
X-69428Y88363D01*
X-65362Y84297D01*
X-64936Y84013D01*
X-64434Y83913D01*
X-52269D01*
X-37533Y69177D01*
Y68112D01*
X-38033Y67844D01*
X-38039Y67848D01*
X-38476Y67935D01*
Y57087D01*
Y46238D01*
X-38039Y46325D01*
X-37578Y46633D01*
X-37075Y46525D01*
X-36614Y46434D01*
X-35827D01*
X-35366Y46525D01*
X-34975Y46786D01*
X-34710D01*
X-34319Y46525D01*
X-33858Y46434D01*
X-33071D01*
X-32610Y46525D01*
X-32219Y46786D01*
X-31954D01*
X-31563Y46525D01*
X-31102Y46434D01*
X-30315D01*
X-29854Y46525D01*
X-29351Y46633D01*
X-28890Y46325D01*
X-28453Y46238D01*
Y57087D01*
Y67935D01*
X-28890Y67848D01*
X-28896Y67844D01*
X-29396Y68112D01*
Y69709D01*
X-29496Y70211D01*
X-29781Y70637D01*
X-50932Y91788D01*
Y91791D01*
X-50957Y91918D01*
Y94713D01*
X-58043D01*
Y89004D01*
X-51860D01*
X-34311Y71454D01*
X-34557Y70994D01*
X-34756Y71033D01*
X-35677D01*
X-50797Y86153D01*
X-51223Y86438D01*
X-51725Y86538D01*
X-63890D01*
X-65894Y88542D01*
X-65703Y89004D01*
X-64957D01*
Y94713D01*
X-72043D01*
Y94171D01*
X-74957D01*
Y94713D01*
X-81856D01*
X-82687Y95544D01*
Y103984D01*
X-63992Y122679D01*
X-53677D01*
X-53174Y122779D01*
X-52748Y123064D01*
X-34741Y141071D01*
X-34680Y141163D01*
X-34065Y141183D01*
X-33740Y140760D01*
X-32791Y140031D01*
X-31686Y139574D01*
X-31000Y139483D01*
Y144000D01*
X-30500D01*
Y144500D01*
X-25983D01*
X-26074Y145186D01*
X-26531Y146291D01*
X-27089Y147018D01*
X-26843Y147518D01*
X-25874D01*
X-24358Y146002D01*
X-24719Y145131D01*
X-24868Y144000D01*
X-24719Y142869D01*
X-24283Y141816D01*
X-23589Y140911D01*
X-22684Y140217D01*
X-21631Y139781D01*
X-20500Y139632D01*
X-19369Y139781D01*
X-18316Y140217D01*
X-17411Y140911D01*
X-16717Y141816D01*
X-16281Y142869D01*
X-16132Y144000D01*
X-16281Y145131D01*
X-16717Y146184D01*
X-17411Y147089D01*
X-18316Y147783D01*
X-19369Y148219D01*
X-20500Y148368D01*
X-21631Y148219D01*
X-22502Y147858D01*
X-24403Y149759D01*
X-24828Y150043D01*
X-25331Y150143D01*
D02*
G37*
G36*
X-80500Y148368D02*
X-81630Y148219D01*
X-82684Y147783D01*
X-83589Y147089D01*
X-84283Y146184D01*
X-84719Y145131D01*
X-84868Y144000D01*
X-84719Y142869D01*
X-84283Y141816D01*
X-83589Y140911D01*
X-82684Y140217D01*
X-81630Y139781D01*
X-80500Y139632D01*
X-79369Y139781D01*
X-78316Y140217D01*
X-77411Y140911D01*
X-76717Y141816D01*
X-76281Y142869D01*
X-76132Y144000D01*
X-76281Y145131D01*
X-76717Y146184D01*
X-77411Y147089D01*
X-78316Y147783D01*
X-79369Y148219D01*
X-80500Y148368D01*
D02*
G37*
G36*
X-90500D02*
X-91631Y148219D01*
X-92684Y147783D01*
X-93589Y147089D01*
X-94283Y146184D01*
X-94719Y145131D01*
X-94868Y144000D01*
X-94719Y142869D01*
X-94283Y141816D01*
X-93589Y140911D01*
X-92684Y140217D01*
X-91631Y139781D01*
X-90500Y139632D01*
X-89369Y139781D01*
X-88316Y140217D01*
X-87411Y140911D01*
X-86717Y141816D01*
X-86281Y142869D01*
X-86132Y144000D01*
X-86281Y145131D01*
X-86717Y146184D01*
X-87411Y147089D01*
X-88316Y147783D01*
X-89369Y148219D01*
X-90500Y148368D01*
D02*
G37*
G36*
X-25983Y143500D02*
X-30000D01*
Y139483D01*
X-29314Y139574D01*
X-28209Y140031D01*
X-27260Y140760D01*
X-26531Y141709D01*
X-26074Y142814D01*
X-25983Y143500D01*
D02*
G37*
G36*
X-8138Y152790D02*
X-9527Y152653D01*
X-10863Y152248D01*
X-12094Y151590D01*
X-13173Y150705D01*
X-14059Y149626D01*
X-14717Y148394D01*
X-15122Y147058D01*
X-15259Y145669D01*
X-15122Y144280D01*
X-14717Y142944D01*
X-14059Y141713D01*
X-13173Y140634D01*
X-12094Y139749D01*
X-10863Y139090D01*
X-9527Y138685D01*
X-8138Y138548D01*
X-6749Y138685D01*
X-5413Y139090D01*
X-4182Y139749D01*
X-3103Y140634D01*
X-2217Y141713D01*
X-1559Y142944D01*
X-1154Y144280D01*
X-1017Y145669D01*
X-1154Y147058D01*
X-1559Y148394D01*
X-2217Y149626D01*
X-3103Y150705D01*
X-4182Y151590D01*
X-5413Y152248D01*
X-6749Y152653D01*
X-8138Y152790D01*
D02*
G37*
G36*
X-102626D02*
X-104015Y152653D01*
X-105351Y152248D01*
X-106582Y151590D01*
X-107661Y150705D01*
X-108547Y149626D01*
X-109205Y148394D01*
X-109610Y147058D01*
X-109747Y145669D01*
X-109610Y144280D01*
X-109205Y142944D01*
X-108547Y141713D01*
X-107661Y140634D01*
X-106582Y139749D01*
X-105351Y139090D01*
X-104015Y138685D01*
X-102626Y138548D01*
X-101237Y138685D01*
X-99901Y139090D01*
X-98670Y139749D01*
X-97591Y140634D01*
X-96705Y141713D01*
X-96047Y142944D01*
X-95642Y144280D01*
X-95505Y145669D01*
X-95642Y147058D01*
X-96047Y148394D01*
X-96705Y149626D01*
X-97591Y150705D01*
X-98670Y151590D01*
X-99901Y152248D01*
X-101237Y152653D01*
X-102626Y152790D01*
D02*
G37*
G36*
X-56500Y137469D02*
Y134000D01*
X-53031D01*
X-53103Y134544D01*
X-53506Y135517D01*
X-54147Y136353D01*
X-54983Y136994D01*
X-55956Y137397D01*
X-56500Y137469D01*
D02*
G37*
G36*
X-57500D02*
X-58044Y137397D01*
X-59017Y136994D01*
X-59853Y136353D01*
X-60494Y135517D01*
X-60897Y134544D01*
X-60969Y134000D01*
X-57500D01*
Y137469D01*
D02*
G37*
G36*
X-53031Y133000D02*
X-56500D01*
Y129531D01*
X-55956Y129603D01*
X-54983Y130006D01*
X-54147Y130647D01*
X-53506Y131483D01*
X-53103Y132456D01*
X-53031Y133000D01*
D02*
G37*
G36*
X-57500D02*
X-60969D01*
X-60897Y132456D01*
X-60494Y131483D01*
X-59853Y130647D01*
X-59017Y130006D01*
X-58044Y129603D01*
X-57500Y129531D01*
Y133000D01*
D02*
G37*
G36*
X-37441Y103284D02*
X-42559D01*
Y101376D01*
X-50957D01*
Y101996D01*
X-58043D01*
Y96287D01*
X-50957D01*
Y98750D01*
X-42559D01*
Y97969D01*
X-37441D01*
Y103284D01*
D02*
G37*
G36*
X-19457Y101996D02*
X-26543D01*
Y100813D01*
X-28773D01*
X-28939Y101061D01*
X-29655Y101540D01*
X-30500Y101708D01*
X-31345Y101540D01*
X-32061Y101061D01*
X-32540Y100345D01*
X-32708Y99500D01*
X-32540Y98655D01*
X-32061Y97939D01*
X-31345Y97460D01*
X-30500Y97292D01*
X-29655Y97460D01*
X-28939Y97939D01*
X-28773Y98187D01*
X-26543D01*
Y96287D01*
X-19457D01*
Y101996D01*
D02*
G37*
G36*
X-64744Y102209D02*
X-68000D01*
Y99642D01*
X-64744D01*
Y102209D01*
D02*
G37*
G36*
X-69000D02*
X-72256D01*
Y99642D01*
X-69000D01*
Y102209D01*
D02*
G37*
G36*
X-64744Y98642D02*
X-68000D01*
Y96075D01*
X-64744D01*
Y98642D01*
D02*
G37*
G36*
X-69000D02*
X-72256D01*
Y96075D01*
X-69000D01*
Y98642D01*
D02*
G37*
G36*
X-40968Y94244D02*
X-43240D01*
Y91874D01*
X-40968D01*
Y94244D01*
D02*
G37*
G36*
X-44240D02*
X-46512D01*
Y91874D01*
X-44240D01*
Y94244D01*
D02*
G37*
G36*
X-36086Y111398D02*
X-71414D01*
X-71917Y111299D01*
X-72342Y111014D01*
X-79305Y104051D01*
X-79590Y103625D01*
X-79690Y103123D01*
Y101996D01*
X-82043D01*
Y96287D01*
X-74957D01*
Y101996D01*
X-77065D01*
Y102579D01*
X-70871Y108773D01*
X-36813D01*
Y94032D01*
X-38819D01*
Y88717D01*
X-33701D01*
Y90061D01*
X-26543D01*
Y89004D01*
X-19457D01*
Y94713D01*
X-26543D01*
Y92687D01*
X-33701D01*
Y94032D01*
X-34187D01*
Y109500D01*
X-34287Y110002D01*
X-34572Y110428D01*
X-35158Y111014D01*
X-35583Y111299D01*
X-36086Y111398D01*
D02*
G37*
G36*
X-40968Y90874D02*
X-43240D01*
Y88504D01*
X-40968D01*
Y90874D01*
D02*
G37*
G36*
X-44240D02*
X-46512D01*
Y88504D01*
X-44240D01*
Y90874D01*
D02*
G37*
G36*
X-27453Y67935D02*
Y57587D01*
X-26138D01*
Y66535D01*
X-26246Y67079D01*
X-26554Y67540D01*
X-27015Y67848D01*
X-27453Y67935D01*
D02*
G37*
G36*
X-41232Y67935D02*
Y57087D01*
Y46238D01*
X-40795Y46325D01*
X-40354Y46619D01*
X-39914Y46325D01*
X-39476Y46238D01*
Y57087D01*
Y67935D01*
X-39914Y67848D01*
X-40354Y67554D01*
X-40795Y67848D01*
X-41232Y67935D01*
D02*
G37*
G36*
X-26138Y56587D02*
X-27453D01*
Y46238D01*
X-27015Y46325D01*
X-26554Y46633D01*
X-26246Y47094D01*
X-26138Y47638D01*
Y56587D01*
D02*
G37*
G36*
X-58768D02*
X-60082D01*
Y47638D01*
X-59974Y47094D01*
X-59666Y46633D01*
X-59205Y46325D01*
X-58768Y46238D01*
Y56587D01*
D02*
G37*
G36*
X-9500Y25303D02*
X-99500D01*
X-99807Y25242D01*
X-100068Y25068D01*
X-100242Y24807D01*
X-100303Y24500D01*
Y16500D01*
X-100242Y16193D01*
X-100068Y15932D01*
X-99807Y15758D01*
X-99500Y15697D01*
X-9500D01*
X-9193Y15758D01*
X-8932Y15932D01*
X-8758Y16193D01*
X-8697Y16500D01*
Y24500D01*
X-8758Y24807D01*
X-8932Y25068D01*
X-9193Y25242D01*
X-9500Y25303D01*
D02*
G37*
G36*
X-17213Y14630D02*
X-94777D01*
Y3213D01*
X-17213D01*
Y14630D01*
D02*
G37*
%LPD*%
G36*
X-85646Y11441D02*
X-85575Y11431D01*
X-85509Y11415D01*
X-85463Y11400D01*
X-85427Y11380D01*
X-85402Y11364D01*
X-85386Y11354D01*
X-85381Y11349D01*
X-85351Y11308D01*
X-85330Y11257D01*
X-85310Y11201D01*
X-85300Y11140D01*
X-85295Y11089D01*
X-85289Y11043D01*
Y11012D01*
Y11007D01*
Y11002D01*
X-85295Y10916D01*
X-85305Y10844D01*
X-85320Y10783D01*
X-85335Y10737D01*
X-85351Y10701D01*
X-85366Y10681D01*
X-85376Y10666D01*
X-85381Y10661D01*
X-85422Y10630D01*
X-85478Y10610D01*
X-85534Y10594D01*
X-85595Y10584D01*
X-85646Y10579D01*
X-85692Y10574D01*
X-85733D01*
X-85825Y10579D01*
X-85896Y10589D01*
X-85963Y10605D01*
X-86009Y10620D01*
X-86044Y10635D01*
X-86070Y10650D01*
X-86085Y10661D01*
X-86090Y10666D01*
X-86121Y10706D01*
X-86146Y10757D01*
X-86162Y10814D01*
X-86177Y10875D01*
X-86182Y10926D01*
X-86187Y10972D01*
Y11002D01*
Y11007D01*
Y11012D01*
X-86182Y11099D01*
X-86172Y11171D01*
X-86156Y11232D01*
X-86141Y11278D01*
X-86121Y11313D01*
X-86105Y11334D01*
X-86095Y11349D01*
X-86090Y11354D01*
X-86049Y11385D01*
X-85993Y11405D01*
X-85937Y11426D01*
X-85876Y11436D01*
X-85825Y11441D01*
X-85779Y11446D01*
X-85738D01*
X-85646Y11441D01*
D02*
G37*
G36*
X-48539Y11375D02*
X-48457Y11370D01*
X-48381Y11359D01*
X-48320Y11349D01*
X-48274Y11339D01*
X-48243Y11334D01*
X-48238Y11329D01*
X-48233D01*
X-48146Y11308D01*
X-48065Y11288D01*
X-47993Y11268D01*
X-47927Y11247D01*
X-47876Y11227D01*
X-47835Y11216D01*
X-47809Y11206D01*
X-47799Y11201D01*
X-47728Y11171D01*
X-47667Y11145D01*
X-47611Y11120D01*
X-47565Y11094D01*
X-47524Y11074D01*
X-47498Y11058D01*
X-47478Y11048D01*
X-47473Y11043D01*
X-47427Y11018D01*
X-47391Y10992D01*
X-47361Y10972D01*
X-47335Y10951D01*
X-47315Y10941D01*
X-47300Y10931D01*
X-47294Y10921D01*
X-47289D01*
X-47259Y10890D01*
X-47238Y10865D01*
X-47228Y10849D01*
X-47223Y10844D01*
X-47213Y10819D01*
X-47203Y10798D01*
X-47197Y10783D01*
X-47192Y10778D01*
X-47187Y10747D01*
X-47182Y10722D01*
X-47177Y10701D01*
Y10691D01*
Y10655D01*
Y10620D01*
Y10589D01*
Y10584D01*
Y10579D01*
Y10518D01*
X-47182Y10467D01*
Y10446D01*
Y10431D01*
Y10426D01*
Y10421D01*
X-47192Y10375D01*
X-47197Y10344D01*
X-47208Y10319D01*
Y10314D01*
X-47223Y10288D01*
X-47233Y10273D01*
X-47243Y10263D01*
X-47249Y10258D01*
X-47269Y10248D01*
X-47284Y10242D01*
X-47305D01*
X-47330Y10248D01*
X-47356Y10253D01*
X-47412Y10278D01*
X-47432Y10293D01*
X-47453Y10304D01*
X-47468Y10309D01*
X-47473Y10314D01*
X-47565Y10370D01*
X-47611Y10401D01*
X-47651Y10426D01*
X-47692Y10446D01*
X-47723Y10462D01*
X-47743Y10472D01*
X-47748Y10477D01*
X-47881Y10538D01*
X-47947Y10569D01*
X-48003Y10589D01*
X-48059Y10610D01*
X-48100Y10625D01*
X-48126Y10635D01*
X-48136Y10640D01*
X-48223Y10666D01*
X-48304Y10686D01*
X-48391Y10696D01*
X-48467Y10706D01*
X-48534Y10712D01*
X-48590Y10717D01*
X-48636D01*
X-48722Y10712D01*
X-48799Y10706D01*
X-48870Y10691D01*
X-48932Y10681D01*
X-48983Y10666D01*
X-49018Y10650D01*
X-49039Y10645D01*
X-49049Y10640D01*
X-49115Y10610D01*
X-49176Y10574D01*
X-49227Y10543D01*
X-49273Y10508D01*
X-49309Y10482D01*
X-49334Y10457D01*
X-49350Y10441D01*
X-49355Y10436D01*
X-49396Y10385D01*
X-49436Y10334D01*
X-49467Y10283D01*
X-49492Y10237D01*
X-49513Y10197D01*
X-49528Y10166D01*
X-49533Y10146D01*
X-49538Y10135D01*
X-49559Y10074D01*
X-49579Y10008D01*
X-49589Y9947D01*
X-49595Y9896D01*
X-49600Y9845D01*
X-49605Y9809D01*
Y9788D01*
Y9778D01*
X-49600Y9635D01*
X-49589Y9564D01*
X-49584Y9503D01*
X-49574Y9452D01*
X-49564Y9406D01*
X-49559Y9381D01*
Y9375D01*
Y9370D01*
X-49538Y9289D01*
X-49518Y9207D01*
X-49487Y9126D01*
X-49462Y9049D01*
X-49431Y8988D01*
X-49411Y8937D01*
X-49401Y8916D01*
X-49396Y8901D01*
X-49391Y8896D01*
Y8891D01*
X-49340Y8789D01*
X-49278Y8692D01*
X-49217Y8595D01*
X-49161Y8503D01*
X-49105Y8427D01*
X-49084Y8391D01*
X-49064Y8366D01*
X-49049Y8340D01*
X-49033Y8325D01*
X-49028Y8315D01*
X-49023Y8309D01*
X-48926Y8187D01*
X-48824Y8060D01*
X-48717Y7937D01*
X-48615Y7825D01*
X-48569Y7774D01*
X-48529Y7728D01*
X-48488Y7687D01*
X-48457Y7652D01*
X-48427Y7621D01*
X-48406Y7601D01*
X-48396Y7585D01*
X-48391Y7580D01*
X-47249Y6407D01*
X-47213Y6366D01*
X-47182Y6331D01*
X-47162Y6310D01*
X-47157Y6300D01*
X-47136Y6264D01*
X-47116Y6229D01*
X-47106Y6208D01*
X-47101Y6198D01*
X-47090Y6157D01*
X-47080Y6122D01*
X-47075Y6091D01*
Y6086D01*
Y6081D01*
X-47070Y6030D01*
Y5984D01*
Y5958D01*
Y5943D01*
Y5933D01*
Y5928D01*
X-47075Y5861D01*
X-47080Y5810D01*
Y5790D01*
X-47085Y5775D01*
Y5770D01*
Y5765D01*
X-47101Y5719D01*
X-47116Y5688D01*
X-47126Y5668D01*
X-47131Y5663D01*
X-47157Y5642D01*
X-47187Y5627D01*
X-47208Y5622D01*
X-47213Y5617D01*
X-47249Y5607D01*
X-47284Y5601D01*
X-50472D01*
X-50497Y5607D01*
X-50518Y5612D01*
X-50533Y5617D01*
X-50538D01*
X-50564Y5637D01*
X-50579Y5658D01*
X-50589Y5673D01*
X-50594Y5678D01*
X-50609Y5714D01*
X-50620Y5749D01*
X-50625Y5775D01*
Y5780D01*
Y5785D01*
X-50635Y5831D01*
X-50640Y5877D01*
Y5912D01*
Y5918D01*
Y5923D01*
Y5979D01*
X-50635Y6025D01*
X-50630Y6050D01*
X-50625Y6060D01*
X-50615Y6101D01*
X-50604Y6137D01*
X-50594Y6157D01*
X-50589Y6162D01*
X-50574Y6188D01*
X-50553Y6208D01*
X-50538Y6219D01*
X-50533Y6224D01*
X-50507Y6234D01*
X-50487Y6244D01*
X-47988D01*
X-48891Y7182D01*
X-49064Y7366D01*
X-49217Y7534D01*
X-49288Y7611D01*
X-49350Y7687D01*
X-49411Y7754D01*
X-49462Y7815D01*
X-49508Y7871D01*
X-49554Y7922D01*
X-49589Y7968D01*
X-49615Y8004D01*
X-49640Y8029D01*
X-49656Y8055D01*
X-49666Y8065D01*
X-49671Y8070D01*
X-49778Y8213D01*
X-49865Y8345D01*
X-49946Y8462D01*
X-50008Y8570D01*
X-50038Y8610D01*
X-50059Y8651D01*
X-50079Y8687D01*
X-50094Y8717D01*
X-50110Y8743D01*
X-50120Y8758D01*
X-50125Y8768D01*
Y8774D01*
X-50181Y8891D01*
X-50222Y8998D01*
X-50257Y9100D01*
X-50288Y9187D01*
X-50309Y9258D01*
X-50319Y9314D01*
X-50324Y9335D01*
X-50329Y9350D01*
Y9355D01*
Y9360D01*
X-50344Y9462D01*
X-50359Y9559D01*
X-50370Y9651D01*
X-50375Y9732D01*
X-50380Y9799D01*
Y9855D01*
Y9875D01*
Y9890D01*
Y9896D01*
Y9901D01*
X-50375Y10013D01*
X-50365Y10120D01*
X-50349Y10217D01*
X-50329Y10304D01*
X-50309Y10370D01*
X-50293Y10426D01*
X-50288Y10446D01*
X-50283Y10462D01*
X-50278Y10467D01*
Y10472D01*
X-50237Y10569D01*
X-50186Y10661D01*
X-50135Y10742D01*
X-50084Y10808D01*
X-50038Y10870D01*
X-50002Y10910D01*
X-49977Y10936D01*
X-49967Y10946D01*
X-49885Y11018D01*
X-49799Y11084D01*
X-49712Y11140D01*
X-49635Y11186D01*
X-49559Y11222D01*
X-49503Y11247D01*
X-49482Y11257D01*
X-49467Y11262D01*
X-49457Y11268D01*
X-49452D01*
X-49334Y11308D01*
X-49212Y11334D01*
X-49090Y11354D01*
X-48977Y11370D01*
X-48921Y11375D01*
X-48875Y11380D01*
X-48835D01*
X-48799Y11385D01*
X-48631D01*
X-48539Y11375D01*
D02*
G37*
G36*
X-66170D02*
X-66088Y11370D01*
X-66011Y11359D01*
X-65950Y11349D01*
X-65904Y11339D01*
X-65874Y11334D01*
X-65869Y11329D01*
X-65864D01*
X-65777Y11308D01*
X-65695Y11288D01*
X-65624Y11268D01*
X-65557Y11247D01*
X-65507Y11227D01*
X-65466Y11216D01*
X-65440Y11206D01*
X-65430Y11201D01*
X-65359Y11171D01*
X-65297Y11145D01*
X-65241Y11120D01*
X-65195Y11094D01*
X-65155Y11074D01*
X-65129Y11058D01*
X-65109Y11048D01*
X-65104Y11043D01*
X-65058Y11018D01*
X-65022Y10992D01*
X-64991Y10972D01*
X-64966Y10951D01*
X-64946Y10941D01*
X-64930Y10931D01*
X-64925Y10921D01*
X-64920D01*
X-64889Y10890D01*
X-64869Y10865D01*
X-64859Y10849D01*
X-64854Y10844D01*
X-64843Y10819D01*
X-64833Y10798D01*
X-64828Y10783D01*
X-64823Y10778D01*
X-64818Y10747D01*
X-64813Y10722D01*
X-64808Y10701D01*
Y10691D01*
Y10655D01*
Y10620D01*
Y10589D01*
Y10584D01*
Y10579D01*
Y10518D01*
X-64813Y10467D01*
Y10446D01*
Y10431D01*
Y10426D01*
Y10421D01*
X-64823Y10375D01*
X-64828Y10344D01*
X-64838Y10319D01*
Y10314D01*
X-64854Y10288D01*
X-64864Y10273D01*
X-64874Y10263D01*
X-64879Y10258D01*
X-64900Y10248D01*
X-64915Y10242D01*
X-64935D01*
X-64961Y10248D01*
X-64986Y10253D01*
X-65042Y10278D01*
X-65063Y10293D01*
X-65083Y10304D01*
X-65099Y10309D01*
X-65104Y10314D01*
X-65195Y10370D01*
X-65241Y10401D01*
X-65282Y10426D01*
X-65323Y10446D01*
X-65354Y10462D01*
X-65374Y10472D01*
X-65379Y10477D01*
X-65512Y10538D01*
X-65578Y10569D01*
X-65634Y10589D01*
X-65690Y10610D01*
X-65731Y10625D01*
X-65756Y10635D01*
X-65767Y10640D01*
X-65853Y10666D01*
X-65935Y10686D01*
X-66022Y10696D01*
X-66098Y10706D01*
X-66164Y10712D01*
X-66220Y10717D01*
X-66266D01*
X-66353Y10712D01*
X-66430Y10706D01*
X-66501Y10691D01*
X-66562Y10681D01*
X-66613Y10666D01*
X-66649Y10650D01*
X-66669Y10645D01*
X-66680Y10640D01*
X-66746Y10610D01*
X-66807Y10574D01*
X-66858Y10543D01*
X-66904Y10508D01*
X-66940Y10482D01*
X-66965Y10457D01*
X-66980Y10441D01*
X-66985Y10436D01*
X-67026Y10385D01*
X-67067Y10334D01*
X-67098Y10283D01*
X-67123Y10237D01*
X-67144Y10197D01*
X-67159Y10166D01*
X-67164Y10146D01*
X-67169Y10135D01*
X-67190Y10074D01*
X-67210Y10008D01*
X-67220Y9947D01*
X-67225Y9896D01*
X-67230Y9845D01*
X-67235Y9809D01*
Y9788D01*
Y9778D01*
X-67230Y9635D01*
X-67220Y9564D01*
X-67215Y9503D01*
X-67205Y9452D01*
X-67195Y9406D01*
X-67190Y9381D01*
Y9375D01*
Y9370D01*
X-67169Y9289D01*
X-67149Y9207D01*
X-67118Y9126D01*
X-67093Y9049D01*
X-67062Y8988D01*
X-67042Y8937D01*
X-67031Y8916D01*
X-67026Y8901D01*
X-67021Y8896D01*
Y8891D01*
X-66970Y8789D01*
X-66909Y8692D01*
X-66848Y8595D01*
X-66792Y8503D01*
X-66736Y8427D01*
X-66715Y8391D01*
X-66695Y8366D01*
X-66680Y8340D01*
X-66664Y8325D01*
X-66659Y8315D01*
X-66654Y8309D01*
X-66557Y8187D01*
X-66455Y8060D01*
X-66348Y7937D01*
X-66246Y7825D01*
X-66200Y7774D01*
X-66159Y7728D01*
X-66119Y7687D01*
X-66088Y7652D01*
X-66057Y7621D01*
X-66037Y7601D01*
X-66027Y7585D01*
X-66022Y7580D01*
X-64879Y6407D01*
X-64843Y6366D01*
X-64813Y6331D01*
X-64793Y6310D01*
X-64787Y6300D01*
X-64767Y6264D01*
X-64747Y6229D01*
X-64736Y6208D01*
X-64731Y6198D01*
X-64721Y6157D01*
X-64711Y6122D01*
X-64706Y6091D01*
Y6086D01*
Y6081D01*
X-64701Y6030D01*
Y5984D01*
Y5958D01*
Y5943D01*
Y5933D01*
Y5928D01*
X-64706Y5861D01*
X-64711Y5810D01*
Y5790D01*
X-64716Y5775D01*
Y5770D01*
Y5765D01*
X-64731Y5719D01*
X-64747Y5688D01*
X-64757Y5668D01*
X-64762Y5663D01*
X-64787Y5642D01*
X-64818Y5627D01*
X-64838Y5622D01*
X-64843Y5617D01*
X-64879Y5607D01*
X-64915Y5601D01*
X-68102D01*
X-68128Y5607D01*
X-68148Y5612D01*
X-68164Y5617D01*
X-68169D01*
X-68194Y5637D01*
X-68209Y5658D01*
X-68220Y5673D01*
X-68225Y5678D01*
X-68240Y5714D01*
X-68250Y5749D01*
X-68255Y5775D01*
Y5780D01*
Y5785D01*
X-68266Y5831D01*
X-68271Y5877D01*
Y5912D01*
Y5918D01*
Y5923D01*
Y5979D01*
X-68266Y6025D01*
X-68261Y6050D01*
X-68255Y6060D01*
X-68245Y6101D01*
X-68235Y6137D01*
X-68225Y6157D01*
X-68220Y6162D01*
X-68204Y6188D01*
X-68184Y6208D01*
X-68169Y6219D01*
X-68164Y6224D01*
X-68138Y6234D01*
X-68118Y6244D01*
X-65619D01*
X-66521Y7182D01*
X-66695Y7366D01*
X-66848Y7534D01*
X-66919Y7611D01*
X-66980Y7687D01*
X-67042Y7754D01*
X-67093Y7815D01*
X-67138Y7871D01*
X-67184Y7922D01*
X-67220Y7968D01*
X-67246Y8004D01*
X-67271Y8029D01*
X-67286Y8055D01*
X-67297Y8065D01*
X-67302Y8070D01*
X-67409Y8213D01*
X-67496Y8345D01*
X-67577Y8462D01*
X-67638Y8570D01*
X-67669Y8610D01*
X-67689Y8651D01*
X-67710Y8687D01*
X-67725Y8717D01*
X-67740Y8743D01*
X-67751Y8758D01*
X-67756Y8768D01*
Y8774D01*
X-67812Y8891D01*
X-67852Y8998D01*
X-67888Y9100D01*
X-67919Y9187D01*
X-67939Y9258D01*
X-67949Y9314D01*
X-67954Y9335D01*
X-67960Y9350D01*
Y9355D01*
Y9360D01*
X-67975Y9462D01*
X-67990Y9559D01*
X-68000Y9651D01*
X-68006Y9732D01*
X-68011Y9799D01*
Y9855D01*
Y9875D01*
Y9890D01*
Y9896D01*
Y9901D01*
X-68006Y10013D01*
X-67995Y10120D01*
X-67980Y10217D01*
X-67960Y10304D01*
X-67939Y10370D01*
X-67924Y10426D01*
X-67919Y10446D01*
X-67914Y10462D01*
X-67909Y10467D01*
Y10472D01*
X-67868Y10569D01*
X-67817Y10661D01*
X-67766Y10742D01*
X-67715Y10808D01*
X-67669Y10870D01*
X-67633Y10910D01*
X-67608Y10936D01*
X-67598Y10946D01*
X-67516Y11018D01*
X-67429Y11084D01*
X-67343Y11140D01*
X-67266Y11186D01*
X-67190Y11222D01*
X-67133Y11247D01*
X-67113Y11257D01*
X-67098Y11262D01*
X-67088Y11268D01*
X-67082D01*
X-66965Y11308D01*
X-66843Y11334D01*
X-66720Y11354D01*
X-66608Y11370D01*
X-66552Y11375D01*
X-66506Y11380D01*
X-66465D01*
X-66430Y11385D01*
X-66261D01*
X-66170Y11375D01*
D02*
G37*
G36*
X-60799Y9809D02*
X-60743D01*
X-60723Y9804D01*
X-60707D01*
X-60651Y9794D01*
X-60616Y9778D01*
X-60590Y9768D01*
X-60580Y9763D01*
X-60554Y9743D01*
X-60544Y9717D01*
X-60539Y9702D01*
Y9692D01*
X-60549Y9661D01*
X-60559Y9625D01*
X-60575Y9600D01*
X-60580Y9595D01*
Y9590D01*
X-61748Y7728D01*
X-60514Y5795D01*
X-60488Y5754D01*
X-60478Y5719D01*
X-60468Y5698D01*
Y5688D01*
X-60473Y5663D01*
X-60488Y5642D01*
X-60498Y5627D01*
X-60503Y5622D01*
X-60539Y5607D01*
X-60580Y5601D01*
X-60611Y5591D01*
X-60626D01*
X-60692Y5581D01*
X-60764Y5576D01*
X-60917D01*
X-60952Y5581D01*
X-61003D01*
X-61019Y5586D01*
X-61034D01*
X-61085Y5591D01*
X-61126Y5596D01*
X-61146Y5601D01*
X-61156D01*
X-61187Y5617D01*
X-61207Y5627D01*
X-61217Y5637D01*
X-61222Y5642D01*
X-61253Y5678D01*
X-61263Y5693D01*
X-61268Y5698D01*
X-62217Y7269D01*
X-63166Y5698D01*
X-63181Y5678D01*
X-63196Y5658D01*
X-63201Y5647D01*
X-63206Y5642D01*
X-63227Y5627D01*
X-63252Y5612D01*
X-63273Y5607D01*
X-63278Y5601D01*
X-63319Y5596D01*
X-63354Y5591D01*
X-63390Y5586D01*
X-63400D01*
X-63431Y5581D01*
X-63467D01*
X-63533Y5576D01*
X-63660D01*
X-63701Y5581D01*
X-63742D01*
X-63772Y5586D01*
X-63798D01*
X-63818Y5591D01*
X-63834D01*
X-63890Y5601D01*
X-63931Y5612D01*
X-63956Y5617D01*
X-63961Y5622D01*
X-63987Y5642D01*
X-63997Y5663D01*
X-64002Y5683D01*
Y5688D01*
X-63997Y5724D01*
X-63987Y5759D01*
X-63971Y5785D01*
X-63966Y5790D01*
Y5795D01*
X-62742Y7749D01*
X-63900Y9590D01*
X-63925Y9635D01*
X-63941Y9671D01*
X-63946Y9692D01*
Y9702D01*
X-63941Y9732D01*
X-63931Y9753D01*
X-63915Y9763D01*
X-63910Y9768D01*
X-63875Y9783D01*
X-63834Y9794D01*
X-63803Y9804D01*
X-63788D01*
X-63722Y9809D01*
X-63655Y9814D01*
X-63502D01*
X-63467Y9809D01*
X-63421D01*
X-63405Y9804D01*
X-63390D01*
X-63344Y9799D01*
X-63314Y9794D01*
X-63288Y9788D01*
X-63283Y9783D01*
X-63257Y9773D01*
X-63242Y9758D01*
X-63232Y9748D01*
X-63227Y9743D01*
X-63201Y9712D01*
X-63191Y9702D01*
X-63186Y9697D01*
X-62273Y8223D01*
X-61370Y9697D01*
X-61355Y9717D01*
X-61345Y9732D01*
X-61335Y9743D01*
X-61330Y9748D01*
X-61309Y9763D01*
X-61289Y9773D01*
X-61273Y9783D01*
X-61263D01*
X-61222Y9794D01*
X-61187Y9799D01*
X-61156Y9804D01*
X-61141D01*
X-61075Y9809D01*
X-61008Y9814D01*
X-60840D01*
X-60799Y9809D01*
D02*
G37*
G36*
X-87278D02*
X-87222D01*
X-87202Y9804D01*
X-87187D01*
X-87130Y9794D01*
X-87095Y9778D01*
X-87069Y9768D01*
X-87059Y9763D01*
X-87034Y9743D01*
X-87023Y9717D01*
X-87018Y9702D01*
Y9692D01*
X-87028Y9661D01*
X-87039Y9625D01*
X-87054Y9600D01*
X-87059Y9595D01*
Y9590D01*
X-88227Y7728D01*
X-86993Y5795D01*
X-86967Y5754D01*
X-86957Y5719D01*
X-86947Y5698D01*
Y5688D01*
X-86952Y5663D01*
X-86967Y5642D01*
X-86977Y5627D01*
X-86983Y5622D01*
X-87018Y5607D01*
X-87059Y5601D01*
X-87090Y5591D01*
X-87105D01*
X-87171Y5581D01*
X-87243Y5576D01*
X-87396D01*
X-87431Y5581D01*
X-87482D01*
X-87498Y5586D01*
X-87513D01*
X-87564Y5591D01*
X-87605Y5596D01*
X-87625Y5601D01*
X-87635D01*
X-87666Y5617D01*
X-87686Y5627D01*
X-87697Y5637D01*
X-87702Y5642D01*
X-87732Y5678D01*
X-87743Y5693D01*
X-87748Y5698D01*
X-88696Y7269D01*
X-89645Y5698D01*
X-89660Y5678D01*
X-89675Y5658D01*
X-89680Y5647D01*
X-89686Y5642D01*
X-89706Y5627D01*
X-89732Y5612D01*
X-89752Y5607D01*
X-89757Y5601D01*
X-89798Y5596D01*
X-89833Y5591D01*
X-89869Y5586D01*
X-89879D01*
X-89910Y5581D01*
X-89946D01*
X-90012Y5576D01*
X-90140D01*
X-90180Y5581D01*
X-90221D01*
X-90252Y5586D01*
X-90277D01*
X-90298Y5591D01*
X-90313D01*
X-90369Y5601D01*
X-90410Y5612D01*
X-90435Y5617D01*
X-90440Y5622D01*
X-90466Y5642D01*
X-90476Y5663D01*
X-90481Y5683D01*
Y5688D01*
X-90476Y5724D01*
X-90466Y5759D01*
X-90451Y5785D01*
X-90446Y5790D01*
Y5795D01*
X-89222Y7749D01*
X-90379Y9590D01*
X-90405Y9635D01*
X-90420Y9671D01*
X-90425Y9692D01*
Y9702D01*
X-90420Y9732D01*
X-90410Y9753D01*
X-90395Y9763D01*
X-90389Y9768D01*
X-90354Y9783D01*
X-90313Y9794D01*
X-90282Y9804D01*
X-90267D01*
X-90201Y9809D01*
X-90134Y9814D01*
X-89981D01*
X-89946Y9809D01*
X-89900D01*
X-89885Y9804D01*
X-89869D01*
X-89823Y9799D01*
X-89793Y9794D01*
X-89767Y9788D01*
X-89762Y9783D01*
X-89737Y9773D01*
X-89721Y9758D01*
X-89711Y9748D01*
X-89706Y9743D01*
X-89680Y9712D01*
X-89670Y9702D01*
X-89665Y9697D01*
X-88752Y8223D01*
X-87850Y9697D01*
X-87834Y9717D01*
X-87824Y9732D01*
X-87814Y9743D01*
X-87809Y9748D01*
X-87788Y9763D01*
X-87768Y9773D01*
X-87753Y9783D01*
X-87743D01*
X-87702Y9794D01*
X-87666Y9799D01*
X-87635Y9804D01*
X-87620D01*
X-87554Y9809D01*
X-87488Y9814D01*
X-87319D01*
X-87278Y9809D01*
D02*
G37*
G36*
X-42046Y11380D02*
X-41878Y11359D01*
X-41802Y11349D01*
X-41730Y11334D01*
X-41669Y11319D01*
X-41608Y11308D01*
X-41552Y11293D01*
X-41506Y11278D01*
X-41460Y11262D01*
X-41429Y11252D01*
X-41399Y11242D01*
X-41378Y11232D01*
X-41368Y11227D01*
X-41363D01*
X-41236Y11165D01*
X-41118Y11099D01*
X-41016Y11028D01*
X-40930Y10961D01*
X-40858Y10905D01*
X-40807Y10854D01*
X-40792Y10839D01*
X-40777Y10824D01*
X-40771Y10819D01*
X-40766Y10814D01*
X-40685Y10712D01*
X-40619Y10610D01*
X-40557Y10508D01*
X-40511Y10416D01*
X-40471Y10334D01*
X-40460Y10299D01*
X-40445Y10268D01*
X-40435Y10248D01*
X-40430Y10227D01*
X-40425Y10217D01*
Y10212D01*
X-40389Y10084D01*
X-40363Y9957D01*
X-40343Y9834D01*
X-40333Y9722D01*
X-40328Y9676D01*
X-40323Y9630D01*
Y9590D01*
X-40318Y9559D01*
Y9528D01*
Y9508D01*
Y9498D01*
Y9493D01*
X-40323Y9360D01*
X-40333Y9233D01*
X-40343Y9120D01*
X-40358Y9018D01*
X-40374Y8937D01*
X-40379Y8901D01*
X-40389Y8876D01*
X-40394Y8850D01*
Y8835D01*
X-40399Y8825D01*
Y8820D01*
X-40435Y8707D01*
X-40481Y8605D01*
X-40527Y8513D01*
X-40573Y8437D01*
X-40613Y8371D01*
X-40649Y8325D01*
X-40670Y8294D01*
X-40680Y8289D01*
Y8284D01*
X-40761Y8202D01*
X-40843Y8136D01*
X-40930Y8075D01*
X-41016Y8024D01*
X-41088Y7983D01*
X-41149Y7958D01*
X-41169Y7947D01*
X-41185Y7937D01*
X-41195Y7932D01*
X-41200D01*
X-41327Y7891D01*
X-41465Y7861D01*
X-41598Y7835D01*
X-41725Y7820D01*
X-41781Y7815D01*
X-41832Y7810D01*
X-41883D01*
X-41924Y7805D01*
X-42001D01*
X-42154Y7810D01*
X-42296Y7820D01*
X-42424Y7835D01*
X-42536Y7856D01*
X-42582Y7866D01*
X-42623Y7876D01*
X-42664Y7881D01*
X-42694Y7891D01*
X-42720Y7896D01*
X-42735Y7902D01*
X-42745Y7907D01*
X-42750D01*
X-42868Y7947D01*
X-42975Y7988D01*
X-43072Y8029D01*
X-43153Y8070D01*
X-43220Y8100D01*
X-43270Y8126D01*
X-43301Y8146D01*
X-43306Y8151D01*
X-43311D01*
X-43306Y8004D01*
X-43291Y7861D01*
X-43276Y7728D01*
X-43255Y7611D01*
X-43245Y7560D01*
X-43235Y7514D01*
X-43225Y7473D01*
X-43220Y7442D01*
X-43214Y7412D01*
X-43209Y7391D01*
X-43204Y7381D01*
Y7376D01*
X-43163Y7244D01*
X-43117Y7121D01*
X-43072Y7014D01*
X-43021Y6917D01*
X-42980Y6841D01*
X-42959Y6810D01*
X-42944Y6785D01*
X-42934Y6764D01*
X-42924Y6749D01*
X-42913Y6739D01*
Y6734D01*
X-42837Y6637D01*
X-42755Y6550D01*
X-42669Y6474D01*
X-42592Y6412D01*
X-42521Y6361D01*
X-42465Y6326D01*
X-42444Y6310D01*
X-42429Y6305D01*
X-42419Y6295D01*
X-42414D01*
X-42296Y6239D01*
X-42169Y6203D01*
X-42046Y6173D01*
X-41934Y6152D01*
X-41878Y6147D01*
X-41832Y6142D01*
X-41786Y6137D01*
X-41751D01*
X-41720Y6132D01*
X-41598D01*
X-41521Y6137D01*
X-41450Y6142D01*
X-41394Y6147D01*
X-41343Y6152D01*
X-41302Y6157D01*
X-41282Y6162D01*
X-41271D01*
X-41205Y6173D01*
X-41149Y6188D01*
X-41093Y6198D01*
X-41047Y6208D01*
X-41011Y6219D01*
X-40986Y6229D01*
X-40965Y6234D01*
X-40960D01*
X-40868Y6264D01*
X-40833Y6275D01*
X-40797Y6285D01*
X-40771Y6295D01*
X-40751Y6300D01*
X-40741Y6305D01*
X-40736D01*
X-40680Y6326D01*
X-40639Y6336D01*
X-40613Y6341D01*
X-40578D01*
X-40557Y6336D01*
X-40547Y6331D01*
X-40542D01*
X-40527Y6320D01*
X-40511Y6305D01*
X-40506Y6295D01*
X-40501Y6290D01*
X-40496Y6264D01*
X-40491Y6234D01*
X-40486Y6208D01*
Y6203D01*
Y6198D01*
X-40481Y6152D01*
Y6101D01*
Y6081D01*
Y6060D01*
Y6050D01*
Y6045D01*
X-40486Y5969D01*
Y5938D01*
X-40491Y5912D01*
Y5892D01*
X-40496Y5877D01*
Y5867D01*
Y5861D01*
X-40516Y5816D01*
X-40537Y5785D01*
X-40557Y5759D01*
X-40562Y5754D01*
X-40603Y5724D01*
X-40649Y5698D01*
X-40675Y5688D01*
X-40690Y5678D01*
X-40700Y5673D01*
X-40705D01*
X-40782Y5647D01*
X-40863Y5622D01*
X-40894Y5617D01*
X-40919Y5607D01*
X-40940Y5601D01*
X-40945D01*
X-41057Y5581D01*
X-41108Y5571D01*
X-41159Y5561D01*
X-41200Y5556D01*
X-41236Y5550D01*
X-41256Y5545D01*
X-41266D01*
X-41399Y5530D01*
X-41460Y5525D01*
X-41516D01*
X-41562Y5520D01*
X-41633D01*
X-41812Y5525D01*
X-41980Y5540D01*
X-42123Y5561D01*
X-42189Y5571D01*
X-42250Y5586D01*
X-42307Y5596D01*
X-42358Y5607D01*
X-42398Y5617D01*
X-42434Y5627D01*
X-42465Y5637D01*
X-42485Y5642D01*
X-42495Y5647D01*
X-42500D01*
X-42633Y5698D01*
X-42761Y5759D01*
X-42868Y5816D01*
X-42959Y5872D01*
X-43036Y5923D01*
X-43072Y5948D01*
X-43097Y5969D01*
X-43117Y5984D01*
X-43133Y5994D01*
X-43138Y6004D01*
X-43143D01*
X-43240Y6091D01*
X-43327Y6183D01*
X-43403Y6275D01*
X-43469Y6356D01*
X-43520Y6433D01*
X-43561Y6489D01*
X-43571Y6509D01*
X-43582Y6525D01*
X-43592Y6535D01*
Y6540D01*
X-43653Y6657D01*
X-43709Y6774D01*
X-43760Y6882D01*
X-43801Y6983D01*
X-43832Y7070D01*
X-43842Y7106D01*
X-43852Y7136D01*
X-43862Y7162D01*
X-43867Y7182D01*
X-43872Y7193D01*
Y7198D01*
X-43908Y7330D01*
X-43944Y7458D01*
X-43969Y7585D01*
X-43990Y7692D01*
X-44000Y7743D01*
X-44005Y7789D01*
X-44010Y7830D01*
X-44015Y7861D01*
X-44020Y7891D01*
X-44025Y7912D01*
Y7922D01*
Y7927D01*
X-44041Y8070D01*
X-44051Y8202D01*
X-44061Y8330D01*
X-44066Y8442D01*
Y8493D01*
X-44071Y8539D01*
Y8580D01*
Y8610D01*
Y8641D01*
Y8661D01*
Y8672D01*
Y8677D01*
Y8820D01*
X-44066Y8957D01*
X-44061Y9080D01*
X-44051Y9192D01*
X-44046Y9243D01*
Y9284D01*
X-44041Y9324D01*
X-44036Y9355D01*
Y9381D01*
X-44030Y9401D01*
Y9411D01*
Y9416D01*
X-44015Y9549D01*
X-43995Y9671D01*
X-43974Y9783D01*
X-43954Y9880D01*
X-43939Y9962D01*
X-43928Y9998D01*
X-43923Y10028D01*
X-43918Y10049D01*
X-43913Y10064D01*
X-43908Y10074D01*
Y10079D01*
X-43872Y10191D01*
X-43837Y10293D01*
X-43796Y10385D01*
X-43760Y10467D01*
X-43729Y10533D01*
X-43704Y10584D01*
X-43694Y10599D01*
X-43684Y10615D01*
X-43679Y10620D01*
Y10625D01*
X-43622Y10712D01*
X-43566Y10788D01*
X-43510Y10859D01*
X-43454Y10921D01*
X-43408Y10967D01*
X-43372Y11002D01*
X-43347Y11028D01*
X-43337Y11033D01*
X-43260Y11094D01*
X-43174Y11145D01*
X-43097Y11191D01*
X-43021Y11227D01*
X-42954Y11257D01*
X-42903Y11278D01*
X-42883Y11283D01*
X-42868Y11288D01*
X-42862Y11293D01*
X-42857D01*
X-42750Y11324D01*
X-42643Y11344D01*
X-42536Y11364D01*
X-42439Y11375D01*
X-42353Y11380D01*
X-42317D01*
X-42286Y11385D01*
X-42225D01*
X-42046Y11380D01*
D02*
G37*
G36*
X-22024Y11298D02*
X-22004Y11293D01*
X-21988Y11288D01*
X-21983Y11283D01*
X-21968Y11268D01*
X-21952Y11247D01*
X-21942Y11232D01*
X-21937Y11227D01*
X-21927Y11191D01*
X-21917Y11160D01*
X-21912Y11130D01*
Y11125D01*
Y11120D01*
X-21907Y11074D01*
X-21902Y11028D01*
Y11007D01*
Y10992D01*
Y10982D01*
Y10977D01*
Y10916D01*
X-21907Y10870D01*
X-21912Y10839D01*
Y10834D01*
Y10829D01*
X-21922Y10788D01*
X-21927Y10757D01*
X-21937Y10732D01*
Y10727D01*
X-21952Y10706D01*
X-21968Y10686D01*
X-21978Y10681D01*
X-21983Y10676D01*
X-22009Y10666D01*
X-22029Y10661D01*
X-23656D01*
Y5714D01*
X-23661Y5688D01*
X-23666Y5668D01*
X-23671Y5658D01*
Y5652D01*
X-23686Y5637D01*
X-23707Y5622D01*
X-23727Y5617D01*
X-23732Y5612D01*
X-23768Y5607D01*
X-23809Y5596D01*
X-23840Y5591D01*
X-23850D01*
X-23911Y5581D01*
X-23972Y5576D01*
X-24033D01*
X-24110Y5581D01*
X-24140D01*
X-24166Y5586D01*
X-24186D01*
X-24207Y5591D01*
X-24217D01*
X-24268Y5601D01*
X-24304Y5607D01*
X-24324Y5612D01*
X-24334D01*
X-24365Y5627D01*
X-24380Y5637D01*
X-24390Y5647D01*
X-24395Y5652D01*
X-24406Y5673D01*
X-24416Y5693D01*
Y5708D01*
Y5714D01*
Y10661D01*
X-26017D01*
X-26043Y10666D01*
X-26063Y10671D01*
X-26073Y10676D01*
X-26078D01*
X-26099Y10691D01*
X-26114Y10706D01*
X-26124Y10722D01*
X-26129Y10727D01*
X-26145Y10763D01*
X-26155Y10793D01*
X-26160Y10819D01*
Y10829D01*
X-26165Y10880D01*
X-26170Y10926D01*
Y10946D01*
Y10961D01*
Y10972D01*
Y10977D01*
Y11033D01*
X-26165Y11079D01*
X-26160Y11109D01*
Y11114D01*
Y11120D01*
X-26150Y11165D01*
X-26140Y11196D01*
X-26134Y11222D01*
X-26129Y11227D01*
X-26114Y11252D01*
X-26099Y11273D01*
X-26083Y11278D01*
X-26078Y11283D01*
X-26058Y11293D01*
X-26038Y11303D01*
X-22049D01*
X-22024Y11298D01*
D02*
G37*
G36*
X-26808D02*
X-26782Y11293D01*
X-26767Y11288D01*
X-26762Y11283D01*
X-26741Y11262D01*
X-26726Y11242D01*
X-26716Y11227D01*
X-26711Y11216D01*
X-26695Y11186D01*
X-26690Y11150D01*
X-26680Y11125D01*
Y11120D01*
Y11114D01*
X-26675Y11069D01*
X-26670Y11023D01*
Y11002D01*
Y10987D01*
Y10977D01*
Y10972D01*
Y10916D01*
X-26675Y10865D01*
X-26685Y10824D01*
X-26690Y10788D01*
X-26701Y10763D01*
X-26706Y10742D01*
X-26711Y10732D01*
Y10727D01*
X-26726Y10696D01*
X-26746Y10676D01*
X-26767Y10661D01*
X-26787Y10650D01*
X-26818Y10640D01*
X-29572D01*
X-27409Y5800D01*
X-27394Y5759D01*
X-27384Y5729D01*
X-27379Y5703D01*
Y5698D01*
X-27384Y5668D01*
X-27399Y5647D01*
X-27409Y5632D01*
X-27415Y5627D01*
X-27450Y5612D01*
X-27486Y5601D01*
X-27517Y5591D01*
X-27532D01*
X-27568Y5586D01*
X-27603Y5581D01*
X-27680Y5576D01*
X-27848D01*
X-27879Y5581D01*
X-27930D01*
X-27945Y5586D01*
X-27960D01*
X-28016Y5591D01*
X-28057Y5596D01*
X-28083Y5607D01*
X-28093D01*
X-28129Y5622D01*
X-28154Y5642D01*
X-28169Y5652D01*
X-28174Y5658D01*
X-28200Y5688D01*
X-28215Y5714D01*
X-28225Y5734D01*
X-28231Y5744D01*
X-30286Y10477D01*
X-30306Y10523D01*
X-30316Y10559D01*
X-30327Y10584D01*
X-30332Y10594D01*
X-30347Y10635D01*
X-30357Y10671D01*
X-30362Y10696D01*
Y10706D01*
X-30367Y10752D01*
X-30373Y10793D01*
X-30378Y10819D01*
Y10824D01*
Y10829D01*
X-30383Y10880D01*
X-30388Y10926D01*
Y10946D01*
Y10961D01*
Y10972D01*
Y10977D01*
Y11043D01*
X-30383Y11094D01*
X-30378Y11109D01*
Y11125D01*
X-30373Y11130D01*
Y11135D01*
X-30362Y11176D01*
X-30347Y11206D01*
X-30337Y11227D01*
X-30332Y11232D01*
X-30311Y11257D01*
X-30291Y11278D01*
X-30276Y11283D01*
X-30266Y11288D01*
X-30230Y11298D01*
X-30194Y11303D01*
X-26833D01*
X-26808Y11298D01*
D02*
G37*
G36*
X-31382D02*
X-31357Y11293D01*
X-31342Y11288D01*
X-31337Y11283D01*
X-31316Y11262D01*
X-31301Y11242D01*
X-31291Y11227D01*
X-31286Y11216D01*
X-31270Y11186D01*
X-31265Y11150D01*
X-31255Y11125D01*
Y11120D01*
Y11114D01*
X-31250Y11069D01*
X-31245Y11023D01*
Y11002D01*
Y10987D01*
Y10977D01*
Y10972D01*
Y10916D01*
X-31250Y10865D01*
X-31260Y10824D01*
X-31265Y10788D01*
X-31275Y10763D01*
X-31280Y10742D01*
X-31286Y10732D01*
Y10727D01*
X-31301Y10696D01*
X-31321Y10676D01*
X-31342Y10661D01*
X-31362Y10650D01*
X-31393Y10640D01*
X-34147D01*
X-31984Y5800D01*
X-31969Y5759D01*
X-31959Y5729D01*
X-31954Y5703D01*
Y5698D01*
X-31959Y5668D01*
X-31974Y5647D01*
X-31984Y5632D01*
X-31989Y5627D01*
X-32025Y5612D01*
X-32061Y5601D01*
X-32091Y5591D01*
X-32107D01*
X-32142Y5586D01*
X-32178Y5581D01*
X-32254Y5576D01*
X-32423D01*
X-32453Y5581D01*
X-32504D01*
X-32520Y5586D01*
X-32535D01*
X-32591Y5591D01*
X-32632Y5596D01*
X-32657Y5607D01*
X-32668D01*
X-32703Y5622D01*
X-32729Y5642D01*
X-32744Y5652D01*
X-32749Y5658D01*
X-32775Y5688D01*
X-32790Y5714D01*
X-32800Y5734D01*
X-32805Y5744D01*
X-34861Y10477D01*
X-34881Y10523D01*
X-34891Y10559D01*
X-34901Y10584D01*
X-34907Y10594D01*
X-34922Y10635D01*
X-34932Y10671D01*
X-34937Y10696D01*
Y10706D01*
X-34942Y10752D01*
X-34947Y10793D01*
X-34952Y10819D01*
Y10824D01*
Y10829D01*
X-34958Y10880D01*
X-34963Y10926D01*
Y10946D01*
Y10961D01*
Y10972D01*
Y10977D01*
Y11043D01*
X-34958Y11094D01*
X-34952Y11109D01*
Y11125D01*
X-34947Y11130D01*
Y11135D01*
X-34937Y11176D01*
X-34922Y11206D01*
X-34912Y11227D01*
X-34907Y11232D01*
X-34886Y11257D01*
X-34866Y11278D01*
X-34850Y11283D01*
X-34840Y11288D01*
X-34804Y11298D01*
X-34769Y11303D01*
X-31408D01*
X-31382Y11298D01*
D02*
G37*
G36*
X-53935Y11324D02*
X-53873D01*
X-53853Y11319D01*
X-53833D01*
X-53766Y11313D01*
X-53715Y11303D01*
X-53695Y11298D01*
X-53680D01*
X-53675Y11293D01*
X-53669D01*
X-53623Y11283D01*
X-53588Y11268D01*
X-53567Y11257D01*
X-53557Y11252D01*
X-53532Y11232D01*
X-53511Y11211D01*
X-53501Y11196D01*
X-53496Y11191D01*
X-51466Y7733D01*
X-51446Y7692D01*
X-51425Y7657D01*
X-51415Y7631D01*
X-51410Y7621D01*
X-51395Y7585D01*
X-51385Y7550D01*
X-51380Y7524D01*
X-51374Y7519D01*
Y7514D01*
X-51369Y7473D01*
X-51364Y7437D01*
X-51359Y7407D01*
Y7402D01*
Y7397D01*
Y7346D01*
Y7295D01*
Y7274D01*
Y7259D01*
Y7249D01*
Y7244D01*
Y7172D01*
X-51364Y7121D01*
Y7101D01*
X-51369Y7085D01*
Y7080D01*
Y7075D01*
X-51380Y7029D01*
X-51390Y6999D01*
X-51400Y6978D01*
X-51405Y6973D01*
X-51430Y6953D01*
X-51451Y6933D01*
X-51466Y6927D01*
X-51471Y6922D01*
X-51502Y6917D01*
X-51527Y6912D01*
X-53889D01*
Y5708D01*
X-53894Y5683D01*
X-53899Y5663D01*
X-53904Y5652D01*
Y5647D01*
X-53919Y5632D01*
X-53940Y5622D01*
X-53955Y5617D01*
X-53960Y5612D01*
X-53996Y5601D01*
X-54037Y5591D01*
X-54067Y5586D01*
X-54077D01*
X-54139Y5581D01*
X-54195Y5576D01*
X-54338D01*
X-54368Y5581D01*
X-54414D01*
X-54434Y5586D01*
X-54445D01*
X-54496Y5596D01*
X-54531Y5601D01*
X-54557Y5612D01*
X-54562D01*
X-54593Y5622D01*
X-54613Y5637D01*
X-54623Y5642D01*
X-54628Y5647D01*
X-54638Y5668D01*
X-54649Y5688D01*
Y5703D01*
Y5708D01*
Y6912D01*
X-55291D01*
X-55317Y6917D01*
X-55342Y6927D01*
X-55378Y6953D01*
X-55403Y6983D01*
X-55409Y6989D01*
Y6994D01*
X-55424Y7029D01*
X-55434Y7065D01*
X-55449Y7142D01*
X-55454Y7172D01*
Y7198D01*
Y7218D01*
Y7223D01*
Y7279D01*
X-55449Y7325D01*
X-55439Y7366D01*
X-55434Y7402D01*
X-55424Y7427D01*
X-55414Y7442D01*
X-55409Y7453D01*
Y7458D01*
X-55388Y7483D01*
X-55373Y7504D01*
X-55352Y7519D01*
X-55332Y7529D01*
X-55301Y7539D01*
X-54649D01*
Y11171D01*
X-54643Y11196D01*
X-54628Y11222D01*
X-54613Y11232D01*
X-54608Y11237D01*
X-54577Y11257D01*
X-54541Y11273D01*
X-54516Y11278D01*
X-54511Y11283D01*
X-54506D01*
X-54450Y11298D01*
X-54394Y11308D01*
X-54368D01*
X-54348Y11313D01*
X-54327D01*
X-54241Y11324D01*
X-54159Y11329D01*
X-53975D01*
X-53935Y11324D01*
D02*
G37*
G36*
X-71565D02*
X-71504D01*
X-71484Y11319D01*
X-71463D01*
X-71397Y11313D01*
X-71346Y11303D01*
X-71326Y11298D01*
X-71310D01*
X-71305Y11293D01*
X-71300D01*
X-71254Y11283D01*
X-71219Y11268D01*
X-71198Y11257D01*
X-71188Y11252D01*
X-71162Y11232D01*
X-71142Y11211D01*
X-71132Y11196D01*
X-71127Y11191D01*
X-69097Y7733D01*
X-69077Y7692D01*
X-69056Y7657D01*
X-69046Y7631D01*
X-69041Y7621D01*
X-69025Y7585D01*
X-69015Y7550D01*
X-69010Y7524D01*
X-69005Y7519D01*
Y7514D01*
X-69000Y7473D01*
X-68995Y7437D01*
X-68990Y7407D01*
Y7402D01*
Y7397D01*
Y7346D01*
Y7295D01*
Y7274D01*
Y7259D01*
Y7249D01*
Y7244D01*
Y7172D01*
X-68995Y7121D01*
Y7101D01*
X-69000Y7085D01*
Y7080D01*
Y7075D01*
X-69010Y7029D01*
X-69020Y6999D01*
X-69031Y6978D01*
X-69036Y6973D01*
X-69061Y6953D01*
X-69082Y6933D01*
X-69097Y6927D01*
X-69102Y6922D01*
X-69133Y6917D01*
X-69158Y6912D01*
X-71519D01*
Y5708D01*
X-71525Y5683D01*
X-71530Y5663D01*
X-71535Y5652D01*
Y5647D01*
X-71550Y5632D01*
X-71570Y5622D01*
X-71586Y5617D01*
X-71591Y5612D01*
X-71627Y5601D01*
X-71667Y5591D01*
X-71698Y5586D01*
X-71708D01*
X-71769Y5581D01*
X-71825Y5576D01*
X-71968D01*
X-71999Y5581D01*
X-72045D01*
X-72065Y5586D01*
X-72075D01*
X-72126Y5596D01*
X-72162Y5601D01*
X-72188Y5612D01*
X-72193D01*
X-72223Y5622D01*
X-72244Y5637D01*
X-72254Y5642D01*
X-72259Y5647D01*
X-72269Y5668D01*
X-72279Y5688D01*
Y5703D01*
Y5708D01*
Y6912D01*
X-72922D01*
X-72947Y6917D01*
X-72973Y6927D01*
X-73009Y6953D01*
X-73034Y6983D01*
X-73039Y6989D01*
Y6994D01*
X-73054Y7029D01*
X-73065Y7065D01*
X-73080Y7142D01*
X-73085Y7172D01*
Y7198D01*
Y7218D01*
Y7223D01*
Y7279D01*
X-73080Y7325D01*
X-73070Y7366D01*
X-73065Y7402D01*
X-73054Y7427D01*
X-73044Y7442D01*
X-73039Y7453D01*
Y7458D01*
X-73019Y7483D01*
X-73004Y7504D01*
X-72983Y7519D01*
X-72963Y7529D01*
X-72932Y7539D01*
X-72279D01*
Y11171D01*
X-72274Y11196D01*
X-72259Y11222D01*
X-72244Y11232D01*
X-72238Y11237D01*
X-72208Y11257D01*
X-72172Y11273D01*
X-72147Y11278D01*
X-72142Y11283D01*
X-72136D01*
X-72080Y11298D01*
X-72024Y11308D01*
X-71999D01*
X-71978Y11313D01*
X-71958D01*
X-71871Y11324D01*
X-71790Y11329D01*
X-71606D01*
X-71565Y11324D01*
D02*
G37*
G36*
X-85611Y9809D02*
X-85590D01*
X-85575Y9804D01*
X-85560D01*
X-85514Y9794D01*
X-85478Y9783D01*
X-85458Y9778D01*
X-85448Y9773D01*
X-85422Y9763D01*
X-85407Y9748D01*
X-85396Y9737D01*
X-85391Y9732D01*
X-85381Y9712D01*
X-85376Y9697D01*
Y9681D01*
Y9676D01*
Y5708D01*
X-85381Y5683D01*
X-85386Y5663D01*
X-85391Y5652D01*
Y5647D01*
X-85407Y5632D01*
X-85427Y5622D01*
X-85442Y5617D01*
X-85448Y5612D01*
X-85483Y5601D01*
X-85519Y5591D01*
X-85549Y5586D01*
X-85560D01*
X-85616Y5581D01*
X-85677Y5576D01*
X-85810D01*
X-85866Y5581D01*
X-85886D01*
X-85906Y5586D01*
X-85917D01*
X-85963Y5596D01*
X-85998Y5601D01*
X-86024Y5612D01*
X-86029D01*
X-86054Y5622D01*
X-86075Y5637D01*
X-86080Y5642D01*
X-86085Y5647D01*
X-86095Y5668D01*
X-86105Y5688D01*
Y5703D01*
Y5708D01*
Y9676D01*
X-86100Y9697D01*
X-86095Y9717D01*
X-86090Y9727D01*
X-86085Y9732D01*
X-86070Y9748D01*
X-86049Y9763D01*
X-86034Y9768D01*
X-86029Y9773D01*
X-85993Y9788D01*
X-85957Y9799D01*
X-85927Y9804D01*
X-85917D01*
X-85861Y9809D01*
X-85799Y9814D01*
X-85667D01*
X-85611Y9809D01*
D02*
G37*
G36*
X-19734Y11380D02*
X-19606Y11370D01*
X-19489Y11354D01*
X-19387Y11334D01*
X-19341Y11324D01*
X-19300Y11313D01*
X-19265Y11308D01*
X-19234Y11298D01*
X-19209Y11293D01*
X-19193Y11288D01*
X-19183Y11283D01*
X-19178D01*
X-19066Y11242D01*
X-18959Y11196D01*
X-18867Y11150D01*
X-18785Y11099D01*
X-18719Y11058D01*
X-18668Y11023D01*
X-18638Y11002D01*
X-18632Y10992D01*
X-18627D01*
X-18546Y10916D01*
X-18474Y10839D01*
X-18413Y10763D01*
X-18362Y10686D01*
X-18321Y10620D01*
X-18296Y10569D01*
X-18286Y10548D01*
X-18275Y10533D01*
X-18270Y10528D01*
Y10523D01*
X-18229Y10416D01*
X-18199Y10309D01*
X-18173Y10202D01*
X-18158Y10105D01*
X-18148Y10018D01*
Y9982D01*
X-18143Y9952D01*
Y9926D01*
Y9906D01*
Y9896D01*
Y9890D01*
X-18148Y9763D01*
X-18158Y9651D01*
X-18179Y9549D01*
X-18199Y9462D01*
X-18219Y9391D01*
X-18240Y9340D01*
X-18245Y9319D01*
X-18250Y9304D01*
X-18255Y9299D01*
Y9294D01*
X-18301Y9202D01*
X-18347Y9120D01*
X-18398Y9049D01*
X-18444Y8983D01*
X-18485Y8932D01*
X-18515Y8891D01*
X-18535Y8871D01*
X-18546Y8860D01*
X-18617Y8794D01*
X-18688Y8733D01*
X-18755Y8677D01*
X-18821Y8631D01*
X-18872Y8590D01*
X-18918Y8564D01*
X-18944Y8544D01*
X-18954Y8539D01*
X-19127Y8442D01*
X-19204Y8401D01*
X-19275Y8360D01*
X-19336Y8330D01*
X-19387Y8309D01*
X-19418Y8294D01*
X-19423Y8289D01*
X-19428D01*
X-19520Y8248D01*
X-19606Y8207D01*
X-19688Y8172D01*
X-19760Y8136D01*
X-19816Y8111D01*
X-19861Y8090D01*
X-19892Y8075D01*
X-19902Y8070D01*
X-19984Y8029D01*
X-20065Y7988D01*
X-20132Y7947D01*
X-20193Y7912D01*
X-20244Y7876D01*
X-20280Y7851D01*
X-20300Y7835D01*
X-20310Y7830D01*
X-20377Y7779D01*
X-20433Y7728D01*
X-20484Y7677D01*
X-20530Y7631D01*
X-20560Y7590D01*
X-20586Y7560D01*
X-20601Y7539D01*
X-20606Y7529D01*
X-20642Y7463D01*
X-20672Y7391D01*
X-20693Y7320D01*
X-20703Y7259D01*
X-20713Y7203D01*
X-20718Y7157D01*
Y7126D01*
Y7121D01*
Y7116D01*
X-20713Y7034D01*
X-20708Y6958D01*
X-20693Y6892D01*
X-20677Y6831D01*
X-20662Y6780D01*
X-20652Y6744D01*
X-20642Y6723D01*
X-20637Y6713D01*
X-20606Y6652D01*
X-20565Y6596D01*
X-20530Y6545D01*
X-20494Y6499D01*
X-20458Y6463D01*
X-20433Y6438D01*
X-20412Y6423D01*
X-20407Y6417D01*
X-20351Y6377D01*
X-20290Y6336D01*
X-20229Y6305D01*
X-20178Y6280D01*
X-20127Y6254D01*
X-20091Y6239D01*
X-20065Y6234D01*
X-20055Y6229D01*
X-19979Y6208D01*
X-19897Y6193D01*
X-19821Y6183D01*
X-19754Y6178D01*
X-19693Y6173D01*
X-19642Y6168D01*
X-19601D01*
X-19484Y6173D01*
X-19372Y6178D01*
X-19275Y6193D01*
X-19193Y6208D01*
X-19122Y6219D01*
X-19071Y6234D01*
X-19051Y6239D01*
X-19035D01*
X-19030Y6244D01*
X-19025D01*
X-18938Y6275D01*
X-18857Y6300D01*
X-18785Y6331D01*
X-18724Y6356D01*
X-18673Y6377D01*
X-18632Y6392D01*
X-18612Y6402D01*
X-18602Y6407D01*
X-18541Y6438D01*
X-18479Y6468D01*
X-18433Y6499D01*
X-18388Y6519D01*
X-18357Y6540D01*
X-18331Y6555D01*
X-18316Y6565D01*
X-18311Y6570D01*
X-18270Y6596D01*
X-18235Y6616D01*
X-18209Y6627D01*
X-18184Y6637D01*
X-18163Y6642D01*
X-18148Y6647D01*
X-18138D01*
X-18112Y6642D01*
X-18092Y6637D01*
X-18082Y6632D01*
X-18077Y6627D01*
X-18061Y6611D01*
X-18046Y6591D01*
X-18036Y6576D01*
X-18031Y6570D01*
X-18020Y6540D01*
X-18010Y6504D01*
X-18005Y6479D01*
Y6474D01*
Y6468D01*
X-18000Y6417D01*
Y6366D01*
Y6346D01*
Y6326D01*
Y6315D01*
Y6310D01*
Y6259D01*
X-18005Y6219D01*
Y6183D01*
X-18010Y6147D01*
X-18015Y6127D01*
Y6106D01*
X-18020Y6096D01*
Y6091D01*
X-18041Y6040D01*
X-18066Y5994D01*
X-18087Y5969D01*
X-18097Y5963D01*
Y5958D01*
X-18117Y5938D01*
X-18148Y5918D01*
X-18204Y5877D01*
X-18235Y5856D01*
X-18255Y5846D01*
X-18270Y5836D01*
X-18275Y5831D01*
X-18326Y5800D01*
X-18383Y5775D01*
X-18433Y5749D01*
X-18485Y5729D01*
X-18530Y5708D01*
X-18566Y5693D01*
X-18586Y5688D01*
X-18597Y5683D01*
X-18750Y5637D01*
X-18821Y5617D01*
X-18887Y5601D01*
X-18949Y5591D01*
X-18994Y5581D01*
X-19025Y5571D01*
X-19035D01*
X-19224Y5540D01*
X-19311Y5530D01*
X-19392Y5525D01*
X-19464D01*
X-19520Y5520D01*
X-19566D01*
X-19719Y5525D01*
X-19861Y5535D01*
X-19989Y5556D01*
X-20101Y5576D01*
X-20152Y5581D01*
X-20198Y5591D01*
X-20239Y5601D01*
X-20269Y5612D01*
X-20295Y5617D01*
X-20315Y5622D01*
X-20326Y5627D01*
X-20331D01*
X-20458Y5673D01*
X-20575Y5724D01*
X-20683Y5780D01*
X-20774Y5831D01*
X-20846Y5882D01*
X-20876Y5902D01*
X-20902Y5918D01*
X-20922Y5933D01*
X-20938Y5943D01*
X-20943Y5953D01*
X-20948D01*
X-21040Y6040D01*
X-21126Y6127D01*
X-21198Y6219D01*
X-21254Y6300D01*
X-21300Y6372D01*
X-21335Y6433D01*
X-21346Y6453D01*
X-21356Y6468D01*
X-21361Y6479D01*
Y6484D01*
X-21412Y6606D01*
X-21448Y6729D01*
X-21473Y6851D01*
X-21488Y6958D01*
X-21499Y7009D01*
X-21504Y7055D01*
Y7096D01*
X-21509Y7131D01*
Y7157D01*
Y7182D01*
Y7193D01*
Y7198D01*
X-21504Y7320D01*
X-21488Y7432D01*
X-21473Y7534D01*
X-21453Y7621D01*
X-21427Y7687D01*
X-21412Y7738D01*
X-21402Y7759D01*
X-21397Y7774D01*
X-21392Y7779D01*
Y7784D01*
X-21346Y7876D01*
X-21300Y7958D01*
X-21249Y8029D01*
X-21203Y8095D01*
X-21162Y8146D01*
X-21126Y8187D01*
X-21106Y8207D01*
X-21096Y8218D01*
X-21029Y8284D01*
X-20958Y8345D01*
X-20887Y8396D01*
X-20820Y8447D01*
X-20764Y8483D01*
X-20723Y8508D01*
X-20693Y8529D01*
X-20688Y8534D01*
X-20683D01*
X-20509Y8631D01*
X-20428Y8672D01*
X-20356Y8712D01*
X-20295Y8743D01*
X-20244Y8763D01*
X-20213Y8779D01*
X-20208Y8784D01*
X-20203D01*
X-20117Y8825D01*
X-20030Y8865D01*
X-19948Y8901D01*
X-19877Y8937D01*
X-19816Y8962D01*
X-19770Y8983D01*
X-19739Y8998D01*
X-19734Y9003D01*
X-19729D01*
X-19642Y9044D01*
X-19566Y9090D01*
X-19494Y9131D01*
X-19433Y9166D01*
X-19382Y9202D01*
X-19341Y9228D01*
X-19321Y9243D01*
X-19311Y9248D01*
X-19250Y9299D01*
X-19188Y9350D01*
X-19142Y9401D01*
X-19096Y9447D01*
X-19066Y9488D01*
X-19040Y9518D01*
X-19025Y9544D01*
X-19020Y9549D01*
X-18984Y9615D01*
X-18959Y9686D01*
X-18938Y9758D01*
X-18928Y9819D01*
X-18918Y9875D01*
X-18913Y9921D01*
Y9952D01*
Y9957D01*
Y9962D01*
X-18918Y10018D01*
X-18923Y10074D01*
X-18933Y10125D01*
X-18944Y10171D01*
X-18954Y10212D01*
X-18959Y10237D01*
X-18969Y10258D01*
Y10263D01*
X-18994Y10319D01*
X-19020Y10365D01*
X-19046Y10411D01*
X-19076Y10446D01*
X-19096Y10477D01*
X-19117Y10497D01*
X-19132Y10513D01*
X-19137Y10518D01*
X-19183Y10554D01*
X-19234Y10589D01*
X-19280Y10620D01*
X-19326Y10640D01*
X-19367Y10661D01*
X-19397Y10676D01*
X-19423Y10681D01*
X-19428Y10686D01*
X-19499Y10706D01*
X-19571Y10727D01*
X-19637Y10737D01*
X-19703Y10742D01*
X-19760Y10747D01*
X-19805Y10752D01*
X-19846D01*
X-19938Y10747D01*
X-20025Y10742D01*
X-20101Y10732D01*
X-20173Y10722D01*
X-20229Y10706D01*
X-20269Y10696D01*
X-20295Y10691D01*
X-20305Y10686D01*
X-20377Y10661D01*
X-20448Y10640D01*
X-20504Y10615D01*
X-20560Y10594D01*
X-20601Y10574D01*
X-20632Y10564D01*
X-20652Y10554D01*
X-20657Y10548D01*
X-20713Y10523D01*
X-20764Y10492D01*
X-20805Y10472D01*
X-20841Y10452D01*
X-20871Y10436D01*
X-20892Y10421D01*
X-20907Y10416D01*
X-20912Y10411D01*
X-20948Y10390D01*
X-20983Y10375D01*
X-21009Y10365D01*
X-21029Y10360D01*
X-21055Y10350D01*
X-21065D01*
X-21086Y10355D01*
X-21106Y10360D01*
X-21116Y10365D01*
X-21121D01*
X-21136Y10385D01*
X-21147Y10406D01*
X-21157Y10421D01*
Y10426D01*
X-21167Y10462D01*
X-21172Y10497D01*
X-21177Y10523D01*
Y10528D01*
Y10533D01*
X-21182Y10579D01*
X-21188Y10625D01*
Y10661D01*
Y10666D01*
Y10671D01*
Y10727D01*
Y10773D01*
X-21182Y10798D01*
Y10808D01*
X-21177Y10844D01*
X-21172Y10870D01*
X-21167Y10890D01*
Y10895D01*
X-21157Y10921D01*
X-21152Y10946D01*
X-21147Y10956D01*
X-21142Y10961D01*
X-21131Y10982D01*
X-21111Y11002D01*
X-21096Y11023D01*
X-21091Y11028D01*
X-21070Y11043D01*
X-21045Y11063D01*
X-20989Y11099D01*
X-20963Y11109D01*
X-20938Y11125D01*
X-20922Y11130D01*
X-20917Y11135D01*
X-20815Y11186D01*
X-20764Y11206D01*
X-20713Y11227D01*
X-20672Y11242D01*
X-20642Y11252D01*
X-20621Y11262D01*
X-20611D01*
X-20484Y11298D01*
X-20423Y11313D01*
X-20366Y11329D01*
X-20321Y11339D01*
X-20280Y11344D01*
X-20259Y11349D01*
X-20249D01*
X-20111Y11370D01*
X-20045Y11375D01*
X-19989Y11380D01*
X-19943Y11385D01*
X-19872D01*
X-19734Y11380D01*
D02*
G37*
G36*
X-37548D02*
X-37400Y11364D01*
X-37268Y11349D01*
X-37207Y11339D01*
X-37150Y11329D01*
X-37099Y11313D01*
X-37059Y11303D01*
X-37018Y11293D01*
X-36987Y11288D01*
X-36962Y11278D01*
X-36941Y11273D01*
X-36931Y11268D01*
X-36926D01*
X-36804Y11222D01*
X-36697Y11171D01*
X-36605Y11120D01*
X-36523Y11074D01*
X-36457Y11028D01*
X-36411Y10992D01*
X-36380Y10972D01*
X-36375Y10961D01*
X-36370D01*
X-36294Y10890D01*
X-36227Y10814D01*
X-36176Y10737D01*
X-36130Y10666D01*
X-36095Y10599D01*
X-36069Y10554D01*
X-36059Y10533D01*
X-36054Y10518D01*
X-36049Y10513D01*
Y10508D01*
X-36013Y10411D01*
X-35988Y10309D01*
X-35967Y10217D01*
X-35957Y10130D01*
X-35947Y10054D01*
X-35942Y9998D01*
Y9977D01*
Y9962D01*
Y9952D01*
Y9947D01*
X-35947Y9860D01*
X-35952Y9778D01*
X-35962Y9702D01*
X-35978Y9635D01*
X-35993Y9579D01*
X-36003Y9539D01*
X-36008Y9513D01*
X-36013Y9503D01*
X-36044Y9431D01*
X-36074Y9360D01*
X-36110Y9294D01*
X-36146Y9238D01*
X-36176Y9192D01*
X-36202Y9156D01*
X-36217Y9136D01*
X-36222Y9126D01*
X-36278Y9059D01*
X-36334Y8998D01*
X-36396Y8942D01*
X-36452Y8891D01*
X-36498Y8850D01*
X-36533Y8820D01*
X-36559Y8799D01*
X-36569Y8794D01*
X-36646Y8738D01*
X-36727Y8687D01*
X-36804Y8636D01*
X-36880Y8595D01*
X-36941Y8559D01*
X-36987Y8534D01*
X-37008Y8524D01*
X-37023Y8513D01*
X-37028Y8508D01*
X-37033D01*
X-36921Y8452D01*
X-36819Y8396D01*
X-36727Y8340D01*
X-36646Y8294D01*
X-36579Y8253D01*
X-36528Y8223D01*
X-36513Y8207D01*
X-36498Y8197D01*
X-36493Y8192D01*
X-36487D01*
X-36401Y8131D01*
X-36324Y8070D01*
X-36253Y8009D01*
X-36192Y7953D01*
X-36146Y7907D01*
X-36110Y7866D01*
X-36090Y7845D01*
X-36079Y7835D01*
X-36023Y7764D01*
X-35972Y7692D01*
X-35926Y7621D01*
X-35896Y7560D01*
X-35865Y7504D01*
X-35845Y7458D01*
X-35835Y7432D01*
X-35830Y7427D01*
Y7422D01*
X-35799Y7335D01*
X-35779Y7249D01*
X-35763Y7167D01*
X-35753Y7096D01*
X-35748Y7029D01*
X-35743Y6978D01*
Y6958D01*
Y6943D01*
Y6938D01*
Y6933D01*
X-35748Y6810D01*
X-35763Y6693D01*
X-35784Y6591D01*
X-35809Y6499D01*
X-35830Y6428D01*
X-35840Y6397D01*
X-35850Y6372D01*
X-35860Y6351D01*
X-35865Y6336D01*
X-35870Y6331D01*
Y6326D01*
X-35921Y6234D01*
X-35983Y6147D01*
X-36044Y6071D01*
X-36100Y6004D01*
X-36156Y5953D01*
X-36197Y5912D01*
X-36227Y5892D01*
X-36233Y5882D01*
X-36238D01*
X-36334Y5821D01*
X-36431Y5765D01*
X-36533Y5719D01*
X-36625Y5678D01*
X-36707Y5652D01*
X-36742Y5637D01*
X-36773Y5627D01*
X-36794Y5622D01*
X-36814Y5617D01*
X-36824Y5612D01*
X-36829D01*
X-36962Y5581D01*
X-37099Y5561D01*
X-37232Y5540D01*
X-37354Y5530D01*
X-37405D01*
X-37457Y5525D01*
X-37502D01*
X-37543Y5520D01*
X-37615D01*
X-37788Y5525D01*
X-37946Y5535D01*
X-38089Y5550D01*
X-38150Y5561D01*
X-38211Y5571D01*
X-38262Y5576D01*
X-38313Y5586D01*
X-38354Y5596D01*
X-38385Y5601D01*
X-38415Y5607D01*
X-38436Y5612D01*
X-38446Y5617D01*
X-38451D01*
X-38584Y5658D01*
X-38701Y5708D01*
X-38808Y5754D01*
X-38900Y5805D01*
X-38971Y5851D01*
X-39022Y5887D01*
X-39043Y5897D01*
X-39058Y5907D01*
X-39063Y5918D01*
X-39068D01*
X-39155Y5994D01*
X-39231Y6076D01*
X-39298Y6157D01*
X-39354Y6234D01*
X-39395Y6300D01*
X-39425Y6356D01*
X-39435Y6377D01*
X-39445Y6392D01*
X-39451Y6397D01*
Y6402D01*
X-39496Y6514D01*
X-39527Y6627D01*
X-39553Y6739D01*
X-39568Y6841D01*
X-39578Y6933D01*
Y6968D01*
X-39583Y7004D01*
Y7029D01*
Y7050D01*
Y7060D01*
Y7065D01*
X-39578Y7157D01*
X-39568Y7244D01*
X-39558Y7320D01*
X-39542Y7386D01*
X-39522Y7442D01*
X-39512Y7488D01*
X-39502Y7514D01*
X-39496Y7524D01*
X-39461Y7601D01*
X-39420Y7672D01*
X-39379Y7738D01*
X-39338Y7800D01*
X-39298Y7845D01*
X-39267Y7886D01*
X-39247Y7907D01*
X-39241Y7917D01*
X-39175Y7988D01*
X-39109Y8049D01*
X-39043Y8111D01*
X-38976Y8162D01*
X-38920Y8207D01*
X-38874Y8238D01*
X-38844Y8264D01*
X-38839Y8269D01*
X-38833D01*
X-38742Y8330D01*
X-38645Y8386D01*
X-38548Y8442D01*
X-38466Y8488D01*
X-38390Y8529D01*
X-38329Y8559D01*
X-38308Y8570D01*
X-38293Y8580D01*
X-38283Y8585D01*
X-38278D01*
X-38375Y8641D01*
X-38461Y8692D01*
X-38543Y8743D01*
X-38614Y8789D01*
X-38670Y8830D01*
X-38711Y8860D01*
X-38737Y8881D01*
X-38747Y8886D01*
X-38818Y8947D01*
X-38884Y9008D01*
X-38946Y9069D01*
X-38997Y9120D01*
X-39032Y9166D01*
X-39063Y9202D01*
X-39083Y9222D01*
X-39088Y9233D01*
X-39140Y9304D01*
X-39180Y9370D01*
X-39221Y9437D01*
X-39252Y9498D01*
X-39272Y9549D01*
X-39287Y9590D01*
X-39298Y9615D01*
X-39303Y9625D01*
X-39328Y9702D01*
X-39349Y9783D01*
X-39359Y9855D01*
X-39369Y9921D01*
X-39374Y9977D01*
X-39379Y10023D01*
Y10049D01*
Y10059D01*
X-39374Y10161D01*
X-39364Y10258D01*
X-39349Y10344D01*
X-39333Y10421D01*
X-39313Y10482D01*
X-39298Y10533D01*
X-39287Y10564D01*
X-39282Y10569D01*
Y10574D01*
X-39241Y10661D01*
X-39196Y10742D01*
X-39145Y10814D01*
X-39094Y10880D01*
X-39048Y10926D01*
X-39012Y10967D01*
X-38987Y10987D01*
X-38976Y10997D01*
X-38895Y11058D01*
X-38808Y11114D01*
X-38721Y11165D01*
X-38640Y11206D01*
X-38568Y11237D01*
X-38507Y11257D01*
X-38487Y11268D01*
X-38471Y11273D01*
X-38461Y11278D01*
X-38456D01*
X-38334Y11313D01*
X-38206Y11339D01*
X-38084Y11359D01*
X-37966Y11370D01*
X-37916Y11375D01*
X-37865Y11380D01*
X-37824D01*
X-37783Y11385D01*
X-37712D01*
X-37548Y11380D01*
D02*
G37*
G36*
X-57857Y11375D02*
X-57765Y11364D01*
X-57673Y11349D01*
X-57591Y11334D01*
X-57515Y11319D01*
X-57438Y11298D01*
X-57372Y11278D01*
X-57316Y11257D01*
X-57260Y11237D01*
X-57214Y11222D01*
X-57178Y11206D01*
X-57148Y11191D01*
X-57127Y11181D01*
X-57112Y11176D01*
X-57107Y11171D01*
X-56969Y11084D01*
X-56847Y10987D01*
X-56740Y10885D01*
X-56648Y10788D01*
X-56576Y10701D01*
X-56546Y10661D01*
X-56525Y10630D01*
X-56505Y10599D01*
X-56490Y10579D01*
X-56485Y10569D01*
X-56480Y10564D01*
X-56398Y10411D01*
X-56327Y10253D01*
X-56270Y10100D01*
X-56219Y9952D01*
X-56199Y9885D01*
X-56184Y9824D01*
X-56168Y9768D01*
X-56158Y9722D01*
X-56148Y9681D01*
X-56143Y9656D01*
X-56138Y9635D01*
Y9630D01*
X-56102Y9426D01*
X-56077Y9217D01*
X-56061Y9013D01*
X-56056Y8922D01*
X-56051Y8830D01*
X-56046Y8748D01*
X-56041Y8672D01*
Y8605D01*
X-56036Y8549D01*
Y8503D01*
Y8468D01*
Y8442D01*
Y8437D01*
X-56041Y8182D01*
X-56046Y8060D01*
X-56051Y7947D01*
X-56056Y7835D01*
X-56066Y7733D01*
X-56072Y7636D01*
X-56082Y7550D01*
X-56092Y7468D01*
X-56097Y7397D01*
X-56107Y7335D01*
X-56112Y7284D01*
X-56117Y7244D01*
X-56122Y7213D01*
X-56128Y7193D01*
Y7187D01*
X-56168Y6994D01*
X-56194Y6902D01*
X-56219Y6815D01*
X-56245Y6739D01*
X-56270Y6662D01*
X-56301Y6591D01*
X-56327Y6530D01*
X-56352Y6474D01*
X-56372Y6423D01*
X-56393Y6377D01*
X-56413Y6341D01*
X-56428Y6310D01*
X-56439Y6290D01*
X-56449Y6280D01*
Y6275D01*
X-56541Y6142D01*
X-56638Y6030D01*
X-56735Y5933D01*
X-56831Y5851D01*
X-56913Y5790D01*
X-56949Y5765D01*
X-56979Y5744D01*
X-57005Y5729D01*
X-57025Y5719D01*
X-57035Y5708D01*
X-57041D01*
X-57183Y5647D01*
X-57336Y5601D01*
X-57489Y5566D01*
X-57632Y5545D01*
X-57698Y5535D01*
X-57760Y5530D01*
X-57811Y5525D01*
X-57857D01*
X-57897Y5520D01*
X-57948D01*
X-58152Y5530D01*
X-58249Y5540D01*
X-58336Y5550D01*
X-58423Y5571D01*
X-58499Y5586D01*
X-58570Y5607D01*
X-58637Y5627D01*
X-58698Y5642D01*
X-58749Y5663D01*
X-58795Y5683D01*
X-58831Y5698D01*
X-58861Y5708D01*
X-58887Y5719D01*
X-58897Y5729D01*
X-58902D01*
X-59040Y5816D01*
X-59167Y5912D01*
X-59274Y6015D01*
X-59366Y6111D01*
X-59438Y6198D01*
X-59468Y6234D01*
X-59488Y6269D01*
X-59509Y6295D01*
X-59524Y6315D01*
X-59529Y6326D01*
X-59534Y6331D01*
X-59616Y6484D01*
X-59687Y6642D01*
X-59749Y6800D01*
X-59794Y6943D01*
X-59815Y7009D01*
X-59830Y7070D01*
X-59846Y7126D01*
X-59856Y7172D01*
X-59866Y7213D01*
X-59871Y7238D01*
X-59876Y7259D01*
Y7264D01*
X-59912Y7473D01*
X-59937Y7677D01*
X-59958Y7881D01*
X-59963Y7978D01*
X-59968Y8065D01*
X-59973Y8151D01*
X-59978Y8228D01*
Y8294D01*
X-59983Y8350D01*
Y8396D01*
Y8432D01*
Y8457D01*
Y8462D01*
X-59978Y8717D01*
X-59973Y8840D01*
X-59968Y8952D01*
X-59963Y9064D01*
X-59953Y9166D01*
X-59942Y9263D01*
X-59937Y9350D01*
X-59927Y9426D01*
X-59917Y9498D01*
X-59907Y9559D01*
X-59902Y9610D01*
X-59896Y9651D01*
X-59891Y9681D01*
X-59886Y9702D01*
Y9707D01*
X-59846Y9901D01*
X-59820Y9992D01*
X-59794Y10079D01*
X-59769Y10161D01*
X-59743Y10237D01*
X-59718Y10309D01*
X-59687Y10370D01*
X-59667Y10426D01*
X-59641Y10477D01*
X-59621Y10523D01*
X-59601Y10559D01*
X-59585Y10589D01*
X-59575Y10610D01*
X-59570Y10620D01*
X-59565Y10625D01*
X-59473Y10757D01*
X-59376Y10870D01*
X-59279Y10967D01*
X-59188Y11048D01*
X-59101Y11109D01*
X-59065Y11135D01*
X-59035Y11155D01*
X-59009Y11171D01*
X-58989Y11181D01*
X-58978Y11191D01*
X-58973D01*
X-58831Y11257D01*
X-58678Y11303D01*
X-58525Y11339D01*
X-58382Y11359D01*
X-58315Y11370D01*
X-58254Y11375D01*
X-58198Y11380D01*
X-58152D01*
X-58112Y11385D01*
X-58060D01*
X-57857Y11375D01*
D02*
G37*
G36*
X-75487D02*
X-75395Y11364D01*
X-75304Y11349D01*
X-75222Y11334D01*
X-75146Y11319D01*
X-75069Y11298D01*
X-75003Y11278D01*
X-74947Y11257D01*
X-74891Y11237D01*
X-74845Y11222D01*
X-74809Y11206D01*
X-74778Y11191D01*
X-74758Y11181D01*
X-74743Y11176D01*
X-74738Y11171D01*
X-74600Y11084D01*
X-74477Y10987D01*
X-74370Y10885D01*
X-74278Y10788D01*
X-74207Y10701D01*
X-74177Y10661D01*
X-74156Y10630D01*
X-74136Y10599D01*
X-74120Y10579D01*
X-74115Y10569D01*
X-74110Y10564D01*
X-74029Y10411D01*
X-73957Y10253D01*
X-73901Y10100D01*
X-73850Y9952D01*
X-73830Y9885D01*
X-73814Y9824D01*
X-73799Y9768D01*
X-73789Y9722D01*
X-73779Y9681D01*
X-73774Y9656D01*
X-73769Y9635D01*
Y9630D01*
X-73733Y9426D01*
X-73707Y9217D01*
X-73692Y9013D01*
X-73687Y8922D01*
X-73682Y8830D01*
X-73677Y8748D01*
X-73672Y8672D01*
Y8605D01*
X-73667Y8549D01*
Y8503D01*
Y8468D01*
Y8442D01*
Y8437D01*
X-73672Y8182D01*
X-73677Y8060D01*
X-73682Y7947D01*
X-73687Y7835D01*
X-73697Y7733D01*
X-73702Y7636D01*
X-73712Y7550D01*
X-73723Y7468D01*
X-73728Y7397D01*
X-73738Y7335D01*
X-73743Y7284D01*
X-73748Y7244D01*
X-73753Y7213D01*
X-73758Y7193D01*
Y7187D01*
X-73799Y6994D01*
X-73825Y6902D01*
X-73850Y6815D01*
X-73876Y6739D01*
X-73901Y6662D01*
X-73932Y6591D01*
X-73957Y6530D01*
X-73983Y6474D01*
X-74003Y6423D01*
X-74023Y6377D01*
X-74044Y6341D01*
X-74059Y6310D01*
X-74069Y6290D01*
X-74080Y6280D01*
Y6275D01*
X-74171Y6142D01*
X-74268Y6030D01*
X-74365Y5933D01*
X-74462Y5851D01*
X-74544Y5790D01*
X-74579Y5765D01*
X-74610Y5744D01*
X-74635Y5729D01*
X-74656Y5719D01*
X-74666Y5708D01*
X-74671D01*
X-74814Y5647D01*
X-74967Y5601D01*
X-75120Y5566D01*
X-75263Y5545D01*
X-75329Y5535D01*
X-75390Y5530D01*
X-75441Y5525D01*
X-75487D01*
X-75528Y5520D01*
X-75579D01*
X-75783Y5530D01*
X-75880Y5540D01*
X-75967Y5550D01*
X-76053Y5571D01*
X-76130Y5586D01*
X-76201Y5607D01*
X-76267Y5627D01*
X-76329Y5642D01*
X-76380Y5663D01*
X-76426Y5683D01*
X-76461Y5698D01*
X-76492Y5708D01*
X-76517Y5719D01*
X-76528Y5729D01*
X-76533D01*
X-76670Y5816D01*
X-76798Y5912D01*
X-76905Y6015D01*
X-76997Y6111D01*
X-77068Y6198D01*
X-77099Y6234D01*
X-77119Y6269D01*
X-77140Y6295D01*
X-77155Y6315D01*
X-77160Y6326D01*
X-77165Y6331D01*
X-77247Y6484D01*
X-77318Y6642D01*
X-77379Y6800D01*
X-77425Y6943D01*
X-77446Y7009D01*
X-77461Y7070D01*
X-77476Y7126D01*
X-77486Y7172D01*
X-77497Y7213D01*
X-77502Y7238D01*
X-77507Y7259D01*
Y7264D01*
X-77543Y7473D01*
X-77568Y7677D01*
X-77588Y7881D01*
X-77593Y7978D01*
X-77599Y8065D01*
X-77604Y8151D01*
X-77609Y8228D01*
Y8294D01*
X-77614Y8350D01*
Y8396D01*
Y8432D01*
Y8457D01*
Y8462D01*
X-77609Y8717D01*
X-77604Y8840D01*
X-77599Y8952D01*
X-77593Y9064D01*
X-77583Y9166D01*
X-77573Y9263D01*
X-77568Y9350D01*
X-77558Y9426D01*
X-77548Y9498D01*
X-77537Y9559D01*
X-77532Y9610D01*
X-77527Y9651D01*
X-77522Y9681D01*
X-77517Y9702D01*
Y9707D01*
X-77476Y9901D01*
X-77451Y9992D01*
X-77425Y10079D01*
X-77400Y10161D01*
X-77374Y10237D01*
X-77349Y10309D01*
X-77318Y10370D01*
X-77298Y10426D01*
X-77272Y10477D01*
X-77252Y10523D01*
X-77231Y10559D01*
X-77216Y10589D01*
X-77206Y10610D01*
X-77201Y10620D01*
X-77196Y10625D01*
X-77104Y10757D01*
X-77007Y10870D01*
X-76910Y10967D01*
X-76818Y11048D01*
X-76732Y11109D01*
X-76696Y11135D01*
X-76665Y11155D01*
X-76640Y11171D01*
X-76619Y11181D01*
X-76609Y11191D01*
X-76604D01*
X-76461Y11257D01*
X-76308Y11303D01*
X-76155Y11339D01*
X-76012Y11359D01*
X-75946Y11370D01*
X-75885Y11375D01*
X-75829Y11380D01*
X-75783D01*
X-75742Y11385D01*
X-75691D01*
X-75487Y11375D01*
D02*
G37*
G36*
X-82541Y9865D02*
X-82474Y9860D01*
X-82418Y9850D01*
X-82372Y9839D01*
X-82336Y9834D01*
X-82316Y9824D01*
X-82306D01*
X-82178Y9783D01*
X-82122Y9763D01*
X-82066Y9737D01*
X-82025Y9717D01*
X-81990Y9702D01*
X-81969Y9692D01*
X-81959Y9686D01*
X-81837Y9615D01*
X-81781Y9579D01*
X-81730Y9544D01*
X-81684Y9508D01*
X-81653Y9488D01*
X-81633Y9467D01*
X-81622Y9462D01*
X-81500Y9355D01*
X-81439Y9299D01*
X-81388Y9248D01*
X-81342Y9207D01*
X-81306Y9171D01*
X-81286Y9151D01*
X-81276Y9141D01*
Y9676D01*
Y9702D01*
X-81271Y9722D01*
X-81265Y9732D01*
X-81260Y9737D01*
X-81245Y9753D01*
X-81225Y9768D01*
X-81209Y9773D01*
X-81204Y9778D01*
X-81174Y9794D01*
X-81143Y9799D01*
X-81118Y9804D01*
X-81107D01*
X-81056Y9809D01*
X-81011Y9814D01*
X-80893D01*
X-80847Y9809D01*
X-80827D01*
X-80812Y9804D01*
X-80801D01*
X-80761Y9799D01*
X-80730Y9788D01*
X-80704Y9783D01*
X-80699Y9778D01*
X-80679Y9768D01*
X-80659Y9753D01*
X-80654Y9743D01*
X-80648Y9737D01*
X-80643Y9717D01*
X-80638Y9702D01*
Y9681D01*
Y9676D01*
Y4143D01*
X-80643Y4117D01*
X-80648Y4097D01*
X-80654Y4087D01*
Y4082D01*
X-80669Y4066D01*
X-80689Y4051D01*
X-80704Y4046D01*
X-80710Y4041D01*
X-80745Y4025D01*
X-80781Y4020D01*
X-80812Y4010D01*
X-80822D01*
X-80878Y4005D01*
X-80939Y4000D01*
X-81072D01*
X-81128Y4005D01*
X-81148D01*
X-81169Y4010D01*
X-81179D01*
X-81225Y4020D01*
X-81260Y4031D01*
X-81286Y4036D01*
X-81291Y4041D01*
X-81317Y4056D01*
X-81337Y4066D01*
X-81342Y4076D01*
X-81347Y4082D01*
X-81357Y4102D01*
X-81367Y4122D01*
Y4138D01*
Y4143D01*
Y6122D01*
X-81424Y6066D01*
X-81480Y6015D01*
X-81531Y5969D01*
X-81577Y5928D01*
X-81612Y5897D01*
X-81638Y5872D01*
X-81658Y5856D01*
X-81663Y5851D01*
X-81770Y5775D01*
X-81816Y5744D01*
X-81862Y5714D01*
X-81898Y5693D01*
X-81923Y5678D01*
X-81944Y5668D01*
X-81949Y5663D01*
X-82056Y5617D01*
X-82102Y5596D01*
X-82148Y5581D01*
X-82183Y5571D01*
X-82214Y5561D01*
X-82235Y5556D01*
X-82240D01*
X-82357Y5535D01*
X-82408Y5530D01*
X-82459Y5525D01*
X-82505Y5520D01*
X-82566D01*
X-82714Y5525D01*
X-82857Y5545D01*
X-82979Y5571D01*
X-83086Y5596D01*
X-83137Y5612D01*
X-83178Y5627D01*
X-83214Y5637D01*
X-83244Y5647D01*
X-83270Y5658D01*
X-83285Y5668D01*
X-83295Y5673D01*
X-83300D01*
X-83418Y5739D01*
X-83520Y5810D01*
X-83612Y5882D01*
X-83693Y5953D01*
X-83754Y6020D01*
X-83800Y6071D01*
X-83821Y6091D01*
X-83831Y6106D01*
X-83841Y6111D01*
Y6117D01*
X-83917Y6229D01*
X-83984Y6351D01*
X-84040Y6468D01*
X-84091Y6576D01*
X-84127Y6672D01*
X-84142Y6718D01*
X-84152Y6749D01*
X-84162Y6780D01*
X-84167Y6800D01*
X-84172Y6815D01*
Y6820D01*
X-84208Y6978D01*
X-84239Y7142D01*
X-84259Y7300D01*
X-84269Y7442D01*
X-84275Y7509D01*
X-84280Y7565D01*
Y7621D01*
X-84285Y7667D01*
Y7703D01*
Y7728D01*
Y7749D01*
Y7754D01*
X-84280Y7912D01*
X-84269Y8065D01*
X-84254Y8202D01*
X-84239Y8325D01*
X-84229Y8376D01*
X-84224Y8427D01*
X-84213Y8468D01*
X-84208Y8503D01*
X-84203Y8534D01*
X-84198Y8554D01*
X-84193Y8564D01*
Y8570D01*
X-84157Y8712D01*
X-84111Y8840D01*
X-84065Y8957D01*
X-84020Y9054D01*
X-83999Y9095D01*
X-83979Y9136D01*
X-83958Y9166D01*
X-83943Y9197D01*
X-83933Y9217D01*
X-83923Y9233D01*
X-83912Y9243D01*
Y9248D01*
X-83836Y9350D01*
X-83754Y9442D01*
X-83673Y9523D01*
X-83596Y9584D01*
X-83525Y9641D01*
X-83469Y9676D01*
X-83448Y9692D01*
X-83433Y9702D01*
X-83423Y9707D01*
X-83418D01*
X-83300Y9763D01*
X-83178Y9804D01*
X-83056Y9834D01*
X-82938Y9855D01*
X-82887Y9860D01*
X-82836Y9865D01*
X-82796Y9870D01*
X-82755Y9875D01*
X-82612D01*
X-82541Y9865D01*
D02*
G37*
%LPC*%
G36*
X-42113Y10783D02*
X-42159D01*
X-42261Y10778D01*
X-42353Y10768D01*
X-42434Y10747D01*
X-42505Y10732D01*
X-42562Y10712D01*
X-42608Y10691D01*
X-42633Y10681D01*
X-42643Y10676D01*
X-42720Y10630D01*
X-42791Y10579D01*
X-42852Y10518D01*
X-42903Y10462D01*
X-42944Y10411D01*
X-42975Y10370D01*
X-42995Y10339D01*
X-43000Y10334D01*
Y10329D01*
X-43051Y10237D01*
X-43097Y10135D01*
X-43138Y10028D01*
X-43169Y9931D01*
X-43194Y9845D01*
X-43204Y9804D01*
X-43209Y9773D01*
X-43214Y9743D01*
X-43220Y9722D01*
X-43225Y9712D01*
Y9707D01*
X-43250Y9559D01*
X-43270Y9396D01*
X-43281Y9238D01*
X-43291Y9090D01*
X-43296Y9018D01*
Y8957D01*
X-43301Y8901D01*
Y8855D01*
Y8814D01*
Y8784D01*
Y8763D01*
Y8758D01*
X-43214Y8702D01*
X-43117Y8651D01*
X-43031Y8605D01*
X-42944Y8570D01*
X-42873Y8539D01*
X-42812Y8519D01*
X-42791Y8508D01*
X-42776Y8503D01*
X-42766Y8498D01*
X-42761D01*
X-42643Y8468D01*
X-42531Y8442D01*
X-42424Y8427D01*
X-42327Y8411D01*
X-42245Y8406D01*
X-42210D01*
X-42179Y8401D01*
X-42123D01*
X-42021Y8406D01*
X-41924Y8411D01*
X-41842Y8427D01*
X-41771Y8442D01*
X-41710Y8452D01*
X-41669Y8468D01*
X-41644Y8473D01*
X-41633Y8478D01*
X-41562Y8513D01*
X-41501Y8549D01*
X-41445Y8585D01*
X-41399Y8626D01*
X-41363Y8656D01*
X-41338Y8682D01*
X-41317Y8702D01*
X-41312Y8707D01*
X-41271Y8768D01*
X-41230Y8830D01*
X-41200Y8891D01*
X-41179Y8947D01*
X-41159Y8998D01*
X-41144Y9039D01*
X-41139Y9064D01*
X-41134Y9075D01*
X-41103Y9243D01*
X-41093Y9324D01*
X-41088Y9396D01*
Y9462D01*
X-41083Y9508D01*
Y9528D01*
Y9544D01*
Y9549D01*
Y9554D01*
X-41088Y9641D01*
X-41093Y9722D01*
X-41103Y9799D01*
X-41113Y9865D01*
X-41123Y9921D01*
X-41134Y9967D01*
X-41144Y9992D01*
Y10003D01*
X-41169Y10084D01*
X-41200Y10161D01*
X-41230Y10227D01*
X-41261Y10288D01*
X-41287Y10334D01*
X-41312Y10370D01*
X-41327Y10390D01*
X-41333Y10401D01*
X-41383Y10462D01*
X-41440Y10518D01*
X-41496Y10564D01*
X-41547Y10605D01*
X-41593Y10635D01*
X-41633Y10655D01*
X-41654Y10671D01*
X-41664Y10676D01*
X-41746Y10712D01*
X-41827Y10737D01*
X-41909Y10757D01*
X-41990Y10768D01*
X-42057Y10778D01*
X-42113Y10783D01*
D02*
G37*
G36*
X-53878Y10661D02*
X-53889D01*
Y7539D01*
X-52048D01*
X-53878Y10661D01*
D02*
G37*
G36*
X-71509D02*
X-71519D01*
Y7539D01*
X-69678D01*
X-71509Y10661D01*
D02*
G37*
G36*
X-37609Y10793D02*
X-37742D01*
X-37819Y10783D01*
X-37890Y10778D01*
X-37951Y10768D01*
X-38002Y10757D01*
X-38038Y10747D01*
X-38058Y10742D01*
X-38069Y10737D01*
X-38135Y10712D01*
X-38196Y10686D01*
X-38247Y10661D01*
X-38293Y10635D01*
X-38329Y10610D01*
X-38354Y10589D01*
X-38369Y10579D01*
X-38375Y10574D01*
X-38420Y10533D01*
X-38456Y10492D01*
X-38492Y10446D01*
X-38517Y10411D01*
X-38538Y10375D01*
X-38553Y10344D01*
X-38558Y10324D01*
X-38563Y10319D01*
X-38584Y10263D01*
X-38604Y10207D01*
X-38614Y10151D01*
X-38619Y10100D01*
X-38624Y10054D01*
X-38629Y10018D01*
Y9998D01*
Y9987D01*
Y9926D01*
X-38619Y9865D01*
X-38594Y9748D01*
X-38553Y9646D01*
X-38512Y9554D01*
X-38466Y9477D01*
X-38446Y9447D01*
X-38425Y9421D01*
X-38410Y9401D01*
X-38400Y9386D01*
X-38395Y9375D01*
X-38390Y9370D01*
X-38293Y9268D01*
X-38181Y9177D01*
X-38069Y9090D01*
X-37956Y9018D01*
X-37859Y8957D01*
X-37819Y8932D01*
X-37778Y8911D01*
X-37747Y8891D01*
X-37727Y8881D01*
X-37712Y8876D01*
X-37706Y8871D01*
X-37615Y8922D01*
X-37528Y8967D01*
X-37446Y9008D01*
X-37380Y9049D01*
X-37329Y9080D01*
X-37288Y9105D01*
X-37263Y9120D01*
X-37253Y9126D01*
X-37186Y9171D01*
X-37125Y9222D01*
X-37069Y9263D01*
X-37023Y9304D01*
X-36987Y9335D01*
X-36962Y9365D01*
X-36941Y9381D01*
X-36936Y9386D01*
X-36895Y9437D01*
X-36855Y9488D01*
X-36824Y9533D01*
X-36799Y9574D01*
X-36778Y9610D01*
X-36763Y9641D01*
X-36758Y9661D01*
X-36753Y9666D01*
X-36732Y9722D01*
X-36722Y9778D01*
X-36712Y9834D01*
X-36702Y9880D01*
Y9926D01*
X-36697Y9957D01*
Y9982D01*
Y9987D01*
X-36702Y10054D01*
X-36707Y10120D01*
X-36732Y10237D01*
X-36773Y10334D01*
X-36819Y10421D01*
X-36860Y10487D01*
X-36901Y10533D01*
X-36926Y10564D01*
X-36936Y10574D01*
X-36987Y10615D01*
X-37038Y10645D01*
X-37150Y10701D01*
X-37273Y10742D01*
X-37390Y10768D01*
X-37492Y10783D01*
X-37538Y10788D01*
X-37579D01*
X-37609Y10793D01*
D02*
G37*
G36*
X-37604Y8218D02*
X-37609D01*
X-37717Y8162D01*
X-37813Y8111D01*
X-37905Y8065D01*
X-37982Y8024D01*
X-38043Y7988D01*
X-38089Y7963D01*
X-38120Y7942D01*
X-38130Y7937D01*
X-38211Y7886D01*
X-38288Y7840D01*
X-38354Y7794D01*
X-38405Y7749D01*
X-38451Y7713D01*
X-38487Y7687D01*
X-38507Y7667D01*
X-38512Y7662D01*
X-38568Y7606D01*
X-38614Y7555D01*
X-38650Y7499D01*
X-38686Y7453D01*
X-38711Y7412D01*
X-38726Y7381D01*
X-38737Y7361D01*
X-38742Y7351D01*
X-38767Y7289D01*
X-38788Y7223D01*
X-38798Y7162D01*
X-38808Y7106D01*
X-38813Y7055D01*
X-38818Y7019D01*
Y6994D01*
Y6983D01*
X-38813Y6912D01*
X-38808Y6841D01*
X-38793Y6774D01*
X-38772Y6713D01*
X-38726Y6606D01*
X-38675Y6514D01*
X-38619Y6443D01*
X-38594Y6412D01*
X-38573Y6387D01*
X-38553Y6372D01*
X-38538Y6356D01*
X-38533Y6351D01*
X-38528Y6346D01*
X-38471Y6305D01*
X-38405Y6269D01*
X-38273Y6208D01*
X-38130Y6168D01*
X-37992Y6142D01*
X-37931Y6132D01*
X-37870Y6122D01*
X-37813Y6117D01*
X-37768D01*
X-37732Y6111D01*
X-37676D01*
X-37569Y6117D01*
X-37472Y6122D01*
X-37375Y6132D01*
X-37293Y6147D01*
X-37212Y6162D01*
X-37140Y6183D01*
X-37074Y6203D01*
X-37018Y6229D01*
X-36967Y6249D01*
X-36921Y6269D01*
X-36885Y6290D01*
X-36855Y6305D01*
X-36829Y6320D01*
X-36814Y6331D01*
X-36804Y6341D01*
X-36799D01*
X-36748Y6387D01*
X-36702Y6438D01*
X-36666Y6489D01*
X-36630Y6545D01*
X-36605Y6601D01*
X-36579Y6652D01*
X-36544Y6759D01*
X-36523Y6856D01*
X-36518Y6897D01*
X-36513Y6933D01*
X-36508Y6963D01*
Y6983D01*
Y6999D01*
Y7004D01*
X-36513Y7075D01*
X-36518Y7142D01*
X-36528Y7203D01*
X-36544Y7254D01*
X-36554Y7295D01*
X-36564Y7330D01*
X-36569Y7351D01*
X-36574Y7356D01*
X-36600Y7417D01*
X-36635Y7473D01*
X-36666Y7524D01*
X-36697Y7570D01*
X-36727Y7606D01*
X-36753Y7636D01*
X-36768Y7657D01*
X-36773Y7662D01*
X-36829Y7718D01*
X-36885Y7769D01*
X-36941Y7815D01*
X-36998Y7856D01*
X-37049Y7891D01*
X-37084Y7922D01*
X-37110Y7937D01*
X-37120Y7942D01*
X-37201Y7993D01*
X-37283Y8044D01*
X-37365Y8090D01*
X-37441Y8131D01*
X-37508Y8167D01*
X-37564Y8192D01*
X-37584Y8202D01*
X-37599Y8213D01*
X-37604Y8218D01*
D02*
G37*
G36*
X-57984Y10763D02*
X-58096D01*
X-58168Y10752D01*
X-58229Y10747D01*
X-58285Y10737D01*
X-58331Y10727D01*
X-58367Y10717D01*
X-58392Y10712D01*
X-58397Y10706D01*
X-58458Y10681D01*
X-58520Y10655D01*
X-58570Y10625D01*
X-58616Y10594D01*
X-58652Y10569D01*
X-58678Y10548D01*
X-58698Y10533D01*
X-58703Y10528D01*
X-58749Y10482D01*
X-58795Y10426D01*
X-58831Y10375D01*
X-58866Y10329D01*
X-58892Y10283D01*
X-58912Y10248D01*
X-58922Y10227D01*
X-58928Y10217D01*
X-58963Y10146D01*
X-58994Y10069D01*
X-59019Y9998D01*
X-59040Y9926D01*
X-59060Y9865D01*
X-59070Y9819D01*
X-59075Y9799D01*
X-59080Y9783D01*
Y9778D01*
Y9773D01*
X-59101Y9671D01*
X-59121Y9569D01*
X-59137Y9467D01*
X-59152Y9375D01*
X-59162Y9294D01*
Y9258D01*
X-59167Y9228D01*
Y9207D01*
X-59172Y9187D01*
Y9177D01*
Y9171D01*
X-59183Y9044D01*
X-59193Y8911D01*
X-59198Y8784D01*
X-59203Y8666D01*
Y8610D01*
X-59208Y8564D01*
Y8519D01*
Y8483D01*
Y8452D01*
Y8432D01*
Y8417D01*
Y8411D01*
Y8294D01*
X-59203Y8182D01*
Y8080D01*
X-59198Y7988D01*
X-59193Y7912D01*
Y7876D01*
Y7851D01*
X-59188Y7830D01*
Y7815D01*
Y7805D01*
Y7800D01*
X-59177Y7692D01*
X-59167Y7590D01*
X-59157Y7499D01*
X-59142Y7417D01*
X-59131Y7351D01*
X-59121Y7300D01*
X-59116Y7279D01*
Y7264D01*
X-59111Y7259D01*
Y7254D01*
X-59091Y7162D01*
X-59065Y7075D01*
X-59045Y6999D01*
X-59019Y6933D01*
X-58999Y6876D01*
X-58984Y6831D01*
X-58973Y6805D01*
X-58968Y6795D01*
X-58933Y6723D01*
X-58897Y6652D01*
X-58861Y6596D01*
X-58825Y6545D01*
X-58795Y6499D01*
X-58769Y6468D01*
X-58754Y6448D01*
X-58749Y6443D01*
X-58698Y6392D01*
X-58642Y6346D01*
X-58591Y6310D01*
X-58540Y6280D01*
X-58494Y6254D01*
X-58458Y6234D01*
X-58438Y6224D01*
X-58428Y6219D01*
X-58356Y6193D01*
X-58280Y6173D01*
X-58208Y6162D01*
X-58137Y6152D01*
X-58076Y6147D01*
X-58030Y6142D01*
X-57989D01*
X-57877Y6147D01*
X-57770Y6162D01*
X-57678Y6183D01*
X-57601Y6208D01*
X-57535Y6229D01*
X-57489Y6249D01*
X-57459Y6264D01*
X-57454Y6269D01*
X-57449D01*
X-57372Y6326D01*
X-57301Y6387D01*
X-57234Y6453D01*
X-57183Y6519D01*
X-57137Y6581D01*
X-57107Y6632D01*
X-57097Y6652D01*
X-57086Y6667D01*
X-57081Y6672D01*
Y6678D01*
X-57030Y6790D01*
X-56990Y6907D01*
X-56954Y7029D01*
X-56923Y7147D01*
X-56903Y7249D01*
X-56893Y7289D01*
X-56888Y7330D01*
X-56877Y7361D01*
Y7381D01*
X-56872Y7397D01*
Y7402D01*
X-56852Y7575D01*
X-56836Y7759D01*
X-56826Y7942D01*
X-56821Y8029D01*
Y8116D01*
X-56816Y8192D01*
Y8264D01*
X-56811Y8325D01*
Y8381D01*
Y8427D01*
Y8457D01*
Y8483D01*
Y8488D01*
Y8661D01*
X-56816Y8825D01*
X-56826Y8978D01*
X-56831Y9044D01*
X-56836Y9110D01*
Y9166D01*
X-56842Y9217D01*
X-56847Y9263D01*
X-56852Y9304D01*
Y9335D01*
X-56857Y9355D01*
Y9370D01*
Y9375D01*
X-56877Y9528D01*
X-56908Y9666D01*
X-56938Y9788D01*
X-56969Y9896D01*
X-56984Y9941D01*
X-56995Y9982D01*
X-57010Y10018D01*
X-57020Y10044D01*
X-57030Y10069D01*
X-57035Y10084D01*
X-57041Y10095D01*
Y10100D01*
X-57097Y10207D01*
X-57153Y10304D01*
X-57214Y10385D01*
X-57275Y10457D01*
X-57326Y10513D01*
X-57367Y10554D01*
X-57398Y10574D01*
X-57408Y10584D01*
X-57499Y10645D01*
X-57601Y10686D01*
X-57704Y10717D01*
X-57800Y10742D01*
X-57887Y10752D01*
X-57923Y10757D01*
X-57959D01*
X-57984Y10763D01*
D02*
G37*
G36*
X-75615D02*
X-75727D01*
X-75798Y10752D01*
X-75859Y10747D01*
X-75916Y10737D01*
X-75962Y10727D01*
X-75997Y10717D01*
X-76023Y10712D01*
X-76028Y10706D01*
X-76089Y10681D01*
X-76150Y10655D01*
X-76201Y10625D01*
X-76247Y10594D01*
X-76283Y10569D01*
X-76308Y10548D01*
X-76329Y10533D01*
X-76334Y10528D01*
X-76380Y10482D01*
X-76426Y10426D01*
X-76461Y10375D01*
X-76497Y10329D01*
X-76522Y10283D01*
X-76543Y10248D01*
X-76553Y10227D01*
X-76558Y10217D01*
X-76594Y10146D01*
X-76625Y10069D01*
X-76650Y9998D01*
X-76670Y9926D01*
X-76691Y9865D01*
X-76701Y9819D01*
X-76706Y9799D01*
X-76711Y9783D01*
Y9778D01*
Y9773D01*
X-76732Y9671D01*
X-76752Y9569D01*
X-76767Y9467D01*
X-76783Y9375D01*
X-76793Y9294D01*
Y9258D01*
X-76798Y9228D01*
Y9207D01*
X-76803Y9187D01*
Y9177D01*
Y9171D01*
X-76813Y9044D01*
X-76823Y8911D01*
X-76828Y8784D01*
X-76834Y8666D01*
Y8610D01*
X-76839Y8564D01*
Y8519D01*
Y8483D01*
Y8452D01*
Y8432D01*
Y8417D01*
Y8411D01*
Y8294D01*
X-76834Y8182D01*
Y8080D01*
X-76828Y7988D01*
X-76823Y7912D01*
Y7876D01*
Y7851D01*
X-76818Y7830D01*
Y7815D01*
Y7805D01*
Y7800D01*
X-76808Y7692D01*
X-76798Y7590D01*
X-76788Y7499D01*
X-76772Y7417D01*
X-76762Y7351D01*
X-76752Y7300D01*
X-76747Y7279D01*
Y7264D01*
X-76742Y7259D01*
Y7254D01*
X-76721Y7162D01*
X-76696Y7075D01*
X-76675Y6999D01*
X-76650Y6933D01*
X-76630Y6876D01*
X-76614Y6831D01*
X-76604Y6805D01*
X-76599Y6795D01*
X-76563Y6723D01*
X-76528Y6652D01*
X-76492Y6596D01*
X-76456Y6545D01*
X-76426Y6499D01*
X-76400Y6468D01*
X-76385Y6448D01*
X-76380Y6443D01*
X-76329Y6392D01*
X-76273Y6346D01*
X-76222Y6310D01*
X-76171Y6280D01*
X-76125Y6254D01*
X-76089Y6234D01*
X-76069Y6224D01*
X-76058Y6219D01*
X-75987Y6193D01*
X-75911Y6173D01*
X-75839Y6162D01*
X-75768Y6152D01*
X-75706Y6147D01*
X-75661Y6142D01*
X-75620D01*
X-75508Y6147D01*
X-75401Y6162D01*
X-75309Y6183D01*
X-75232Y6208D01*
X-75166Y6229D01*
X-75120Y6249D01*
X-75089Y6264D01*
X-75084Y6269D01*
X-75079D01*
X-75003Y6326D01*
X-74931Y6387D01*
X-74865Y6453D01*
X-74814Y6519D01*
X-74768Y6581D01*
X-74738Y6632D01*
X-74727Y6652D01*
X-74717Y6667D01*
X-74712Y6672D01*
Y6678D01*
X-74661Y6790D01*
X-74620Y6907D01*
X-74585Y7029D01*
X-74554Y7147D01*
X-74533Y7249D01*
X-74523Y7289D01*
X-74518Y7330D01*
X-74508Y7361D01*
Y7381D01*
X-74503Y7397D01*
Y7402D01*
X-74483Y7575D01*
X-74467Y7759D01*
X-74457Y7942D01*
X-74452Y8029D01*
Y8116D01*
X-74447Y8192D01*
Y8264D01*
X-74442Y8325D01*
Y8381D01*
Y8427D01*
Y8457D01*
Y8483D01*
Y8488D01*
Y8661D01*
X-74447Y8825D01*
X-74457Y8978D01*
X-74462Y9044D01*
X-74467Y9110D01*
Y9166D01*
X-74472Y9217D01*
X-74477Y9263D01*
X-74483Y9304D01*
Y9335D01*
X-74488Y9355D01*
Y9370D01*
Y9375D01*
X-74508Y9528D01*
X-74539Y9666D01*
X-74569Y9788D01*
X-74600Y9896D01*
X-74615Y9941D01*
X-74625Y9982D01*
X-74641Y10018D01*
X-74651Y10044D01*
X-74661Y10069D01*
X-74666Y10084D01*
X-74671Y10095D01*
Y10100D01*
X-74727Y10207D01*
X-74783Y10304D01*
X-74845Y10385D01*
X-74906Y10457D01*
X-74957Y10513D01*
X-74998Y10554D01*
X-75028Y10574D01*
X-75038Y10584D01*
X-75130Y10645D01*
X-75232Y10686D01*
X-75334Y10717D01*
X-75431Y10742D01*
X-75518Y10752D01*
X-75554Y10757D01*
X-75589D01*
X-75615Y10763D01*
D02*
G37*
G36*
X-82495Y9248D02*
X-82546D01*
X-82648Y9243D01*
X-82739Y9228D01*
X-82821Y9207D01*
X-82892Y9182D01*
X-82943Y9156D01*
X-82984Y9136D01*
X-83010Y9120D01*
X-83020Y9115D01*
X-83086Y9064D01*
X-83147Y9003D01*
X-83198Y8947D01*
X-83239Y8891D01*
X-83275Y8840D01*
X-83300Y8799D01*
X-83316Y8774D01*
X-83321Y8768D01*
Y8763D01*
X-83362Y8677D01*
X-83392Y8590D01*
X-83423Y8508D01*
X-83443Y8427D01*
X-83459Y8360D01*
X-83469Y8304D01*
X-83474Y8284D01*
X-83479Y8274D01*
Y8264D01*
Y8258D01*
X-83494Y8151D01*
X-83509Y8044D01*
X-83520Y7947D01*
X-83525Y7861D01*
X-83530Y7784D01*
Y7749D01*
Y7723D01*
Y7703D01*
Y7687D01*
Y7677D01*
Y7672D01*
Y7570D01*
X-83520Y7468D01*
X-83509Y7371D01*
X-83499Y7289D01*
X-83489Y7218D01*
X-83479Y7162D01*
X-83474Y7142D01*
Y7126D01*
X-83469Y7121D01*
Y7116D01*
X-83443Y7019D01*
X-83418Y6927D01*
X-83387Y6841D01*
X-83356Y6769D01*
X-83331Y6708D01*
X-83311Y6667D01*
X-83295Y6637D01*
X-83290Y6632D01*
Y6627D01*
X-83239Y6550D01*
X-83188Y6479D01*
X-83137Y6417D01*
X-83086Y6366D01*
X-83040Y6331D01*
X-83005Y6300D01*
X-82979Y6280D01*
X-82969Y6275D01*
X-82892Y6234D01*
X-82816Y6203D01*
X-82734Y6178D01*
X-82663Y6162D01*
X-82597Y6152D01*
X-82546Y6147D01*
X-82500D01*
X-82393Y6157D01*
X-82285Y6178D01*
X-82189Y6208D01*
X-82107Y6244D01*
X-82036Y6275D01*
X-81980Y6305D01*
X-81959Y6320D01*
X-81944Y6326D01*
X-81939Y6336D01*
X-81934D01*
X-81832Y6417D01*
X-81730Y6504D01*
X-81638Y6601D01*
X-81551Y6688D01*
X-81475Y6769D01*
X-81444Y6805D01*
X-81419Y6836D01*
X-81398Y6861D01*
X-81383Y6882D01*
X-81373Y6892D01*
X-81367Y6897D01*
Y8473D01*
X-81429Y8549D01*
X-81490Y8621D01*
X-81541Y8682D01*
X-81592Y8733D01*
X-81633Y8779D01*
X-81663Y8809D01*
X-81684Y8830D01*
X-81689Y8835D01*
X-81745Y8886D01*
X-81801Y8932D01*
X-81852Y8973D01*
X-81898Y9008D01*
X-81939Y9034D01*
X-81964Y9054D01*
X-81985Y9064D01*
X-81990Y9069D01*
X-82092Y9131D01*
X-82138Y9151D01*
X-82183Y9171D01*
X-82214Y9187D01*
X-82245Y9197D01*
X-82260Y9202D01*
X-82265D01*
X-82367Y9228D01*
X-82413Y9238D01*
X-82459Y9243D01*
X-82495Y9248D01*
D02*
G37*
%LPD*%
D12*
X-54500Y99142D02*
X-53579Y100063D01*
X-40563D01*
X-40000Y100626D01*
X-75500Y79000D02*
X-54203D01*
X-88500Y92000D02*
Y110500D01*
Y92000D02*
X-75500Y79000D01*
X-76500Y77000D02*
X-54731D01*
X-90500Y91000D02*
X-76500Y77000D01*
X-90500Y91000D02*
Y114000D01*
X-77000Y74500D02*
X-60705D01*
X-93000Y90500D02*
Y114668D01*
Y90500D02*
X-77000Y74500D01*
X-78000Y72500D02*
X-61461D01*
X-97000Y91500D02*
Y117500D01*
Y91500D02*
X-78000Y72500D01*
X-23484Y91374D02*
X-23000Y91858D01*
X-36260Y91374D02*
X-23484D01*
X-52244Y91244D02*
X-30709Y69709D01*
Y57087D02*
Y69709D01*
X-53811Y93358D02*
X-52244Y91791D01*
X-54500Y93358D02*
X-53811D01*
X-52244Y91244D02*
Y91791D01*
X-30500Y99500D02*
X-25747D01*
X-36260Y91374D02*
X-35500Y92134D01*
X-71414Y110086D02*
X-36086D01*
X-35500Y92134D02*
Y109500D01*
X-36086Y110086D02*
X-35500Y109500D01*
X-44488Y57087D02*
Y69285D01*
X-47244Y57087D02*
Y69513D01*
X-53043Y57374D02*
X-52756Y57087D01*
X-53043Y57374D02*
Y66429D01*
X-53437Y66823D02*
X-53043Y66429D01*
X-53437Y66823D02*
Y67232D01*
X-65669Y141999D02*
Y145662D01*
X-62501Y148831D01*
X-45331D01*
X-40500Y144000D01*
X-55799Y57374D02*
X-55512Y57087D01*
X-55799Y57374D02*
Y66429D01*
X-56193Y66823D02*
X-55799Y66429D01*
X-56193Y66823D02*
Y67232D01*
X-54731Y77000D02*
X-47244Y69513D01*
X-90500Y114000D02*
X-60500Y144000D01*
X-61461Y72500D02*
X-56193Y67232D01*
X-97000Y117500D02*
X-70500Y144000D01*
X-60705Y74500D02*
X-53437Y67232D01*
X-93000Y114668D02*
X-65669Y141999D01*
X-88500Y110500D02*
X-67750Y131250D01*
X-54203Y79000D02*
X-44488Y69285D01*
X-84000Y95000D02*
Y104528D01*
X-78500Y92858D02*
X-68500D01*
X-84000Y95000D02*
X-82170Y93170D01*
X-78812D02*
X-78500Y92858D01*
X-82170Y93170D02*
X-78812D01*
X-84000Y104528D02*
X-64536Y123992D01*
X-78500Y100142D02*
X-78377Y100265D01*
Y103123D01*
X-71414Y110086D01*
X-50000Y57087D02*
Y68500D01*
X-52500Y71000D02*
X-50000Y68500D01*
X-25747Y99500D02*
X-25500Y99747D01*
X-64434Y85225D02*
X-51725D01*
X-36220Y57087D02*
Y69721D01*
X-53677Y123992D02*
X-35669Y141999D01*
X-34756Y69721D02*
X-33465Y68429D01*
X-32501Y148831D02*
X-25331D01*
X-51725Y85225D02*
X-36220Y69721D01*
X-68500Y89291D02*
Y92858D01*
X-64536Y123992D02*
X-53677D01*
X-36220Y69721D02*
X-34756D01*
X-33465Y57087D02*
Y68429D01*
X-68500Y89291D02*
X-64434Y85225D01*
X-25331Y148831D02*
X-20500Y144000D01*
X-35669Y141999D02*
Y145662D01*
X-32501Y148831D01*
D13*
X-8138Y7874D02*
D03*
X-102626D02*
D03*
Y145669D02*
D03*
X-8138D02*
D03*
D14*
X-57000Y133500D02*
D03*
D15*
X-90500Y144000D02*
D03*
X-80500D02*
D03*
X-60500D02*
D03*
X-50500D02*
D03*
X-40500D02*
D03*
X-30500D02*
D03*
X-20500D02*
D03*
X-70500D02*
D03*
D16*
X-30500Y99500D02*
D03*
X-67750Y131250D02*
D03*
X-52500Y71000D02*
D03*
D17*
X-52756Y57087D02*
D03*
X-44488D02*
D03*
X-36220D02*
D03*
X-27953D02*
D03*
X-58268D02*
D03*
X-55512D02*
D03*
X-50000D02*
D03*
X-47244D02*
D03*
X-41732D02*
D03*
X-38976D02*
D03*
X-33465D02*
D03*
X-30709D02*
D03*
D18*
X-23000Y99142D02*
D03*
Y91858D02*
D03*
X-54500Y99142D02*
D03*
Y91858D02*
D03*
X-78500Y99142D02*
D03*
Y91858D02*
D03*
X-68500Y99142D02*
D03*
Y91858D02*
D03*
D19*
X-36260Y91374D02*
D03*
X-40000Y100626D02*
D03*
D20*
X-43740Y91374D02*
D03*
M02*
