G04*
G04 #@! TF.GenerationSoftware,Altium Limited,Altium Designer,20.1.10 (176)*
G04*
G04 Layer_Color=16711935*
%FSLAX25Y25*%
%MOIN*%
G70*
G04*
G04 #@! TF.SameCoordinates,6CBB9ED5-C892-48F8-8F6F-D4B66391D099*
G04*
G04*
G04 #@! TF.FilePolarity,Negative*
G04*
G01*
G75*
%ADD10C,0.13398*%
%ADD11C,0.07887*%
G04:AMPARAMS|DCode=21|XSize=23.75mil|YSize=204.85mil|CornerRadius=7.94mil|HoleSize=0mil|Usage=FLASHONLY|Rotation=180.000|XOffset=0mil|YOffset=0mil|HoleType=Round|Shape=RoundedRectangle|*
%AMROUNDEDRECTD21*
21,1,0.02375,0.18898,0,0,180.0*
21,1,0.00787,0.20485,0,0,180.0*
1,1,0.01587,-0.00394,0.09449*
1,1,0.01587,0.00394,0.09449*
1,1,0.01587,0.00394,-0.09449*
1,1,0.01587,-0.00394,-0.09449*
%
%ADD21ROUNDEDRECTD21*%
%ADD22R,0.06312X0.04934*%
%ADD23R,0.04343X0.04540*%
%ADD24R,0.04343X0.04540*%
D10*
X-8138Y7874D02*
D03*
X-102626D02*
D03*
Y145669D02*
D03*
X-8138D02*
D03*
D11*
X-90500Y144000D02*
D03*
X-80500D02*
D03*
X-60500D02*
D03*
X-50500D02*
D03*
X-40500D02*
D03*
X-30500D02*
D03*
X-20500D02*
D03*
X-70500D02*
D03*
D21*
X-52756Y57087D02*
D03*
X-44488D02*
D03*
X-36220D02*
D03*
X-27953D02*
D03*
X-58268D02*
D03*
X-55512D02*
D03*
X-50000D02*
D03*
X-47244D02*
D03*
X-41732D02*
D03*
X-38976D02*
D03*
X-33465D02*
D03*
X-30709D02*
D03*
D22*
X-23000Y99142D02*
D03*
Y91858D02*
D03*
X-54500Y99142D02*
D03*
Y91858D02*
D03*
X-78500Y99142D02*
D03*
Y91858D02*
D03*
X-68500Y99142D02*
D03*
Y91858D02*
D03*
D23*
X-36260Y91374D02*
D03*
X-40000Y100626D02*
D03*
D24*
X-43740Y91374D02*
D03*
M02*
