M48
;Layer_Color=9474304
;FILE_FORMAT=2:4
INCH,LZ
;TYPE=PLATED
T1F00S00C0.0118
T2F00S00C0.0197
T4F00S00C0.0280
T5F00S00C0.0354
T6F00S00C0.0374
T7F00S00C0.1181
%
T01
X01401Y005486
X0147Y00545
X01375Y00585
X0132Y0059
X015562Y0097
X01633Y010319
X016321Y013121
X01695Y01325
X016568Y013943
X016629Y01438
X0161Y0142
X01585Y01385
X015588Y013663
X014876Y015732
X015153Y01821
X01499Y018898
X015155Y02007
X014807Y020098
X01475Y0206
Y02095
X014241Y020659
X013903Y020447
X01395Y020129
X0139Y021
X013342Y020449
X0156Y01985
X016002Y019939
X01625Y0204
X0169Y02005
X010437Y0198
X009187Y01972
X00901Y019997
X009422Y01932
X00955Y019
X00895Y0141
X0094Y01355
X010366Y012446
X0107Y01205
X0113Y01195
X012884Y011818
X0135Y0125
X0087Y01365
X005989Y012376
X005954Y011796
X00535Y01205
X005227Y018773
X005784Y019034
X0061Y01935
X00515Y0202
Y0212
X005833Y021052
X008443Y01775
X00749Y02391
X006568Y025211
X0059Y0253
X009202Y026592
X011105Y026806
X013286Y027321
X013908Y022792
X0164Y0237
T02
X0009Y00375
X00635Y0025
X0091
X01185Y00255
X0147
X0134Y01515
Y0167
X01205Y01615
X01215Y01465
X01085Y01515
X01075Y01665
X0121Y01775
X01875Y0162
X00835Y02045
X00095Y01355
X00295Y026
X00465
X01185Y02585
X0132
X01295Y0223
X009Y0226
X01055Y0245
X0167Y02675
X0207Y0235
T04
X012597Y007214
X0112Y02125
X005225Y016228
X013034Y021563
T05
X00591Y026476
X007878
T06
X0044Y0008
Y0018
Y0028
Y0038
Y0048
X017028Y004105
X018028
Y003105
X017028
X019028Y003105
Y004105
X020028Y004105
X021028
Y003105
X020028
X02025Y00595
Y00695
Y00795
Y00895
Y00995
Y01095
Y01195
Y01295
Y01395
Y01495
X01775Y0149
Y0139
Y0129
Y0119
Y0109
Y0099
Y0089
Y0079
Y0069
Y0059
X0126Y01065
X0116
X0106
X0096
X01805Y01755
Y01855
X01905
Y01755
X01905Y01955
X01805
X01805Y02055
X01905
X0044Y0201
Y0191
Y0181
Y0171
Y0161
Y0151
Y0138
Y0128
Y0118
Y0108
Y0098
Y0088
Y0078
Y0068
Y0058
X0056Y01065
X0066
X0076
X0086
X00195Y0151
Y0161
Y0171
Y0181
Y0191
Y0201
Y0211
X0044
Y0221
Y0231
Y0241
X0054Y02411
Y02311
X00195Y0231
Y0241
Y0221
X01335Y02485
X01435
X01535
X01635
X01735
X01835
X01935
X02035
X01885Y0261
X01785
X01685
X01585
X01805Y02155
X01905
T07
X0017Y0016
X02075
X00155Y02655
X0208
M30
