G04*
G04 #@! TF.GenerationSoftware,Altium Limited,Altium Designer,20.1.10 (176)*
G04*
G04 Layer_Color=255*
%FSLAX24Y24*%
%MOIN*%
G70*
G04*
G04 #@! TF.SameCoordinates,9D01BC41-1964-44B2-BAAF-85125F902256*
G04*
G04*
G04 #@! TF.FilePolarity,Positive*
G04*
G01*
G75*
%ADD19R,0.0512X0.0394*%
%ADD20R,0.0157X0.0531*%
%ADD21R,0.0591X0.0748*%
%ADD22R,0.0394X0.0512*%
%ADD23R,0.0413X0.0551*%
%ADD24R,0.0394X0.0394*%
%ADD25R,0.0551X0.0413*%
%ADD26R,0.0400X0.0800*%
%ADD27R,0.1200X0.0900*%
%ADD28R,0.0591X0.0984*%
G04:AMPARAMS|DCode=29|XSize=11.8mil|YSize=70.9mil|CornerRadius=0mil|HoleSize=0mil|Usage=FLASHONLY|Rotation=315.000|XOffset=0mil|YOffset=0mil|HoleType=Round|Shape=Round|*
%AMOVALD29*
21,1,0.0591,0.0118,0.0000,0.0000,45.0*
1,1,0.0118,-0.0209,-0.0209*
1,1,0.0118,0.0209,0.0209*
%
%ADD29OVALD29*%

G04:AMPARAMS|DCode=30|XSize=11.8mil|YSize=70.9mil|CornerRadius=0mil|HoleSize=0mil|Usage=FLASHONLY|Rotation=225.000|XOffset=0mil|YOffset=0mil|HoleType=Round|Shape=Round|*
%AMOVALD30*
21,1,0.0591,0.0118,0.0000,0.0000,315.0*
1,1,0.0118,-0.0209,0.0209*
1,1,0.0118,0.0209,-0.0209*
%
%ADD30OVALD30*%

%ADD31R,0.0709X0.0787*%
%ADD60C,0.0591*%
%ADD61O,0.0472X0.0748*%
%ADD62C,0.0394*%
%ADD63R,0.0728X0.0728*%
%ADD64C,0.0728*%
%ADD65R,0.0728X0.0728*%
%ADD66C,0.1457*%
D19*
X12554Y27309D02*
D03*
Y26509D02*
D03*
X10600Y27310D02*
D03*
Y26510D02*
D03*
D20*
X7406Y26476D02*
D03*
X7150D02*
D03*
X6894D02*
D03*
X6638D02*
D03*
X6382D02*
D03*
D21*
X7288Y27539D02*
D03*
X6500D02*
D03*
D22*
X11220Y24750D02*
D03*
X12020D02*
D03*
D23*
X8186Y24800D02*
D03*
X8914D02*
D03*
X16307Y27250D02*
D03*
X15578D02*
D03*
X17086Y27250D02*
D03*
X17814D02*
D03*
D24*
X18406D02*
D03*
X19587D02*
D03*
D25*
X19500Y1314D02*
D03*
Y586D02*
D03*
X18600Y1314D02*
D03*
Y586D02*
D03*
X17700Y1314D02*
D03*
Y586D02*
D03*
X16750Y1314D02*
D03*
Y586D02*
D03*
X17800Y23664D02*
D03*
Y22936D02*
D03*
X13702Y26571D02*
D03*
X18650Y22936D02*
D03*
Y23664D02*
D03*
X11050Y7357D02*
D03*
Y6629D02*
D03*
X10250Y7357D02*
D03*
Y6629D02*
D03*
X9450Y7357D02*
D03*
Y6629D02*
D03*
X8650Y7357D02*
D03*
Y6629D02*
D03*
X7850Y7357D02*
D03*
Y6629D02*
D03*
X7050Y7357D02*
D03*
Y6629D02*
D03*
X6250Y7357D02*
D03*
Y6629D02*
D03*
X11850Y7357D02*
D03*
Y6629D02*
D03*
X6250Y8079D02*
D03*
Y8807D02*
D03*
X7050Y8079D02*
D03*
Y8807D02*
D03*
X7850Y8079D02*
D03*
Y8807D02*
D03*
X11850Y8079D02*
D03*
Y8807D02*
D03*
X11050Y8079D02*
D03*
Y8807D02*
D03*
X10250Y8079D02*
D03*
Y8807D02*
D03*
X8650Y8079D02*
D03*
Y8807D02*
D03*
X9450Y8079D02*
D03*
Y8807D02*
D03*
X6350Y4914D02*
D03*
Y4186D02*
D03*
X9096Y4785D02*
D03*
Y4057D02*
D03*
X11900Y4864D02*
D03*
Y4136D02*
D03*
X14700Y4864D02*
D03*
Y4136D02*
D03*
X16250Y8714D02*
D03*
Y7986D02*
D03*
X14552Y26571D02*
D03*
Y27300D02*
D03*
X13702D02*
D03*
X11811Y26571D02*
D03*
X9804Y27300D02*
D03*
X11811D02*
D03*
X9804Y26571D02*
D03*
X16950Y23664D02*
D03*
Y22936D02*
D03*
D26*
X12150Y23550D02*
D03*
X11220Y23550D02*
D03*
X13080D02*
D03*
D27*
X12150Y21050D02*
D03*
D28*
X7236Y728D02*
D03*
X5464D02*
D03*
X7236Y4272D02*
D03*
X5464D02*
D03*
X9986Y728D02*
D03*
X8214D02*
D03*
X9986Y4272D02*
D03*
X8214D02*
D03*
X12786Y778D02*
D03*
X11014D02*
D03*
X12786Y4322D02*
D03*
X11014D02*
D03*
X15586Y778D02*
D03*
X13814D02*
D03*
X15586Y4322D02*
D03*
X13814D02*
D03*
D29*
X15872Y16631D02*
D03*
X15733Y16771D02*
D03*
X15594Y16910D02*
D03*
X15455Y17049D02*
D03*
X15315Y17188D02*
D03*
X15176Y17327D02*
D03*
X15037Y17467D02*
D03*
X14898Y17606D02*
D03*
X14759Y17745D02*
D03*
X14619Y17884D02*
D03*
X14480Y18023D02*
D03*
X14341Y18163D02*
D03*
X14202Y18302D02*
D03*
X14063Y18441D02*
D03*
X13923Y18580D02*
D03*
X13784Y18719D02*
D03*
X13645Y18859D02*
D03*
X13506Y18998D02*
D03*
X13367Y19137D02*
D03*
X13227Y19276D02*
D03*
X13088Y19415D02*
D03*
X12949Y19555D02*
D03*
X12810Y19694D02*
D03*
X12671Y19833D02*
D03*
X12531Y19972D02*
D03*
X8328Y15769D02*
D03*
X8467Y15629D02*
D03*
X8606Y15490D02*
D03*
X8745Y15351D02*
D03*
X8885Y15212D02*
D03*
X9024Y15073D02*
D03*
X9163Y14933D02*
D03*
X9302Y14794D02*
D03*
X9441Y14655D02*
D03*
X9581Y14516D02*
D03*
X9720Y14377D02*
D03*
X9859Y14237D02*
D03*
X9998Y14098D02*
D03*
X10137Y13959D02*
D03*
X10277Y13820D02*
D03*
X10416Y13681D02*
D03*
X10555Y13541D02*
D03*
X10694Y13402D02*
D03*
X10833Y13263D02*
D03*
X10973Y13124D02*
D03*
X11112Y12985D02*
D03*
X11251Y12845D02*
D03*
X11390Y12706D02*
D03*
X11529Y12567D02*
D03*
X11668Y12428D02*
D03*
D30*
Y19972D02*
D03*
X11529Y19833D02*
D03*
X11390Y19694D02*
D03*
X11251Y19555D02*
D03*
X11112Y19415D02*
D03*
X10973Y19276D02*
D03*
X10833Y19137D02*
D03*
X10694Y18998D02*
D03*
X10555Y18859D02*
D03*
X10416Y18719D02*
D03*
X10277Y18580D02*
D03*
X10137Y18441D02*
D03*
X9998Y18302D02*
D03*
X9859Y18163D02*
D03*
X9720Y18023D02*
D03*
X9581Y17884D02*
D03*
X9441Y17745D02*
D03*
X9302Y17606D02*
D03*
X9163Y17467D02*
D03*
X9024Y17327D02*
D03*
X8885Y17188D02*
D03*
X8745Y17049D02*
D03*
X8606Y16910D02*
D03*
X8467Y16771D02*
D03*
X8328Y16631D02*
D03*
X12531Y12428D02*
D03*
X12671Y12567D02*
D03*
X12810Y12706D02*
D03*
X12949Y12845D02*
D03*
X13088Y12985D02*
D03*
X13227Y13124D02*
D03*
X13367Y13263D02*
D03*
X13506Y13402D02*
D03*
X13645Y13541D02*
D03*
X13784Y13681D02*
D03*
X13923Y13820D02*
D03*
X14063Y13959D02*
D03*
X14202Y14098D02*
D03*
X14341Y14237D02*
D03*
X14480Y14377D02*
D03*
X14619Y14516D02*
D03*
X14759Y14655D02*
D03*
X14898Y14794D02*
D03*
X15037Y14933D02*
D03*
X15176Y15073D02*
D03*
X15315Y15212D02*
D03*
X15455Y15351D02*
D03*
X15594Y15490D02*
D03*
X15733Y15629D02*
D03*
X15872Y15769D02*
D03*
D31*
X15324Y8817D02*
D03*
Y7163D02*
D03*
X13326Y8817D02*
D03*
Y7163D02*
D03*
D60*
X7878Y26476D02*
D03*
X5910D02*
D03*
D61*
X8272Y27539D02*
D03*
X5516D02*
D03*
D62*
X9000Y22600D02*
D03*
X2950Y26000D02*
D03*
X12050Y16150D02*
D03*
X12100Y17750D02*
D03*
X16700Y26750D02*
D03*
X4650Y26000D02*
D03*
X20700Y23500D02*
D03*
X11850Y25850D02*
D03*
X13200D02*
D03*
X10550Y24500D02*
D03*
X12950Y22300D02*
D03*
X8350Y20450D02*
D03*
X900Y3750D02*
D03*
X950Y13550D02*
D03*
X14700Y2550D02*
D03*
X11850D02*
D03*
X9100Y2500D02*
D03*
X6350D02*
D03*
X18750Y16200D02*
D03*
X13400Y16700D02*
D03*
X10850Y15150D02*
D03*
X12150Y14650D02*
D03*
X10750Y16650D02*
D03*
X13400Y15150D02*
D03*
D63*
X5400Y23110D02*
D03*
X17750Y5900D02*
D03*
X20250Y5950D02*
D03*
X4400Y13800D02*
D03*
X19050Y17550D02*
D03*
X4400Y24100D02*
D03*
X1950D02*
D03*
D64*
X5400Y24110D02*
D03*
X17750Y12900D02*
D03*
Y11900D02*
D03*
Y9900D02*
D03*
Y8900D02*
D03*
Y7900D02*
D03*
Y6900D02*
D03*
Y10900D02*
D03*
Y13900D02*
D03*
Y14900D02*
D03*
X20250Y12950D02*
D03*
Y11950D02*
D03*
Y9950D02*
D03*
Y8950D02*
D03*
Y7950D02*
D03*
Y6950D02*
D03*
Y10950D02*
D03*
Y13950D02*
D03*
Y14950D02*
D03*
X4400Y800D02*
D03*
Y1800D02*
D03*
Y6800D02*
D03*
Y7800D02*
D03*
Y9800D02*
D03*
Y10800D02*
D03*
Y11800D02*
D03*
Y12800D02*
D03*
Y8800D02*
D03*
Y5800D02*
D03*
Y4800D02*
D03*
Y2800D02*
D03*
Y3800D02*
D03*
X18050Y21550D02*
D03*
X19050D02*
D03*
X18050Y20550D02*
D03*
X19050D02*
D03*
X19050Y19550D02*
D03*
X18050D02*
D03*
X19050Y18550D02*
D03*
X18050D02*
D03*
Y17550D02*
D03*
X4400Y15100D02*
D03*
Y16100D02*
D03*
Y19100D02*
D03*
Y23100D02*
D03*
Y22100D02*
D03*
Y21100D02*
D03*
Y20100D02*
D03*
Y18100D02*
D03*
Y17100D02*
D03*
X1950Y15100D02*
D03*
Y16100D02*
D03*
Y19100D02*
D03*
Y23100D02*
D03*
Y22100D02*
D03*
Y21100D02*
D03*
Y20100D02*
D03*
Y18100D02*
D03*
Y17100D02*
D03*
X15350Y24850D02*
D03*
X19350D02*
D03*
X18350D02*
D03*
X17350D02*
D03*
X16350D02*
D03*
X14350D02*
D03*
X13350D02*
D03*
X17850Y26100D02*
D03*
X16850D02*
D03*
X15850D02*
D03*
X21028Y3105D02*
D03*
X20028D02*
D03*
Y4105D02*
D03*
X19028Y3105D02*
D03*
Y4105D02*
D03*
X18028Y4105D02*
D03*
Y3105D02*
D03*
X17028Y4105D02*
D03*
Y3105D02*
D03*
X7600Y10650D02*
D03*
X5600D02*
D03*
X9600D02*
D03*
X11600D02*
D03*
X10600D02*
D03*
X6600D02*
D03*
X8600D02*
D03*
D65*
X20350Y24850D02*
D03*
X18850Y26100D02*
D03*
X21028Y4105D02*
D03*
X12600Y10650D02*
D03*
D66*
X1700Y1600D02*
D03*
X20750D02*
D03*
X20800Y26550D02*
D03*
X1550D02*
D03*
M02*
