G04*
G04 #@! TF.GenerationSoftware,Altium Limited,Altium Designer,20.1.10 (176)*
G04*
G04 Layer_Color=16711935*
%FSLAX24Y24*%
%MOIN*%
G70*
G04*
G04 #@! TF.SameCoordinates,9D01BC41-1964-44B2-BAAF-85125F902256*
G04*
G04*
G04 #@! TF.FilePolarity,Positive*
G04*
G01*
G75*
%ADD17C,0.0039*%
D17*
X9783Y22394D02*
G03*
X9783Y22394I-197J0D01*
G01*
X15693Y16200D02*
G03*
X15693Y16200I-197J0D01*
G01*
X5807Y22039D02*
Y24244D01*
X9941Y22039D02*
Y24244D01*
X5807D02*
X9941D01*
X5807Y22039D02*
X9941D01*
X13089Y14501D02*
X13701Y13889D01*
X12699Y14111D02*
X13311Y13499D01*
X13701Y13889D01*
X12699Y14111D02*
X13089Y14501D01*
X14339Y15751D02*
X14951Y15139D01*
X13949Y15361D02*
X14561Y14749D01*
X14951Y15139D01*
X13949Y15361D02*
X14339Y15751D01*
X14099Y17789D02*
X14711Y18401D01*
X14489Y17399D02*
X15101Y18011D01*
X14711Y18401D02*
X15101Y18011D01*
X14099Y17789D02*
X14489Y17399D01*
X12899Y18839D02*
X13511Y19451D01*
X13289Y18449D02*
X13901Y19061D01*
X13511Y19451D02*
X13901Y19061D01*
X12899Y18839D02*
X13289Y18449D01*
X10106Y18825D02*
X10719Y18212D01*
X10496Y19214D02*
X11109Y18602D01*
X10106Y18825D02*
X10496Y19214D01*
X10719Y18212D02*
X11109Y18602D01*
X8906Y17483D02*
X9519Y16871D01*
X9296Y17873D02*
X9909Y17260D01*
X8906Y17483D02*
X9296Y17873D01*
X9519Y16871D02*
X9909Y17260D01*
X8989Y14799D02*
X9601Y15411D01*
X8599Y15189D02*
X9211Y15801D01*
X8599Y15189D02*
X8989Y14799D01*
X9211Y15801D02*
X9601Y15411D01*
X10625Y13206D02*
X11238Y13819D01*
X10236Y13596D02*
X10848Y14209D01*
X10236Y13596D02*
X10625Y13206D01*
X10848Y14209D02*
X11238Y13819D01*
X8117Y25076D02*
X8983D01*
X8117Y24524D02*
X8983D01*
X8117D02*
Y25076D01*
X8983Y24524D02*
Y25076D01*
X19224Y1383D02*
X19776D01*
X19224Y517D02*
X19776D01*
Y1383D01*
X19224Y517D02*
Y1383D01*
X18324D02*
X18876D01*
X18324Y517D02*
X18876D01*
Y1383D01*
X18324Y517D02*
Y1383D01*
X17424D02*
X17976D01*
X17424Y517D02*
X17976D01*
Y1383D01*
X17424Y517D02*
Y1383D01*
X16474D02*
X17026D01*
X16474Y517D02*
X17026D01*
Y1383D01*
X16474Y517D02*
Y1383D01*
X17524Y23733D02*
X18076D01*
X17524Y22867D02*
X18076D01*
Y23733D01*
X17524Y22867D02*
Y23733D01*
X17546Y17050D02*
X19544D01*
X19554Y17060D01*
Y22050D01*
X17546D02*
X19554D01*
X17546Y17050D02*
Y22050D01*
X11535Y26502D02*
X12087D01*
X11535Y27369D02*
X12087D01*
X11535Y26502D02*
Y27369D01*
X12087Y26502D02*
Y27369D01*
X9529Y26502D02*
X10080D01*
X9529Y27369D02*
X10080D01*
X9529Y26502D02*
Y27369D01*
X10080Y26502D02*
Y27369D01*
X16674Y23733D02*
X17226D01*
X16674Y22867D02*
X17226D01*
Y23733D01*
X16674Y22867D02*
Y23733D01*
X18926Y22867D02*
Y23733D01*
X18374Y22867D02*
Y23733D01*
X18926D01*
X18374Y22867D02*
X18926D01*
X13427Y26502D02*
Y27369D01*
X13978Y26502D02*
Y27369D01*
X13427Y26502D02*
X13978D01*
X13427Y27369D02*
X13978D01*
X14828Y26502D02*
Y27369D01*
X14277Y26502D02*
Y27369D01*
X14828D01*
X14277Y26502D02*
X14828D01*
X17017Y26974D02*
X17883D01*
X17017Y27526D02*
X17883D01*
Y26974D02*
Y27526D01*
X17017Y26974D02*
Y27526D01*
X15509D02*
X16376D01*
X15509Y26974D02*
X16376D01*
X15509D02*
Y27526D01*
X16376Y26974D02*
Y27526D01*
X21528Y2601D02*
Y4599D01*
X21518Y4608D02*
X21528Y4599D01*
X16528Y4608D02*
X21518D01*
X16528Y2601D02*
Y4608D01*
Y2601D02*
X21528D01*
X15974Y7917D02*
Y8783D01*
X16526Y7917D02*
Y8783D01*
X15974Y7917D02*
X16526D01*
X15974Y8783D02*
X16526D01*
X9174Y8876D02*
X9726D01*
X9174Y8010D02*
X9726D01*
Y8876D01*
X9174Y8010D02*
Y8876D01*
X8374D02*
X8926D01*
X8374Y8010D02*
X8926D01*
Y8876D01*
X8374Y8010D02*
Y8876D01*
X9974D02*
X10526D01*
X9974Y8010D02*
X10526D01*
Y8876D01*
X9974Y8010D02*
Y8876D01*
X10774D02*
X11326D01*
X10774Y8010D02*
X11326D01*
Y8876D01*
X10774Y8010D02*
Y8876D01*
X11574D02*
X12126D01*
X11574Y8010D02*
X12126D01*
Y8876D01*
X11574Y8010D02*
Y8876D01*
X7574D02*
X8126D01*
X7574Y8010D02*
X8126D01*
Y8876D01*
X7574Y8010D02*
Y8876D01*
X6774D02*
X7326D01*
X6774Y8010D02*
X7326D01*
Y8876D01*
X6774Y8010D02*
Y8876D01*
X5974D02*
X6526D01*
X5974Y8010D02*
X6526D01*
Y8876D01*
X5974Y8010D02*
Y8876D01*
X11574Y6560D02*
X12126D01*
X11574Y7426D02*
X12126D01*
X11574Y6560D02*
Y7426D01*
X12126Y6560D02*
Y7426D01*
X5974Y6560D02*
X6526D01*
X5974Y7426D02*
X6526D01*
X5974Y6560D02*
Y7426D01*
X6526Y6560D02*
Y7426D01*
X6774Y6560D02*
X7326D01*
X6774Y7426D02*
X7326D01*
X6774Y6560D02*
Y7426D01*
X7326Y6560D02*
Y7426D01*
X7574Y6560D02*
X8126D01*
X7574Y7426D02*
X8126D01*
X7574Y6560D02*
Y7426D01*
X8126Y6560D02*
Y7426D01*
X8374Y6560D02*
X8926D01*
X8374Y7426D02*
X8926D01*
X8374Y6560D02*
Y7426D01*
X8926Y6560D02*
Y7426D01*
X9174Y6560D02*
X9726D01*
X9174Y7426D02*
X9726D01*
X9174Y6560D02*
Y7426D01*
X9726Y6560D02*
Y7426D01*
X9974Y6560D02*
X10526D01*
X9974Y7426D02*
X10526D01*
X9974Y6560D02*
Y7426D01*
X10526Y6560D02*
Y7426D01*
X10774Y6560D02*
X11326D01*
X10774Y7426D02*
X11326D01*
X10774Y6560D02*
Y7426D01*
X11326Y6560D02*
Y7426D01*
X14424Y4067D02*
X14976D01*
X14424Y4933D02*
X14976D01*
X14424Y4067D02*
Y4933D01*
X14976Y4067D02*
Y4933D01*
X11624Y4067D02*
X12176D01*
X11624Y4933D02*
X12176D01*
X11624Y4067D02*
Y4933D01*
X12176Y4067D02*
Y4933D01*
X8820Y3988D02*
X9371D01*
X8820Y4854D02*
X9371D01*
X8820Y3988D02*
Y4854D01*
X9371Y3988D02*
Y4854D01*
X6074Y4117D02*
X6626D01*
X6074Y4983D02*
X6626D01*
X6074Y4117D02*
Y4983D01*
X6626Y4117D02*
Y4983D01*
X8203Y16200D02*
X12100Y20097D01*
Y12303D02*
X15997Y16200D01*
X8203D02*
X12100Y12303D01*
Y20097D02*
X15997Y16200D01*
M02*
