G04*
G04 #@! TF.GenerationSoftware,Altium Limited,Altium Designer,20.1.10 (176)*
G04*
G04 Layer_Color=255*
%FSLAX24Y24*%
%MOIN*%
G70*
G04*
G04 #@! TF.SameCoordinates,9D01BC41-1964-44B2-BAAF-85125F902256*
G04*
G04*
G04 #@! TF.FilePolarity,Positive*
G04*
G01*
G75*
%ADD60C,0.0591*%
%ADD61O,0.0472X0.0748*%
%ADD62C,0.0394*%
%ADD63R,0.0728X0.0728*%
%ADD64C,0.0728*%
%ADD65R,0.0728X0.0728*%
%ADD66C,0.1457*%
%ADD69O,0.0138X0.0827*%
G04:AMPARAMS|DCode=70|XSize=55.1mil|YSize=41.3mil|CornerRadius=0mil|HoleSize=0mil|Usage=FLASHONLY|Rotation=225.000|XOffset=0mil|YOffset=0mil|HoleType=Round|Shape=Rectangle|*
%AMROTATEDRECTD70*
4,1,4,0.0049,0.0341,0.0341,0.0049,-0.0049,-0.0341,-0.0341,-0.0049,0.0049,0.0341,0.0*
%
%ADD70ROTATEDRECTD70*%

G04:AMPARAMS|DCode=71|XSize=55.1mil|YSize=41.3mil|CornerRadius=0mil|HoleSize=0mil|Usage=FLASHONLY|Rotation=315.000|XOffset=0mil|YOffset=0mil|HoleType=Round|Shape=Rectangle|*
%AMROTATEDRECTD71*
4,1,4,-0.0341,0.0049,-0.0049,0.0341,0.0341,-0.0049,0.0049,-0.0341,-0.0341,0.0049,0.0*
%
%ADD71ROTATEDRECTD71*%

D60*
X7878Y26476D02*
D03*
X5910D02*
D03*
D61*
X8272Y27539D02*
D03*
X5516D02*
D03*
D62*
X9000Y22600D02*
D03*
X2950Y26000D02*
D03*
X12050Y16150D02*
D03*
X12100Y17750D02*
D03*
X16700Y26750D02*
D03*
X4650Y26000D02*
D03*
X20700Y23500D02*
D03*
X11850Y25850D02*
D03*
X13200D02*
D03*
X10550Y24500D02*
D03*
X12950Y22300D02*
D03*
X8350Y20450D02*
D03*
X900Y3750D02*
D03*
X950Y13550D02*
D03*
X14700Y2550D02*
D03*
X11850D02*
D03*
X9100Y2500D02*
D03*
X6350D02*
D03*
X18750Y16200D02*
D03*
X13400Y16700D02*
D03*
X10850Y15150D02*
D03*
X12150Y14650D02*
D03*
X10750Y16650D02*
D03*
X13400Y15150D02*
D03*
D63*
X5400Y23110D02*
D03*
X17750Y5900D02*
D03*
X20250Y5950D02*
D03*
X4400Y13800D02*
D03*
X19050Y17550D02*
D03*
X4400Y24100D02*
D03*
X1950D02*
D03*
D64*
X5400Y24110D02*
D03*
X17750Y12900D02*
D03*
Y11900D02*
D03*
Y9900D02*
D03*
Y8900D02*
D03*
Y7900D02*
D03*
Y6900D02*
D03*
Y10900D02*
D03*
Y13900D02*
D03*
Y14900D02*
D03*
X20250Y12950D02*
D03*
Y11950D02*
D03*
Y9950D02*
D03*
Y8950D02*
D03*
Y7950D02*
D03*
Y6950D02*
D03*
Y10950D02*
D03*
Y13950D02*
D03*
Y14950D02*
D03*
X4400Y800D02*
D03*
Y1800D02*
D03*
Y6800D02*
D03*
Y7800D02*
D03*
Y9800D02*
D03*
Y10800D02*
D03*
Y11800D02*
D03*
Y12800D02*
D03*
Y8800D02*
D03*
Y5800D02*
D03*
Y4800D02*
D03*
Y2800D02*
D03*
Y3800D02*
D03*
X18050Y21550D02*
D03*
X19050D02*
D03*
X18050Y20550D02*
D03*
X19050D02*
D03*
X19050Y19550D02*
D03*
X18050D02*
D03*
X19050Y18550D02*
D03*
X18050D02*
D03*
Y17550D02*
D03*
X4400Y15100D02*
D03*
Y16100D02*
D03*
Y19100D02*
D03*
Y23100D02*
D03*
Y22100D02*
D03*
Y21100D02*
D03*
Y20100D02*
D03*
Y18100D02*
D03*
Y17100D02*
D03*
X1950Y15100D02*
D03*
Y16100D02*
D03*
Y19100D02*
D03*
Y23100D02*
D03*
Y22100D02*
D03*
Y21100D02*
D03*
Y20100D02*
D03*
Y18100D02*
D03*
Y17100D02*
D03*
X15350Y24850D02*
D03*
X19350D02*
D03*
X18350D02*
D03*
X17350D02*
D03*
X16350D02*
D03*
X14350D02*
D03*
X13350D02*
D03*
X17850Y26100D02*
D03*
X16850D02*
D03*
X15850D02*
D03*
X21028Y3105D02*
D03*
X20028D02*
D03*
Y4105D02*
D03*
X19028Y3105D02*
D03*
Y4105D02*
D03*
X18028Y4105D02*
D03*
Y3105D02*
D03*
X17028Y4105D02*
D03*
Y3105D02*
D03*
X7600Y10650D02*
D03*
X5600D02*
D03*
X9600D02*
D03*
X11600D02*
D03*
X10600D02*
D03*
X6600D02*
D03*
X8600D02*
D03*
D65*
X20350Y24850D02*
D03*
X18850Y26100D02*
D03*
X21028Y4105D02*
D03*
X12600Y10650D02*
D03*
D66*
X1700Y1600D02*
D03*
X20750D02*
D03*
X20800Y26550D02*
D03*
X1550D02*
D03*
D69*
X6211Y24500D02*
D03*
X6467D02*
D03*
X6722D02*
D03*
X6978D02*
D03*
X7234D02*
D03*
X7490D02*
D03*
X7746D02*
D03*
X8002D02*
D03*
X8258D02*
D03*
X8514D02*
D03*
X8770D02*
D03*
X9026D02*
D03*
X9281D02*
D03*
X9537D02*
D03*
X6211Y21783D02*
D03*
X6467D02*
D03*
X6722D02*
D03*
X6978D02*
D03*
X7234D02*
D03*
X7490D02*
D03*
X7746D02*
D03*
X8002D02*
D03*
X8258D02*
D03*
X8514D02*
D03*
X9537D02*
D03*
X9281D02*
D03*
X9026D02*
D03*
X8770D02*
D03*
D70*
X13458Y13742D02*
D03*
X12942Y14258D02*
D03*
X14192Y15508D02*
D03*
X14708Y14992D02*
D03*
X10865Y18456D02*
D03*
X10350Y18971D02*
D03*
X9665Y17114D02*
D03*
X9150Y17629D02*
D03*
D71*
X14342Y17642D02*
D03*
X14858Y18158D02*
D03*
X13142Y18692D02*
D03*
X13658Y19208D02*
D03*
X9358Y15558D02*
D03*
X8842Y15042D02*
D03*
X10994Y13965D02*
D03*
X10479Y13450D02*
D03*
M02*
