G04*
G04 #@! TF.GenerationSoftware,Altium Limited,Altium Designer,20.1.10 (176)*
G04*
G04 Layer_Physical_Order=2*
G04 Layer_Color=16711680*
%FSLAX24Y24*%
%MOIN*%
G70*
G04*
G04 #@! TF.SameCoordinates,9D01BC41-1964-44B2-BAAF-85125F902256*
G04*
G04*
G04 #@! TF.FilePolarity,Positive*
G04*
G01*
G75*
%ADD10C,0.0098*%
%ADD11C,0.0059*%
%ADD12C,0.0100*%
%ADD15C,0.0079*%
%ADD53C,0.0197*%
%ADD54C,0.0120*%
%ADD56C,0.0295*%
%ADD57C,0.0118*%
%ADD60C,0.0591*%
%ADD61O,0.0472X0.0748*%
%ADD62C,0.0394*%
%ADD63R,0.0728X0.0728*%
%ADD64C,0.0728*%
%ADD65R,0.0728X0.0728*%
%ADD66C,0.1457*%
%ADD67C,0.0236*%
%ADD68C,0.0500*%
%ADD69O,0.0138X0.0827*%
G04:AMPARAMS|DCode=70|XSize=55.1mil|YSize=41.3mil|CornerRadius=0mil|HoleSize=0mil|Usage=FLASHONLY|Rotation=225.000|XOffset=0mil|YOffset=0mil|HoleType=Round|Shape=Rectangle|*
%AMROTATEDRECTD70*
4,1,4,0.0049,0.0341,0.0341,0.0049,-0.0049,-0.0341,-0.0341,-0.0049,0.0049,0.0341,0.0*
%
%ADD70ROTATEDRECTD70*%

G04:AMPARAMS|DCode=71|XSize=55.1mil|YSize=41.3mil|CornerRadius=0mil|HoleSize=0mil|Usage=FLASHONLY|Rotation=315.000|XOffset=0mil|YOffset=0mil|HoleType=Round|Shape=Rectangle|*
%AMROTATEDRECTD71*
4,1,4,-0.0341,0.0049,-0.0049,0.0341,0.0341,-0.0049,0.0049,-0.0341,-0.0341,0.0049,0.0*
%
%ADD71ROTATEDRECTD71*%

%ADD72C,0.0080*%
G36*
X22145Y26799D02*
X22199Y1150D01*
X21300Y150D01*
X1000D01*
X-50Y1200D01*
Y26400D01*
X0Y26450D01*
X1400Y27850D01*
Y28000D01*
X5302D01*
X5319Y27950D01*
X5276Y27917D01*
X5222Y27847D01*
X5189Y27765D01*
X5177Y27677D01*
Y27589D01*
X5516D01*
X5855D01*
Y27677D01*
X5844Y27765D01*
X5810Y27847D01*
X5756Y27917D01*
X5713Y27950D01*
X5730Y28000D01*
X8058D01*
X8075Y27950D01*
X8032Y27917D01*
X7978Y27847D01*
X7944Y27765D01*
X7933Y27677D01*
Y27589D01*
X8272D01*
X8611D01*
Y27677D01*
X8600Y27765D01*
X8566Y27847D01*
X8512Y27917D01*
X8469Y27950D01*
X8486Y28000D01*
X20800D01*
X22145Y26799D01*
D02*
G37*
%LPC*%
G36*
X13286Y27522D02*
X13209Y27507D01*
X13144Y27463D01*
X13101Y27398D01*
X13086Y27321D01*
X13101Y27244D01*
X13144Y27179D01*
X13209Y27136D01*
X13286Y27121D01*
X13363Y27136D01*
X13428Y27179D01*
X13472Y27244D01*
X13487Y27321D01*
X13472Y27398D01*
X13428Y27463D01*
X13363Y27507D01*
X13286Y27522D01*
D02*
G37*
G36*
X8611Y27489D02*
X8322D01*
Y27069D01*
X8360Y27074D01*
X8442Y27108D01*
X8512Y27162D01*
X8566Y27232D01*
X8600Y27314D01*
X8611Y27402D01*
Y27489D01*
D02*
G37*
G36*
X5855D02*
X5566D01*
Y27069D01*
X5604Y27074D01*
X5686Y27108D01*
X5756Y27162D01*
X5810Y27232D01*
X5844Y27314D01*
X5855Y27402D01*
Y27489D01*
D02*
G37*
G36*
X8222D02*
X7933D01*
Y27402D01*
X7944Y27314D01*
X7978Y27232D01*
X8032Y27162D01*
X8102Y27108D01*
X8184Y27074D01*
X8222Y27069D01*
Y27489D01*
D02*
G37*
G36*
X5466D02*
X5177D01*
Y27402D01*
X5189Y27314D01*
X5222Y27232D01*
X5276Y27162D01*
X5347Y27108D01*
X5428Y27074D01*
X5466Y27069D01*
Y27489D01*
D02*
G37*
G36*
X5960Y26868D02*
Y26526D01*
X6302D01*
X6295Y26580D01*
X6255Y26676D01*
X6192Y26758D01*
X6109Y26822D01*
X6013Y26861D01*
X5960Y26868D01*
D02*
G37*
G36*
X7928D02*
Y26526D01*
X8270D01*
X8263Y26580D01*
X8224Y26676D01*
X8160Y26758D01*
X8078Y26822D01*
X7982Y26861D01*
X7928Y26868D01*
D02*
G37*
G36*
X7828D02*
X7775Y26861D01*
X7679Y26822D01*
X7596Y26758D01*
X7533Y26676D01*
X7493Y26580D01*
X7486Y26526D01*
X7828D01*
Y26868D01*
D02*
G37*
G36*
X5860D02*
X5807Y26861D01*
X5710Y26822D01*
X5628Y26758D01*
X5565Y26676D01*
X5525Y26580D01*
X5518Y26526D01*
X5860D01*
Y26868D01*
D02*
G37*
G36*
X11105Y27007D02*
X11028Y26992D01*
X10963Y26948D01*
X10920Y26883D01*
X10904Y26806D01*
X10912Y26769D01*
X10445Y26302D01*
X9133D01*
X9114Y26348D01*
X9164Y26398D01*
X9202Y26391D01*
X9278Y26406D01*
X9344Y26450D01*
X9387Y26515D01*
X9402Y26592D01*
X9387Y26669D01*
X9344Y26734D01*
X9278Y26777D01*
X9202Y26792D01*
X9125Y26777D01*
X9060Y26734D01*
X9016Y26669D01*
X9001Y26592D01*
X9008Y26555D01*
X8714Y26260D01*
X8600D01*
X8558Y26252D01*
X8522Y26228D01*
X8454Y26160D01*
X8194D01*
X8172Y26210D01*
X8224Y26277D01*
X8263Y26373D01*
X8270Y26426D01*
X7878D01*
X7486D01*
X7493Y26373D01*
X7533Y26277D01*
X7584Y26210D01*
X7563Y26160D01*
X7150D01*
X7108Y26152D01*
X7072Y26128D01*
X6822Y25878D01*
X6798Y25842D01*
X6790Y25800D01*
Y25550D01*
X6798Y25508D01*
X6822Y25472D01*
X7122Y25172D01*
X7158Y25148D01*
X7200Y25140D01*
X7854D01*
X7892Y25102D01*
Y25011D01*
X7842Y24984D01*
X7812Y25004D01*
X7796Y25007D01*
Y24500D01*
Y23993D01*
X7812Y23996D01*
X7868Y24034D01*
X7925Y24029D01*
X7944Y24016D01*
X8002Y24005D01*
X8060Y24016D01*
X8108Y24049D01*
X8151D01*
X8200Y24016D01*
X8258Y24005D01*
X8315Y24016D01*
X8352Y24041D01*
X8386Y24046D01*
X8419Y24041D01*
X8456Y24016D01*
X8514Y24005D01*
X8571Y24016D01*
X8591Y24029D01*
X8648Y24034D01*
X8704Y23996D01*
X8720Y23993D01*
Y24500D01*
Y25007D01*
X8704Y25004D01*
X8648Y24966D01*
X8591Y24971D01*
X8571Y24984D01*
X8514Y24995D01*
X8456Y24984D01*
X8419Y24959D01*
X8418Y24958D01*
X8380Y24971D01*
X8368Y24980D01*
Y25292D01*
X8360Y25334D01*
X8336Y25370D01*
X8228Y25478D01*
X8192Y25502D01*
X8150Y25510D01*
X7296D01*
X7210Y25596D01*
Y25754D01*
X7246Y25790D01*
X8550D01*
X8592Y25798D01*
X8628Y25822D01*
X8696Y25890D01*
X8805D01*
X8847Y25898D01*
X8883Y25922D01*
X9042Y26081D01*
X10490D01*
X10533Y26090D01*
X10568Y26114D01*
X11068Y26613D01*
X11105Y26606D01*
X11182Y26621D01*
X11247Y26665D01*
X11291Y26730D01*
X11306Y26806D01*
X11291Y26883D01*
X11247Y26948D01*
X11182Y26992D01*
X11105Y27007D01*
D02*
G37*
G36*
X19314Y26564D02*
X18900D01*
Y26150D01*
X19314D01*
Y26564D01*
D02*
G37*
G36*
X18800D02*
X18386D01*
Y26150D01*
X18800D01*
Y26564D01*
D02*
G37*
G36*
X6302Y26426D02*
X5960D01*
Y26084D01*
X6013Y26091D01*
X6109Y26131D01*
X6192Y26194D01*
X6255Y26277D01*
X6295Y26373D01*
X6302Y26426D01*
D02*
G37*
G36*
X5860D02*
X5518D01*
X5525Y26373D01*
X5565Y26277D01*
X5628Y26194D01*
X5710Y26131D01*
X5807Y26091D01*
X5860Y26084D01*
Y26426D01*
D02*
G37*
G36*
X20800Y27361D02*
X20642Y27345D01*
X20490Y27299D01*
X20349Y27224D01*
X20227Y27123D01*
X20126Y27001D01*
X20051Y26860D01*
X20005Y26708D01*
X19989Y26550D01*
X20005Y26392D01*
X20051Y26240D01*
X20126Y26099D01*
X20227Y25977D01*
X20349Y25876D01*
X20490Y25801D01*
X20642Y25755D01*
X20800Y25739D01*
X20958Y25755D01*
X21110Y25801D01*
X21251Y25876D01*
X21373Y25977D01*
X21474Y26099D01*
X21549Y26240D01*
X21595Y26392D01*
X21611Y26550D01*
X21595Y26708D01*
X21549Y26860D01*
X21474Y27001D01*
X21373Y27123D01*
X21251Y27224D01*
X21110Y27299D01*
X20958Y27345D01*
X20800Y27361D01*
D02*
G37*
G36*
X1550D02*
X1392Y27345D01*
X1240Y27299D01*
X1099Y27224D01*
X977Y27123D01*
X876Y27001D01*
X801Y26860D01*
X755Y26708D01*
X739Y26550D01*
X755Y26392D01*
X801Y26240D01*
X876Y26099D01*
X977Y25977D01*
X1099Y25876D01*
X1240Y25801D01*
X1392Y25755D01*
X1550Y25739D01*
X1708Y25755D01*
X1860Y25801D01*
X2001Y25876D01*
X2123Y25977D01*
X2224Y26099D01*
X2299Y26240D01*
X2345Y26392D01*
X2361Y26550D01*
X2345Y26708D01*
X2299Y26860D01*
X2224Y27001D01*
X2123Y27123D01*
X2001Y27224D01*
X1860Y27299D01*
X1708Y27345D01*
X1550Y27361D01*
D02*
G37*
G36*
X17850Y26547D02*
X17734Y26532D01*
X17627Y26487D01*
X17534Y26416D01*
X17463Y26323D01*
X17418Y26216D01*
X17403Y26100D01*
X17418Y25984D01*
X17463Y25877D01*
X17534Y25784D01*
X17627Y25713D01*
X17734Y25668D01*
X17850Y25653D01*
X17966Y25668D01*
X18073Y25713D01*
X18166Y25784D01*
X18237Y25877D01*
X18282Y25984D01*
X18297Y26100D01*
X18282Y26216D01*
X18237Y26323D01*
X18166Y26416D01*
X18073Y26487D01*
X17966Y26532D01*
X17850Y26547D01*
D02*
G37*
G36*
X16850D02*
X16734Y26532D01*
X16627Y26487D01*
X16534Y26416D01*
X16463Y26323D01*
X16418Y26216D01*
X16403Y26100D01*
X16418Y25984D01*
X16463Y25877D01*
X16534Y25784D01*
X16627Y25713D01*
X16734Y25668D01*
X16850Y25653D01*
X16966Y25668D01*
X17073Y25713D01*
X17166Y25784D01*
X17237Y25877D01*
X17282Y25984D01*
X17297Y26100D01*
X17282Y26216D01*
X17237Y26323D01*
X17166Y26416D01*
X17073Y26487D01*
X16966Y26532D01*
X16850Y26547D01*
D02*
G37*
G36*
X15850D02*
X15734Y26532D01*
X15627Y26487D01*
X15534Y26416D01*
X15463Y26323D01*
X15418Y26216D01*
X15403Y26100D01*
X15418Y25984D01*
X15463Y25877D01*
X15534Y25784D01*
X15627Y25713D01*
X15734Y25668D01*
X15850Y25653D01*
X15966Y25668D01*
X16073Y25713D01*
X16166Y25784D01*
X16237Y25877D01*
X16282Y25984D01*
X16297Y26100D01*
X16282Y26216D01*
X16237Y26323D01*
X16166Y26416D01*
X16073Y26487D01*
X15966Y26532D01*
X15850Y26547D01*
D02*
G37*
G36*
X19314Y26050D02*
X18900D01*
Y25636D01*
X19314D01*
Y26050D01*
D02*
G37*
G36*
X18800D02*
X18386D01*
Y25636D01*
X18800D01*
Y26050D01*
D02*
G37*
G36*
X7696Y25007D02*
X7680Y25004D01*
X7624Y24966D01*
X7567Y24971D01*
X7548Y24984D01*
X7490Y24995D01*
X7433Y24984D01*
X7396Y24959D01*
X7362Y24954D01*
X7329Y24959D01*
X7292Y24984D01*
X7234Y24995D01*
X7177Y24984D01*
X7157Y24971D01*
X7100Y24966D01*
X7044Y25004D01*
X7028Y25007D01*
Y24500D01*
Y23993D01*
X7044Y23996D01*
X7100Y24034D01*
X7157Y24029D01*
X7177Y24016D01*
X7234Y24005D01*
X7262Y24011D01*
X7269Y24007D01*
X7301Y23967D01*
X7289Y23910D01*
X7305Y23833D01*
X7348Y23768D01*
X7413Y23724D01*
X7490Y23709D01*
X7567Y23724D01*
X7632Y23768D01*
X7676Y23833D01*
X7691Y23910D01*
X7684Y23945D01*
X7696Y23957D01*
Y24500D01*
Y25007D01*
D02*
G37*
G36*
X17400Y25312D02*
Y24900D01*
X17812D01*
X17802Y24971D01*
X17755Y25084D01*
X17681Y25181D01*
X17584Y25255D01*
X17471Y25302D01*
X17400Y25312D01*
D02*
G37*
G36*
X17300D02*
X17229Y25302D01*
X17116Y25255D01*
X17019Y25181D01*
X16945Y25084D01*
X16898Y24971D01*
X16888Y24900D01*
X17300D01*
Y25312D01*
D02*
G37*
G36*
X20793Y25293D02*
X19907D01*
Y24407D01*
X20793D01*
Y25293D01*
D02*
G37*
G36*
X19350Y25297D02*
X19234Y25282D01*
X19127Y25237D01*
X19034Y25166D01*
X18963Y25073D01*
X18918Y24966D01*
X18903Y24850D01*
X18918Y24734D01*
X18963Y24627D01*
X19034Y24534D01*
X19127Y24463D01*
X19234Y24418D01*
X19350Y24403D01*
X19466Y24418D01*
X19573Y24463D01*
X19666Y24534D01*
X19737Y24627D01*
X19782Y24734D01*
X19797Y24850D01*
X19782Y24966D01*
X19737Y25073D01*
X19666Y25166D01*
X19573Y25237D01*
X19466Y25282D01*
X19350Y25297D01*
D02*
G37*
G36*
X18350D02*
X18234Y25282D01*
X18127Y25237D01*
X18034Y25166D01*
X17963Y25073D01*
X17918Y24966D01*
X17903Y24850D01*
X17918Y24734D01*
X17963Y24627D01*
X18034Y24534D01*
X18127Y24463D01*
X18234Y24418D01*
X18350Y24403D01*
X18466Y24418D01*
X18573Y24463D01*
X18666Y24534D01*
X18737Y24627D01*
X18782Y24734D01*
X18797Y24850D01*
X18782Y24966D01*
X18737Y25073D01*
X18666Y25166D01*
X18573Y25237D01*
X18466Y25282D01*
X18350Y25297D01*
D02*
G37*
G36*
X16350D02*
X16234Y25282D01*
X16127Y25237D01*
X16034Y25166D01*
X15963Y25073D01*
X15918Y24966D01*
X15903Y24850D01*
X15918Y24734D01*
X15963Y24627D01*
X16034Y24534D01*
X16127Y24463D01*
X16234Y24418D01*
X16350Y24403D01*
X16466Y24418D01*
X16573Y24463D01*
X16666Y24534D01*
X16737Y24627D01*
X16782Y24734D01*
X16797Y24850D01*
X16782Y24966D01*
X16737Y25073D01*
X16666Y25166D01*
X16573Y25237D01*
X16466Y25282D01*
X16350Y25297D01*
D02*
G37*
G36*
X15350D02*
X15234Y25282D01*
X15127Y25237D01*
X15034Y25166D01*
X14963Y25073D01*
X14918Y24966D01*
X14903Y24850D01*
X14918Y24734D01*
X14963Y24627D01*
X15034Y24534D01*
X15127Y24463D01*
X15234Y24418D01*
X15350Y24403D01*
X15466Y24418D01*
X15573Y24463D01*
X15666Y24534D01*
X15737Y24627D01*
X15782Y24734D01*
X15797Y24850D01*
X15782Y24966D01*
X15737Y25073D01*
X15666Y25166D01*
X15573Y25237D01*
X15466Y25282D01*
X15350Y25297D01*
D02*
G37*
G36*
X14350D02*
X14234Y25282D01*
X14127Y25237D01*
X14034Y25166D01*
X13963Y25073D01*
X13918Y24966D01*
X13903Y24850D01*
X13918Y24734D01*
X13963Y24627D01*
X14034Y24534D01*
X14127Y24463D01*
X14234Y24418D01*
X14350Y24403D01*
X14466Y24418D01*
X14573Y24463D01*
X14666Y24534D01*
X14737Y24627D01*
X14782Y24734D01*
X14797Y24850D01*
X14782Y24966D01*
X14737Y25073D01*
X14666Y25166D01*
X14573Y25237D01*
X14466Y25282D01*
X14350Y25297D01*
D02*
G37*
G36*
X17812Y24800D02*
X17400D01*
Y24388D01*
X17471Y24398D01*
X17584Y24445D01*
X17681Y24519D01*
X17755Y24616D01*
X17802Y24729D01*
X17812Y24800D01*
D02*
G37*
G36*
X17300D02*
X16888D01*
X16898Y24729D01*
X16945Y24616D01*
X17019Y24519D01*
X17116Y24445D01*
X17229Y24398D01*
X17300Y24388D01*
Y24800D01*
D02*
G37*
G36*
X8820Y25007D02*
Y24500D01*
Y23993D01*
X8836Y23996D01*
X8891Y24034D01*
X8949Y24029D01*
X8968Y24016D01*
X9026Y24005D01*
X9083Y24016D01*
X9132Y24049D01*
X9175D01*
X9224Y24016D01*
X9281Y24005D01*
X9339Y24016D01*
X9376Y24041D01*
X9409Y24046D01*
X9443Y24041D01*
X9480Y24016D01*
X9537Y24005D01*
X9595Y24016D01*
X9644Y24049D01*
X9676Y24098D01*
X9688Y24156D01*
Y24844D01*
X9676Y24902D01*
X9644Y24951D01*
X9595Y24984D01*
X9537Y24995D01*
X9480Y24984D01*
X9443Y24959D01*
X9409Y24954D01*
X9376Y24959D01*
X9339Y24984D01*
X9281Y24995D01*
X9224Y24984D01*
X9175Y24951D01*
X9132D01*
X9083Y24984D01*
X9026Y24995D01*
X8968Y24984D01*
X8949Y24971D01*
X8891Y24966D01*
X8836Y25004D01*
X8820Y25007D01*
D02*
G37*
G36*
X5900Y25501D02*
X5823Y25485D01*
X5758Y25442D01*
X5715Y25377D01*
X5699Y25300D01*
X5715Y25223D01*
X5758Y25158D01*
X5823Y25115D01*
X5900Y25099D01*
X5945Y25108D01*
X5995Y25058D01*
X6037Y25029D01*
X6080Y25021D01*
Y24915D01*
X6072Y24902D01*
X6060Y24844D01*
Y24156D01*
X6072Y24098D01*
X6104Y24049D01*
X6153Y24016D01*
X6211Y24005D01*
X6268Y24016D01*
X6305Y24041D01*
X6339Y24046D01*
X6372Y24041D01*
X6409Y24016D01*
X6467Y24005D01*
X6524Y24016D01*
X6573Y24049D01*
X6616D01*
X6665Y24016D01*
X6722Y24005D01*
X6780Y24016D01*
X6799Y24029D01*
X6857Y24034D01*
X6912Y23996D01*
X6928Y23993D01*
Y24500D01*
Y25007D01*
X6912Y25004D01*
X6857Y24966D01*
X6799Y24971D01*
X6780Y24984D01*
X6722Y24995D01*
X6675Y24986D01*
X6656Y25033D01*
X6710Y25069D01*
X6754Y25134D01*
X6769Y25211D01*
X6754Y25288D01*
X6710Y25353D01*
X6645Y25397D01*
X6568Y25412D01*
X6492Y25397D01*
X6427Y25353D01*
X6383Y25288D01*
X6368Y25211D01*
X6352Y25196D01*
X6303Y25182D01*
X6242Y25242D01*
X6200Y25271D01*
X6150Y25280D01*
X6141D01*
X6095Y25326D01*
X6085Y25377D01*
X6042Y25442D01*
X5977Y25485D01*
X5900Y25501D01*
D02*
G37*
G36*
X13350Y25297D02*
X13234Y25282D01*
X13127Y25237D01*
X13034Y25166D01*
X12963Y25073D01*
X12918Y24966D01*
X12903Y24850D01*
X12918Y24734D01*
X12963Y24627D01*
X13034Y24534D01*
X13119Y24469D01*
Y23450D01*
X13129Y23400D01*
X13157Y23357D01*
X13710Y22805D01*
X13707Y22792D01*
X13723Y22715D01*
X13766Y22650D01*
X13831Y22606D01*
X13899Y22593D01*
X13923Y22547D01*
X13215Y21839D01*
X13199Y21851D01*
X13119Y21884D01*
X13034Y21895D01*
X12948Y21884D01*
X12868Y21851D01*
X12799Y21798D01*
X12746Y21729D01*
X12724Y21675D01*
X12723Y21674D01*
X12648Y21624D01*
X12284Y21261D01*
X12234Y21186D01*
X12216Y21097D01*
Y20853D01*
X12219Y20839D01*
Y20350D01*
X12237Y20262D01*
X12287Y20187D01*
X13211Y19262D01*
X13205Y19256D01*
X13706Y18755D01*
X13772Y18821D01*
X14249Y18344D01*
X14454Y18138D01*
X14510Y18101D01*
X14906Y17705D01*
X14945Y17744D01*
X15069Y17619D01*
Y15888D01*
X15019Y15873D01*
X15018Y15874D01*
X14953Y15918D01*
X14876Y15933D01*
X14799Y15918D01*
X14734Y15874D01*
X14691Y15809D01*
X14675Y15732D01*
X14691Y15656D01*
X14734Y15590D01*
X14799Y15547D01*
X14866Y15534D01*
X14881Y15503D01*
X14885Y15483D01*
X14802Y15399D01*
X14756Y15445D01*
X14255Y14944D01*
X14294Y14905D01*
X13545Y14156D01*
X13506Y14195D01*
X13005Y13694D01*
X13037Y13662D01*
X12855Y13481D01*
X11112D01*
X11091Y13531D01*
X11225Y13664D01*
X10994Y13894D01*
X10813Y13713D01*
X10995Y13531D01*
X10974Y13481D01*
X10896D01*
X10839Y13519D01*
X10808Y13525D01*
X10431Y13902D01*
X10370Y13842D01*
X10056Y14156D01*
X9499Y14712D01*
X9256Y14955D01*
X9295Y14994D01*
X8794Y15495D01*
X8755Y15456D01*
X8531Y15681D01*
Y16684D01*
X9063Y17216D01*
X9101Y17177D01*
X9602Y17678D01*
X9493Y17787D01*
X10263Y18557D01*
X10301Y18518D01*
X10802Y19019D01*
X10581Y19241D01*
Y19618D01*
X10600Y19637D01*
X10650Y19712D01*
X10667Y19800D01*
X10650Y19888D01*
X10600Y19963D01*
X10581Y19976D01*
Y20054D01*
X11363Y20837D01*
X11413Y20912D01*
X11431Y21000D01*
X11431Y21000D01*
Y21013D01*
X11434Y21016D01*
X11487Y21084D01*
X11520Y21164D01*
X11532Y21250D01*
X11520Y21336D01*
X11487Y21416D01*
X11434Y21484D01*
X11366Y21537D01*
X11286Y21570D01*
X11200Y21582D01*
X11114Y21570D01*
X11034Y21537D01*
X10966Y21484D01*
X10913Y21416D01*
X10880Y21336D01*
X10868Y21250D01*
X10880Y21164D01*
X10913Y21084D01*
X10932Y21059D01*
X10390Y20516D01*
X9778Y21128D01*
X9719Y21167D01*
X9650Y21181D01*
X9025D01*
X8974Y21231D01*
X8971Y21248D01*
X9004Y21289D01*
X9010Y21292D01*
X9026Y21288D01*
X9083Y21300D01*
X9132Y21333D01*
X9175D01*
X9224Y21300D01*
X9281Y21288D01*
X9339Y21300D01*
X9376Y21325D01*
X9409Y21329D01*
X9443Y21325D01*
X9480Y21300D01*
X9537Y21288D01*
X9595Y21300D01*
X9644Y21333D01*
X9676Y21381D01*
X9688Y21439D01*
Y22128D01*
X9676Y22186D01*
X9658Y22213D01*
Y22954D01*
X9658Y22954D01*
X9649Y23000D01*
X9623Y23039D01*
X9623Y23039D01*
X9576Y23085D01*
X9537Y23111D01*
X9491Y23120D01*
X9491Y23120D01*
X5843D01*
Y23553D01*
X5021D01*
Y23786D01*
X5067Y23795D01*
X5078Y23802D01*
X5084Y23794D01*
X5177Y23723D01*
X5284Y23679D01*
X5400Y23663D01*
X5516Y23679D01*
X5623Y23723D01*
X5716Y23794D01*
X5787Y23887D01*
X5832Y23995D01*
X5847Y24110D01*
X5832Y24226D01*
X5787Y24334D01*
X5716Y24426D01*
X5623Y24497D01*
X5516Y24542D01*
X5400Y24557D01*
X5284Y24542D01*
X5177Y24497D01*
X5084Y24426D01*
X5013Y24334D01*
X4968Y24226D01*
X4953Y24110D01*
X4958Y24075D01*
X4957Y24028D01*
X4910Y24018D01*
X4893Y24007D01*
X4843Y24033D01*
Y24543D01*
X3957D01*
Y23657D01*
X4779D01*
Y23412D01*
X4732Y23395D01*
X4716Y23416D01*
X4623Y23487D01*
X4516Y23532D01*
X4400Y23547D01*
X4284Y23532D01*
X4177Y23487D01*
X4084Y23416D01*
X4013Y23323D01*
X3968Y23216D01*
X3953Y23100D01*
X3968Y22984D01*
X4013Y22877D01*
X4084Y22784D01*
X4177Y22713D01*
X4284Y22668D01*
X4400Y22653D01*
X4516Y22668D01*
X4623Y22713D01*
X4716Y22784D01*
X4732Y22805D01*
X4779Y22789D01*
Y22700D01*
X4779Y22700D01*
X4788Y22654D01*
X4814Y22614D01*
X4906Y22523D01*
X4906Y22523D01*
X4906Y22523D01*
X4916Y22509D01*
X4924Y22500D01*
X4970Y22469D01*
X5024Y22459D01*
X8372D01*
Y22289D01*
X8322Y22262D01*
X8315Y22267D01*
X8258Y22278D01*
X8200Y22267D01*
X8181Y22254D01*
X8124Y22250D01*
X8068Y22287D01*
X8052Y22290D01*
Y21783D01*
Y21277D01*
X8068Y21280D01*
X8124Y21317D01*
X8181Y21313D01*
X8200Y21300D01*
X8258Y21288D01*
X8315Y21300D01*
X8352Y21325D01*
X8386Y21329D01*
X8419Y21325D01*
X8456Y21300D01*
X8514Y21288D01*
X8571Y21300D01*
X8596Y21316D01*
X8602Y21313D01*
X8633Y21269D01*
X8619Y21200D01*
Y21150D01*
X8633Y21081D01*
X8672Y21022D01*
X8822Y20872D01*
X8881Y20833D01*
X8950Y20819D01*
X9575D01*
X10145Y20250D01*
X10137Y20238D01*
X10119Y20150D01*
Y19800D01*
X10128Y19757D01*
X10119Y19713D01*
Y19152D01*
X10121Y19145D01*
X9898Y18922D01*
X9936Y18883D01*
X9036Y17983D01*
X8985Y17908D01*
X8976Y17859D01*
X8818Y17701D01*
X8606Y17913D01*
X8531Y17963D01*
X8443Y17981D01*
X8354Y17963D01*
X8280Y17913D01*
X8230Y17838D01*
X8212Y17750D01*
X8230Y17661D01*
X8280Y17587D01*
X8530Y17336D01*
X8137Y16942D01*
X8087Y16868D01*
X8069Y16779D01*
Y15585D01*
X8087Y15497D01*
X8137Y15422D01*
X8429Y15130D01*
X8390Y15091D01*
X8891Y14590D01*
X8930Y14629D01*
X9041Y14517D01*
X8787Y14263D01*
X8737Y14188D01*
X8719Y14100D01*
X8737Y14012D01*
X8787Y13937D01*
X8862Y13887D01*
X8950Y13869D01*
X9038Y13887D01*
X9113Y13937D01*
X9367Y14191D01*
X9541Y14017D01*
X9237Y13713D01*
X9187Y13638D01*
X9169Y13550D01*
X9187Y13462D01*
X9237Y13387D01*
X9312Y13337D01*
X9400Y13319D01*
X9488Y13337D01*
X9563Y13387D01*
X9867Y13691D01*
X10043Y13515D01*
X10027Y13499D01*
X10528Y12998D01*
X10611Y13080D01*
X10637Y13075D01*
X10661D01*
X10718Y13037D01*
X10806Y13019D01*
X12951D01*
X13039Y13037D01*
X13114Y13087D01*
X13301Y13273D01*
X13347Y13227D01*
Y13173D01*
X13337Y13163D01*
X13287Y13088D01*
X13269Y13000D01*
Y12500D01*
Y8213D01*
X12602Y7545D01*
X12597Y7546D01*
X12511Y7534D01*
X12431Y7501D01*
X12362Y7449D01*
X12310Y7380D01*
X12277Y7300D01*
X12265Y7214D01*
X12277Y7128D01*
X12310Y7048D01*
X12362Y6980D01*
X12431Y6927D01*
X12511Y6894D01*
X12597Y6883D01*
X12683Y6894D01*
X12763Y6927D01*
X12831Y6980D01*
X12884Y7048D01*
X12917Y7128D01*
X12929Y7214D01*
X12928Y7219D01*
X13663Y7954D01*
X13713Y8029D01*
X13731Y8117D01*
Y12500D01*
Y12904D01*
X13741Y12914D01*
X13791Y12989D01*
X13809Y13078D01*
Y13322D01*
X13791Y13411D01*
X13741Y13486D01*
X13688Y13538D01*
Y13562D01*
X13687Y13568D01*
X13910Y13791D01*
X13871Y13830D01*
X14620Y14579D01*
X14659Y14540D01*
X15160Y15041D01*
X15128Y15073D01*
X15200Y15144D01*
X15263Y15187D01*
X15463Y15387D01*
X15513Y15462D01*
X15531Y15550D01*
Y17715D01*
X15513Y17803D01*
X15463Y17878D01*
X15314Y18027D01*
X15316Y18047D01*
X15366Y18122D01*
X15384Y18210D01*
X15366Y18298D01*
X15316Y18373D01*
X15241Y18423D01*
X15153Y18441D01*
X15091D01*
X15003Y18423D01*
X14998Y18420D01*
X14825Y18593D01*
X14899Y18668D01*
X14990D01*
X15078Y18685D01*
X15153Y18735D01*
X15203Y18810D01*
X15221Y18898D01*
X15203Y18987D01*
X15153Y19062D01*
X15078Y19112D01*
X14990Y19129D01*
X14804D01*
X14715Y19112D01*
X14641Y19062D01*
X14412Y18833D01*
X14098Y19147D01*
X14110Y19159D01*
X13609Y19660D01*
X13538Y19589D01*
X12681Y20446D01*
Y20850D01*
X12678Y20864D01*
Y21002D01*
X12914Y21238D01*
X12945Y21244D01*
X12948Y21243D01*
X13034Y21232D01*
X13119Y21243D01*
X13199Y21276D01*
X13268Y21329D01*
X13321Y21398D01*
X13353Y21475D01*
X13381Y21494D01*
X15406Y23519D01*
X16316D01*
X16323Y23515D01*
X16400Y23499D01*
X16477Y23515D01*
X16542Y23558D01*
X16585Y23623D01*
X16601Y23700D01*
X16585Y23777D01*
X16542Y23842D01*
X16477Y23885D01*
X16400Y23901D01*
X16323Y23885D01*
X16316Y23881D01*
X15332D01*
X15262Y23867D01*
X15204Y23828D01*
X14153Y22777D01*
X14107Y22801D01*
X14094Y22869D01*
X14050Y22934D01*
X13985Y22977D01*
X13908Y22993D01*
X13896Y22990D01*
X13381Y23504D01*
Y24407D01*
X13466Y24418D01*
X13573Y24463D01*
X13666Y24534D01*
X13737Y24627D01*
X13782Y24734D01*
X13797Y24850D01*
X13782Y24966D01*
X13737Y25073D01*
X13666Y25166D01*
X13573Y25237D01*
X13466Y25282D01*
X13350Y25297D01*
D02*
G37*
G36*
X2393Y24543D02*
X1507D01*
Y23657D01*
X2393D01*
Y24543D01*
D02*
G37*
G36*
X7952Y22290D02*
X7936Y22287D01*
X7880Y22250D01*
X7823Y22254D01*
X7804Y22267D01*
X7746Y22278D01*
X7688Y22267D01*
X7640Y22234D01*
X7597D01*
X7548Y22267D01*
X7490Y22278D01*
X7433Y22267D01*
X7396Y22242D01*
X7362Y22237D01*
X7329Y22242D01*
X7292Y22267D01*
X7234Y22278D01*
X7177Y22267D01*
X7128Y22234D01*
X7085D01*
X7036Y22267D01*
X6978Y22278D01*
X6921Y22267D01*
X6884Y22242D01*
X6850Y22237D01*
X6817Y22242D01*
X6780Y22267D01*
X6722Y22278D01*
X6665Y22267D01*
X6616Y22234D01*
X6573D01*
X6524Y22267D01*
X6467Y22278D01*
X6409Y22267D01*
X6372Y22242D01*
X6339Y22237D01*
X6305Y22242D01*
X6268Y22267D01*
X6211Y22278D01*
X6153Y22267D01*
X6104Y22234D01*
X6072Y22186D01*
X6060Y22128D01*
Y21439D01*
X6072Y21381D01*
X6104Y21333D01*
X6153Y21300D01*
X6211Y21288D01*
X6268Y21300D01*
X6317Y21333D01*
X6360D01*
X6409Y21300D01*
X6467Y21288D01*
X6524Y21300D01*
X6573Y21333D01*
X6616D01*
X6665Y21300D01*
X6722Y21288D01*
X6780Y21300D01*
X6817Y21325D01*
X6850Y21329D01*
X6884Y21325D01*
X6921Y21300D01*
X6978Y21288D01*
X7036Y21300D01*
X7085Y21333D01*
X7128D01*
X7177Y21300D01*
X7234Y21288D01*
X7292Y21300D01*
X7329Y21325D01*
X7362Y21329D01*
X7396Y21325D01*
X7433Y21300D01*
X7490Y21288D01*
X7548Y21300D01*
X7597Y21333D01*
X7640D01*
X7688Y21300D01*
X7746Y21288D01*
X7804Y21300D01*
X7823Y21313D01*
X7880Y21317D01*
X7936Y21280D01*
X7952Y21277D01*
Y21783D01*
Y22290D01*
D02*
G37*
G36*
X4400Y22547D02*
X4284Y22532D01*
X4177Y22487D01*
X4084Y22416D01*
X4013Y22323D01*
X3968Y22216D01*
X3953Y22100D01*
X3968Y21984D01*
X4013Y21877D01*
X4084Y21784D01*
X4177Y21713D01*
X4284Y21668D01*
X4400Y21653D01*
X4516Y21668D01*
X4623Y21713D01*
X4716Y21784D01*
X4787Y21877D01*
X4832Y21984D01*
X4847Y22100D01*
X4832Y22216D01*
X4787Y22323D01*
X4716Y22416D01*
X4623Y22487D01*
X4516Y22532D01*
X4400Y22547D01*
D02*
G37*
G36*
X1950D02*
X1834Y22532D01*
X1727Y22487D01*
X1634Y22416D01*
X1563Y22323D01*
X1518Y22216D01*
X1503Y22100D01*
X1518Y21984D01*
X1563Y21877D01*
X1634Y21784D01*
X1727Y21713D01*
X1834Y21668D01*
X1950Y21653D01*
X2066Y21668D01*
X2173Y21713D01*
X2266Y21784D01*
X2337Y21877D01*
X2382Y21984D01*
X2397Y22100D01*
X2382Y22216D01*
X2337Y22323D01*
X2266Y22416D01*
X2173Y22487D01*
X2066Y22532D01*
X1950Y22547D01*
D02*
G37*
G36*
X19050Y20997D02*
X18934Y20982D01*
X18827Y20937D01*
X18734Y20866D01*
X18663Y20773D01*
X18618Y20666D01*
X18603Y20550D01*
X18618Y20434D01*
X18663Y20327D01*
X18734Y20234D01*
X18827Y20163D01*
X18934Y20118D01*
X19050Y20103D01*
X19166Y20118D01*
X19273Y20163D01*
X19366Y20234D01*
X19437Y20327D01*
X19482Y20434D01*
X19497Y20550D01*
X19482Y20666D01*
X19437Y20773D01*
X19366Y20866D01*
X19273Y20937D01*
X19166Y20982D01*
X19050Y20997D01*
D02*
G37*
G36*
X16250Y20601D02*
X16173Y20585D01*
X16108Y20542D01*
X16065Y20477D01*
X16049Y20400D01*
X16065Y20323D01*
X16108Y20258D01*
X16173Y20215D01*
X16250Y20199D01*
X16327Y20215D01*
X16392Y20258D01*
X16413Y20290D01*
X16504D01*
X16707Y20087D01*
X16699Y20050D01*
X16715Y19973D01*
X16758Y19908D01*
X16823Y19865D01*
X16900Y19849D01*
X16977Y19865D01*
X17042Y19908D01*
X17085Y19973D01*
X17101Y20050D01*
X17085Y20127D01*
X17042Y20192D01*
X16977Y20235D01*
X16900Y20251D01*
X16863Y20243D01*
X16628Y20478D01*
X16592Y20502D01*
X16550Y20510D01*
X16413D01*
X16392Y20542D01*
X16327Y20585D01*
X16250Y20601D01*
D02*
G37*
G36*
X1950Y23547D02*
X1834Y23532D01*
X1727Y23487D01*
X1634Y23416D01*
X1563Y23323D01*
X1518Y23216D01*
X1503Y23100D01*
X1518Y22984D01*
X1563Y22877D01*
X1634Y22784D01*
X1727Y22713D01*
X1834Y22668D01*
X1950Y22653D01*
X2066Y22668D01*
X2173Y22713D01*
X2266Y22784D01*
X2285Y22809D01*
X2351Y22813D01*
X2719Y22446D01*
Y21953D01*
X2729Y21903D01*
X2757Y21860D01*
X4115Y20502D01*
X4123Y20490D01*
X4124Y20447D01*
X4084Y20416D01*
X4013Y20323D01*
X3968Y20216D01*
X3953Y20100D01*
X3968Y19984D01*
X4013Y19877D01*
X4084Y19784D01*
X4101Y19772D01*
X4084Y19724D01*
X3911D01*
X2681Y20954D01*
Y21000D01*
X2671Y21050D01*
X2643Y21093D01*
X2543Y21193D01*
X2500Y21221D01*
X2450Y21231D01*
X2375D01*
X2337Y21323D01*
X2266Y21416D01*
X2173Y21487D01*
X2066Y21532D01*
X1950Y21547D01*
X1834Y21532D01*
X1727Y21487D01*
X1634Y21416D01*
X1563Y21323D01*
X1518Y21216D01*
X1503Y21100D01*
X1518Y20984D01*
X1563Y20877D01*
X1634Y20784D01*
X1727Y20713D01*
X1834Y20668D01*
X1950Y20653D01*
X2066Y20668D01*
X2173Y20713D01*
X2266Y20784D01*
X2337Y20877D01*
X2347Y20901D01*
X2407Y20916D01*
X2411Y20912D01*
X2420Y20895D01*
X2429Y20850D01*
X2457Y20807D01*
X3764Y19500D01*
X3807Y19472D01*
X3857Y19462D01*
X4069D01*
X4074Y19445D01*
X4081Y19412D01*
X4013Y19323D01*
X3968Y19216D01*
X3953Y19100D01*
X3960Y19046D01*
X3913Y19023D01*
X2743Y20193D01*
X2700Y20221D01*
X2650Y20231D01*
X2375D01*
X2337Y20323D01*
X2266Y20416D01*
X2173Y20487D01*
X2066Y20532D01*
X1950Y20547D01*
X1834Y20532D01*
X1727Y20487D01*
X1634Y20416D01*
X1563Y20323D01*
X1518Y20216D01*
X1503Y20100D01*
X1518Y19984D01*
X1563Y19877D01*
X1634Y19784D01*
X1727Y19713D01*
X1834Y19668D01*
X1950Y19653D01*
X2066Y19668D01*
X2173Y19713D01*
X2266Y19784D01*
X2337Y19877D01*
X2375Y19969D01*
X2596D01*
X4050Y18514D01*
X4093Y18486D01*
X4093Y18486D01*
X4105Y18432D01*
X4084Y18416D01*
X4013Y18323D01*
X3968Y18216D01*
X3953Y18100D01*
X3968Y17984D01*
X4013Y17877D01*
X4084Y17784D01*
X4177Y17713D01*
X4284Y17668D01*
X4400Y17653D01*
X4516Y17668D01*
X4623Y17713D01*
X4716Y17784D01*
X4787Y17877D01*
X4825Y17970D01*
X5020D01*
X5039Y17923D01*
X4609Y17493D01*
X4516Y17532D01*
X4400Y17547D01*
X4284Y17532D01*
X4177Y17487D01*
X4084Y17416D01*
X4013Y17323D01*
X3968Y17216D01*
X3953Y17100D01*
X3968Y16984D01*
X4013Y16877D01*
X4084Y16784D01*
X4122Y16755D01*
X4119Y16694D01*
X4104Y16684D01*
X3650Y16230D01*
X2375D01*
X2337Y16323D01*
X2266Y16416D01*
X2173Y16487D01*
X2066Y16532D01*
X1950Y16547D01*
X1834Y16532D01*
X1727Y16487D01*
X1634Y16416D01*
X1563Y16323D01*
X1518Y16216D01*
X1503Y16100D01*
X1518Y15984D01*
X1563Y15877D01*
X1634Y15784D01*
X1727Y15713D01*
X1834Y15668D01*
X1950Y15653D01*
X2066Y15668D01*
X2173Y15713D01*
X2266Y15784D01*
X2337Y15877D01*
X2375Y15970D01*
X3704D01*
X3754Y15979D01*
X3796Y16008D01*
X3910Y16121D01*
X3926Y16113D01*
X3954Y16095D01*
X3968Y15984D01*
X4013Y15877D01*
X4084Y15784D01*
X4177Y15713D01*
X4284Y15668D01*
X4400Y15653D01*
X4516Y15668D01*
X4623Y15713D01*
X4716Y15784D01*
X4787Y15877D01*
X4790Y15885D01*
X4839Y15895D01*
X4976Y15758D01*
X5019Y15730D01*
X5068Y15720D01*
X5420D01*
X5439Y15674D01*
X4996Y15230D01*
X4825D01*
X4787Y15323D01*
X4716Y15416D01*
X4623Y15487D01*
X4516Y15532D01*
X4400Y15547D01*
X4284Y15532D01*
X4177Y15487D01*
X4084Y15416D01*
X4013Y15323D01*
X3968Y15216D01*
X3953Y15100D01*
X3968Y14984D01*
X4013Y14877D01*
X4084Y14784D01*
X4177Y14713D01*
X4284Y14668D01*
X4400Y14653D01*
X4516Y14668D01*
X4623Y14713D01*
X4716Y14784D01*
X4787Y14877D01*
X4825Y14970D01*
X5050D01*
X5100Y14979D01*
X5142Y15008D01*
X9004Y18870D01*
X9400D01*
X9408Y18858D01*
X9473Y18815D01*
X9550Y18799D01*
X9627Y18815D01*
X9692Y18858D01*
X9735Y18923D01*
X9751Y19000D01*
X9735Y19077D01*
X9692Y19142D01*
X9627Y19185D01*
X9620Y19187D01*
X9601Y19233D01*
X9608Y19243D01*
X9623Y19320D01*
X9608Y19397D01*
X9564Y19462D01*
X9499Y19506D01*
X9422Y19521D01*
X9345Y19506D01*
X9280Y19462D01*
X9237Y19397D01*
X9221Y19320D01*
X9211Y19308D01*
X8827D01*
X8777Y19298D01*
X8735Y19269D01*
X5591Y16126D01*
X5568Y16134D01*
X5546Y16152D01*
X5557Y16228D01*
X5545Y16314D01*
X5512Y16394D01*
X5459Y16463D01*
X5391Y16516D01*
X5311Y16549D01*
X5225Y16560D01*
X5180Y16554D01*
X5050Y16684D01*
X5008Y16713D01*
X4958Y16723D01*
X4713D01*
X4697Y16770D01*
X4716Y16784D01*
X4787Y16877D01*
X4832Y16984D01*
X4847Y17100D01*
X4832Y17216D01*
X4793Y17309D01*
X5354Y17870D01*
X7100D01*
X7150Y17879D01*
X7192Y17908D01*
X8887Y19602D01*
X9029D01*
X9045Y19578D01*
X9110Y19535D01*
X9187Y19519D01*
X9264Y19535D01*
X9329Y19578D01*
X9373Y19643D01*
X9388Y19720D01*
X9373Y19797D01*
X9329Y19862D01*
X9264Y19905D01*
X9244Y19909D01*
X9205Y19968D01*
X9211Y19997D01*
X9195Y20073D01*
X9152Y20138D01*
X9087Y20182D01*
X9010Y20197D01*
X8933Y20182D01*
X8868Y20138D01*
X8860Y20127D01*
X8846D01*
X8796Y20117D01*
X8754Y20089D01*
X6973Y18308D01*
X5227D01*
X5177Y18298D01*
X5134Y18269D01*
X5095Y18230D01*
X4825D01*
X4787Y18323D01*
X4716Y18416D01*
X4680Y18444D01*
X4682Y18505D01*
X4697Y18514D01*
X4826Y18643D01*
X4830Y18642D01*
X5077D01*
X5085Y18632D01*
X5150Y18588D01*
X5227Y18573D01*
X5303Y18588D01*
X5368Y18632D01*
X5412Y18697D01*
X5427Y18773D01*
X5412Y18850D01*
X5368Y18915D01*
X5303Y18959D01*
X5227Y18974D01*
X5150Y18959D01*
X5085Y18915D01*
X5077Y18905D01*
X4880D01*
X4850Y18924D01*
X4849Y18925D01*
X4825Y18969D01*
X4832Y18984D01*
X4847Y19100D01*
X4832Y19216D01*
X4787Y19323D01*
X4719Y19412D01*
X4726Y19445D01*
X4731Y19462D01*
X5203D01*
X5591Y19073D01*
X5583Y19034D01*
X5599Y18957D01*
X5642Y18892D01*
X5707Y18849D01*
X5784Y18833D01*
X5861Y18849D01*
X5926Y18892D01*
X5969Y18957D01*
X5985Y19034D01*
X5969Y19111D01*
X5945Y19147D01*
X5934Y19164D01*
X5970Y19200D01*
X5987Y19189D01*
X6023Y19165D01*
X6100Y19149D01*
X6177Y19165D01*
X6242Y19208D01*
X6285Y19273D01*
X6301Y19350D01*
X6285Y19427D01*
X6242Y19492D01*
X6177Y19535D01*
X6100Y19551D01*
X6087Y19548D01*
X5964Y19671D01*
Y20903D01*
X5975Y20910D01*
X6018Y20975D01*
X6034Y21052D01*
X6018Y21128D01*
X5975Y21194D01*
X5910Y21237D01*
X5833Y21252D01*
X5756Y21237D01*
X5691Y21194D01*
X5648Y21128D01*
X5632Y21052D01*
X5648Y20975D01*
X5683Y20921D01*
X5643Y20893D01*
X5348Y21187D01*
X5351Y21200D01*
X5335Y21277D01*
X5292Y21342D01*
X5227Y21385D01*
X5150Y21401D01*
X5073Y21385D01*
X5008Y21342D01*
X4965Y21277D01*
X4949Y21200D01*
X4965Y21123D01*
X5008Y21058D01*
X5073Y21015D01*
X5150Y20999D01*
X5163Y21002D01*
X5419Y20746D01*
Y20054D01*
X5296Y19931D01*
X4855D01*
X4827Y19973D01*
X4832Y19984D01*
X4847Y20100D01*
X4832Y20216D01*
X4799Y20295D01*
X4841Y20323D01*
X4952Y20213D01*
X4949Y20200D01*
X4965Y20123D01*
X5008Y20058D01*
X5073Y20015D01*
X5150Y19999D01*
X5227Y20015D01*
X5292Y20058D01*
X5335Y20123D01*
X5351Y20200D01*
X5335Y20277D01*
X5292Y20342D01*
X5227Y20385D01*
X5150Y20401D01*
X5137Y20398D01*
X4850Y20686D01*
X4807Y20714D01*
X4757Y20724D01*
X4716D01*
X4699Y20772D01*
X4716Y20784D01*
X4787Y20877D01*
X4832Y20984D01*
X4847Y21100D01*
X4832Y21216D01*
X4787Y21323D01*
X4716Y21416D01*
X4623Y21487D01*
X4516Y21532D01*
X4400Y21547D01*
X4284Y21532D01*
X4177Y21487D01*
X4084Y21416D01*
X4013Y21323D01*
X3968Y21216D01*
X3954Y21105D01*
X3926Y21087D01*
X3910Y21079D01*
X2981Y22007D01*
Y22500D01*
X2971Y22550D01*
X2943Y22593D01*
X2463Y23073D01*
X2420Y23101D01*
X2396Y23106D01*
X2382Y23216D01*
X2337Y23323D01*
X2266Y23416D01*
X2173Y23487D01*
X2066Y23532D01*
X1950Y23547D01*
D02*
G37*
G36*
X19050Y19997D02*
X18934Y19982D01*
X18827Y19937D01*
X18734Y19866D01*
X18663Y19773D01*
X18618Y19666D01*
X18603Y19550D01*
X18618Y19434D01*
X18663Y19327D01*
X18734Y19234D01*
X18827Y19163D01*
X18934Y19118D01*
X19050Y19103D01*
X19166Y19118D01*
X19273Y19163D01*
X19366Y19234D01*
X19437Y19327D01*
X19482Y19434D01*
X19497Y19550D01*
X19482Y19666D01*
X19437Y19773D01*
X19366Y19866D01*
X19273Y19937D01*
X19166Y19982D01*
X19050Y19997D01*
D02*
G37*
G36*
X18050D02*
X17934Y19982D01*
X17827Y19937D01*
X17734Y19866D01*
X17663Y19773D01*
X17618Y19666D01*
X17603Y19550D01*
X17618Y19434D01*
X17663Y19327D01*
X17734Y19234D01*
X17827Y19163D01*
X17934Y19118D01*
X18050Y19103D01*
X18166Y19118D01*
X18273Y19163D01*
X18366Y19234D01*
X18437Y19327D01*
X18482Y19434D01*
X18497Y19550D01*
X18482Y19666D01*
X18437Y19773D01*
X18366Y19866D01*
X18273Y19937D01*
X18166Y19982D01*
X18050Y19997D01*
D02*
G37*
G36*
X13094Y19175D02*
X12912Y18993D01*
X13142Y18763D01*
X13324Y18945D01*
X13094Y19175D01*
D02*
G37*
G36*
X1950Y19547D02*
X1834Y19532D01*
X1727Y19487D01*
X1634Y19416D01*
X1563Y19323D01*
X1518Y19216D01*
X1503Y19100D01*
X1518Y18984D01*
X1563Y18877D01*
X1634Y18784D01*
X1727Y18713D01*
X1834Y18668D01*
X1950Y18653D01*
X2066Y18668D01*
X2173Y18713D01*
X2266Y18784D01*
X2337Y18877D01*
X2382Y18984D01*
X2397Y19100D01*
X2382Y19216D01*
X2337Y19323D01*
X2266Y19416D01*
X2173Y19487D01*
X2066Y19532D01*
X1950Y19547D01*
D02*
G37*
G36*
X10914Y18938D02*
X10684Y18708D01*
X10865Y18526D01*
X11095Y18757D01*
X10914Y18938D01*
D02*
G37*
G36*
X12842Y18923D02*
X12660Y18741D01*
X12890Y18511D01*
X13072Y18692D01*
X12842Y18923D01*
D02*
G37*
G36*
X13395Y18874D02*
X13213Y18692D01*
X13443Y18462D01*
X13625Y18644D01*
X13395Y18874D01*
D02*
G37*
G36*
X11166Y18686D02*
X10936Y18456D01*
X11117Y18274D01*
X11347Y18504D01*
X11166Y18686D01*
D02*
G37*
G36*
X10613Y18637D02*
X10383Y18407D01*
X10564Y18225D01*
X10794Y18456D01*
X10613Y18637D01*
D02*
G37*
G36*
X13142Y18622D02*
X12961Y18440D01*
X13191Y18210D01*
X13373Y18392D01*
X13142Y18622D01*
D02*
G37*
G36*
X19050Y18997D02*
X18934Y18982D01*
X18827Y18937D01*
X18734Y18866D01*
X18663Y18773D01*
X18618Y18666D01*
X18603Y18550D01*
X18618Y18434D01*
X18663Y18327D01*
X18734Y18234D01*
X18827Y18163D01*
X18934Y18118D01*
X19050Y18103D01*
X19166Y18118D01*
X19273Y18163D01*
X19366Y18234D01*
X19437Y18327D01*
X19482Y18434D01*
X19497Y18550D01*
X19482Y18666D01*
X19437Y18773D01*
X19366Y18866D01*
X19273Y18937D01*
X19166Y18982D01*
X19050Y18997D01*
D02*
G37*
G36*
X18050D02*
X17934Y18982D01*
X17827Y18937D01*
X17734Y18866D01*
X17663Y18773D01*
X17618Y18666D01*
X17603Y18550D01*
X17618Y18434D01*
X17663Y18327D01*
X17734Y18234D01*
X17827Y18163D01*
X17934Y18118D01*
X18050Y18103D01*
X18166Y18118D01*
X18273Y18163D01*
X18366Y18234D01*
X18437Y18327D01*
X18482Y18434D01*
X18497Y18550D01*
X18482Y18666D01*
X18437Y18773D01*
X18366Y18866D01*
X18273Y18937D01*
X18166Y18982D01*
X18050Y18997D01*
D02*
G37*
G36*
X10865Y18385D02*
X10635Y18155D01*
X10816Y17973D01*
X11047Y18203D01*
X10865Y18385D01*
D02*
G37*
G36*
X14294Y18125D02*
X14112Y17943D01*
X14342Y17713D01*
X14524Y17895D01*
X14294Y18125D01*
D02*
G37*
G36*
X1950Y18547D02*
X1834Y18532D01*
X1727Y18487D01*
X1634Y18416D01*
X1563Y18323D01*
X1518Y18216D01*
X1503Y18100D01*
X1518Y17984D01*
X1563Y17877D01*
X1634Y17784D01*
X1727Y17713D01*
X1834Y17668D01*
X1950Y17653D01*
X2066Y17668D01*
X2173Y17713D01*
X2266Y17784D01*
X2337Y17877D01*
X2382Y17984D01*
X2397Y18100D01*
X2382Y18216D01*
X2337Y18323D01*
X2266Y18416D01*
X2173Y18487D01*
X2066Y18532D01*
X1950Y18547D01*
D02*
G37*
G36*
X14042Y17873D02*
X13860Y17691D01*
X14090Y17461D01*
X14272Y17642D01*
X14042Y17873D01*
D02*
G37*
G36*
X14595Y17824D02*
X14413Y17642D01*
X14643Y17412D01*
X14825Y17594D01*
X14595Y17824D01*
D02*
G37*
G36*
X9714Y17597D02*
X9484Y17366D01*
X9665Y17185D01*
X9895Y17415D01*
X9714Y17597D01*
D02*
G37*
G36*
X14342Y17572D02*
X14161Y17390D01*
X14391Y17160D01*
X14573Y17342D01*
X14342Y17572D01*
D02*
G37*
G36*
X19493Y17993D02*
X18607D01*
Y17107D01*
X19493D01*
Y17993D01*
D02*
G37*
G36*
X18050Y17997D02*
X17934Y17982D01*
X17827Y17937D01*
X17734Y17866D01*
X17663Y17773D01*
X17618Y17666D01*
X17603Y17550D01*
X17618Y17434D01*
X17663Y17327D01*
X17734Y17234D01*
X17827Y17163D01*
X17934Y17118D01*
X18050Y17103D01*
X18166Y17118D01*
X18273Y17163D01*
X18366Y17234D01*
X18437Y17327D01*
X18482Y17434D01*
X18497Y17550D01*
X18482Y17666D01*
X18437Y17773D01*
X18366Y17866D01*
X18273Y17937D01*
X18166Y17982D01*
X18050Y17997D01*
D02*
G37*
G36*
X9966Y17344D02*
X9736Y17114D01*
X9917Y16933D01*
X10147Y17163D01*
X9966Y17344D01*
D02*
G37*
G36*
X9413Y17296D02*
X9183Y17066D01*
X9364Y16884D01*
X9594Y17114D01*
X9413Y17296D01*
D02*
G37*
G36*
X1950Y17547D02*
X1834Y17532D01*
X1727Y17487D01*
X1634Y17416D01*
X1563Y17323D01*
X1518Y17216D01*
X1503Y17100D01*
X1518Y16984D01*
X1563Y16877D01*
X1634Y16784D01*
X1727Y16713D01*
X1834Y16668D01*
X1950Y16653D01*
X2066Y16668D01*
X2173Y16713D01*
X2266Y16784D01*
X2337Y16877D01*
X2382Y16984D01*
X2397Y17100D01*
X2382Y17216D01*
X2337Y17323D01*
X2266Y17416D01*
X2173Y17487D01*
X2066Y17532D01*
X1950Y17547D01*
D02*
G37*
G36*
X9665Y17044D02*
X9435Y16813D01*
X9616Y16632D01*
X9847Y16862D01*
X9665Y17044D01*
D02*
G37*
G36*
X9309Y16040D02*
X9127Y15858D01*
X9358Y15628D01*
X9539Y15810D01*
X9309Y16040D01*
D02*
G37*
G36*
X14241Y15990D02*
X14011Y15760D01*
X14192Y15578D01*
X14423Y15808D01*
X14241Y15990D01*
D02*
G37*
G36*
X9057Y15788D02*
X8875Y15606D01*
X9105Y15376D01*
X9287Y15558D01*
X9057Y15788D01*
D02*
G37*
G36*
X9610Y15739D02*
X9428Y15558D01*
X9658Y15327D01*
X9840Y15509D01*
X9610Y15739D01*
D02*
G37*
G36*
X14493Y15738D02*
X14263Y15508D01*
X14445Y15326D01*
X14675Y15556D01*
X14493Y15738D01*
D02*
G37*
G36*
X13940Y15689D02*
X13710Y15459D01*
X13892Y15277D01*
X14122Y15508D01*
X13940Y15689D01*
D02*
G37*
G36*
X9358Y15487D02*
X9176Y15305D01*
X9406Y15075D01*
X9588Y15257D01*
X9358Y15487D01*
D02*
G37*
G36*
X14192Y15437D02*
X13962Y15207D01*
X14144Y15025D01*
X14374Y15255D01*
X14192Y15437D01*
D02*
G37*
G36*
X1950Y15547D02*
X1834Y15532D01*
X1727Y15487D01*
X1634Y15416D01*
X1563Y15323D01*
X1518Y15216D01*
X1503Y15100D01*
X1518Y14984D01*
X1563Y14877D01*
X1634Y14784D01*
X1727Y14713D01*
X1834Y14668D01*
X1950Y14653D01*
X2066Y14668D01*
X2173Y14713D01*
X2266Y14784D01*
X2337Y14877D01*
X2382Y14984D01*
X2397Y15100D01*
X2382Y15216D01*
X2337Y15323D01*
X2266Y15416D01*
X2173Y15487D01*
X2066Y15532D01*
X1950Y15547D01*
D02*
G37*
G36*
X20250Y15397D02*
X20134Y15382D01*
X20027Y15337D01*
X19934Y15266D01*
X19863Y15173D01*
X19818Y15066D01*
X19803Y14950D01*
X19818Y14834D01*
X19863Y14727D01*
X19934Y14634D01*
X20027Y14563D01*
X20134Y14518D01*
X20250Y14503D01*
X20366Y14518D01*
X20473Y14563D01*
X20566Y14634D01*
X20637Y14727D01*
X20682Y14834D01*
X20697Y14950D01*
X20682Y15066D01*
X20637Y15173D01*
X20566Y15266D01*
X20473Y15337D01*
X20366Y15382D01*
X20250Y15397D01*
D02*
G37*
G36*
X17750Y15347D02*
X17634Y15332D01*
X17527Y15287D01*
X17434Y15216D01*
X17363Y15123D01*
X17346Y15081D01*
X16850D01*
X16800Y15071D01*
X16757Y15043D01*
X16254Y14540D01*
X16226Y14497D01*
X16216Y14447D01*
Y14415D01*
X16166Y14388D01*
X16100Y14401D01*
X16023Y14385D01*
X15958Y14342D01*
X15915Y14277D01*
X15899Y14200D01*
X15915Y14123D01*
X15944Y14080D01*
X15911Y14039D01*
X15850Y14051D01*
X15773Y14035D01*
X15708Y13992D01*
X15665Y13927D01*
X15649Y13851D01*
X15588Y13863D01*
X15511Y13848D01*
X15446Y13804D01*
X15402Y13739D01*
X15387Y13663D01*
X15402Y13586D01*
X15446Y13521D01*
X15469Y13505D01*
Y12750D01*
X15479Y12700D01*
X15507Y12657D01*
X16119Y12046D01*
Y11600D01*
X16129Y11550D01*
X16157Y11507D01*
X17364Y10300D01*
X17407Y10272D01*
X17421Y10269D01*
X17434Y10216D01*
X17363Y10123D01*
X17318Y10016D01*
X17303Y9900D01*
X17318Y9784D01*
X17363Y9677D01*
X17434Y9584D01*
X17527Y9513D01*
X17634Y9468D01*
X17750Y9453D01*
X17866Y9468D01*
X17973Y9513D01*
X18066Y9584D01*
X18137Y9677D01*
X18182Y9784D01*
X18196Y9895D01*
X18224Y9913D01*
X18240Y9921D01*
X19917Y8244D01*
X19863Y8173D01*
X19818Y8066D01*
X19803Y7950D01*
X19818Y7834D01*
X19863Y7727D01*
X19934Y7634D01*
X20027Y7563D01*
X20134Y7518D01*
X20250Y7503D01*
X20366Y7518D01*
X20473Y7563D01*
X20566Y7634D01*
X20637Y7727D01*
X20682Y7834D01*
X20697Y7950D01*
X20682Y8066D01*
X20637Y8173D01*
X20566Y8266D01*
X20473Y8337D01*
X20366Y8382D01*
X20250Y8397D01*
X20149Y8383D01*
X20022Y8511D01*
X20050Y8553D01*
X20134Y8518D01*
X20250Y8503D01*
X20366Y8518D01*
X20473Y8563D01*
X20566Y8634D01*
X20637Y8727D01*
X20682Y8834D01*
X20697Y8950D01*
X20682Y9066D01*
X20637Y9173D01*
X20566Y9266D01*
X20473Y9337D01*
X20366Y9382D01*
X20250Y9397D01*
X20149Y9383D01*
X20022Y9511D01*
X20050Y9553D01*
X20134Y9518D01*
X20250Y9503D01*
X20366Y9518D01*
X20473Y9563D01*
X20566Y9634D01*
X20637Y9727D01*
X20682Y9834D01*
X20697Y9950D01*
X20682Y10066D01*
X20637Y10173D01*
X20566Y10266D01*
X20473Y10337D01*
X20366Y10382D01*
X20250Y10397D01*
X20149Y10383D01*
X20022Y10511D01*
X20050Y10553D01*
X20134Y10518D01*
X20250Y10503D01*
X20366Y10518D01*
X20473Y10563D01*
X20566Y10634D01*
X20637Y10727D01*
X20682Y10834D01*
X20697Y10950D01*
X20682Y11066D01*
X20637Y11173D01*
X20566Y11266D01*
X20473Y11337D01*
X20366Y11382D01*
X20250Y11397D01*
X20149Y11383D01*
X20022Y11511D01*
X20050Y11553D01*
X20134Y11518D01*
X20250Y11503D01*
X20366Y11518D01*
X20473Y11563D01*
X20566Y11634D01*
X20637Y11727D01*
X20682Y11834D01*
X20697Y11950D01*
X20682Y12066D01*
X20637Y12173D01*
X20566Y12266D01*
X20473Y12337D01*
X20366Y12382D01*
X20250Y12397D01*
X20149Y12383D01*
X20022Y12511D01*
X20050Y12553D01*
X20134Y12518D01*
X20250Y12503D01*
X20366Y12518D01*
X20473Y12563D01*
X20566Y12634D01*
X20637Y12727D01*
X20682Y12834D01*
X20697Y12950D01*
X20682Y13066D01*
X20637Y13173D01*
X20566Y13266D01*
X20473Y13337D01*
X20366Y13382D01*
X20250Y13397D01*
X20134Y13382D01*
X20027Y13337D01*
X19934Y13266D01*
X19863Y13173D01*
X19818Y13066D01*
X19803Y12950D01*
X19818Y12834D01*
X19853Y12750D01*
X19811Y12722D01*
X18047Y14486D01*
X18032Y14495D01*
X18030Y14556D01*
X18066Y14584D01*
X18137Y14677D01*
X18182Y14784D01*
X18197Y14900D01*
X18182Y15016D01*
X18137Y15123D01*
X18066Y15216D01*
X17973Y15287D01*
X17866Y15332D01*
X17750Y15347D01*
D02*
G37*
G36*
X12991Y14740D02*
X12761Y14510D01*
X12942Y14328D01*
X13173Y14558D01*
X12991Y14740D01*
D02*
G37*
G36*
X13243Y14488D02*
X13013Y14258D01*
X13195Y14076D01*
X13425Y14306D01*
X13243Y14488D01*
D02*
G37*
G36*
X10946Y14447D02*
X10764Y14266D01*
X10994Y14036D01*
X11176Y14217D01*
X10946Y14447D01*
D02*
G37*
G36*
X12690Y14439D02*
X12460Y14209D01*
X12642Y14027D01*
X12872Y14258D01*
X12690Y14439D01*
D02*
G37*
G36*
X10693Y14195D02*
X10512Y14014D01*
X10742Y13784D01*
X10924Y13965D01*
X10693Y14195D01*
D02*
G37*
G36*
X12942Y14187D02*
X12712Y13957D01*
X12894Y13775D01*
X13124Y14005D01*
X12942Y14187D01*
D02*
G37*
G36*
X11247Y14147D02*
X11065Y13965D01*
X11295Y13735D01*
X11477Y13916D01*
X11247Y14147D01*
D02*
G37*
G36*
X20250Y14397D02*
X20134Y14382D01*
X20027Y14337D01*
X19934Y14266D01*
X19863Y14173D01*
X19818Y14066D01*
X19803Y13950D01*
X19818Y13834D01*
X19863Y13727D01*
X19934Y13634D01*
X20027Y13563D01*
X20134Y13518D01*
X20250Y13503D01*
X20366Y13518D01*
X20473Y13563D01*
X20566Y13634D01*
X20637Y13727D01*
X20682Y13834D01*
X20697Y13950D01*
X20682Y14066D01*
X20637Y14173D01*
X20566Y14266D01*
X20473Y14337D01*
X20366Y14382D01*
X20250Y14397D01*
D02*
G37*
G36*
X8700Y13851D02*
X8623Y13835D01*
X8558Y13792D01*
X8515Y13727D01*
X8499Y13650D01*
X8502Y13636D01*
X6016Y11150D01*
X5987Y11108D01*
X5977Y11058D01*
Y10963D01*
X5930Y10947D01*
X5916Y10966D01*
X5823Y11037D01*
X5716Y11082D01*
X5600Y11097D01*
X5484Y11082D01*
X5377Y11037D01*
X5284Y10966D01*
X5213Y10873D01*
X5168Y10766D01*
X5153Y10650D01*
X5168Y10534D01*
X5213Y10427D01*
X5284Y10334D01*
X5377Y10263D01*
X5484Y10218D01*
X5600Y10203D01*
X5716Y10218D01*
X5823Y10263D01*
X5916Y10334D01*
X5930Y10353D01*
X5977Y10337D01*
Y6562D01*
X4609Y5193D01*
X4516Y5232D01*
X4400Y5247D01*
X4284Y5232D01*
X4177Y5187D01*
X4084Y5116D01*
X4013Y5023D01*
X3968Y4916D01*
X3953Y4800D01*
X3968Y4684D01*
X4013Y4577D01*
X4084Y4484D01*
X4177Y4413D01*
X4284Y4368D01*
X4400Y4353D01*
X4516Y4368D01*
X4623Y4413D01*
X4716Y4484D01*
X4787Y4577D01*
X4832Y4684D01*
X4847Y4800D01*
X4832Y4916D01*
X4793Y5009D01*
X6200Y6416D01*
X6228Y6458D01*
X6238Y6508D01*
Y10319D01*
X6255Y10324D01*
X6288Y10331D01*
X6377Y10263D01*
X6484Y10218D01*
X6600Y10203D01*
X6716Y10218D01*
X6823Y10263D01*
X6916Y10334D01*
X6930Y10353D01*
X6977Y10337D01*
Y6062D01*
X4870Y3954D01*
X4811Y3966D01*
X4787Y4023D01*
X4716Y4116D01*
X4623Y4187D01*
X4516Y4232D01*
X4400Y4247D01*
X4284Y4232D01*
X4177Y4187D01*
X4084Y4116D01*
X4013Y4023D01*
X3968Y3916D01*
X3953Y3800D01*
X3968Y3684D01*
X4013Y3577D01*
X4084Y3484D01*
X4177Y3413D01*
X4284Y3368D01*
X4400Y3353D01*
X4516Y3368D01*
X4623Y3413D01*
X4716Y3484D01*
X4787Y3577D01*
X4825Y3670D01*
X4900D01*
X4950Y3679D01*
X4992Y3708D01*
X7200Y5916D01*
X7228Y5958D01*
X7238Y6008D01*
Y10319D01*
X7255Y10324D01*
X7288Y10331D01*
X7377Y10263D01*
X7484Y10218D01*
X7600Y10203D01*
X7670Y10212D01*
X7674Y10212D01*
X7719Y10168D01*
Y5804D01*
X4869Y2955D01*
X4810Y2967D01*
X4787Y3023D01*
X4716Y3116D01*
X4623Y3187D01*
X4516Y3232D01*
X4400Y3247D01*
X4284Y3232D01*
X4177Y3187D01*
X4084Y3116D01*
X4013Y3023D01*
X3968Y2916D01*
X3953Y2800D01*
X3968Y2684D01*
X4013Y2577D01*
X4084Y2484D01*
X4177Y2413D01*
X4284Y2368D01*
X4400Y2353D01*
X4516Y2368D01*
X4623Y2413D01*
X4716Y2484D01*
X4787Y2577D01*
X4825Y2669D01*
X4900D01*
X4950Y2679D01*
X4993Y2707D01*
X7943Y5657D01*
X7971Y5700D01*
X7981Y5750D01*
Y10149D01*
X8186Y10353D01*
X8195Y10368D01*
X8256Y10370D01*
X8284Y10334D01*
X8377Y10263D01*
X8484Y10218D01*
X8600Y10203D01*
X8716Y10218D01*
X8823Y10263D01*
X8916Y10334D01*
X8930Y10353D01*
X8977Y10337D01*
Y4131D01*
X6827Y1980D01*
X4805D01*
X4787Y2023D01*
X4716Y2116D01*
X4623Y2187D01*
X4516Y2232D01*
X4400Y2247D01*
X4284Y2232D01*
X4177Y2187D01*
X4084Y2116D01*
X4013Y2023D01*
X3968Y1916D01*
X3953Y1800D01*
X3968Y1684D01*
X4013Y1577D01*
X4084Y1484D01*
X4177Y1413D01*
X4284Y1368D01*
X4400Y1353D01*
X4516Y1368D01*
X4623Y1413D01*
X4716Y1484D01*
X4787Y1577D01*
X4832Y1684D01*
X4836Y1720D01*
X6881D01*
X6931Y1729D01*
X6973Y1758D01*
X9200Y3985D01*
X9228Y4027D01*
X9238Y4077D01*
Y10319D01*
X9255Y10324D01*
X9288Y10331D01*
X9377Y10263D01*
X9484Y10218D01*
X9600Y10203D01*
X9716Y10218D01*
X9823Y10263D01*
X9916Y10334D01*
X9987Y10427D01*
X10032Y10534D01*
X10047Y10650D01*
X10032Y10766D01*
X9987Y10873D01*
X9916Y10966D01*
X9823Y11037D01*
X9716Y11082D01*
X9600Y11097D01*
X9484Y11082D01*
X9380Y11038D01*
X9344Y11051D01*
X9330Y11058D01*
Y11146D01*
X9704Y11520D01*
X11000D01*
X11050Y11529D01*
X11092Y11558D01*
X11286Y11752D01*
X11300Y11749D01*
X11377Y11765D01*
X11442Y11808D01*
X11485Y11873D01*
X11501Y11950D01*
X11485Y12027D01*
X11442Y12092D01*
X11377Y12135D01*
X11300Y12151D01*
X11223Y12135D01*
X11158Y12092D01*
X11115Y12027D01*
X11099Y11950D01*
X11102Y11936D01*
X10946Y11780D01*
X9650D01*
X9600Y11771D01*
X9558Y11742D01*
X9108Y11292D01*
X9079Y11250D01*
X9070Y11200D01*
Y11000D01*
X9016Y10946D01*
X9006Y10931D01*
X8945Y10928D01*
X8916Y10966D01*
X8823Y11037D01*
X8716Y11082D01*
X8605Y11096D01*
X8587Y11124D01*
X8579Y11140D01*
X9357Y11919D01*
X10551D01*
X10558Y11908D01*
X10623Y11865D01*
X10700Y11849D01*
X10777Y11865D01*
X10842Y11908D01*
X10885Y11973D01*
X10901Y12050D01*
X10885Y12127D01*
X10842Y12192D01*
X10777Y12235D01*
X10700Y12251D01*
X10623Y12235D01*
X10558Y12192D01*
X10551Y12181D01*
X9303D01*
X9253Y12171D01*
X9210Y12143D01*
X8002Y10935D01*
X7990Y10927D01*
X7947Y10926D01*
X7916Y10966D01*
X7823Y11037D01*
X7716Y11082D01*
X7600Y11097D01*
X7484Y11082D01*
X7472Y11076D01*
X7430Y11104D01*
Y11596D01*
X8204Y12370D01*
X10083D01*
X10109Y12352D01*
X10159Y12342D01*
X10198D01*
X10224Y12304D01*
X10289Y12261D01*
X10366Y12246D01*
X10443Y12261D01*
X10508Y12304D01*
X10551Y12369D01*
X10566Y12446D01*
X10551Y12523D01*
X10508Y12588D01*
X10443Y12632D01*
X10366Y12647D01*
X10289Y12632D01*
X10246Y12603D01*
X10208D01*
X10182Y12621D01*
X10132Y12630D01*
X8150D01*
X8100Y12621D01*
X8058Y12592D01*
X7208Y11742D01*
X7179Y11700D01*
X7170Y11650D01*
Y11100D01*
X7016Y10946D01*
X7006Y10931D01*
X6945Y10928D01*
X6916Y10966D01*
X6823Y11037D01*
X6716Y11082D01*
X6600Y11097D01*
X6484Y11082D01*
X6377Y11037D01*
X6321Y10995D01*
X6262Y11012D01*
X6260Y11017D01*
X6261Y11027D01*
X8686Y13452D01*
X8700Y13449D01*
X8777Y13465D01*
X8842Y13508D01*
X8885Y13573D01*
X8901Y13650D01*
X8885Y13727D01*
X8842Y13792D01*
X8777Y13835D01*
X8700Y13851D01*
D02*
G37*
G36*
X4843Y14243D02*
X3957D01*
Y13357D01*
X4843D01*
Y14243D01*
D02*
G37*
G36*
X4400Y13247D02*
X4284Y13232D01*
X4177Y13187D01*
X4084Y13116D01*
X4013Y13023D01*
X3968Y12916D01*
X3953Y12800D01*
X3968Y12684D01*
X4013Y12577D01*
X4081Y12488D01*
X4074Y12455D01*
X4069Y12438D01*
X3807D01*
X3757Y12428D01*
X3714Y12400D01*
X3607Y12293D01*
X3579Y12250D01*
X3569Y12200D01*
Y9000D01*
X3579Y8950D01*
X3607Y8907D01*
X3807Y8707D01*
X3850Y8679D01*
X3900Y8669D01*
X3975D01*
X4013Y8577D01*
X4084Y8484D01*
X4177Y8413D01*
X4284Y8368D01*
X4400Y8353D01*
X4516Y8368D01*
X4623Y8413D01*
X4716Y8484D01*
X4755Y8536D01*
X4805Y8519D01*
Y8081D01*
X4755Y8064D01*
X4716Y8116D01*
X4623Y8187D01*
X4516Y8232D01*
X4400Y8247D01*
X4284Y8232D01*
X4177Y8187D01*
X4084Y8116D01*
X4013Y8023D01*
X3968Y7916D01*
X3953Y7800D01*
X3968Y7684D01*
X4013Y7577D01*
X4084Y7484D01*
X4177Y7413D01*
X4284Y7368D01*
X4400Y7353D01*
X4516Y7368D01*
X4623Y7413D01*
X4716Y7484D01*
X4755Y7536D01*
X4805Y7519D01*
Y7081D01*
X4755Y7064D01*
X4716Y7116D01*
X4623Y7187D01*
X4516Y7232D01*
X4400Y7247D01*
X4284Y7232D01*
X4177Y7187D01*
X4084Y7116D01*
X4013Y7023D01*
X3968Y6916D01*
X3953Y6800D01*
X3968Y6684D01*
X4013Y6577D01*
X4084Y6484D01*
X4177Y6413D01*
X4284Y6368D01*
X4400Y6353D01*
X4516Y6368D01*
X4623Y6413D01*
X4716Y6484D01*
X4787Y6577D01*
X4832Y6684D01*
X4844Y6783D01*
X4878D01*
X4928Y6793D01*
X4971Y6821D01*
X5030Y6880D01*
X5058Y6923D01*
X5068Y6973D01*
Y10982D01*
X5741Y11655D01*
X5812D01*
X5813Y11654D01*
X5878Y11610D01*
X5954Y11595D01*
X6031Y11610D01*
X6096Y11654D01*
X6140Y11719D01*
X6155Y11796D01*
X6140Y11872D01*
X6096Y11937D01*
X6031Y11981D01*
X5954Y11996D01*
X5878Y11981D01*
X5813Y11937D01*
X5799Y11918D01*
X5686D01*
X5636Y11908D01*
X5594Y11879D01*
X4844Y11130D01*
X4815Y11087D01*
X4813Y11072D01*
X4759Y11060D01*
X4716Y11116D01*
X4682Y11142D01*
X4680Y11193D01*
X4687Y11201D01*
X5337Y11852D01*
X5350Y11849D01*
X5427Y11865D01*
X5492Y11908D01*
X5535Y11973D01*
X5551Y12050D01*
X5535Y12127D01*
X5492Y12192D01*
X5488Y12194D01*
X5503Y12244D01*
X5840D01*
X5847Y12234D01*
X5912Y12190D01*
X5989Y12175D01*
X6066Y12190D01*
X6131Y12234D01*
X6174Y12299D01*
X6190Y12376D01*
X6174Y12452D01*
X6131Y12518D01*
X6066Y12561D01*
X5989Y12576D01*
X5912Y12561D01*
X5847Y12518D01*
X5840Y12507D01*
X4790D01*
X4768Y12552D01*
X4787Y12577D01*
X4832Y12684D01*
X4847Y12800D01*
X4832Y12916D01*
X4787Y13023D01*
X4716Y13116D01*
X4623Y13187D01*
X4516Y13232D01*
X4400Y13247D01*
D02*
G37*
G36*
X12884Y12019D02*
X12807Y12003D01*
X12742Y11960D01*
X12698Y11895D01*
X12685Y11829D01*
X12000Y11144D01*
X11972Y11101D01*
X11962Y11051D01*
Y10981D01*
X11945Y10976D01*
X11912Y10969D01*
X11823Y11037D01*
X11716Y11082D01*
X11600Y11097D01*
X11484Y11082D01*
X11377Y11037D01*
X11284Y10966D01*
X11213Y10873D01*
X11168Y10766D01*
X11153Y10650D01*
X11168Y10534D01*
X11213Y10427D01*
X11281Y10338D01*
X11274Y10305D01*
X11269Y10288D01*
X11158D01*
X11108Y10278D01*
X11066Y10250D01*
X10237Y9422D01*
X10231Y9421D01*
X10189Y9392D01*
X10161Y9350D01*
X10151Y9300D01*
Y2554D01*
X8527Y930D01*
X4825D01*
X4787Y1023D01*
X4716Y1116D01*
X4623Y1187D01*
X4516Y1232D01*
X4400Y1247D01*
X4284Y1232D01*
X4177Y1187D01*
X4084Y1116D01*
X4013Y1023D01*
X3968Y916D01*
X3953Y800D01*
X3968Y684D01*
X4013Y577D01*
X4084Y484D01*
X4177Y413D01*
X4284Y368D01*
X4400Y353D01*
X4516Y368D01*
X4623Y413D01*
X4716Y484D01*
X4787Y577D01*
X4825Y670D01*
X8581D01*
X8631Y679D01*
X8673Y708D01*
X10373Y2408D01*
X10402Y2450D01*
X10412Y2500D01*
Y9227D01*
X11212Y10027D01*
X11804D01*
X11854Y10037D01*
X11896Y10066D01*
X12111Y10280D01*
X12157Y10261D01*
Y10207D01*
X13043D01*
Y11093D01*
X12383D01*
X12364Y11139D01*
X12849Y11624D01*
X12884Y11617D01*
X12960Y11633D01*
X13025Y11676D01*
X13069Y11741D01*
X13084Y11818D01*
X13069Y11895D01*
X13025Y11960D01*
X12960Y12003D01*
X12884Y12019D01*
D02*
G37*
G36*
X10600Y11097D02*
X10484Y11082D01*
X10377Y11037D01*
X10284Y10966D01*
X10213Y10873D01*
X10168Y10766D01*
X10153Y10650D01*
X10168Y10534D01*
X10213Y10427D01*
X10284Y10334D01*
X10377Y10263D01*
X10484Y10218D01*
X10600Y10203D01*
X10716Y10218D01*
X10823Y10263D01*
X10916Y10334D01*
X10987Y10427D01*
X11032Y10534D01*
X11047Y10650D01*
X11032Y10766D01*
X10987Y10873D01*
X10916Y10966D01*
X10823Y11037D01*
X10716Y11082D01*
X10600Y11097D01*
D02*
G37*
G36*
X16330Y10520D02*
X16253Y10505D01*
X16188Y10461D01*
X16144Y10396D01*
X16140Y10376D01*
X16107D01*
X16057Y10366D01*
X16015Y10338D01*
X15575Y9898D01*
X15562Y9901D01*
X15485Y9885D01*
X15420Y9842D01*
X15377Y9777D01*
X15362Y9700D01*
X15377Y9623D01*
X15420Y9558D01*
X15485Y9515D01*
X15562Y9499D01*
X15639Y9515D01*
X15704Y9558D01*
X15748Y9623D01*
X15763Y9700D01*
X15760Y9713D01*
X16162Y10114D01*
X16255D01*
X16305Y10124D01*
X16330Y10119D01*
X16406Y10134D01*
X16472Y10178D01*
X16515Y10243D01*
X16530Y10319D01*
X16515Y10396D01*
X16472Y10461D01*
X16406Y10505D01*
X16330Y10520D01*
D02*
G37*
G36*
X17750Y9347D02*
X17634Y9332D01*
X17527Y9287D01*
X17434Y9216D01*
X17363Y9123D01*
X17318Y9016D01*
X17303Y8900D01*
X17318Y8784D01*
X17363Y8677D01*
X17434Y8584D01*
X17527Y8513D01*
X17634Y8468D01*
X17750Y8453D01*
X17866Y8468D01*
X17973Y8513D01*
X18066Y8584D01*
X18137Y8677D01*
X18182Y8784D01*
X18197Y8900D01*
X18182Y9016D01*
X18137Y9123D01*
X18066Y9216D01*
X17973Y9287D01*
X17866Y9332D01*
X17750Y9347D01*
D02*
G37*
G36*
Y8347D02*
X17634Y8332D01*
X17527Y8287D01*
X17434Y8216D01*
X17363Y8123D01*
X17318Y8016D01*
X17303Y7900D01*
X17318Y7784D01*
X17363Y7677D01*
X17434Y7584D01*
X17527Y7513D01*
X17634Y7468D01*
X17750Y7453D01*
X17866Y7468D01*
X17973Y7513D01*
X18066Y7584D01*
X18137Y7677D01*
X18182Y7784D01*
X18197Y7900D01*
X18182Y8016D01*
X18137Y8123D01*
X18066Y8216D01*
X17973Y8287D01*
X17866Y8332D01*
X17750Y8347D01*
D02*
G37*
G36*
X20250Y7397D02*
X20134Y7382D01*
X20027Y7337D01*
X19934Y7266D01*
X19863Y7173D01*
X19818Y7066D01*
X19803Y6950D01*
X19818Y6834D01*
X19863Y6727D01*
X19934Y6634D01*
X20027Y6563D01*
X20134Y6518D01*
X20250Y6503D01*
X20366Y6518D01*
X20473Y6563D01*
X20566Y6634D01*
X20637Y6727D01*
X20682Y6834D01*
X20697Y6950D01*
X20682Y7066D01*
X20637Y7173D01*
X20566Y7266D01*
X20473Y7337D01*
X20366Y7382D01*
X20250Y7397D01*
D02*
G37*
G36*
X17750Y7347D02*
X17634Y7332D01*
X17527Y7287D01*
X17434Y7216D01*
X17363Y7123D01*
X17318Y7016D01*
X17303Y6900D01*
X17318Y6784D01*
X17363Y6677D01*
X17434Y6584D01*
X17527Y6513D01*
X17634Y6468D01*
X17750Y6453D01*
X17866Y6468D01*
X17973Y6513D01*
X18066Y6584D01*
X18137Y6677D01*
X18182Y6784D01*
X18197Y6900D01*
X18182Y7016D01*
X18137Y7123D01*
X18066Y7216D01*
X17973Y7287D01*
X17866Y7332D01*
X17750Y7347D01*
D02*
G37*
G36*
X20693Y6393D02*
X19807D01*
Y5507D01*
X20693D01*
Y6393D01*
D02*
G37*
G36*
X18193Y6343D02*
X17307D01*
Y5457D01*
X18193D01*
Y6343D01*
D02*
G37*
G36*
X4400Y6247D02*
X4284Y6232D01*
X4177Y6187D01*
X4084Y6116D01*
X4013Y6023D01*
X3968Y5916D01*
X3953Y5800D01*
X3968Y5684D01*
X4013Y5577D01*
X4084Y5484D01*
X4177Y5413D01*
X4284Y5368D01*
X4400Y5353D01*
X4516Y5368D01*
X4623Y5413D01*
X4716Y5484D01*
X4787Y5577D01*
X4832Y5684D01*
X4847Y5800D01*
X4832Y5916D01*
X4787Y6023D01*
X4716Y6116D01*
X4623Y6187D01*
X4516Y6232D01*
X4400Y6247D01*
D02*
G37*
G36*
X14807Y20299D02*
X14730Y20283D01*
X14665Y20240D01*
X14622Y20175D01*
X14606Y20098D01*
X14622Y20021D01*
X14665Y19956D01*
X14666Y19956D01*
Y19893D01*
X14676Y19839D01*
X14707Y19793D01*
X16010Y18490D01*
Y15753D01*
X14002Y13746D01*
X13972Y13700D01*
X13961Y13646D01*
Y6861D01*
X13201Y6101D01*
X13200Y6101D01*
X13123Y6085D01*
X13058Y6042D01*
X13015Y5977D01*
X12999Y5900D01*
X13015Y5823D01*
X13058Y5758D01*
X13123Y5715D01*
X13200Y5699D01*
X13277Y5715D01*
X13342Y5758D01*
X13385Y5823D01*
X13401Y5900D01*
X13401Y5901D01*
X14114Y6614D01*
X14160Y6594D01*
Y6460D01*
X13751Y6051D01*
X13750Y6051D01*
X13673Y6035D01*
X13608Y5992D01*
X13565Y5927D01*
X13549Y5850D01*
X13565Y5773D01*
X13608Y5708D01*
X13673Y5665D01*
X13750Y5649D01*
X13827Y5665D01*
X13892Y5708D01*
X13935Y5773D01*
X13951Y5850D01*
X13951Y5851D01*
X14312Y6212D01*
X14359Y6193D01*
Y6059D01*
X13981Y5681D01*
X13933Y5672D01*
X13868Y5628D01*
X13824Y5563D01*
X13809Y5486D01*
X13824Y5410D01*
X13868Y5344D01*
X13933Y5301D01*
X14010Y5286D01*
X14087Y5301D01*
X14152Y5344D01*
X14195Y5410D01*
X14210Y5486D01*
X14206Y5506D01*
X14512Y5812D01*
X14559Y5793D01*
Y5592D01*
X14558Y5592D01*
X14515Y5527D01*
X14499Y5450D01*
X14515Y5373D01*
X14558Y5308D01*
X14623Y5265D01*
X14700Y5249D01*
X14777Y5265D01*
X14842Y5308D01*
X14885Y5373D01*
X14901Y5450D01*
X14885Y5527D01*
X14842Y5592D01*
X14841Y5592D01*
Y13341D01*
X16850Y15350D01*
X16881Y15396D01*
X16891Y15450D01*
Y19191D01*
X16881Y19245D01*
X16850Y19291D01*
X16202Y19938D01*
X16203Y19939D01*
X16187Y20016D01*
X16144Y20081D01*
X16079Y20124D01*
X16002Y20139D01*
X15925Y20124D01*
X15860Y20081D01*
X15816Y20016D01*
X15810Y19981D01*
X15756Y19970D01*
X15742Y19992D01*
X15677Y20035D01*
X15600Y20051D01*
X15523Y20035D01*
X15458Y19992D01*
X15415Y19927D01*
X15403Y19868D01*
X15353Y19847D01*
X15316Y19885D01*
X15297Y19928D01*
X15341Y19993D01*
X15356Y20070D01*
X15341Y20147D01*
X15297Y20212D01*
X15232Y20256D01*
X15155Y20271D01*
X15078Y20256D01*
X15023Y20219D01*
X14966Y20215D01*
X14949Y20240D01*
X14884Y20283D01*
X14807Y20299D01*
D02*
G37*
G36*
X19473Y22820D02*
X19473Y22820D01*
X15022D01*
X14976Y22811D01*
X14937Y22785D01*
X14937Y22785D01*
X14387Y22235D01*
X14387Y22235D01*
X14387Y22235D01*
X13017Y20865D01*
X12991Y20826D01*
X12982Y20780D01*
X12982Y20780D01*
Y20355D01*
X12982Y20355D01*
X12991Y20309D01*
X13017Y20270D01*
X13159Y20128D01*
X13159Y20128D01*
X13198Y20102D01*
X13245Y20092D01*
X13245Y20092D01*
X13440D01*
X13440Y20092D01*
X13486Y20102D01*
X13525Y20128D01*
X13664Y20266D01*
X13664Y20266D01*
X13687Y20301D01*
X13724Y20311D01*
X13740Y20314D01*
X13771Y20290D01*
X13782Y20231D01*
X13765Y20206D01*
X13749Y20129D01*
X13765Y20052D01*
X13808Y19987D01*
X13873Y19943D01*
X13950Y19928D01*
X14027Y19943D01*
X14092Y19987D01*
X14099Y19998D01*
X14139D01*
X14190Y20008D01*
X14232Y20036D01*
X14596Y20400D01*
X14624Y20442D01*
X14628Y20444D01*
X14673Y20414D01*
X14750Y20399D01*
X14827Y20414D01*
X14892Y20458D01*
X14935Y20523D01*
X14943Y20563D01*
X15090Y20710D01*
X16748D01*
X17007Y20451D01*
X17052Y20420D01*
X17106Y20410D01*
X17629D01*
X17663Y20327D01*
X17734Y20234D01*
X17827Y20163D01*
X17934Y20118D01*
X18050Y20103D01*
X18166Y20118D01*
X18273Y20163D01*
X18366Y20234D01*
X18437Y20327D01*
X18482Y20434D01*
X18497Y20550D01*
X18482Y20666D01*
X18437Y20773D01*
X18366Y20866D01*
X18349Y20878D01*
X18366Y20926D01*
X18557D01*
X18607Y20936D01*
X18650Y20964D01*
X18842Y21157D01*
X18934Y21118D01*
X19050Y21103D01*
X19166Y21118D01*
X19273Y21163D01*
X19366Y21234D01*
X19437Y21327D01*
X19482Y21434D01*
X19496Y21545D01*
X19522Y21562D01*
X19540Y21571D01*
X20830Y20282D01*
Y5550D01*
X20408Y5128D01*
X17931D01*
X17885Y5119D01*
X17846Y5093D01*
X17247Y4493D01*
X17144Y4536D01*
X17028Y4551D01*
X16913Y4536D01*
X16805Y4491D01*
X16712Y4420D01*
X16641Y4328D01*
X16597Y4220D01*
X16582Y4105D01*
X16597Y3989D01*
X16641Y3881D01*
X16712Y3789D01*
X16805Y3718D01*
X16913Y3673D01*
X17028Y3658D01*
X17144Y3673D01*
X17252Y3718D01*
X17344Y3789D01*
X17415Y3881D01*
X17460Y3989D01*
X17475Y4105D01*
X17460Y4220D01*
X17417Y4323D01*
X17981Y4887D01*
X19575D01*
X19594Y4841D01*
X19247Y4493D01*
X19144Y4536D01*
X19028Y4551D01*
X18913Y4536D01*
X18805Y4491D01*
X18712Y4420D01*
X18641Y4328D01*
X18597Y4220D01*
X18582Y4105D01*
X18597Y3989D01*
X18641Y3881D01*
X18712Y3789D01*
X18805Y3718D01*
X18913Y3673D01*
X19028Y3658D01*
X19144Y3673D01*
X19252Y3718D01*
X19344Y3789D01*
X19415Y3881D01*
X19460Y3989D01*
X19475Y4105D01*
X19460Y4220D01*
X19417Y4323D01*
X19824Y4730D01*
X20550D01*
X20550Y4730D01*
X20596Y4739D01*
X20635Y4765D01*
X21193Y5322D01*
X21193Y5322D01*
X21219Y5361D01*
X21228Y5407D01*
X21228Y5407D01*
Y20397D01*
X21228Y20397D01*
X21219Y20443D01*
X21193Y20482D01*
X21193Y20482D01*
X19540Y22135D01*
X19501Y22161D01*
X19499Y22162D01*
X19473Y22183D01*
X19341Y22254D01*
X19199Y22297D01*
X19050Y22312D01*
X18901Y22297D01*
X18759Y22254D01*
X18627Y22183D01*
X18611Y22170D01*
X18489D01*
X18473Y22183D01*
X18341Y22254D01*
X18199Y22297D01*
X18050Y22312D01*
X17901Y22297D01*
X17759Y22254D01*
X17627Y22183D01*
X17611Y22170D01*
X15129D01*
X15129Y22170D01*
X15083Y22161D01*
X15044Y22135D01*
X14620Y21711D01*
X14581D01*
X14581Y21711D01*
X14535Y21702D01*
X14496Y21676D01*
X14051Y21231D01*
X14035Y21207D01*
X14013Y21199D01*
X13994Y21208D01*
X13983Y21268D01*
X15095Y22380D01*
X19400D01*
X21344Y20436D01*
Y4591D01*
X21301Y4547D01*
X20585D01*
Y3888D01*
X20539Y3869D01*
X20448Y3960D01*
X20460Y3989D01*
X20475Y4105D01*
X20460Y4220D01*
X20415Y4328D01*
X20344Y4420D01*
X20252Y4491D01*
X20144Y4536D01*
X20028Y4551D01*
X19913Y4536D01*
X19805Y4491D01*
X19712Y4420D01*
X19641Y4328D01*
X19597Y4220D01*
X19582Y4105D01*
X19597Y3989D01*
X19641Y3881D01*
X19712Y3789D01*
X19805Y3718D01*
X19913Y3673D01*
X20028Y3658D01*
X20144Y3673D01*
X20252Y3718D01*
X20307Y3760D01*
X20530Y3537D01*
X20569Y3511D01*
X20615Y3502D01*
X20706D01*
X20722Y3454D01*
X20697Y3436D01*
X20623Y3339D01*
X20576Y3226D01*
X20567Y3155D01*
X21028D01*
X21490D01*
X21481Y3226D01*
X21434Y3339D01*
X21359Y3436D01*
X21335Y3454D01*
X21351Y3502D01*
X21441D01*
X21441Y3502D01*
X21488Y3511D01*
X21527Y3537D01*
X21707Y3718D01*
X21707Y3718D01*
X21733Y3757D01*
X21742Y3803D01*
Y20551D01*
X21733Y20597D01*
X21707Y20636D01*
X21707Y20636D01*
X19558Y22785D01*
X19519Y22811D01*
X19473Y22820D01*
D02*
G37*
G36*
X18028Y4551D02*
X17913Y4536D01*
X17805Y4491D01*
X17712Y4420D01*
X17641Y4328D01*
X17597Y4220D01*
X17582Y4105D01*
X17597Y3989D01*
X17641Y3881D01*
X17712Y3789D01*
X17805Y3718D01*
X17913Y3673D01*
X18028Y3658D01*
X18144Y3673D01*
X18252Y3718D01*
X18344Y3789D01*
X18415Y3881D01*
X18460Y3989D01*
X18475Y4105D01*
X18460Y4220D01*
X18415Y4328D01*
X18344Y4420D01*
X18252Y4491D01*
X18144Y4536D01*
X18028Y4551D01*
D02*
G37*
G36*
X17078Y3566D02*
Y3155D01*
X17490D01*
X17481Y3226D01*
X17434Y3339D01*
X17359Y3436D01*
X17262Y3510D01*
X17149Y3557D01*
X17078Y3566D01*
D02*
G37*
G36*
X16978Y3566D02*
X16907Y3557D01*
X16794Y3510D01*
X16697Y3436D01*
X16623Y3339D01*
X16576Y3226D01*
X16567Y3155D01*
X16978D01*
Y3566D01*
D02*
G37*
G36*
X19028Y3551D02*
X18913Y3536D01*
X18805Y3491D01*
X18712Y3420D01*
X18641Y3328D01*
X18597Y3220D01*
X18582Y3105D01*
X18597Y2989D01*
X18641Y2881D01*
X18712Y2789D01*
X18805Y2718D01*
X18913Y2673D01*
X19028Y2658D01*
X19144Y2673D01*
X19252Y2718D01*
X19344Y2789D01*
X19415Y2881D01*
X19460Y2989D01*
X19475Y3105D01*
X19460Y3220D01*
X19415Y3328D01*
X19344Y3420D01*
X19252Y3491D01*
X19144Y3536D01*
X19028Y3551D01*
D02*
G37*
G36*
X20028Y3551D02*
X19913Y3536D01*
X19805Y3491D01*
X19712Y3420D01*
X19641Y3328D01*
X19597Y3220D01*
X19582Y3105D01*
X19597Y2989D01*
X19641Y2881D01*
X19712Y2789D01*
X19805Y2718D01*
X19913Y2673D01*
X20028Y2658D01*
X20144Y2673D01*
X20252Y2718D01*
X20344Y2789D01*
X20415Y2881D01*
X20460Y2989D01*
X20475Y3105D01*
X20460Y3220D01*
X20415Y3328D01*
X20344Y3420D01*
X20252Y3491D01*
X20144Y3536D01*
X20028Y3551D01*
D02*
G37*
G36*
X18028D02*
X17913Y3536D01*
X17805Y3491D01*
X17712Y3420D01*
X17641Y3328D01*
X17597Y3220D01*
X17582Y3105D01*
X17597Y2989D01*
X17641Y2881D01*
X17712Y2789D01*
X17805Y2718D01*
X17913Y2673D01*
X18028Y2658D01*
X18144Y2673D01*
X18252Y2718D01*
X18344Y2789D01*
X18415Y2881D01*
X18460Y2989D01*
X18475Y3105D01*
X18460Y3220D01*
X18415Y3328D01*
X18344Y3420D01*
X18252Y3491D01*
X18144Y3536D01*
X18028Y3551D01*
D02*
G37*
G36*
X21490Y3055D02*
X21078D01*
Y2643D01*
X21149Y2652D01*
X21262Y2699D01*
X21359Y2773D01*
X21434Y2870D01*
X21481Y2983D01*
X21490Y3055D01*
D02*
G37*
G36*
X17490D02*
X17078D01*
Y2643D01*
X17149Y2652D01*
X17262Y2699D01*
X17359Y2773D01*
X17434Y2870D01*
X17481Y2983D01*
X17490Y3055D01*
D02*
G37*
G36*
X20978D02*
X20567D01*
X20576Y2983D01*
X20623Y2870D01*
X20697Y2773D01*
X20794Y2699D01*
X20907Y2652D01*
X20978Y2643D01*
Y3055D01*
D02*
G37*
G36*
X16978D02*
X16567D01*
X16576Y2983D01*
X16623Y2870D01*
X16697Y2773D01*
X16794Y2699D01*
X16907Y2652D01*
X16978Y2643D01*
Y3055D01*
D02*
G37*
G36*
X20800Y2427D02*
Y1650D01*
X21577D01*
X21566Y1762D01*
X21519Y1919D01*
X21442Y2062D01*
X21339Y2189D01*
X21212Y2292D01*
X21069Y2369D01*
X20912Y2416D01*
X20800Y2427D01*
D02*
G37*
G36*
X20700D02*
X20588Y2416D01*
X20431Y2369D01*
X20288Y2292D01*
X20161Y2189D01*
X20058Y2062D01*
X19981Y1919D01*
X19934Y1762D01*
X19923Y1650D01*
X20700D01*
Y2427D01*
D02*
G37*
G36*
X1700Y2411D02*
X1542Y2395D01*
X1390Y2349D01*
X1249Y2274D01*
X1127Y2173D01*
X1026Y2051D01*
X951Y1910D01*
X905Y1758D01*
X889Y1600D01*
X905Y1442D01*
X951Y1290D01*
X1026Y1149D01*
X1127Y1027D01*
X1249Y926D01*
X1390Y851D01*
X1542Y805D01*
X1700Y789D01*
X1858Y805D01*
X2010Y851D01*
X2151Y926D01*
X2273Y1027D01*
X2374Y1149D01*
X2449Y1290D01*
X2495Y1442D01*
X2511Y1600D01*
X2495Y1758D01*
X2449Y1910D01*
X2374Y2051D01*
X2273Y2173D01*
X2151Y2274D01*
X2010Y2349D01*
X1858Y2395D01*
X1700Y2411D01*
D02*
G37*
G36*
X21577Y1550D02*
X20800D01*
Y773D01*
X20912Y784D01*
X21069Y831D01*
X21212Y908D01*
X21339Y1011D01*
X21442Y1138D01*
X21519Y1281D01*
X21566Y1438D01*
X21577Y1550D01*
D02*
G37*
G36*
X20700D02*
X19923D01*
X19934Y1438D01*
X19981Y1281D01*
X20058Y1138D01*
X20161Y1011D01*
X20288Y908D01*
X20431Y831D01*
X20588Y784D01*
X20700Y773D01*
Y1550D01*
D02*
G37*
%LPD*%
G36*
X9417Y22274D02*
X9367Y22248D01*
X9339Y22267D01*
X9281Y22278D01*
X9224Y22267D01*
X9175Y22234D01*
X9132D01*
X9083Y22267D01*
X9026Y22278D01*
X8968Y22267D01*
X8919Y22234D01*
X8876D01*
X8827Y22267D01*
X8770Y22278D01*
X8712Y22267D01*
X8705Y22262D01*
X8655Y22289D01*
Y22536D01*
X8644Y22590D01*
X8614Y22636D01*
X8550Y22700D01*
X8504Y22731D01*
X8450Y22741D01*
X5843D01*
Y22880D01*
X9417D01*
Y22274D01*
D02*
G37*
D10*
X4400Y4800D02*
X6108Y6508D01*
X4400Y3800D02*
X4900D01*
X7108Y6008D02*
Y10854D01*
X4900Y3800D02*
X7108Y6008D01*
X6881Y1850D02*
X9108Y4077D01*
X4400Y1800D02*
X4450Y1850D01*
X6881D01*
X6108Y11058D02*
X8700Y13650D01*
X6108Y6508D02*
Y11058D01*
X6467Y24500D02*
Y25084D01*
X6211Y24500D02*
Y25089D01*
X6150Y25150D02*
X6211Y25089D01*
X6087Y25150D02*
X6150D01*
X5900Y25300D02*
X5937D01*
X6087Y25150D01*
X12092Y11051D02*
X12859Y11818D01*
X12884D01*
X8827Y19177D02*
X9279D01*
X5068Y15850D02*
X5500D01*
X8827Y19177D01*
X5050Y15100D02*
X8950Y19000D01*
X9279Y19177D02*
X9422Y19320D01*
X8950Y19000D02*
X9550D01*
X4400Y15100D02*
X5050D01*
X10300Y9300D02*
X11158Y10158D01*
X11804D01*
X12092Y10446D01*
Y11051D01*
X10281Y9300D02*
X10300D01*
X9200Y11200D02*
X9650Y11650D01*
X11000D02*
X11300Y11950D01*
X9650Y11650D02*
X11000D01*
X9200Y10946D02*
Y11200D01*
X10339Y12473D02*
X10366Y12446D01*
X10132Y12500D02*
X10159Y12473D01*
X10339D01*
X7300Y11650D02*
X8150Y12500D01*
X10132D01*
X9174Y19733D02*
X9187Y19720D01*
X8833Y19733D02*
X9174D01*
X8846Y19997D02*
X9010D01*
X7027Y18177D02*
X8846Y19997D01*
X7100Y18000D02*
X8833Y19733D01*
X5300Y18000D02*
X7100D01*
X5227Y18177D02*
X7027D01*
X4400Y18100D02*
X5149D01*
X4400Y17100D02*
X5300Y18000D01*
X5149Y18100D02*
X5227Y18177D01*
X4400Y16100D02*
X4435Y16065D01*
X4854D01*
X5068Y15850D01*
X10281Y2500D02*
Y9300D01*
X4400Y800D02*
X8581D01*
X10281Y2500D01*
X9108Y4077D02*
Y10854D01*
X9200Y10946D01*
X7108Y10854D02*
X7300Y11046D01*
Y11650D01*
X5225Y16228D02*
Y16325D01*
X4958Y16592D02*
X5225Y16325D01*
X1950Y16100D02*
X3704D01*
X4196Y16592D01*
X4958D01*
D11*
X6900Y25550D02*
X7200Y25250D01*
X7900D01*
X6900Y25550D02*
Y25800D01*
X7150Y26050D01*
X8500D02*
X8600Y26150D01*
X7150Y26050D02*
X8500D01*
X8550Y25900D02*
X8650Y26000D01*
X7100Y25800D02*
X7200Y25900D01*
X8550D01*
X8805Y26000D02*
X8996Y26192D01*
X8650Y26000D02*
X8805D01*
X7100Y25550D02*
X7250Y25400D01*
X7100Y25550D02*
Y25800D01*
X8002Y24500D02*
Y25148D01*
X7900Y25250D02*
X8002Y25148D01*
X8600Y26150D02*
X8760D01*
X9202Y26592D01*
X7250Y25400D02*
X8150D01*
X8258Y25292D01*
Y24500D02*
Y25292D01*
X8996Y26192D02*
X10490D01*
X11105Y26806D01*
X16250Y20400D02*
X16550D01*
X16900Y20050D01*
D12*
X4937Y6973D02*
Y11037D01*
X4878Y6914D02*
X4937Y6973D01*
Y11037D02*
X5686Y11786D01*
X4514Y6914D02*
X4878D01*
X5945Y11786D02*
X5954Y11796D01*
X5686Y11786D02*
X5945D01*
X4400Y6800D02*
X4514Y6914D01*
X7490Y23910D02*
X7500Y23900D01*
X7490Y23910D02*
Y24500D01*
X8770Y21783D02*
X8777Y21776D01*
Y21223D02*
Y21776D01*
Y21223D02*
X8800Y21200D01*
X13250Y23450D02*
X13908Y22792D01*
X13950Y20129D02*
X14139D01*
X14503Y20493D01*
Y21052D01*
X14750Y20950D02*
X14839D01*
X14503Y21052D02*
X14716Y21265D01*
X14805D02*
X15090Y21550D01*
X14716Y21265D02*
X14805D01*
X15090Y21550D02*
X18050D01*
X14839Y20950D02*
X14946Y21057D01*
X18557D01*
X14876Y15732D02*
X15100Y15508D01*
Y15350D02*
Y15508D01*
X15850Y13576D02*
Y13850D01*
X15779Y13505D02*
X15850Y13576D01*
X15779Y12875D02*
Y13505D01*
X15588Y13663D02*
X15600Y13650D01*
X16321Y13121D02*
Y14045D01*
X16100Y13436D02*
Y14200D01*
X15957Y13293D02*
X16100Y13436D01*
X16347Y14071D02*
Y14447D01*
X16850Y14950D01*
X16321Y14045D02*
X16347Y14071D01*
X16100Y14200D02*
X16104D01*
X16143Y14161D01*
X16074Y14230D02*
X16143Y14161D01*
X16568Y13943D02*
X16606D01*
X16568Y13124D02*
Y13943D01*
X16950Y13250D02*
X16987D01*
X17637Y13900D01*
X16568Y13124D02*
X16743Y12950D01*
X17103D01*
X17560Y13407D01*
X17637Y13900D02*
X17750D01*
X17560Y13407D02*
X17940D01*
X20250Y11097D01*
X15600Y12750D02*
Y13650D01*
Y12750D02*
X16250Y12100D01*
X15779Y12875D02*
X17261Y11393D01*
X15957Y12949D02*
X16514Y12393D01*
X15957Y12949D02*
Y13293D01*
X17457Y10393D02*
X17954D01*
X16250Y11600D02*
Y12100D01*
Y11600D02*
X17457Y10393D01*
X17954D02*
X20250Y8097D01*
X17700Y14950D02*
X17750Y14900D01*
X16850Y14950D02*
X17700D01*
X16629Y14380D02*
X16642Y14393D01*
X17954D01*
X16514Y12393D02*
X17954D01*
X17261Y11393D02*
X17954D01*
X20250Y7950D02*
Y8097D01*
Y8950D02*
Y9097D01*
X17954Y11393D02*
X20250Y9097D01*
Y9950D02*
Y10097D01*
X17954Y12393D02*
X20250Y10097D01*
Y10950D02*
Y11097D01*
Y11950D02*
Y12097D01*
X17954Y14393D02*
X20250Y12097D01*
X16255Y10245D02*
X16330Y10319D01*
X15562Y9700D02*
X16107Y10245D01*
X16255D01*
X18557Y21057D02*
X19050Y21550D01*
X13250Y23450D02*
Y24750D01*
X13350Y24850D01*
X9303Y12050D02*
X10700D01*
X8093Y10840D02*
X9303Y12050D01*
X8093Y10446D02*
Y10840D01*
X7850Y5750D02*
Y10203D01*
X8093Y10446D01*
X4400Y2800D02*
X4900D01*
X7850Y5750D01*
X3700Y9000D02*
X3900Y8800D01*
X3700Y12200D02*
X3807Y12307D01*
X3700Y9000D02*
Y12200D01*
X3900Y10000D02*
X3986Y9914D01*
X3900Y10997D02*
X4196Y11293D01*
X3900Y10000D02*
Y10997D01*
X5257Y19593D02*
X5784Y19066D01*
Y19034D02*
Y19066D01*
X3857Y19593D02*
X5257D01*
X5833Y19617D02*
Y21052D01*
Y19617D02*
X6100Y19350D01*
X4830Y18773D02*
X5227D01*
X4800Y18803D02*
X4830Y18773D01*
X5150Y21200D02*
X5550Y20800D01*
Y20000D02*
Y20800D01*
X4744Y19800D02*
X5350D01*
X5550Y20000D01*
X4400Y20100D02*
X4444D01*
X4744Y19800D01*
X2850Y21953D02*
X4210Y20593D01*
X4757D02*
X5150Y20200D01*
X4210Y20593D02*
X4757D01*
X1950Y20100D02*
X2650D01*
X4143Y18607D01*
X4604D02*
X4800Y18803D01*
X4143Y18607D02*
X4604D01*
X1950Y21100D02*
X2450D01*
X2550Y21000D01*
Y20900D02*
Y21000D01*
Y20900D02*
X3857Y19593D01*
X3900Y8800D02*
X4400D01*
X4673Y12376D02*
X5989D01*
X4604Y12307D02*
X4673Y12376D01*
X3807Y12307D02*
X4604D01*
X4196Y11293D02*
X4593D01*
X4286Y9914D02*
X4400Y9800D01*
X4593Y11293D02*
X5350Y12050D01*
X3986Y9914D02*
X4286D01*
X1950Y23100D02*
X2070Y22980D01*
X2370D01*
X2850Y22500D01*
Y21953D02*
Y22500D01*
D15*
X18449Y22050D02*
G03*
X17651Y22050I-399J-500D01*
G01*
X19449D02*
G03*
X18651Y22050I-399J-500D01*
G01*
X19390Y21893D02*
G03*
X18710Y21893I-340J-343D01*
G01*
X18390D02*
G03*
X17710Y21893I-340J-343D01*
G01*
X20028Y4105D02*
X20133D01*
X20615Y3622D01*
X13878Y20978D02*
X13900Y21000D01*
X13746Y20978D02*
X13878D01*
X13579Y20811D02*
X13746Y20978D01*
X13579Y20351D02*
Y20811D01*
X15045Y22500D02*
X19450D01*
X13279Y20734D02*
X15045Y22500D01*
X14472Y22150D02*
X14472D01*
X15022Y22700D02*
X19473D01*
X14472Y22150D02*
X15022Y22700D01*
X19450Y22500D02*
X21464Y20486D01*
X19473Y22700D02*
X21622Y20551D01*
X20950Y5500D02*
Y20332D01*
X17931Y5007D02*
X20457D01*
X20950Y5500D01*
X20550Y4850D02*
X21107Y5407D01*
Y20397D01*
X19774Y4850D02*
X20550D01*
X5510Y23000D02*
X9491D01*
X9537Y22954D01*
Y21783D02*
Y22954D01*
X5400Y23110D02*
X5510Y23000D01*
X13245Y20213D02*
X13440D01*
X13102Y20355D02*
Y20780D01*
Y20355D02*
X13245Y20213D01*
X13102Y20780D02*
X14472Y22150D01*
X13440Y20213D02*
X13579Y20351D01*
X21622Y3803D02*
Y20551D01*
X20615Y3622D02*
X21441D01*
X21622Y3803D01*
X18449Y22050D02*
X18651D01*
X18390Y21893D02*
X18710D01*
X15129Y22050D02*
X17651D01*
X19390Y21892D02*
X20950Y20332D01*
X19455Y22050D02*
X21107Y20397D01*
X15195Y21893D02*
X17710D01*
X19390Y21893D02*
X19390Y21892D01*
X19449Y22050D02*
X19455D01*
X14670Y21591D02*
X15129Y22050D01*
X14735Y21433D02*
X15195Y21893D01*
X14646Y21433D02*
X14735D01*
X21464Y4541D02*
Y20486D01*
X21028Y4105D02*
X21464Y4541D01*
X13279Y20572D02*
Y20734D01*
X14294Y21081D02*
X14646Y21433D01*
X13288Y20449D02*
X13342D01*
X14136Y20889D02*
Y21146D01*
X14280Y20699D02*
Y20791D01*
X13903Y20447D02*
Y20470D01*
X14004Y20571D02*
Y20757D01*
X13903Y20470D02*
X14004Y20571D01*
X14241Y20659D02*
X14280Y20699D01*
X14004Y20757D02*
X14136Y20889D01*
X13260Y20478D02*
X13288Y20449D01*
X13260Y20478D02*
Y20553D01*
X14294Y20805D02*
Y21081D01*
X14136Y21146D02*
X14581Y21591D01*
X14280Y20791D02*
X14294Y20805D01*
X13260Y20553D02*
X13279Y20572D01*
X14581Y21591D02*
X14670D01*
X19028Y4105D02*
X19774Y4850D01*
X17028Y4105D02*
X17931Y5007D01*
D53*
X8800Y21150D02*
Y21200D01*
X8950Y21000D02*
X9650D01*
X8800Y21150D02*
X8950Y21000D01*
X13253Y21621D02*
X15332Y23700D01*
X13092Y21621D02*
X13253D01*
X15332Y23700D02*
X16400D01*
X13034Y21563D02*
X13092Y21621D01*
X9650Y21000D02*
X10350Y20300D01*
Y20150D02*
Y20300D01*
D54*
X14103Y6803D02*
Y13646D01*
X13200Y5900D02*
X14103Y6803D01*
X5016Y22609D02*
X5024Y22600D01*
X8450D02*
X8514Y22536D01*
X5024Y22600D02*
X8450D01*
X8514Y21783D02*
Y22536D01*
X14807Y19893D02*
X16151Y18549D01*
X14807Y19893D02*
Y20098D01*
X16002Y19939D02*
X16002D01*
X16750Y19191D01*
X15572Y19847D02*
X15575Y19850D01*
X15600D01*
X15572Y19847D02*
X15682Y19737D01*
X15155Y19845D02*
Y20070D01*
X14500Y6000D02*
Y13481D01*
X16550Y15531D01*
Y18841D01*
X14700Y5450D02*
Y13400D01*
X16151Y15694D02*
Y18549D01*
X16350Y15612D02*
Y18650D01*
X16750Y15450D02*
Y19191D01*
X14700Y13400D02*
X16750Y15450D01*
X14103Y13646D02*
X16151Y15694D01*
X14301Y13563D02*
X16350Y15612D01*
X14301Y6401D02*
Y13563D01*
X15155Y19845D02*
X15655Y19345D01*
X15655D01*
X16350Y18650D01*
X13750Y5850D02*
X14301Y6401D01*
X14010Y5510D02*
X14500Y6000D01*
X15682Y19709D02*
X16550Y18841D01*
X15682Y19709D02*
Y19737D01*
X14010Y5486D02*
Y5510D01*
D56*
X9199Y17819D02*
X10399Y19019D01*
Y19103D01*
X10350Y20150D02*
X11200Y21000D01*
X10350Y19713D02*
X10437Y19800D01*
X10350Y19152D02*
X10399Y19103D01*
X10350Y19152D02*
Y19713D01*
X15100Y15350D02*
X15300Y15550D01*
X11200Y21000D02*
Y21250D01*
X12450Y20350D02*
X13592Y19208D01*
X12450Y20350D02*
Y20850D01*
X12447Y21097D02*
X12811Y21461D01*
X12447Y20853D02*
Y21097D01*
Y20853D02*
X12450Y20850D01*
X12978Y21563D02*
X13034D01*
X12811Y21461D02*
X12876D01*
X12978Y21563D01*
X13592Y19208D02*
X13658D01*
X12951Y13250D02*
X13360Y13659D01*
X10350Y19800D02*
Y20150D01*
X14906Y18109D02*
X14990D01*
X15091Y18210D01*
X14858Y18158D02*
X15300Y17715D01*
X15091Y18210D02*
X15153D01*
X14412Y18507D02*
X14804Y18898D01*
X14990D01*
X13500Y12500D02*
Y13000D01*
Y8117D02*
Y12500D01*
X12597Y7214D02*
X13500Y8117D01*
X10479Y13450D02*
X10528Y13401D01*
X10431Y13499D02*
X10479Y13450D01*
X13458Y13442D02*
X13578Y13322D01*
Y13078D02*
Y13322D01*
X13500Y13000D02*
X13578Y13078D01*
X13458Y13442D02*
Y13562D01*
X13409Y13610D02*
X13458Y13562D01*
X13409Y13694D02*
X13458Y13742D01*
X13409Y13610D02*
Y13694D01*
X10542Y13401D02*
X10637Y13306D01*
X10750D01*
X10806Y13250D02*
X12951D01*
X10750Y13306D02*
X10806Y13250D01*
X10528Y13401D02*
X10542D01*
X14412Y18507D02*
X14617Y18302D01*
X13856Y19063D02*
X14412Y18507D01*
X13816Y19063D02*
X13856D01*
X13720Y19159D02*
X13816Y19063D01*
X13706Y19159D02*
X13720D01*
X14617Y18302D02*
X14699D01*
X14844Y18158D01*
X14858D01*
X9892Y13992D02*
X10386Y13499D01*
X9336Y14549D02*
X9892Y13992D01*
X9400Y13550D02*
X9842Y13992D01*
X9892D01*
X8842Y15042D02*
X9336Y14549D01*
X8950Y14100D02*
X9336Y14486D01*
Y14549D01*
X8835Y17315D02*
X9150Y17629D01*
X8300Y16779D02*
X8835Y17315D01*
X8443Y17750D02*
X8835Y17357D01*
Y17315D02*
Y17357D01*
X9199Y17678D02*
Y17819D01*
X9150Y17629D02*
X9199Y17678D01*
X15300Y15550D02*
Y17715D01*
X15079Y15350D02*
X15100D01*
X14708Y14992D02*
X14721D01*
X15079Y15350D01*
X13458Y13742D02*
X14708Y14992D01*
X10386Y13499D02*
X10431D01*
X8300Y15585D02*
X8842Y15042D01*
X8300Y15585D02*
Y16779D01*
D57*
X14782Y20600D02*
X15032Y20850D01*
X16806D01*
X17106Y20550D01*
X14750Y20600D02*
X14782D01*
X17106Y20550D02*
X18050D01*
D60*
X7878Y26476D02*
D03*
X5910D02*
D03*
D61*
X8272Y27539D02*
D03*
X5516D02*
D03*
D62*
X9000Y22600D02*
D03*
X2950Y26000D02*
D03*
X12050Y16150D02*
D03*
X12100Y17750D02*
D03*
X16700Y26750D02*
D03*
X4650Y26000D02*
D03*
X20700Y23500D02*
D03*
X11850Y25850D02*
D03*
X13200D02*
D03*
X10550Y24500D02*
D03*
X12950Y22300D02*
D03*
X8350Y20450D02*
D03*
X900Y3750D02*
D03*
X950Y13550D02*
D03*
X14700Y2550D02*
D03*
X11850D02*
D03*
X9100Y2500D02*
D03*
X6350D02*
D03*
X18750Y16200D02*
D03*
X13400Y16700D02*
D03*
X10850Y15150D02*
D03*
X12150Y14650D02*
D03*
X10750Y16650D02*
D03*
X13400Y15150D02*
D03*
D63*
X5400Y23110D02*
D03*
X17750Y5900D02*
D03*
X20250Y5950D02*
D03*
X4400Y13800D02*
D03*
X19050Y17550D02*
D03*
X4400Y24100D02*
D03*
X1950D02*
D03*
D64*
X5400Y24110D02*
D03*
X17750Y12900D02*
D03*
Y11900D02*
D03*
Y9900D02*
D03*
Y8900D02*
D03*
Y7900D02*
D03*
Y6900D02*
D03*
Y10900D02*
D03*
Y13900D02*
D03*
Y14900D02*
D03*
X20250Y12950D02*
D03*
Y11950D02*
D03*
Y9950D02*
D03*
Y8950D02*
D03*
Y7950D02*
D03*
Y6950D02*
D03*
Y10950D02*
D03*
Y13950D02*
D03*
Y14950D02*
D03*
X4400Y800D02*
D03*
Y1800D02*
D03*
Y6800D02*
D03*
Y7800D02*
D03*
Y9800D02*
D03*
Y10800D02*
D03*
Y11800D02*
D03*
Y12800D02*
D03*
Y8800D02*
D03*
Y5800D02*
D03*
Y4800D02*
D03*
Y2800D02*
D03*
Y3800D02*
D03*
X18050Y21550D02*
D03*
X19050D02*
D03*
X18050Y20550D02*
D03*
X19050D02*
D03*
X19050Y19550D02*
D03*
X18050D02*
D03*
X19050Y18550D02*
D03*
X18050D02*
D03*
Y17550D02*
D03*
X4400Y15100D02*
D03*
Y16100D02*
D03*
Y19100D02*
D03*
Y23100D02*
D03*
Y22100D02*
D03*
Y21100D02*
D03*
Y20100D02*
D03*
Y18100D02*
D03*
Y17100D02*
D03*
X1950Y15100D02*
D03*
Y16100D02*
D03*
Y19100D02*
D03*
Y23100D02*
D03*
Y22100D02*
D03*
Y21100D02*
D03*
Y20100D02*
D03*
Y18100D02*
D03*
Y17100D02*
D03*
X15350Y24850D02*
D03*
X19350D02*
D03*
X18350D02*
D03*
X17350D02*
D03*
X16350D02*
D03*
X14350D02*
D03*
X13350D02*
D03*
X17850Y26100D02*
D03*
X16850D02*
D03*
X15850D02*
D03*
X21028Y3105D02*
D03*
X20028D02*
D03*
Y4105D02*
D03*
X19028Y3105D02*
D03*
Y4105D02*
D03*
X18028Y4105D02*
D03*
Y3105D02*
D03*
X17028Y4105D02*
D03*
Y3105D02*
D03*
X7600Y10650D02*
D03*
X5600D02*
D03*
X9600D02*
D03*
X11600D02*
D03*
X10600D02*
D03*
X6600D02*
D03*
X8600D02*
D03*
D65*
X20350Y24850D02*
D03*
X18850Y26100D02*
D03*
X21028Y4105D02*
D03*
X12600Y10650D02*
D03*
D66*
X1700Y1600D02*
D03*
X20750D02*
D03*
X20800Y26550D02*
D03*
X1550D02*
D03*
D67*
X6568Y25211D02*
D03*
X13286Y27321D02*
D03*
X13200Y5900D02*
D03*
X8700Y13650D02*
D03*
X13900Y21000D02*
D03*
X7490Y23910D02*
D03*
X5900Y25300D02*
D03*
X9202Y26592D02*
D03*
X11105Y26806D02*
D03*
X14750Y20600D02*
D03*
X14807Y20098D02*
D03*
X13908Y22792D02*
D03*
X13750Y5850D02*
D03*
X16900Y20050D02*
D03*
X16250Y20400D02*
D03*
X16400Y23700D02*
D03*
X15153Y18210D02*
D03*
X14990Y18898D02*
D03*
X13342Y20449D02*
D03*
X16002Y19939D02*
D03*
X15600Y19850D02*
D03*
X14241Y20659D02*
D03*
X13903Y20447D02*
D03*
X13950Y20129D02*
D03*
X14750Y20950D02*
D03*
X15155Y20070D02*
D03*
X14876Y15732D02*
D03*
X15588Y13663D02*
D03*
X15850Y13850D02*
D03*
X16100Y14200D02*
D03*
X16568Y13943D02*
D03*
X16950Y13250D02*
D03*
X16629Y14380D02*
D03*
X16321Y13121D02*
D03*
X13500Y12500D02*
D03*
X16330Y10319D02*
D03*
X15562Y9700D02*
D03*
X12884Y11818D02*
D03*
X9550Y19000D02*
D03*
X14700Y5450D02*
D03*
X14010Y5486D02*
D03*
X11300Y11950D02*
D03*
X10700Y12050D02*
D03*
X10366Y12446D02*
D03*
X9400Y13550D02*
D03*
X8950Y14100D02*
D03*
X10437Y19800D02*
D03*
X9187Y19720D02*
D03*
X8443Y17750D02*
D03*
X9010Y19997D02*
D03*
X9422Y19320D02*
D03*
X5954Y11796D02*
D03*
X6100Y19350D02*
D03*
X5784Y19034D02*
D03*
X5227Y18773D02*
D03*
X5833Y21052D02*
D03*
X5150Y21200D02*
D03*
Y20200D02*
D03*
X5350Y12050D02*
D03*
X5989Y12376D02*
D03*
D68*
X11200Y21250D02*
D03*
X13034Y21563D02*
D03*
X12597Y7214D02*
D03*
X5225Y16228D02*
D03*
D69*
X6211Y24500D02*
D03*
X6467D02*
D03*
X6722D02*
D03*
X6978D02*
D03*
X7234D02*
D03*
X7490D02*
D03*
X7746D02*
D03*
X8002D02*
D03*
X8258D02*
D03*
X8514D02*
D03*
X8770D02*
D03*
X9026D02*
D03*
X9281D02*
D03*
X9537D02*
D03*
X6211Y21783D02*
D03*
X6467D02*
D03*
X6722D02*
D03*
X6978D02*
D03*
X7234D02*
D03*
X7490D02*
D03*
X7746D02*
D03*
X8002D02*
D03*
X8258D02*
D03*
X8514D02*
D03*
X9537D02*
D03*
X9281D02*
D03*
X9026D02*
D03*
X8770D02*
D03*
D70*
X13458Y13742D02*
D03*
X12942Y14258D02*
D03*
X14192Y15508D02*
D03*
X14708Y14992D02*
D03*
X10865Y18456D02*
D03*
X10350Y18971D02*
D03*
X9665Y17114D02*
D03*
X9150Y17629D02*
D03*
D71*
X14342Y17642D02*
D03*
X14858Y18158D02*
D03*
X13142Y18692D02*
D03*
X13658Y19208D02*
D03*
X9358Y15558D02*
D03*
X8842Y15042D02*
D03*
X10994Y13965D02*
D03*
X10479Y13450D02*
D03*
D72*
X5225Y24110D02*
X5400D01*
X5021Y23907D02*
X5225Y24110D01*
X4957Y23907D02*
X5021D01*
X4900Y23850D02*
X4957Y23907D01*
X4900Y22700D02*
Y23850D01*
Y22700D02*
X4991Y22609D01*
X5016D01*
M02*
